<svg xmlns="http://www.w3.org/2000/svg" viewBox="0 0 182.63 182.63"><defs><style>.cls-1,.cls-4{fill:#c93;}.cls-2{fill:#fff;}.cls-3{fill:#020000;}.cls-4{font-size:9.77px;font-family:BebasNeueBold, BebasNeueBold;letter-spacing:0.2em;}.cls-5{letter-spacing:0.2em;}.cls-6{letter-spacing:0.2em;}.cls-7,.cls-8{fill:none;stroke:#c93;stroke-linecap:round;stroke-linejoin:round;}.cls-7{stroke-width:2px;}.cls-8{stroke-width:0.5px;}.cls-9{fill:#8c5c10;}</style></defs><title>logoFichier 1</title><g id="Calque_2" data-name="Calque 2"><g id="OBJECTS"><path class="cls-1" d="M90.81,39.55c.07,1.88.13,3.75.18,5.62,0,.93.08,1.87.05,2.8a26.6,26.6,0,0,1-.23,2.81h0A26.58,26.58,0,0,1,90.54,48c0-.93,0-1.87,0-2.8,0-1.87.1-3.74.17-5.62Z"/><path class="cls-1" d="M104.28,42.1q-1,2.61-2.1,5.2c-.36.87-.68,1.75-1.09,2.59a27,27,0,0,1-1.34,2.48l0,0a26.11,26.11,0,0,1,.93-2.66c.35-.87.78-1.7,1.18-2.55.8-1.69,1.6-3.38,2.43-5.06Z"/><path class="cls-1" d="M115.58,49.86q-2,2-4,3.91c-.67.65-1.33,1.32-2,1.93a27.05,27.05,0,0,1-2.23,1.73l0,0a26.74,26.74,0,0,1,1.92-2.06c.67-.65,1.4-1.24,2.11-1.85q2.11-1.84,4.26-3.65Z"/><path class="cls-1" d="M122.78,61.53q-2.62,1-5.27,1.95c-.88.32-1.75.67-2.64.94a28.11,28.11,0,0,1-2.74.68v0a26.89,26.89,0,0,1,2.59-1.11c.87-.32,1.78-.57,2.67-.84q2.69-.83,5.38-1.62Z"/><path class="cls-1" d="M124.65,75.1c-1.87-.1-3.74-.21-5.61-.34-.93-.06-1.87-.09-2.8-.21a26.75,26.75,0,0,1-2.77-.48v0c1,0,1.88,0,2.82,0s1.86.19,2.79.3q2.79.33,5.58.7Z"/><path class="cls-1" d="M120.88,88.29q-2.5-1.28-5-2.58c-.83-.43-1.67-.84-2.48-1.32s-1.59-1-2.34-1.57l0,0A26.83,26.83,0,0,1,113.66,84c.83.43,1.62.93,2.42,1.41,1.62,1,3.22,1.91,4.82,2.88Z"/><path class="cls-1" d="M112.11,98.82q-1.78-2.17-3.52-4.37c-.59-.73-1.2-1.45-1.74-2.21s-1.06-1.54-1.51-2.38l0,0a26.6,26.6,0,0,1,1.87,2.11c.59.72,1.11,1.5,1.65,2.27,1.1,1.52,2.18,3,3.25,4.58Z"/><path class="cls-1" d="M99.83,104.91c-.5-1.8-1-3.61-1.46-5.42-.24-.9-.51-1.8-.69-2.72A25.89,25.89,0,0,1,97.26,94l0,0a26.15,26.15,0,0,1,.87,2.68c.24.91.4,1.83.59,2.75q.58,2.75,1.12,5.5Z"/><path class="cls-1" d="M86.14,105.53q.4-2.77.85-5.55c.15-.93.26-1.86.47-2.77a26.68,26.68,0,0,1,.73-2.72h0A26,26,0,0,1,88,97.3c-.14.93-.37,1.84-.56,2.75q-.58,2.74-1.2,5.49Z"/><path class="cls-1" d="M73.36,100.56c1-1.58,2-3.16,3-4.73.51-.79,1-1.59,1.55-2.34A24.56,24.56,0,0,1,79.7,91.3l0,0a26.77,26.77,0,0,1-1.4,2.45c-.5.79-1.07,1.53-1.63,2.29q-1.63,2.28-3.31,4.53Z"/><path class="cls-1" d="M63.68,90.86c1.55-1,3.11-2.08,4.68-3.11.78-.51,1.54-1,2.35-1.52s1.64-.92,2.51-1.29l0,0A25.8,25.8,0,0,1,71,86.65c-.78.53-1.6,1-2.41,1.44q-2.43,1.43-4.87,2.81Z"/><path class="cls-1" d="M58.74,78.07c1.84-.33,3.69-.65,5.53-.95.93-.16,1.84-.34,2.78-.44a26.17,26.17,0,0,1,2.81-.16v0a26,26,0,0,1-2.75.62c-.92.16-1.85.23-2.78.34q-2.79.32-5.58.6Z"/><path class="cls-1" d="M59.38,64.38q2.73.66,5.45,1.37c.91.23,1.82.43,2.72.71a26.18,26.18,0,0,1,2.63,1v0A25.39,25.39,0,0,1,67.41,67c-.91-.23-1.79-.54-2.69-.82q-2.69-.82-5.35-1.7Z"/><path class="cls-1" d="M65.5,52.12q2.23,1.7,4.44,3.44c.73.58,1.49,1.13,2.19,1.76a26.64,26.64,0,0,1,2,2l0,0a27.23,27.23,0,0,1-2.31-1.62c-.74-.57-1.42-1.21-2.13-1.83Q67.57,54,65.47,52.15Z"/><path class="cls-1" d="M76.06,43.37q1.35,2.46,2.66,4.94c.44.83.91,1.64,1.3,2.49a26.82,26.82,0,0,1,1,2.61l0,0A25.74,25.74,0,0,1,79.57,51c-.45-.82-.81-1.68-1.21-2.53-.79-1.69-1.58-3.39-2.35-5.1Z"/><path class="cls-1" d="M98.52,33.44l-1.15,6.64c-.19,1.1-.36,2.22-.61,3.31s-.53,2.19-.89,3.26h-.05c.08-1.13.27-2.24.45-3.35S96.73,41.1,97,40l1.5-6.57Z"/><path class="cls-1" d="M113.77,39.61,110,45.22c-.63.93-1.23,1.88-1.9,2.78s-1.36,1.79-2.13,2.63l0,0c.53-1,1.15-1.94,1.76-2.89s1.31-1.82,2-2.72l4-5.4Z"/><path class="cls-1" d="M125.23,51.42,119.54,55c-.94.6-1.88,1.22-2.86,1.77s-2,1.09-3,1.55l0,0c.88-.7,1.83-1.31,2.77-1.92s1.93-1.14,2.91-1.7l5.86-3.32Z"/><path class="cls-1" d="M130.94,66.84l-6.66,1c-1.11.17-2.22.36-3.34.47s-2.23.2-3.37.2v0c1.09-.29,2.2-.46,3.31-.65s2.23-.25,3.35-.37l6.71-.67Z"/><path class="cls-1" d="M129.94,83.26l-6.51-1.76c-1.08-.29-2.17-.56-3.24-.92s-2.12-.72-3.16-1.18l0,0c1.11.18,2.2.47,3.29.75s2.14.66,3.21,1l6.4,2.09Z"/><path class="cls-1" d="M122.39,97.88l-5.24-4.24c-.87-.71-1.76-1.4-2.59-2.15s-1.66-1.52-2.42-2.36l0,0c1,.62,1.83,1.32,2.71,2s1.69,1.48,2.53,2.22l5,4.51Z"/><path class="cls-1" d="M109.58,108.2l-3.08-6c-.51-1-1-2-1.51-3s-.9-2.06-1.26-3.13l0,0c.62.95,1.14,1.94,1.66,2.94s1,2,1.42,3l2.77,6.15Z"/><path class="cls-1" d="M93.7,112.47l-.4-6.73c-.07-1.12-.16-2.24-.16-3.36s0-2.25.11-3.38h0c.18,1.12.25,2.24.33,3.36s.06,2.24.07,3.37l0,6.74Z"/><path class="cls-1" d="M77.44,110l2.35-6.32c.4-1,.76-2.11,1.21-3.14s.92-2,1.47-3l0,0c-.28,1.09-.67,2.15-1,3.21s-.86,2.07-1.31,3.1L77.49,110Z"/><path class="cls-1" d="M63.58,101.1l4.7-4.83c.79-.81,1.55-1.63,2.38-2.39s1.66-1.51,2.57-2.19l0,0c-.7.88-1.48,1.69-2.25,2.51s-1.63,1.55-2.45,2.31l-4.94,4.58Z"/><path class="cls-1" d="M54.48,87.39l6.25-2.51c1-.42,2.08-.87,3.14-1.23s2.13-.7,3.24-1v0c-1,.52-2,1-3.07,1.38s-2.12.76-3.18,1.13L54.5,87.44Z"/><path class="cls-1" d="M51.69,71.18l6.74.22c1.12,0,2.24,0,3.36.15s2.24.22,3.35.43v0c-1.13.07-2.26,0-3.38,0s-2.24-.15-3.36-.25l-6.71-.57Z"/><path class="cls-1" d="M55.69,55.23l6.07,2.92c1,.49,2,1,3,1.49s2,1.1,2.89,1.74l0,0c-1.06-.39-2.07-.87-3.09-1.34s-2-1.05-3-1.59l-5.91-3.23Z"/><path class="cls-1" d="M65.79,42.24l4.37,5.13c.73.85,1.48,1.69,2.16,2.58s1.35,1.8,1.94,2.76l0,0c-.82-.79-1.55-1.64-2.29-2.48s-1.4-1.76-2.08-2.65l-4.1-5.35Z"/><path class="cls-1" d="M80.27,34.44,82.2,40.9c.32,1.07.67,2.14.93,3.23s.51,2.19.66,3.31l-.05,0c-.43-1.05-.76-2.12-1.1-3.2s-.56-2.17-.83-3.26l-1.59-6.55Z"/><path class="cls-2" d="M76.28,68.69c0-.1,0-.2,0-.3s0,0,0,0A.8.8,0,0,0,76.28,68.69Z"/><path class="cls-2" d="M97.12,66.61l.13-.12.17-.24Q97.27,66.41,97.12,66.61Z"/><path class="cls-2" d="M96.33,67.82l0,0,0-.09Z"/><polygon class="cls-2" points="112.8 63.32 112.8 63.32 112.8 63.32 112.8 63.32"/><path class="cls-2" d="M82.76,67.91a1,1,0,0,0,.51,0c.06,0,.18-.11.23-.1a1.08,1.08,0,0,0-.31,0,4.43,4.43,0,0,0-.51.06S82.7,67.89,82.76,67.91Z"/><path class="cls-2" d="M83.11,68.82a1.24,1.24,0,0,0-.43,0c-.26.08-.45.2-.46.47a.27.27,0,0,0,.12.06,1.11,1.11,0,0,0,.84-.07.44.44,0,0,0,.15-.12C83.34,69,83.26,68.84,83.11,68.82Z"/><polygon class="cls-2" points="109.65 60.25 109.66 60.26 109.66 60.26 109.65 60.25"/><path class="cls-2" d="M109.42,60.67a3.76,3.76,0,0,0-.25-.31,0,0,0,0,1,0,0s0,0,0,0A2.52,2.52,0,0,1,109.42,60.67Z"/><path class="cls-2" d="M107.34,91.17h-.12a5.78,5.78,0,0,0,.83.28l.08,0a.05.05,0,0,0,0,0Z"/><path class="cls-2" d="M92,80.78h.22l-.1,0Z"/><path class="cls-2" d="M83,57.52a3.69,3.69,0,0,0-1,0A18.38,18.38,0,0,0,79.8,58a22,22,0,0,0-2.86.88c-.6.25-1.18.51-1.76.8a14.91,14.91,0,0,0-2.28,1.88C71.13,63.39,69,67.12,72.11,69a.36.36,0,0,1,.15.15c.52.21,1,.41,1.57.6s.86.15,1.29.21a2.19,2.19,0,0,1-.5-.69,3.23,3.23,0,0,1,1-4,29.37,29.37,0,0,1,9-4.92q0-.3,0-.57a30,30,0,0,0-3.59,1s0,0,0,0a27.23,27.23,0,0,1,3.58-1.34,3,3,0,0,0-.12-.72,54,54,0,0,0-6.36,2s-.08-.06,0-.08a41.89,41.89,0,0,1,6.15-2.53A1.69,1.69,0,0,0,84,58a26.33,26.33,0,0,0-9,3.22s0,0,0,0A26.16,26.16,0,0,1,83,57.52Z"/><path class="cls-2" d="M83.53,92.53c.27.14.55.28.84.4l.12,0-.85-.4Z"/><path class="cls-2" d="M109.55,90.42l-.28.38a2.54,2.54,0,0,0,1.76,0,3.57,3.57,0,0,0,.78-2.76c-.07-.46-.15-.9-.25-1.32v0l-.71,1.38a12.48,12.48,0,0,1-.8,1.54A7.57,7.57,0,0,1,109.55,90.42Z"/><path class="cls-2" d="M70.18,68.33l0,0,0-.06Z"/><path class="cls-2" d="M114.94,67.66c-3.79,2.74-9.21,3.17-13.71,3.81a80.22,80.22,0,0,1-19.94.31,6.45,6.45,0,0,1-1.16-.14c-1-.12-2-.27-3-.43-4-.23-8.42-.95-11.37-3.78a9.38,9.38,0,0,1-1.25-1.5c-.09,2.47-.36,5,.22,7.36.06.24.13.46.2.68q.3.6.66,1.17c.55.86,1.23,1.65,1.75,2.52a24.56,24.56,0,0,0,5.3,3.3.13.13,0,0,1-.1.23,23.11,23.11,0,0,1-5.23-2.32C70.18,85.21,73,91.66,79.82,94.71a28.47,28.47,0,0,0,12.93,2.21c3.74-.18,7.29-.51,10.41-2.64a18.11,18.11,0,0,1-1.86-1.58c-.32-.32.16-.79.5-.5,4.07,3.6,15.14,6.88,15.35-1.74a14.35,14.35,0,0,0-2.38-8.54c-2-2.93-5.54-5.41-8.78-2.48,0,0-.09,0-.06-.06a4.67,4.67,0,0,1,4.34-1.64.34.34,0,0,1,.13-.35,3.35,3.35,0,0,0,.52-.54,11.69,11.69,0,0,1-2.18.37s0,0,0,0a19.92,19.92,0,0,0,2.56-1,1.84,1.84,0,0,0,.09-1.38l0-.06a20.3,20.3,0,0,1-4.68,1.16s-.06-.09,0-.1a18.21,18.21,0,0,0,4.42-1.58,4.21,4.21,0,0,1-.34-.63,4.48,4.48,0,0,1-.16-.52,25.37,25.37,0,0,1-6.37,1.28s0,0,0,0a21.1,21.1,0,0,0,6.33-2,1.52,1.52,0,0,1,.22-.67,2.69,2.69,0,0,1,.2-.27,27.1,27.1,0,0,1-10.25,1.81s0,0,0,0a36.15,36.15,0,0,0,14.76-5c1.3-1.37,2.55-2.63,2.26-4.79a6.26,6.26,0,0,0-.32-.75A5.85,5.85,0,0,1,114.94,67.66ZM71,79.12A5.63,5.63,0,0,1,68.84,78a6.24,6.24,0,0,1-1.44-2,7.26,7.26,0,0,1-.91-1.72,10.56,10.56,0,0,1-.82-3c0-.19-.1-.37-.14-.56a6.32,6.32,0,0,1-.15-1,2.06,2.06,0,0,1,0-.82c.16-.77.64-.55,1.11-.1a5,5,0,0,1,2.09,1.56,3.93,3.93,0,0,1,.72.75,17.46,17.46,0,0,0,1.89,1.08,7.06,7.06,0,0,1,3.17,2.34,7.82,7.82,0,0,1,.59,1.23,12.18,12.18,0,0,1,2.18.31s0,0,0,0a4.85,4.85,0,0,1-1.91.35l.17.41c1.19.2,2.37.36,3.61.47.07,0,.1.12,0,.13a16,16,0,0,1-3.26.14.71.71,0,0,0,.08.15,29.83,29.83,0,0,0,4.71.87c.07,0,.07.1,0,.11a22,22,0,0,1-4-.09,2.16,2.16,0,0,0,.91.41c1.15.2,2.27.46,3.4.73a30.26,30.26,0,0,1,4.15,1,.09.09,0,0,1,0,.17c-.79,0-1.61,0-2.43,0a40.54,40.54,0,0,1-4.39-.26l-.27,0A13.69,13.69,0,0,1,71,79.12ZM94.94,94.93a14.43,14.43,0,0,1-6.27.7c-.41,0-.81-.06-1.2-.1a14.24,14.24,0,0,1-4.84-1.32A25.22,25.22,0,0,1,71.7,84.46s0-.08.07,0c.73.8,1.49,1.59,2.27,2.36l1.18.87a18.34,18.34,0,0,1,3,1.55l.39.21a67.66,67.66,0,0,0,8.3,2.71.06.06,0,0,1,0,.11c-.59,0-1.19-.06-1.79-.13.78.36,1.54.74,2.31,1.11a48.72,48.72,0,0,1,5.35.83s0,.11,0,.1c-1.29-.07-2.57-.16-3.85-.24a16.25,16.25,0,0,0,3.16,1c.93,0,1.86-.08,2.83-.14A.07.07,0,0,1,94.94,94.93Zm7.2-8.28c1.14-.19,2.28-.42,3.4-.7a3.72,3.72,0,0,0-.8-.25l-.19,0c-3.12.24-6.26.33-9.37.27a0,0,0,0,1,0,0q5.34-.48,10.66-1.13l.31-.06c.89-.19,2.17-.84,3.1-.58s.83,1.06.59,1.9a5.46,5.46,0,0,1-1.14,3.58.33.33,0,0,1-.55-.15,4.55,4.55,0,0,0-1-2.25,10,10,0,0,1-2.55.36c-.06,0-.08-.09,0-.1.75-.2,1.49-.41,2.23-.65a6.66,6.66,0,0,0-.66-.53,19,19,0,0,1-4,.41S102.11,86.65,102.14,86.65Zm12.39-.44a19.32,19.32,0,0,1,.8,2.17c0-1.15-.15-2.32-.22-3.47a0,0,0,0,1,0,0c1.08,2.32,2.2,5.71.59,8.11s-4,2.67-6.63,2.41c-.14,0-.15-.23,0-.22a6.12,6.12,0,0,0,4-.87l0,0c2.38-1.91,1.93-5.47,1.4-8.08C114.49,86.19,114.52,86.19,114.53,86.21Zm-5.48-6.91a3.8,3.8,0,0,1,3.24.71,8.2,8.2,0,0,1,2,3.42c0,.07-.08.1-.12,0-1.18-1.66-2.75-4.22-5.09-4.13C109,79.35,109,79.31,109.05,79.3ZM107.45,82a2.48,2.48,0,0,1,2.66.34,3.9,3.9,0,0,1,2.4,2.62c.52,1.78,1.06,4.44,0,6.13a2,2,0,0,1-.6.82,3.35,3.35,0,0,1-1.69.68l-.11,0a8,8,0,0,0,2.42-.35s0,0,0,0a5,5,0,0,1-3.56.91,4.39,4.39,0,0,0,2.42.16s.06.06,0,.07a5.84,5.84,0,0,1-5.66-1.54,7.45,7.45,0,0,1-1.35-1,.49.49,0,0,1,.1-.76c.64-.38,1.28-.77,1.91-1.17a.47.47,0,0,1,.56.07,6.64,6.64,0,0,0,1.56,1.38c1.16-1.64,2.41-4.29,1.67-6.15a5.66,5.66,0,0,0-1.06-1.07l-.8-.22h0c-9.07,2.14-19.28,2.73-28.4.6a0,0,0,0,1,0-.06,128.75,128.75,0,0,0,13.75.32A99.18,99.18,0,0,0,107.45,82Zm-6.22-3.39s0,.06,0,.07a15.53,15.53,0,0,1-4.41-.1l.79.32a27.49,27.49,0,0,0,3.39.78h.08c.64.1,1.31.2,2,.28a0,0,0,0,1,0,.07,10.4,10.4,0,0,1-1.93.24l-1.1.2a.35.35,0,0,1-.21,0h-.08a38.24,38.24,0,0,1-9.26.28,2.24,2.24,0,0,1-.63,0,2,2,0,0,1-.53-.07h0l-.11,0s0,0,0,0l.09,0h.06l.22-.05a.11.11,0,0,1,.06,0h0a5.17,5.17,0,0,0,1.66-.56,4.67,4.67,0,0,0,.43-.3,2.22,2.22,0,0,0,.29-.6,3.11,3.11,0,0,0-1.38-3.06A7,7,0,0,0,87.14,75a.09.09,0,0,1,0-.18h.14l-.15,0s0,0,0,0h0a0,0,0,0,1,0,0c.41,0,.82,0,1.24,0a14,14,0,0,1,2.67,0,4.35,4.35,0,0,1,1.28.26,2.59,2.59,0,0,1,1.47,1.52c1.71.42,3.42.79,5.15,1.1,0,0,0,.08,0,.07A38.89,38.89,0,0,1,94,77.17s0,0,0,0l0,0A27.49,27.49,0,0,0,101.23,78.63Z"/><path class="cls-2" d="M92.88,76.31l.07,0-.06-.06S92.89,76.3,92.88,76.31Z"/><path class="cls-2" d="M109,60.16s0,0,0,.05v0Z"/><path class="cls-2" d="M106.08,61l.32.06a2,2,0,0,0,.34,0,.21.21,0,0,0,.15-.35.38.38,0,0,0-.27-.14,2,2,0,0,0-.48.1.6.6,0,0,0-.16.08C105.91,60.9,105.94,61,106.08,61Z"/><path class="cls-2" d="M97.32,61.51l.05,0,0-.05A.23.23,0,0,1,97.32,61.51Z"/><path class="cls-2" d="M104,61.19c-.29.1-.6.27-.39.43a1,1,0,0,0,.9.14,1.12,1.12,0,0,0,.25-.11l0-.36a1.06,1.06,0,0,0-.39-.09C104.31,61.2,104.16,61.18,104,61.19Z"/><path class="cls-2" d="M111.35,57.19c-5.34-2.59-11.64-3.32-17.5-3.81a60.22,60.22,0,0,0-18.51.89c-3.19.73-7.82,2.35-10.07,5.27a13.05,13.05,0,0,0-.93,2.35,15.5,15.5,0,0,1,.23,2.55c.05.1.11.2.17.3A10.06,10.06,0,0,0,66,66.21c-.78-4,3.12-7.28,6.78-8.36a.12.12,0,0,1,.09.21c-3.22,1.87-7.88,4.59-5.84,9.06.21.15.41.3.63.44a3.31,3.31,0,0,1,.28-2.75,11.57,11.57,0,0,1,5.38-5.28c.49-.34,1-.65,1.53-.94a13.5,13.5,0,0,1,5.56-2.05l1.41-.14L83,56.28a47.48,47.48,0,0,1,12.9-.45,8.47,8.47,0,0,1,1.69.41,17.9,17.9,0,0,1,7.51,2.22c.1,0,0,.23-.08.19a20.14,20.14,0,0,0-5.47-1.33,3.66,3.66,0,0,1,1,1.33,15.6,15.6,0,0,1,2.63.8c.08,0,0,.13,0,.11-.82-.17-1.63-.3-2.44-.4a2.84,2.84,0,0,1,0,1.09,10.11,10.11,0,0,1,1.57.48.07.07,0,0,1,0,.14c-.55-.08-1.09-.13-1.63-.17q-.06.19-.15.42c-3.33,8.06-14.39,2.51-20.11,6.42a9.24,9.24,0,0,0-.61.79,1.48,1.48,0,0,0,.75,2,7.47,7.47,0,0,0,2.77.75c.42,0,.85-.08,1.28-.1,1.94-1.52,4.62-.82,6.92-.85a4.82,4.82,0,0,0,3.77-1.42c.81-1,1.28-2.21,2.26-3.06,2.06-1.79,4.8-2,7.4-2.32,1.12-.12,3.22-.11,3.83-1.31s-.12-2.07-1-2.82a10.36,10.36,0,0,0-1.69-.94s0-.06,0-.05a5.48,5.48,0,0,1,.73.22s0,0,0,0l.11.06a7.16,7.16,0,0,1,2.1,1.26,13.26,13.26,0,0,1,4.17,2.85,5.66,5.66,0,0,1,1,1.77,1,1,0,0,1,.1.29,5.09,5.09,0,0,1,.21,1.78c1.78-2.61-2.19-5.89-4.33-7a27.06,27.06,0,0,0-7.46-2.82s0,0,0,0c4.23.63,8.92,2.15,11.81,5.5a4.39,4.39,0,0,1,1.07,3.33,4.38,4.38,0,0,0,.37-4.5A15.51,15.51,0,0,0,111.35,57.19ZM82.55,67.65l.18-.05h0a1.52,1.52,0,0,1,.42-.06c.14,0,.39,0,.5.1.27.27-.34.46-.51.49s-.75,0-.7-.28l0-.07A.08.08,0,0,1,82.55,67.65ZM82,69.36a.52.52,0,0,1,.1-.54.79.79,0,0,1,.23-.14.89.89,0,0,1,.67-.2c.25,0,.58.11.67.39a.49.49,0,0,1-.19.58C83.07,69.71,82.27,69.83,82,69.36Zm2.39.81c-.22,0-1.1.08-1-.36h0v0s0-.06,0-.09h0a.66.66,0,0,1,.42-.27,1.06,1.06,0,0,1,.66,0C84.94,69.64,84.78,70.09,84.37,70.17Zm1.29-1.09c-.31.17-1.55.22-1.54-.36v0s0,0,0,0c-.13-.69.89-.82,1.36-.72.25,0,.57.18.61.47A.66.66,0,0,1,85.66,69.08Zm20-8.35a.71.71,0,0,1,.55-.3.1.1,0,0,1,.06,0,.65.65,0,0,1,.83.42c.1.41-.33.51-.64.47a1.64,1.64,0,0,1-.7-.17A.3.3,0,0,1,105.7,60.73Zm-.06,1.19a.47.47,0,0,1,.23-.25l0,0c.31-.11,1.24-.28,1.29.24s-.44.72-.83.72S105.46,62.39,105.64,61.92Zm-.74-.05A1.34,1.34,0,0,1,104,62c-.21,0-.52-.13-.61-.36a.55.55,0,0,1,0-.17,0,0,0,0,1,0,0c0-.61.91-.61,1.34-.51a.63.63,0,0,1,.51.4C105.25,61.55,105.07,61.78,104.9,61.87Z"/><path class="cls-2" d="M106.36,62.33a.75.75,0,0,0,.39-.12c.08-.06.3-.31.07-.36a2.51,2.51,0,0,0-.82,0C105.62,62.13,106.08,62.35,106.36,62.33Z"/><path class="cls-2" d="M84.14,69.69a1.14,1.14,0,0,0-.41.07.21.21,0,0,0-.07.11l.18,0a1,1,0,0,0,.25,0h.16a.16.16,0,0,0,.2-.16A.42.42,0,0,0,84.14,69.69Z"/><path class="cls-2" d="M89.25,56.44l.11,0,.12,0Z"/><path class="cls-2" d="M85.19,68.2a3.43,3.43,0,0,0-.39,0,.86.86,0,0,0-.36.21c-.33.41.21.45.39.46a1.93,1.93,0,0,0,.34,0,.87.87,0,0,0,.28,0c.23-.06.32-.23.28-.51A.8.8,0,0,0,85.19,68.2Z"/><path class="cls-3" d="M114.94,58c-5.69-4.23-13.33-5.15-20.22-5.73-7.34-.62-15.16-.44-22.26,1.74a16.25,16.25,0,0,0-7,4.1c-1.33,1.36-2.6,3.54-2,5.42a34.72,34.72,0,0,0-.25,5.07A17.65,17.65,0,0,0,64,75.13a6.84,6.84,0,0,0,1.84,2.6c2.18,7.74,6.4,15.09,14,18.47a29.52,29.52,0,0,0,12.92,2.08c3.81-.11,8.65-.37,11.46-3.29A14.15,14.15,0,0,0,112,97.12a6.24,6.24,0,0,0,6.25-6A15.15,15.15,0,0,0,116,82c.5-1.54,1.06-3.08,1.58-4.62a5,5,0,0,0,1.75-2,10.64,10.64,0,0,0,.58-3.64c0-.53.08-1.06.11-1.59C121,65.53,118.77,60.83,114.94,58Zm2.78,5.37c.29,2.16-1,3.42-2.26,4.79a36.15,36.15,0,0,1-14.76,5s0,0,0,0A27.1,27.1,0,0,0,111,71.4a2.69,2.69,0,0,0-.2.27,1.52,1.52,0,0,0-.22.67,21.1,21.1,0,0,1-6.33,2s0,0,0,0a25.37,25.37,0,0,0,6.37-1.28,4.48,4.48,0,0,0,.16.52,4.21,4.21,0,0,0,.34.63,18.21,18.21,0,0,1-4.42,1.58s0,.11,0,.1a20.3,20.3,0,0,0,4.68-1.16l0,.06a1.84,1.84,0,0,1-.09,1.38,19.92,19.92,0,0,1-2.56,1s0,0,0,0a11.69,11.69,0,0,0,2.18-.37,3.35,3.35,0,0,1-.52.54.34.34,0,0,0-.13.35,4.67,4.67,0,0,0-4.34,1.64s0,.1.06.06c3.24-2.93,6.75-.45,8.78,2.48a14.35,14.35,0,0,1,2.38,8.54c-.21,8.62-11.28,5.34-15.35,1.74-.34-.29-.82.18-.5.5a18.11,18.11,0,0,0,1.86,1.58c-3.12,2.13-6.67,2.46-10.41,2.64a28.47,28.47,0,0,1-12.93-2.21c-6.84-3-9.64-9.5-12.47-15.84a23.11,23.11,0,0,0,5.23,2.32.13.13,0,0,0,.1-.23,24.56,24.56,0,0,1-5.3-3.3c-.52-.87-1.2-1.66-1.75-2.52Q65.27,74.57,65,74c-.07-.22-.14-.44-.2-.68-.58-2.38-.31-4.89-.22-7.36a9.38,9.38,0,0,0,1.25,1.5c3,2.83,7.34,3.55,11.37,3.78,1,.16,2,.31,3,.43a6.45,6.45,0,0,0,1.16.14,80.22,80.22,0,0,0,19.94-.31c4.5-.64,9.92-1.07,13.71-3.81a5.85,5.85,0,0,0,2.46-5.06A6.26,6.26,0,0,1,117.72,63.35Zm-47.54,5v0l0,.06ZM75,61.2A26.33,26.33,0,0,1,84,58a1.69,1.69,0,0,1,.2.25,41.89,41.89,0,0,0-6.15,2.53s0,.09,0,.08a54,54,0,0,1,6.36-2,3,3,0,0,1,.12.72A27.23,27.23,0,0,0,81,60.86s0,0,0,0a30,30,0,0,1,3.59-1q0,.27,0,.57a29.37,29.37,0,0,0-9,4.92,3.23,3.23,0,0,0-1,4,2.19,2.19,0,0,0,.5.69q-.65-.09-1.29-.21c-.53-.19-1-.39-1.57-.6a.36.36,0,0,0-.15-.15c-3.1-1.92-1-5.65.79-7.53a14.91,14.91,0,0,1,2.28-1.88c.58-.29,1.16-.55,1.76-.8A22,22,0,0,1,79.8,58,18.38,18.38,0,0,1,82,57.57a3.69,3.69,0,0,1,1,0,26.16,26.16,0,0,0-8.06,3.64S74.92,61.21,75,61.2Zm1.37,7.19c0,.1,0,.2,0,.3a.8.8,0,0,1,0-.34S76.31,68.38,76.32,68.39Zm20-.57.08-.14,0,.09Zm.79-1.21q.15-.19.3-.36l-.17.24ZM109,60.16l0,0v0S109,60.18,109,60.16Zm.17.2a3.76,3.76,0,0,1,.25.31,2.52,2.52,0,0,0-.21-.25s0,0,0,0A0,0,0,0,0,109.17,60.36Zm.48-.11h0Zm3.15,3.07Zm2.93,2A4.39,4.39,0,0,0,114.66,62c-2.89-3.35-7.58-4.87-11.81-5.5,0,0,0,0,0,0a27.06,27.06,0,0,1,7.46,2.82c2.14,1.16,6.11,4.44,4.33,7a5.09,5.09,0,0,0-.21-1.78,1,1,0,0,0-.1-.29,5.66,5.66,0,0,0-1-1.77,13.26,13.26,0,0,0-4.17-2.85,7.16,7.16,0,0,0-2.1-1.26l-.11-.06s0,0,0,0a5.48,5.48,0,0,0-.73-.22s0,0,0,.05a10.36,10.36,0,0,1,1.69.94c.83.75,1.51,1.73,1,2.82s-2.71,1.19-3.83,1.31c-2.6.27-5.34.53-7.4,2.32-1,.85-1.45,2.08-2.26,3.06a4.82,4.82,0,0,1-3.77,1.42c-2.3,0-5-.67-6.92.85-.43,0-.86.07-1.28.1a7.47,7.47,0,0,1-2.77-.75,1.48,1.48,0,0,1-.75-2,9.24,9.24,0,0,1,.61-.79c5.72-3.91,16.78,1.64,20.11-6.42q.09-.23.15-.42c.54,0,1.08.09,1.63.17a.07.07,0,0,0,0-.14,10.11,10.11,0,0,0-1.57-.48,2.84,2.84,0,0,0,0-1.09c.81.1,1.62.23,2.44.4.08,0,.11-.08,0-.11a15.6,15.6,0,0,0-2.63-.8,3.66,3.66,0,0,0-1-1.33A20.14,20.14,0,0,1,105,58.65c.11,0,.18-.14.08-.19a17.9,17.9,0,0,0-7.51-2.22,8.47,8.47,0,0,0-1.69-.41,47.48,47.48,0,0,0-12.9.45l-1.21.12-1.41.14a13.5,13.5,0,0,0-5.56,2.05c-.52.29-1,.6-1.53.94a11.57,11.57,0,0,0-5.38,5.28,3.31,3.31,0,0,0-.28,2.75c-.22-.14-.42-.29-.63-.44-2-4.47,2.62-7.19,5.84-9.06a.12.12,0,0,0-.09-.21c-3.66,1.08-7.56,4.39-6.78,8.36a10.06,10.06,0,0,1-1.21-1.47c-.06-.1-.12-.2-.17-.3a15.5,15.5,0,0,0-.23-2.55,13.05,13.05,0,0,1,.93-2.35c2.25-2.92,6.88-4.54,10.07-5.27a60.22,60.22,0,0,1,18.51-.89c5.86.49,12.16,1.22,17.5,3.81a15.51,15.51,0,0,1,4.75,3.61A4.38,4.38,0,0,1,115.73,65.3ZM89.25,56.44h.23l-.12,0Zm8.07,5.07a.23.23,0,0,0,.07-.07l0,.05Z"/><path class="cls-3" d="M114.14,83.48s.14,0,.12,0a8.2,8.2,0,0,0-2-3.42,3.8,3.8,0,0,0-3.24-.71s0,0,0,0C111.39,79.26,113,81.82,114.14,83.48Z"/><path class="cls-3" d="M106.8,86.81c-.74.24-1.48.45-2.23.65-.06,0,0,.1,0,.1a10,10,0,0,0,2.55-.36,4.55,4.55,0,0,1,1,2.25.33.33,0,0,0,.55.15A5.46,5.46,0,0,0,109.84,86c.24-.84.23-1.68-.59-1.9s-2.21.39-3.1.58l-.31.06q-5.32.64-10.66,1.13a0,0,0,0,0,0,0c3.11.06,6.25,0,9.37-.27l.19,0a3.72,3.72,0,0,1,.8.25c-1.12.28-2.26.51-3.4.7,0,0,0,0,0,0a19,19,0,0,0,4-.41A6.66,6.66,0,0,1,106.8,86.81Z"/><path class="cls-3" d="M113.09,94.3l0,0a6.12,6.12,0,0,1-4,.87c-.15,0-.14.21,0,.22,2.65.26,5.06-.09,6.63-2.41s.49-5.79-.59-8.11a0,0,0,0,0,0,0c.07,1.15.2,2.32.22,3.47a19.32,19.32,0,0,0-.8-2.17s0,0,0,0C115,88.83,115.47,92.39,113.09,94.3Z"/><path class="cls-3" d="M77.91,80.64l.27,0a40.54,40.54,0,0,0,4.39.26c.82,0,1.64,0,2.43,0a.09.09,0,0,0,0-.17,30.26,30.26,0,0,0-4.15-1c-1.13-.27-2.25-.53-3.4-.73a2.16,2.16,0,0,1-.91-.41,22,22,0,0,0,4,.09c.07,0,.07-.11,0-.11a29.83,29.83,0,0,1-4.71-.87.71.71,0,0,1-.08-.15A16,16,0,0,0,79,77.45c.08,0,0-.13,0-.13-1.24-.11-2.42-.27-3.61-.47l-.17-.41a4.85,4.85,0,0,0,1.91-.35s0,0,0,0a12.18,12.18,0,0,0-2.18-.31,7.82,7.82,0,0,0-.59-1.23,7.06,7.06,0,0,0-3.17-2.34,17.46,17.46,0,0,1-1.89-1.08,3.93,3.93,0,0,0-.72-.75,5,5,0,0,0-2.09-1.56c-.47-.45-1-.67-1.11.1a2.06,2.06,0,0,0,0,.82,6.32,6.32,0,0,0,.15,1c0,.19.1.37.14.56a10.56,10.56,0,0,0,.82,3A7.26,7.26,0,0,0,67.4,76a6.24,6.24,0,0,0,1.44,2A5.63,5.63,0,0,0,71,79.12,13.69,13.69,0,0,0,77.91,80.64Z"/><path class="cls-3" d="M94.92,94.79c-1,.06-1.9.11-2.83.14a16.25,16.25,0,0,1-3.16-1c1.28.08,2.56.17,3.85.24,0,0,.06-.08,0-.1a48.72,48.72,0,0,0-5.35-.83c-.77-.37-1.53-.75-2.31-1.11.6.07,1.2.11,1.79.13a.06.06,0,0,0,0-.11,67.66,67.66,0,0,1-8.3-2.71l-.39-.21a18.34,18.34,0,0,0-3-1.55L74,86.77c-.78-.77-1.54-1.56-2.27-2.36,0,0-.09,0-.07,0a25.22,25.22,0,0,0,10.93,9.75,14.24,14.24,0,0,0,4.84,1.32c.39,0,.79.08,1.2.1a14.43,14.43,0,0,0,6.27-.7A.07.07,0,0,0,94.92,94.79ZM84.37,92.93c-.29-.12-.57-.26-.84-.4l.11,0,.85.4Z"/><path class="cls-3" d="M83.65,68.87c-.09-.28-.42-.36-.67-.39a.89.89,0,0,0-.67.2.79.79,0,0,0-.23.14.52.52,0,0,0-.1.54c.29.47,1.09.35,1.48.09A.49.49,0,0,0,83.65,68.87Zm-.47.41a1.11,1.11,0,0,1-.84.07.27.27,0,0,1-.12-.06c0-.27.2-.39.46-.47a1.24,1.24,0,0,1,.43,0c.15,0,.23.14.22.34A.44.44,0,0,1,83.18,69.28Z"/><path class="cls-3" d="M106.5,61.27c.31,0,.74-.06.64-.47a.65.65,0,0,0-.83-.42.1.1,0,0,0-.06,0,.71.71,0,0,0-.55.3.3.3,0,0,0,.1.37A1.64,1.64,0,0,0,106.5,61.27Zm-.52-.51a.6.6,0,0,1,.16-.08,2,2,0,0,1,.48-.1.38.38,0,0,1,.27.14.21.21,0,0,1-.15.35,2,2,0,0,1-.34,0l-.32-.06C105.94,61,105.91,60.9,106,60.76Z"/><path class="cls-3" d="M84.53,69.43a1.06,1.06,0,0,0-.66,0,.66.66,0,0,0-.42.27h0s0,.06,0,.09v0h0c-.12.44.76.4,1,.36C84.78,70.09,84.94,69.64,84.53,69.43Zm-.28.47h-.16a1,1,0,0,1-.25,0l-.18,0a.21.21,0,0,1,.07-.11,1.14,1.14,0,0,1,.41-.07.42.42,0,0,1,.31,0A.16.16,0,0,1,84.25,69.9Z"/><path class="cls-3" d="M85.46,67.94c-.47-.1-1.49,0-1.36.72,0,0,0,0,0,0v0c0,.58,1.23.53,1.54.36a.66.66,0,0,0,.41-.67C86,68.12,85.71,68,85.46,67.94Zm0,.93a.87.87,0,0,1-.28,0,1.93,1.93,0,0,1-.34,0c-.18,0-.72,0-.39-.46a.86.86,0,0,1,.36-.21,3.43,3.43,0,0,1,.39,0,.8.8,0,0,1,.54.16C85.77,68.64,85.68,68.81,85.45,68.87Z"/><path class="cls-3" d="M83.18,68.12c.17,0,.78-.22.51-.49-.11-.11-.36-.09-.5-.1a1.52,1.52,0,0,0-.42.06h0l-.18.05a.08.08,0,0,0,0,.12l0,.07C82.43,68.15,83,68.15,83.18,68.12Zm0-.34a1.08,1.08,0,0,1,.31,0s-.17.08-.23.1a1,1,0,0,1-.51,0c-.06,0-.08,0-.08-.07A4.43,4.43,0,0,1,83.19,67.78Z"/><path class="cls-3" d="M106.36,62.61c.39,0,.88-.27.83-.72s-1-.35-1.29-.24l0,0a.47.47,0,0,0-.23.25C105.46,62.39,106,62.6,106.36,62.61Zm-.36-.75a2.51,2.51,0,0,1,.82,0c.23,0,0,.3-.07.36a.75.75,0,0,1-.39.12C106.08,62.35,105.62,62.13,106,61.86Z"/><path class="cls-3" d="M94,77.21s0,0,0,0a38.89,38.89,0,0,0,4.93.53s0-.07,0-.07c-1.73-.31-3.44-.68-5.15-1.1A2.59,2.59,0,0,0,92.29,75,4.35,4.35,0,0,0,91,74.75a14,14,0,0,0-2.67,0c-.42,0-.83,0-1.24,0a0,0,0,0,0,0,0h0s0,0,0,0l.15,0h-.14a.09.09,0,0,0,0,.18,7,7,0,0,1,3.55,1.06,3.11,3.11,0,0,1,1.38,3.06,2.22,2.22,0,0,1-.29.6,4.67,4.67,0,0,1-.43.3,5.17,5.17,0,0,1-1.66.56h0a.11.11,0,0,0-.06,0l-.22.05h-.06l-.09,0s0,0,0,0l.11,0h0a2,2,0,0,0,.53.07,2.24,2.24,0,0,0,.63,0,38.24,38.24,0,0,0,9.26-.28h.08a.35.35,0,0,0,.21,0l1.1-.2a10.4,10.4,0,0,0,1.93-.24,0,0,0,0,0,0-.07c-.68-.08-1.35-.18-2-.28H101a27.49,27.49,0,0,1-3.39-.78l-.79-.32a15.53,15.53,0,0,0,4.41.1s0-.06,0-.07A27.49,27.49,0,0,1,94,77.24Zm-2,3.57.12,0,.1,0Zm.89-4.47s0,0,0,0l.06.06Z"/><path class="cls-3" d="M80,83.55a0,0,0,0,0,0,.06c9.12,2.13,19.33,1.54,28.4-.6h0l.8.22a5.66,5.66,0,0,1,1.06,1.07c.74,1.86-.51,4.51-1.67,6.15A6.64,6.64,0,0,1,107,89.07a.47.47,0,0,0-.56-.07c-.63.4-1.27.79-1.91,1.17a.49.49,0,0,0-.1.76,7.45,7.45,0,0,0,1.35,1,5.84,5.84,0,0,0,5.66,1.54s0-.08,0-.07a4.39,4.39,0,0,1-2.42-.16,5,5,0,0,0,3.56-.91s0,0,0,0a8,8,0,0,1-2.42.35l.11,0a3.35,3.35,0,0,0,1.69-.68,2,2,0,0,0,.6-.82c1-1.69.49-4.35,0-6.13a3.9,3.9,0,0,0-2.4-2.62,2.48,2.48,0,0,0-2.66-.34,99.18,99.18,0,0,1-13.72,1.85A128.75,128.75,0,0,1,80,83.55Zm28.07,7.91a5.78,5.78,0,0,1-.83-.28h.12l.77.27a.05.05,0,0,1,0,0Zm3.5-4.72v0c.1.42.18.86.25,1.32a3.57,3.57,0,0,1-.78,2.76,2.54,2.54,0,0,1-1.76,0l.28-.38a7.57,7.57,0,0,0,.49-.76,12.48,12.48,0,0,0,.8-1.54Z"/><path class="cls-3" d="M104.67,61c-.43-.1-1.32-.1-1.34.51a0,0,0,0,0,0,0,.55.55,0,0,0,0,.17c.09.23.4.32.61.36a1.34,1.34,0,0,0,.92-.15c.17-.09.35-.32.28-.52A.63.63,0,0,0,104.67,61Zm.1.7a1.12,1.12,0,0,1-.25.11,1,1,0,0,1-.9-.14c-.21-.16.1-.33.39-.43s.3,0,.39,0a1.06,1.06,0,0,1,.39.09Z"/><path class="cls-2" d="M99.15,33.41c1.43,2.71-1.82,4.33-3.4,5.79a4.31,4.31,0,0,0-1.3,2.94c-.35,4.06,7.16,4.32,4.1,9.07-.12.17.1.36.26.27,3-1.73,1.59-5.08-.61-6.77S95.62,41,97.49,39a21.33,21.33,0,0,0,1.84-2.19,3,3,0,0,0-.07-3.42.07.07,0,0,0-.11.07Z"/><path class="cls-2" d="M92.48,33.33C92,37.58,87.87,39,85,41.45,83.23,43,82.31,45,83.74,47.12c1.93,2.9,7,2.35,5.29,7.12-.74,2.09-1.85,4.42.37,6,.43.3.94-.37.56-.72-2.06-1.82.24-3.8.91-5.53a4.28,4.28,0,0,0,.16-3.2c-.66-2-3.08-2.77-4.68-3.72-4.34-2.56,1.7-6.28,3.59-8.11a8.05,8.05,0,0,0,2.55-5.61Z"/><path class="cls-2" d="M106.25,33.12a7.61,7.61,0,0,1-1,7.91c-1.2,1.6-2.16,3.15-1.82,5.24.41,2.53,1.79,4.78,2,7.35.2,2.27-1.63,4.24-1.61,6.56a.07.07,0,0,0,.14,0c.66-2.31,2.52-4,3-6.37s-1.11-5-1.84-7.22c-1-3,1.17-5.17,2-7.86a7.44,7.44,0,0,0-.86-5.64,0,0,0,0,0,0,0Z"/><text class="cls-4" transform="translate(67.13 158.07)">es<tspan class="cls-5" x="12.67" y="0">t</tspan><tspan class="cls-6" x="17.82" y="0">. 2018</tspan></text><path class="cls-2" d="M39.79,43.24l-3,1.55a2.19,2.19,0,0,0-.47.29,3.85,3.85,0,0,1-5.45.11c-1.72-1.64-1.51-4.09.39-5.87s4.22-1.65,5.62,0a3.57,3.57,0,0,1,.42,4.35l0,0c.77-.44,1.6-.93,2.22-1.31C39.61,42.69,39.7,43,39.79,43.24Zm-3.87-3.05a2.79,2.79,0,0,0-4.19-.27,2.84,2.84,0,0,0,0,4.34,2.93,2.93,0,1,0,4.21-4.07Z"/><path class="cls-2" d="M45.77,35.52c.31.46.59.85.85,1.18l-.82.55-.54-.68,0,0a2.46,2.46,0,0,1-1.09,2A2.06,2.06,0,0,1,41,38l-1.89-2.47c.31-.25.63-.49,1-.73l1.76,2.37c.6.81,1.3,1.14,2.13.55a1.68,1.68,0,0,0,.71-1.58,1.22,1.22,0,0,0-.2-.47L42.64,33c.32-.23.65-.45,1-.67Z"/><path class="cls-2" d="M53.17,32.76l-.39-.55,0,0a2.45,2.45,0,0,1-1.23,1.59,1.66,1.66,0,0,1-2.39-.38c-.66-1.09.13-2.42,2.27-3.57l0-.1c-.21-.39-.71-1-1.86-.38a3.5,3.5,0,0,0-1.24,1.17l-.55-.41a4.39,4.39,0,0,1,1.59-1.47c1.73-1,2.68-.18,3.17.76l.92,1.77a7.49,7.49,0,0,0,.68,1.08Zm-1.43-2.32c-1.1.57-2.23,1.44-1.71,2.34a.94.94,0,0,0,1.37.28,1.57,1.57,0,0,0,.87-1.5,1.18,1.18,0,0,0-.09-.3Z"/><path class="cls-2" d="M54.52,23.36l1.09-.49q1.57,3.59,3.16,7.15l-1,.45Z"/><path class="cls-2" d="M61.54,21.56c.12.3-.06.65-.5.81a.64.64,0,0,1-.87-.31.66.66,0,0,1,.48-.82A.64.64,0,0,1,61.54,21.56Zm1.2,6.83q-.95-2.49-1.9-5l1.09-.4c.6,1.67,1.21,3.33,1.82,5Z"/><path class="cls-2" d="M67.12,19.71l.42,1.47,1.59-.44.19.71-1.57.44.8,2.76c.18.63.49.93,1.07.77a2.88,2.88,0,0,0,.59-.23c.08.23.16.46.23.69a3.44,3.44,0,0,1-.88.38,1.64,1.64,0,0,1-1.23-.07A1.88,1.88,0,0,1,67.52,25l-.84-2.78-.93.29-.22-.71.94-.28-.37-1.22C66.44,20.08,66.78,19.9,67.12,19.71Z"/><path class="cls-2" d="M74.05,22.48a1.86,1.86,0,0,0,2.39,1.4A4.65,4.65,0,0,0,78,23.33l.3.65a5.85,5.85,0,0,1-1.88.67,2.79,2.79,0,1,1-1.17-5.44,2.36,2.36,0,0,1,3,2,2.83,2.83,0,0,1,0,.45C76.84,21.92,75.44,22.18,74.05,22.48Zm3.07-1.3a1.44,1.44,0,0,0-1.82-1.27,1.7,1.7,0,0,0-1.38,1.88C75,21.57,76.05,21.36,77.12,21.18Zm-.49-4.43c-.45.61-.88,1.22-1.31,1.83l-.81.16c.28-.59.56-1.18.85-1.76Z"/><path class="cls-2" d="M87.07,15.91a13.5,13.5,0,0,1,2.2-.23,4,4,0,0,1,2.51.59,1.84,1.84,0,0,1,.76,1.56,2.08,2.08,0,0,1-.68,1.58,5.1,5.1,0,0,1-3.48.8c0,1,.07,2,.11,3l-1.06.05Zm1.28,3.52a4.19,4.19,0,0,0,.92.05c1.33,0,2.14-.59,2.14-1.61s-.83-1.46-2.09-1.43a5.38,5.38,0,0,0-1.08.11C88.28,17.51,88.32,18.47,88.35,19.43Z"/><path class="cls-2" d="M96.3,19.6a16.18,16.18,0,0,0,0-1.66c.34,0,.67,0,1,.06l0,1h0a1.8,1.8,0,0,1,1.81-1,1.4,1.4,0,0,1,.32.06l-.08.91L99,18.92A1.48,1.48,0,0,0,97.43,20a2,2,0,0,0-.08.45c-.07.94-.13,1.89-.2,2.83l-1.06-.06Z"/><path class="cls-2" d="M103.29,21.47a1.85,1.85,0,0,0,1.76,2.14,4.45,4.45,0,0,0,1.67,0c0,.24,0,.48,0,.72a5.69,5.69,0,0,1-2,0,2.79,2.79,0,1,1,.77-5.51,2.35,2.35,0,0,1,2.08,2.93,3.38,3.38,0,0,1-.13.43C106.11,21.91,104.7,21.67,103.29,21.47Zm3.33-.16a1.45,1.45,0,0,0-1.27-1.82,1.71,1.71,0,0,0-1.95,1.3C104.48,20.94,105.55,21.11,106.62,21.31Z"/><path class="cls-2" d="M111.67,21.66c.13-.53.22-1,.29-1.41l1,.24c-.05.29-.1.57-.16.85h0a2.15,2.15,0,0,1,2.16-.43,1.83,1.83,0,0,1,1.41,1.52h0a2.26,2.26,0,0,1,.88-.46,2.41,2.41,0,0,1,1.44.07,2,2,0,0,1,1.19,2.86l-1.06,2.95-1-.35c.33-.95.66-1.9,1-2.85s.12-1.7-.75-2a1.43,1.43,0,0,0-1.55.43,1.31,1.31,0,0,0-.23.44l-1,3.14-1-.3.9-3.06a1.27,1.27,0,0,0-.84-1.77,1.49,1.49,0,0,0-1.61.58,1.22,1.22,0,0,0-.2.43l-.81,3.11-1-.25Z"/><path class="cls-2" d="M126.63,23.62c-.12.31-.49.44-.92.25a.64.64,0,0,1-.42-.82.67.67,0,0,1,.92-.27A.63.63,0,0,1,126.63,23.62Zm-3.84,5.78q1-2.46,2.06-4.91l1.06.45q-1.06,2.44-2.12,4.89Z"/><path class="cls-2" d="M129.34,29.7a1.89,1.89,0,0,0,1,2.62,5.12,5.12,0,0,0,1.61.58l-.18.69a5.74,5.74,0,0,1-1.92-.69c-1.63-.87-2.15-2.32-1.44-3.76a2.73,2.73,0,0,1,4-1.2,2.37,2.37,0,0,1,1.07,3.47,2.93,2.93,0,0,1-.26.38C131.92,31.05,130.64,30.36,129.34,29.7Zm3.26,1a1.45,1.45,0,0,0-.64-2.15,1.71,1.71,0,0,0-2.29.58C130.65,29.59,131.63,30.11,132.6,30.66Z"/><path class="cls-2" d="M140.36,37.73a13,13,0,0,0-.82,1.2l-.8-.59.45-.74,0,0a2.44,2.44,0,0,1-2.23-.35,2.06,2.06,0,0,1-.5-3.13l1.69-2.62,1,.65-1.63,2.46c-.56.84-.64,1.6.2,2.18a1.69,1.69,0,0,0,1.73.14,1.22,1.22,0,0,0,.37-.35l1.9-2.65,1,.7Z"/><path class="cls-2" d="M145.45,38.62c.35-.42.62-.78.87-1.14l.81.68-.51.69,0,0a2.34,2.34,0,0,1,2.21.63,2,2,0,0,1,.68,2.06l0,0a2.29,2.29,0,0,1,1,0,2.65,2.65,0,0,1,1.33.76,2.06,2.06,0,0,1-.09,3.19l-2.25,2.18c-.26-.27-.52-.54-.79-.8l2.14-2.13A1.38,1.38,0,0,0,151,42.6a1.53,1.53,0,0,0-1.64-.35,1.31,1.31,0,0,0-.4.29l-2.24,2.4-.82-.75,2.14-2.36a1.3,1.3,0,0,0,0-2,1.55,1.55,0,0,0-1.75-.24,1.36,1.36,0,0,0-.38.3l-2.08,2.45-.84-.71Z"/><path class="cls-7" d="M181.63,91.32A90.32,90.32,0,1,1,91.32,1,90.31,90.31,0,0,1,181.63,91.32Z"/><circle class="cls-8" cx="91.32" cy="91.32" r="81.33"/><path class="cls-1" d="M18.26,144.42H164.37a90.21,90.21,0,0,0,14.07-29.24H4.19A90.21,90.21,0,0,0,18.26,144.42Z"/><path class="cls-9" d="M46.76,126.6l.63.62a18,18,0,0,1-2.88,3,3.78,3.78,0,0,1-1.81.94c-.32,0-.48-.29-.48-.86q0-2.15,2.82-6.61a24,24,0,0,0,2.39-4.3c0-.26-.11-.38-.32-.38-.38,0-1.32.84-2.83,2.52a89.46,89.46,0,0,0-5.58,7.12q-3.77,5.13-5.17,7.33a34.88,34.88,0,0,1,4.38.67c1.14.28,2.79.72,5,1.34a32.83,32.83,0,0,0,4.8,1.08c-1.26,1.42-2.12,2.39-2.6,2.91a3.91,3.91,0,0,1-1.09.93,3.21,3.21,0,0,1-1.78,0c-.79-.15-2-.45-3.74-.89s-3.31-.81-4.8-1.1a20.66,20.66,0,0,0-4.07-.44,5.88,5.88,0,0,0-1.79.24c-.5.16-1.2.42-2.09.79a6.08,6.08,0,0,1-1.87.55c-.52,0-.78-.22-.78-.64a1.73,1.73,0,0,1,.26-.82c.44-.71.87-1.38,1.28-2a6.08,6.08,0,0,1,1.32-1.51,5.28,5.28,0,0,1,2-.84,17.47,17.47,0,0,1,3.48-.32c2.18-3.33,4.2-6.29,6.09-8.88s3.59-4.76,5.13-6.53a31.68,31.68,0,0,1,4.05-4,5.22,5.22,0,0,1,2.77-1.37,1.55,1.55,0,0,1,1.12.4,1.51,1.51,0,0,1,.4,1.12Q51,119.05,46.76,126.6Z"/><path class="cls-9" d="M53.13,136.19v.5a2.72,2.72,0,0,0,.58,1.85,1.94,1.94,0,0,0,1.52.66,5.14,5.14,0,0,0,2-.46,11.14,11.14,0,0,0,2.1-1.23c.69-.5,1.54-1.18,2.54-2v1.22a24.92,24.92,0,0,1-4.24,4.18,6.85,6.85,0,0,1-4,1.45,3.34,3.34,0,0,1-2.82-1.38,6.14,6.14,0,0,1-1-3.79,7.46,7.46,0,0,1,1-3.81,14.46,14.46,0,0,1,3.2-3.61,12.75,12.75,0,0,1,3-2,6.84,6.84,0,0,1,2.69-.66,2.42,2.42,0,0,1,1.49.43,1.54,1.54,0,0,1,.55,1.3,4.15,4.15,0,0,1-.94,2.51,11.07,11.07,0,0,1-2.87,2.48A29.67,29.67,0,0,1,53.13,136.19Zm.2-1.3a11.52,11.52,0,0,0,3.08-1.74,8.86,8.86,0,0,0,1.9-2,3.26,3.26,0,0,0,.61-1.39c0-.31-.14-.46-.42-.46a2.82,2.82,0,0,0-1.17.46,8.91,8.91,0,0,0-1.65,1.2,8.75,8.75,0,0,0-1.49,1.74A5.57,5.57,0,0,0,53.33,134.89Z"/><path class="cls-9" d="M98.36,135.39v1.3a71.66,71.66,0,0,1-6.18,6.18,25.92,25.92,0,0,1-5.5,3.74,11.65,11.65,0,0,1-5.18,1.31,7.52,7.52,0,0,1-3.72-.86,5.53,5.53,0,0,1-2.34-2.51,9.06,9.06,0,0,1-.79-3.91,13.77,13.77,0,0,1,.57-3.78,20.81,20.81,0,0,1,1.65-4,35.63,35.63,0,0,1,2.66-4.19,57.36,57.36,0,0,1,3.69-4.55,42.9,42.9,0,0,1,4.34-4.25A29.16,29.16,0,0,1,91.45,117a18,18,0,0,1,3.23-1.52,8.26,8.26,0,0,1,2.47-.5,3,3,0,0,1,1.71.48,3.16,3.16,0,0,1,1.08,1.4,5.66,5.66,0,0,1,.38,2.13,10.65,10.65,0,0,1-1.54,5,30.06,30.06,0,0,1-3.85,5.36,34.38,34.38,0,0,1-4.39,4.21c-1.4,1.09-2.4,1.63-3,1.63a1.67,1.67,0,0,1-1.15-.49,1.5,1.5,0,0,1-.53-1.11,5,5,0,0,1,1.21-2.76,23.6,23.6,0,0,1,2.65-3q1.42-1.35,1.71-1.35c.09,0,.14,0,.14.12a1.74,1.74,0,0,1-.21.62,2.26,2.26,0,0,0-.21.54c0,.11,0,.16.12.16s.88-.6,2-1.82a28.34,28.34,0,0,0,3-4,7.42,7.42,0,0,0,1.35-3.59,1.4,1.4,0,0,0-.25-.9.91.91,0,0,0-.75-.31q-1.4,0-4.25,2.28a43.29,43.29,0,0,0-5.85,5.78,40.87,40.87,0,0,0-5,7.26,14.32,14.32,0,0,0-2,6.59,6.68,6.68,0,0,0,.49,2.74,3.7,3.7,0,0,0,1.44,1.7,4.2,4.2,0,0,0,2.29.6,12.94,12.94,0,0,0,6.59-2.26A46.46,46.46,0,0,0,98.36,135.39Z"/><path class="cls-9" d="M100.52,131.89a24.55,24.55,0,0,1,5.9-4.11,11.65,11.65,0,0,1,4.43-1.34,1.12,1.12,0,0,1,.78.35,2.83,2.83,0,0,1,.57.81,1.92,1.92,0,0,1,.21.69.6.6,0,0,1-.28.53,6.26,6.26,0,0,1-1,.41l.36.82c.14.33.26.6.34.81a1.52,1.52,0,0,1,.12.55,4.27,4.27,0,0,1-1,1.79c-.65.87-1.1,1.52-1.36,1.93a2.82,2.82,0,0,0-.39,1.52c0,1,.45,1.48,1.36,1.48s2.39-.87,4.38-2.62v1.22q-5.07,5.63-7.25,5.63a1.22,1.22,0,0,1-1.11-.51,2.82,2.82,0,0,1-.33-1.51,14.25,14.25,0,0,1,1.14-4.59q-2.91,3.24-4.34,4.62a4,4,0,0,1-2.34,1.37c-.3,0-.66-.25-1.1-.76a7.49,7.49,0,0,1-1.17-2,6.28,6.28,0,0,1-.52-2.52,5.84,5.84,0,0,1,.18-1.57,3.79,3.79,0,0,1,.71-1.29A17,17,0,0,1,100.52,131.89Zm9.59-2.2a43.21,43.21,0,0,0-7.42,4c-1.48,1.11-2.21,2.25-2.21,3.42a2.22,2.22,0,0,0,.22,1.06.66.66,0,0,0,.6.41,2.3,2.3,0,0,0,.78-.29,15.5,15.5,0,0,0,3.84-3.23Q107.66,133.11,110.11,129.69Z"/><path class="cls-9" d="M126,135.47v1.38c-.8.8-1.41,1.39-1.82,1.74a8.48,8.48,0,0,1-1.7,1.11,22.71,22.71,0,0,1-.18,3.1,10.43,10.43,0,0,1-.8,2.69,15.78,15.78,0,0,1-1.92,3.09,12.79,12.79,0,0,1-2.53,2.56,3.82,3.82,0,0,1-1.94.89c-.52,0-1-.43-1.44-1.28a6.94,6.94,0,0,1-.66-3.19,13.24,13.24,0,0,1,.62-3.84q.61-2,1.92-5.22a4.24,4.24,0,0,1-1-2.55,2.15,2.15,0,0,1,.52-1.56,4.81,4.81,0,0,1,1.48-1,20.15,20.15,0,0,1,1.33-1.87c.42-.52,1-1.2,1.72-2a80.37,80.37,0,0,1,4.88-10c.52-.91.89-1.52,1.12-1.84a1,1,0,0,1,.72-.47c.23,0,.43.17.6.5a2.78,2.78,0,0,1,.26,1.31,7.29,7.29,0,0,1-.21,1.8,9.13,9.13,0,0,1-.6,1.65c-.26.55-.62,1.22-1.08,2l-.85,1.44q-1,1.77-2.26,3.91c-.84,1.43-1.51,2.55-2,3.38s-.84,1.45-1,1.86q1.08.94,1.71,1.62a7.07,7.07,0,0,1,1.09,1.62,6.53,6.53,0,0,0,1.24-.62,15,15,0,0,0,1.32-1C125,136.22,125.48,135.83,126,135.47Zm-6,5.37,0-.42a4.87,4.87,0,0,1-.9,0,4.12,4.12,0,0,1-.8-.17,6.9,6.9,0,0,1-.7-.26c-.16-.08-.35-.16-.55-.24a17.19,17.19,0,0,0-1.52,6.18,5.16,5.16,0,0,0,.37,2.08q.38.87.87.87c.35,0,.79-.31,1.31-.93a7.89,7.89,0,0,0,1.38-2.72A14.76,14.76,0,0,0,120,140.84Z"/><path class="cls-9" d="M129.13,136.19v.5a2.72,2.72,0,0,0,.58,1.85,1.91,1.91,0,0,0,1.52.66,5.17,5.17,0,0,0,2-.46,11.07,11.07,0,0,0,2.09-1.23c.69-.5,1.54-1.18,2.54-2v1.22a24.56,24.56,0,0,1-4.24,4.18,6.8,6.8,0,0,1-4,1.45,3.37,3.37,0,0,1-2.83-1.38,6.2,6.2,0,0,1-1-3.79,7.56,7.56,0,0,1,1-3.81,14.52,14.52,0,0,1,3.21-3.61,12.55,12.55,0,0,1,3-2,6.76,6.76,0,0,1,2.68-.66,2.38,2.38,0,0,1,1.49.43,1.54,1.54,0,0,1,.55,1.3,4.15,4.15,0,0,1-.94,2.51,10.74,10.74,0,0,1-2.87,2.48A29.53,29.53,0,0,1,129.13,136.19Zm.2-1.3a11.68,11.68,0,0,0,3.08-1.74,9,9,0,0,0,1.89-2,3.13,3.13,0,0,0,.61-1.39c0-.31-.14-.46-.42-.46a2.82,2.82,0,0,0-1.17.46,8.86,8.86,0,0,0-1.64,1.2,8.44,8.44,0,0,0-1.49,1.74A5.57,5.57,0,0,0,129.33,134.89Zm5.58-11.31a1,1,0,0,1-.62-.23.64.64,0,0,1-.28-.51c0-.49.69-1.76,2.08-3.78a7.33,7.33,0,0,1,1.51-1.68,3.14,3.14,0,0,1,1.73-.41c1,0,1.49.34,1.49,1q0,.57-1.29,1.92a28.54,28.54,0,0,1-2.77,2.5A5.32,5.32,0,0,1,134.91,123.58Z"/><path d="M45.91,124.7l.62.62a17.91,17.91,0,0,1-2.87,3,3.68,3.68,0,0,1-1.81.94c-.32,0-.48-.28-.48-.86q0-2.15,2.82-6.61a22.79,22.79,0,0,0,2.38-4.3c0-.25-.1-.38-.32-.38s-1.31.84-2.82,2.52a88.1,88.1,0,0,0-5.58,7.13q-3.76,5.13-5.17,7.33a31.36,31.36,0,0,1,4.37.67c1.15.27,2.8.72,5,1.33a33.06,33.06,0,0,0,4.79,1.08c-1.25,1.43-2.11,2.4-2.59,2.91a3.7,3.7,0,0,1-1.09.93,3,3,0,0,1-1.78,0c-.79-.15-2-.45-3.74-.89s-3.31-.8-4.8-1.1a21.53,21.53,0,0,0-4.07-.44,5.88,5.88,0,0,0-1.79.24c-.51.16-1.2.43-2.09.79a5.8,5.8,0,0,1-1.87.55c-.52,0-.78-.21-.78-.64a1.76,1.76,0,0,1,.26-.82c.44-.71.87-1.38,1.28-2a6.2,6.2,0,0,1,1.32-1.5,5.21,5.21,0,0,1,2-.84,16.75,16.75,0,0,1,3.48-.32q3.26-5,6.08-8.88t5.14-6.54a31.5,31.5,0,0,1,4.05-4,5.11,5.11,0,0,1,2.77-1.37,1.51,1.51,0,0,1,1.12.4,1.53,1.53,0,0,1,.4,1.12Q50.14,117.15,45.91,124.7Z"/><path d="M52.28,134.29v.5a2.67,2.67,0,0,0,.58,1.84,1.93,1.93,0,0,0,1.52.66,5,5,0,0,0,2-.46,11.39,11.39,0,0,0,2.1-1.22c.69-.51,1.54-1.19,2.54-2v1.22A24.47,24.47,0,0,1,56.8,139a6.73,6.73,0,0,1-4,1.45A3.34,3.34,0,0,1,50,139a6.1,6.1,0,0,1-1-3.78,7.52,7.52,0,0,1,1-3.82,14.46,14.46,0,0,1,3.2-3.61,12.2,12.2,0,0,1,3-2,6.8,6.8,0,0,1,2.69-.66,2.36,2.36,0,0,1,1.49.43,1.56,1.56,0,0,1,.55,1.29,4.2,4.2,0,0,1-.94,2.51A10.79,10.79,0,0,1,57,131.91,28.31,28.31,0,0,1,52.28,134.29Zm.2-1.3a11.27,11.27,0,0,0,3.08-1.75,8.37,8.37,0,0,0,1.89-2,3.1,3.1,0,0,0,.62-1.39c0-.31-.14-.46-.42-.46a2.8,2.8,0,0,0-1.18.46,10.32,10.32,0,0,0-1.64,1.2,9.36,9.36,0,0,0-1.49,1.74A5.61,5.61,0,0,0,52.48,133Z"/><path d="M97.5,133.49v1.3A71.44,71.44,0,0,1,91.33,141a26,26,0,0,1-5.5,3.75A11.82,11.82,0,0,1,80.65,146a7.63,7.63,0,0,1-3.72-.86,5.58,5.58,0,0,1-2.34-2.51,9,9,0,0,1-.79-3.92,13.7,13.7,0,0,1,.57-3.77,20.88,20.88,0,0,1,1.65-4,35.63,35.63,0,0,1,2.66-4.19,55.16,55.16,0,0,1,3.69-4.54,43.06,43.06,0,0,1,4.34-4.26,29.92,29.92,0,0,1,3.89-2.81,17.36,17.36,0,0,1,3.23-1.52,7.9,7.9,0,0,1,2.47-.5,2.91,2.91,0,0,1,1.7.48,3.06,3.06,0,0,1,1.09,1.4,5.57,5.57,0,0,1,.38,2.12,10.56,10.56,0,0,1-1.55,5,29.43,29.43,0,0,1-3.84,5.35,33.7,33.7,0,0,1-4.39,4.21c-1.4,1.09-2.4,1.64-3,1.64a1.71,1.71,0,0,1-1.15-.49,1.5,1.5,0,0,1-.53-1.11A5,5,0,0,1,86.2,129a22.83,22.83,0,0,1,2.65-3q1.43-1.35,1.71-1.35c.09,0,.14,0,.14.12a1.74,1.74,0,0,1-.21.62,2,2,0,0,0-.21.54c0,.11,0,.16.12.16s.88-.61,2-1.82a28.44,28.44,0,0,0,3-4,7.42,7.42,0,0,0,1.35-3.59,1.37,1.37,0,0,0-.25-.89.88.88,0,0,0-.75-.31q-1.4,0-4.25,2.27a43.41,43.41,0,0,0-5.85,5.79,41.17,41.17,0,0,0-5,7.25,14.36,14.36,0,0,0-2,6.59,6.68,6.68,0,0,0,.49,2.74,3.65,3.65,0,0,0,1.44,1.7,4.2,4.2,0,0,0,2.29.61,13,13,0,0,0,6.59-2.27A46.33,46.33,0,0,0,97.5,133.49Z"/><path d="M99.67,130a24,24,0,0,1,5.9-4.1,11.65,11.65,0,0,1,4.43-1.34,1.12,1.12,0,0,1,.78.35,2.58,2.58,0,0,1,.57.81,1.89,1.89,0,0,1,.21.68.59.59,0,0,1-.28.53,6.26,6.26,0,0,1-1,.41c.09.21.21.49.36.82l.34.81a1.57,1.57,0,0,1,.12.55,4.27,4.27,0,0,1-1,1.79c-.65.88-1.1,1.52-1.37,1.94a2.79,2.79,0,0,0-.39,1.52c0,1,.46,1.48,1.37,1.48s2.39-.87,4.38-2.62v1.22q-5.07,5.63-7.25,5.62a1.22,1.22,0,0,1-1.11-.51,2.8,2.8,0,0,1-.33-1.51,14.27,14.27,0,0,1,1.14-4.58c-2,2.16-3.39,3.7-4.34,4.61a3.89,3.89,0,0,1-2.34,1.37c-.3,0-.66-.25-1.1-.76a7,7,0,0,1-1.18-2,6.4,6.4,0,0,1-.51-2.51A5.79,5.79,0,0,1,97.3,133a4.06,4.06,0,0,1,.7-1.3A20,20,0,0,1,99.67,130Zm9.59-2.2a43.1,43.1,0,0,0-7.42,4.05c-1.48,1.1-2.21,2.24-2.21,3.42a2.15,2.15,0,0,0,.22,1.05.66.66,0,0,0,.6.41,2.2,2.2,0,0,0,.78-.28,15.94,15.94,0,0,0,3.84-3.23Q106.81,131.21,109.26,127.78Z"/><path d="M125.11,133.57V135c-.8.8-1.41,1.38-1.82,1.74a8.49,8.49,0,0,1-1.7,1.1,22.61,22.61,0,0,1-.18,3.1,10.38,10.38,0,0,1-.8,2.7,15.41,15.41,0,0,1-1.93,3.09,12.18,12.18,0,0,1-2.52,2.55,3.76,3.76,0,0,1-1.94.89c-.52,0-1-.42-1.44-1.28a6.87,6.87,0,0,1-.66-3.18,13.25,13.25,0,0,1,.62-3.85q.62-2,1.92-5.22a4.19,4.19,0,0,1-1-2.54,2.15,2.15,0,0,1,.52-1.56,4.82,4.82,0,0,1,1.48-1,21.6,21.6,0,0,1,1.33-1.87l1.71-2a82.58,82.58,0,0,1,4.89-10c.52-.91.89-1.52,1.12-1.83a1,1,0,0,1,.72-.47c.23,0,.43.17.6.5a2.73,2.73,0,0,1,.26,1.3,7.23,7.23,0,0,1-.21,1.8,9.13,9.13,0,0,1-.6,1.65c-.26.56-.62,1.22-1.08,2l-.85,1.44q-1,1.76-2.26,3.9l-2,3.38c-.49.83-.84,1.45-1.06,1.87a20.65,20.65,0,0,1,1.72,1.62,6.66,6.66,0,0,1,1.09,1.62,6.84,6.84,0,0,0,1.24-.62,15,15,0,0,0,1.32-1C124.14,134.32,124.63,133.93,125.11,133.57Zm-6,5.36,0-.42a5,5,0,0,1-.91,0,4.2,4.2,0,0,1-.79-.17,5.1,5.1,0,0,1-.7-.26c-.16-.08-.35-.16-.55-.24a17.23,17.23,0,0,0-1.52,6.19,5.19,5.19,0,0,0,.37,2.08c.25.57.54.86.87.86s.79-.31,1.31-.92a7.81,7.81,0,0,0,1.37-2.72A14.49,14.49,0,0,0,119.13,138.93Z"/><path d="M128.27,134.29v.5a2.72,2.72,0,0,0,.58,1.84,2,2,0,0,0,1.53.66,5,5,0,0,0,2-.46,11,11,0,0,0,2.09-1.22c.69-.51,1.54-1.19,2.54-2v1.22A24.81,24.81,0,0,1,132.8,139a6.74,6.74,0,0,1-4,1.45A3.36,3.36,0,0,1,126,139a6.17,6.17,0,0,1-1-3.78,7.62,7.62,0,0,1,1-3.82,14.66,14.66,0,0,1,3.2-3.61,12.43,12.43,0,0,1,3-2,6.76,6.76,0,0,1,2.68-.66,2.34,2.34,0,0,1,1.49.43,1.54,1.54,0,0,1,.55,1.29,4.13,4.13,0,0,1-.94,2.51,10.72,10.72,0,0,1-2.87,2.48A28.44,28.44,0,0,1,128.27,134.29Zm.2-1.3a11.33,11.33,0,0,0,3.09-1.75,8.8,8.8,0,0,0,1.89-2,3,3,0,0,0,.61-1.39c0-.31-.14-.46-.42-.46a2.82,2.82,0,0,0-1.17.46,9.89,9.89,0,0,0-1.64,1.2,9,9,0,0,0-1.49,1.74A5.63,5.63,0,0,0,128.47,133Zm5.59-11.31a1,1,0,0,1-.62-.23.67.67,0,0,1-.28-.52c0-.49.69-1.75,2.08-3.78a6.81,6.81,0,0,1,1.51-1.67,3.14,3.14,0,0,1,1.73-.41c1,0,1.49.34,1.49,1,0,.39-.44,1-1.3,1.92a26.16,26.16,0,0,1-2.76,2.5A5.26,5.26,0,0,1,134.06,121.68Z"/></g></g></svg>