<?xml version="1.0" encoding="utf-8"?>
<!-- Generator: Adobe Illustrator 22.1.0, SVG Export Plug-In . SVG Version: 6.00 Build 0)  -->
<svg version="1.1" id="Calque_1" xmlns="http://www.w3.org/2000/svg" xmlns:xlink="http://www.w3.org/1999/xlink" x="0px" y="0px"
	 viewBox="0 0 960 200" style="enable-background:new 0 0 960 200;" xml:space="preserve">
<style type="text/css">
	.st0{fill:none;}
	.st1{fill:#DA2128;}
	.st2{fill:#F5AE28;}
	.st3{fill:#231F20;}
	.st4{fill:#343B97;}
	.st5{opacity:6.000000e-02;fill:url(#SVGID_1_);}
	.st6{fill:url(#SVGID_2_);}
	.st7{fill:url(#SVGID_3_);}
	.st8{opacity:0.1;fill:url(#SVGID_4_);enable-background:new    ;}
	.st9{opacity:0.41;fill:url(#SVGID_5_);enable-background:new    ;}
	.st10{opacity:0.41;fill:url(#SVGID_6_);enable-background:new    ;}
	.st11{opacity:0.41;fill:url(#SVGID_7_);enable-background:new    ;}
	.st12{opacity:0.41;fill:url(#SVGID_8_);enable-background:new    ;}
	.st13{opacity:0.41;fill:url(#SVGID_9_);enable-background:new    ;}
	.st14{opacity:0.16;fill:url(#SVGID_10_);enable-background:new    ;}
	.st15{opacity:0.16;fill:url(#SVGID_11_);enable-background:new    ;}
	.st16{opacity:0.16;fill:url(#SVGID_12_);enable-background:new    ;}
	.st17{opacity:0.16;fill:url(#SVGID_13_);enable-background:new    ;}
	.st18{opacity:0.16;fill:url(#SVGID_14_);enable-background:new    ;}
	.st19{opacity:0.16;fill:url(#SVGID_15_);enable-background:new    ;}
	.st20{opacity:0.16;fill:url(#SVGID_16_);enable-background:new    ;}
	.st21{opacity:0.16;fill:url(#SVGID_17_);enable-background:new    ;}
	.st22{opacity:0.16;fill:url(#SVGID_18_);enable-background:new    ;}
	.st23{opacity:0.16;fill:url(#SVGID_19_);enable-background:new    ;}
	.st24{opacity:0.16;fill:url(#SVGID_20_);enable-background:new    ;}
	.st25{opacity:0.16;fill:url(#SVGID_21_);enable-background:new    ;}
	.st26{opacity:0.16;fill:url(#SVGID_22_);enable-background:new    ;}
	.st27{opacity:0.16;fill:url(#SVGID_23_);enable-background:new    ;}
	.st28{opacity:0.16;fill:url(#SVGID_24_);enable-background:new    ;}
	.st29{opacity:0.16;fill:url(#SVGID_25_);enable-background:new    ;}
	.st30{opacity:0.16;fill:url(#SVGID_26_);enable-background:new    ;}
	.st31{opacity:0.16;fill:url(#SVGID_27_);enable-background:new    ;}
	.st32{opacity:0.16;fill:url(#SVGID_28_);enable-background:new    ;}
	.st33{opacity:0.16;fill:url(#SVGID_29_);enable-background:new    ;}
	.st34{opacity:0.16;fill:url(#SVGID_30_);enable-background:new    ;}
	.st35{opacity:0.14;fill:url(#SVGID_31_);enable-background:new    ;}
	.st36{fill:url(#SVGID_32_);}
	.st37{opacity:0.16;fill:url(#SVGID_33_);enable-background:new    ;}
	.st38{opacity:0.16;fill:url(#SVGID_34_);enable-background:new    ;}
	.st39{opacity:0.26;fill:url(#SVGID_35_);enable-background:new    ;}
	.st40{opacity:0.2;fill:url(#SVGID_36_);enable-background:new    ;}
	.st41{opacity:0.45;fill:url(#SVGID_37_);enable-background:new    ;}
	.st42{opacity:0.45;fill:url(#SVGID_38_);enable-background:new    ;}
	.st43{opacity:0.1;fill:url(#SVGID_39_);enable-background:new    ;}
	.st44{opacity:0.19;fill:url(#SVGID_40_);enable-background:new    ;}
	.st45{opacity:0.35;fill:url(#SVGID_41_);enable-background:new    ;}
	.st46{opacity:0.54;fill:url(#SVGID_42_);enable-background:new    ;}
	.st47{opacity:0.44;fill:url(#SVGID_43_);enable-background:new    ;}
	.st48{opacity:0.21;fill:url(#SVGID_44_);enable-background:new    ;}
	.st49{opacity:8.000000e-02;fill:url(#SVGID_45_);enable-background:new    ;}
	.st50{opacity:0.21;fill:url(#SVGID_46_);enable-background:new    ;}
	.st51{opacity:0.5;fill:url(#SVGID_47_);enable-background:new    ;}
	.st52{opacity:0.56;fill:url(#SVGID_48_);enable-background:new    ;}
	.st53{opacity:0.36;fill:url(#SVGID_49_);enable-background:new    ;}
	.st54{fill:url(#SVGID_50_);}
	.st55{opacity:0.19;fill:url(#SVGID_51_);enable-background:new    ;}
	.st56{opacity:0.53;fill:url(#SVGID_52_);enable-background:new    ;}
	.st57{fill:url(#SVGID_53_);}
	.st58{opacity:0.36;fill:url(#SVGID_54_);enable-background:new    ;}
	.st59{opacity:9.000000e-02;fill:url(#SVGID_55_);enable-background:new    ;}
	.st60{opacity:7.000000e-02;fill:url(#SVGID_56_);enable-background:new    ;}
	.st61{opacity:0.14;fill:url(#SVGID_57_);enable-background:new    ;}
	.st62{fill:url(#SVGID_58_);}
	.st63{opacity:0.72;fill:url(#SVGID_59_);enable-background:new    ;}
	.st64{opacity:0.66;fill:url(#SVGID_60_);enable-background:new    ;}
	.st65{opacity:0.26;fill:url(#SVGID_61_);enable-background:new    ;}
	.st66{opacity:0.26;fill:url(#SVGID_62_);enable-background:new    ;}
	.st67{opacity:0.26;fill:url(#SVGID_63_);enable-background:new    ;}
	.st68{opacity:0.26;fill:url(#SVGID_64_);enable-background:new    ;}
	.st69{opacity:0.26;fill:url(#SVGID_65_);enable-background:new    ;}
	.st70{opacity:0.26;fill:url(#SVGID_66_);enable-background:new    ;}
	.st71{opacity:0.26;fill:url(#SVGID_67_);enable-background:new    ;}
	.st72{opacity:0.14;fill:url(#SVGID_68_);enable-background:new    ;}
</style>
<pattern  y="200" width="62.5" height="59.6" patternUnits="userSpaceOnUse" id="Couleur_Mexico" viewBox="0 -59.6 62.5 59.6" style="overflow:visible;">
	<g>
		<rect y="-59.6" class="st0" width="62.5" height="59.6"/>
		<rect y="-59.6" class="st1" width="62.5" height="59.6"/>
		<path class="st2" d="M14.5-42.9l-2.7,1.4l-9,4.2l-0.6-0.1l-0.4-1.1l0.6-0.9l13.6-6.4l3.5-1.9l7.7-3.4c0.9-0.5,2-1.5,3.1-0.9
			l-0.1,1.8L14.5-42.9z"/>
		<path class="st3" d="M30-41c-0.9-0.2-1.9-0.8-2.8-1.4l-0.1,0.2c0.8,1.7,1.6,3.5,2.2,5.4c-2.1-0.9-3.7-3.3-6.1-3.6L22.9-40l5.9,8.5
			c0.2,0.7,1.1,1.4,0.6,2l-0.7-0.1l-8.7-7c-0.8-0.3-1.5-1-2.2-1.4v0.8l4.2,7.6L21.9-29h-0.7l-7.8-7L13-35.7c0.3,2.3,1.6,4.6,1.8,7
			l-0.6,0.1l-5.6-4.8l-0.7,0.1c0,1.4,0.5,2.9,0.6,4.2c-1.5,0-2.5-2-3.9-2.7l-0.2,0.7L4-18.8V-6c0,0.4-0.5,0.9,0,1.2l22.7,0.1
			l0.4-0.6l0.4-9.3l0.1-8.2c0.1-0.4-0.1-0.8-0.5-1.1l-15.8-0.3h-0.4l-0.2,1.1l-0.1,11.4c-0.2,0.3-0.1,0.8-0.1,1.2l0.3,0.2
			c3.7,0,6.7-0.1,10.1,0.1l0.3-0.3l-0.1-6.9c-1.2-0.4-2.9-0.1-4.1-0.2c-0.9,1.4,0.8,3.6-1,4.3l-1.3-0.1c-1.3-1.7-0.5-4.2-0.7-6.3
			c0.2-0.8,1.2-0.5,1.8-0.7l7.6,0.1l0.6,0.9L23.8-9.1c-0.1,0.5-0.6,0.7-0.9,1.2l-14-0.2c-0.4-0.2-1-0.4-1.1-0.9v-5.8l0.6-11L9-26.5
			l19.5,0.1c0.6,0.1,1.1,0.4,1.3,1L29.6-4.5c-0.1,0.8-0.2,1.8-0.8,2.2H2.5c-0.7-0.2-1-0.9-1.1-1.5l0.1-18.3L2-32.6l0.6-0.9l16.3-8
			c3.1-2.3,6.9-2.8,9.9-5.2c0.2-0.2,0.6-0.1,0.9-0.1l0.5,0.6L30-41z"/>
		<path class="st4" d="M28.2-55L24-53.2l-13.5,6.3l-7.4,3.6c-0.3,0-0.6,0.1-0.9,0.1c-0.5-1.3-0.5-2.8-0.4-4.3c1-0.3,1.6,1.4,2.5,1.2
			c-0.9-2.1-2.1-4-2.8-6.2l0.3-0.2c1.8,0.9,3.4,2.8,5.2,3.4l-0.5-1l-4.7-7.8c0-0.3,0-0.6,0.2-0.7c1.7,0.9,3.1,2.3,4.7,3.3l5.9,4.7
			c0.3,0,0.5-0.3,0.7-0.5l-3.5-7c-0.1-0.2,0.1-0.3,0.2-0.5l1.1,0.4l5.4,4.7c0.4,0,0.7,1,1.2,0.3c-0.3-1.7-0.8-3.2-0.9-4.9
			c0.5-0.9,1,0.3,1.5,0.3l3.7,3.3c1.7-0.9,1.2-4.7,3.9-3.5c1.3,1,3.9,0.3,4.1,2.3L28.2-55z"/>
		<path class="st2" d="M45.7-16.7L43-18.1l-9-4.2l-0.6,0.1L33-21.2l0.6,0.9l13.6,6.4l3.5,1.9l7.7,3.4c0.9,0.5,2,1.5,3.1,0.9
			l-0.1-1.8L45.7-16.7z"/>
		<path class="st3" d="M61.2-18.6c-0.9,0.2-1.9,0.8-2.8,1.4l-0.1-0.2c0.8-1.7,1.6-3.5,2.2-5.4c-2.1,0.9-3.7,3.3-6.1,3.6l-0.3-0.4
			l5.9-8.5c0.2-0.7,1.1-1.4,0.6-2l-0.7,0.1l-8.7,7c-0.8,0.3-1.5,1-2.2,1.4v-0.8l4.2-7.6l-0.1-0.6h-0.7l-7.8,7l-0.3-0.2
			c0.3-2.3,1.6-4.6,1.8-7L45.4-31l-5.6,4.8l-0.7-0.1c0-1.4,0.5-2.9,0.6-4.2c-1.5,0-2.5,2-3.9,2.7l-0.2-0.7l-0.2-12.3v-12.7
			c0-0.4-0.5-0.9,0-1.2l22.7-0.1l0.4,0.6l0.4,9.3l0.1,8.2c0.1,0.4-0.1,0.8-0.5,1.1l-15.8,0.3h-0.4l-0.2-1.1l-0.1-11.4
			c-0.2-0.3-0.1-0.8-0.1-1.2l0.3-0.2c3.7,0,6.7,0.1,10.1-0.1l0.3,0.3l-0.1,6.9c-1.2,0.4-2.9,0.1-4.1,0.2c-0.9-1.4,0.8-3.6-1-4.3
			L46-46.1c-1.3,1.7-0.5,4.2-0.7,6.3c0.2,0.8,1.2,0.5,1.8,0.7l7.6-0.1l0.6-0.9L55-50.6c-0.1-0.5-0.6-0.7-0.9-1.2l-14,0.2
			c-0.4,0.2-1,0.4-1.1,0.9v5.8l0.6,11l0.7,0.7l19.5-0.1c0.6-0.1,1.1-0.4,1.3-1l-0.2-20.8c-0.1-0.8-0.2-1.8-0.8-2.2H33.7
			c-0.7,0.2-1,0.9-1.1,1.5l0.1,18.3L33.2-27l0.6,0.9l16.3,8c3.1,2.3,6.9,2.8,9.9,5.2c0.2,0.2,0.6,0.1,0.9,0.1l0.5-0.6L61.2-18.6z"/>
		<path class="st4" d="M59.4-4.6l-4.2-1.9l-13.5-6.3l-7.4-3.6c-0.3,0-0.6-0.1-0.9-0.1C33-15.2,33-13.7,33-12.2
			c1,0.3,1.6-1.4,2.5-1.2c-0.9,2.1-2.1,4-2.8,6.2l0.3,0.2c1.8-0.9,3.4-2.8,5.2-3.4l-0.5,1l-4.7,7.8c0,0.3,0,0.6,0.2,0.7
			C35-1.6,36.4-3,38-4L44-8.7c0.3,0,0.5,0.3,0.7,0.5l-3.5,7c-0.1,0.2,0.1,0.3,0.2,0.5l1.1-0.4l5.4-4.7c0.4,0,0.7-1,1.2-0.3
			c-0.3,1.7-0.8,3.2-0.9,4.9c0.5,0.9,1-0.3,1.5-0.3l3.7-3.3c1.7,0.9,1.2,4.7,3.9,3.5c1.3-1,3.9-0.3,4.1-2.3L59.4-4.6z"/>
	</g>
</pattern>
<title>projecteur2Plan de travail 1</title>
<g>
	<g id="Calque_1_1_">
		<rect x="-26.5" y="-40.7" class="st3" width="1033.4" height="280.2"/>
		<pattern  id="SVGID_1_" xlink:href="#Couleur_Mexico" patternTransform="matrix(0.9113 0 0 0.9113 -605.7101 -731.2849)">
		</pattern>
		<rect x="-32" y="-39.5" class="st5" width="1033.4" height="280.2"/>
		
			<linearGradient id="SVGID_2_" gradientUnits="userSpaceOnUse" x1="385.7407" y1="15.4412" x2="402.7362" y2="14.1076" gradientTransform="matrix(1.239150e-02 -0.9999 -0.9999 -1.239150e-02 484.7447 497.5383)">
			<stop  offset="0" style="stop-color:#FFFFFF"/>
			<stop  offset="1" style="stop-color:#666666"/>
		</linearGradient>
		<path class="st6" d="M288.4,61.5c-25.8,10.7-28.2,29.4-28.1,36.2c-0.2,6.7,1.7,25.4,27.2,36.8c31.5,14.1,73.5,13.7,86,9.4
			c12.5-4.3,20.1-10.2,25.1-17.5c0.9-1.4,1.9-2.7,3-4l0,0c0.4-0.5,9-12.3,21.5-14.3c5.3-0.9,15.7-1.5,35.7-0.8
			c44.1,1.5,115.3,6.3,154,10s63.2,7.5,70.3,2.7c2.2-1.6,3.9-3.9,4.8-6.5c0.1-0.2,0.1-0.3,0.2-0.5c0.1-0.2,0.1-0.3,0.2-0.5
			c1-3.1,1.5-6.4,1.6-9.7c0-2.3-0.2-4.6-0.6-6.9c-0.5-3.4-2-7.6-5.7-10.3c-7-5-31.5-1.8-70.4,1C574.4,89.6,503.1,92.6,459,93
			c-18.7,0.2-29-0.6-34.6-1.5c-0.2-0.1-0.4-0.1-0.6-0.1h-0.2c-9-1.7-15.8-8.4-19.1-12.2c0,0,0,0-0.1-0.1c-2-2.1-3.7-4.3-5.2-6.7
			c-4.7-7.4-12.2-13.5-24.6-18.1C362.3,49.6,320.3,48.3,288.4,61.5z"/>
		
			<radialGradient id="SVGID_3_" cx="385.249" cy="-18.5367" r="159.0919" gradientTransform="matrix(1.239150e-02 -0.9999 -0.9999 -1.239150e-02 484.7447 497.5383)" gradientUnits="userSpaceOnUse">
			<stop  offset="9.000000e-02" style="stop-color:#F2F2F2"/>
			<stop  offset="0.26" style="stop-color:#CCCCCC"/>
			<stop  offset="0.65" style="stop-color:#808080"/>
			<stop  offset="1" style="stop-color:#808080"/>
		</radialGradient>
		<path class="st7" d="M364.9,53.4c2.7,0.3,5.4,0.9,8,1.7l0,0c0.5,0.1,0.9,0.3,1.3,0.4c2.5,0.9,4.9,2,7.2,3.1
			c4.9,2.4,9.2,5.6,12.9,9.6c0.5,0.6,1,1.1,1.4,1.7l0,0c0.7,0.8,1.3,1.7,1.9,2.6c0.1,0.2,0.3,0.4,0.4,0.6c0.4,0.7,0.9,1.3,1.3,2l0,0
			c0.5,0.7,1,1.4,1.5,2l0.2,0.2c0.5,0.7,1.1,1.3,1.7,2c0.2,0.2,0.4,0.5,0.7,0.7l0.1,0.1c0.2,0.3,0.5,0.6,0.8,0.9c2.4,2.6,5,5,8,7
			c0.3,0.2,0.6,0.4,0.8,0.5c0,0,0.1,0,0.1,0.1c2.1,1.4,4.4,2.5,6.9,3.2c1.1,0.4,2.2,0.6,3.3,0.8h0.2c0.1,0,0.2,0,0.3,0.1l0.2,0.1
			h0.1c6.9,1.1,18.5,1.7,34.3,1.6c0.2,0,0.3,0,0.5,0c45.8-0.4,116.8-3.6,154.3-6.2c7.2-0.5,13.9-1,20.1-1.5
			c26.5-2.1,44.1-3.4,49.4,0.3c2.7,1.9,4.5,5.1,5.2,9.4c0.4,2.2,0.6,4.4,0.6,6.6c0,3.1-0.5,6.3-1.5,9.2c-0.1,0.2-0.1,0.3-0.2,0.4
			l-0.1,0.2c0,0.1,0,0.1-0.1,0.2c-0.8,2.4-2.3,4.4-4.4,5.9c-2.2,1.5-6.5,2.1-12.6,2c-8.7,0-21.2-1.3-36.8-2.9
			c-6.2-0.6-12.9-1.3-20.1-2c-36.5-3.5-104.7-8.3-150.6-9.9l-3.5-0.1c-17-0.6-29.1-0.3-35.9,0.8c-2.1,0.3-4.2,0.9-6.2,1.8
			c-3.2,1.4-6.1,3.2-8.8,5.4c-1.8,1.5-3.5,3-5,4.7c-0.9,0.9-1.7,1.9-2.4,3c-1.1,1.3-2.1,2.6-3,4c-5.2,7.6-12.9,13-24.4,17
			c-4.3,1.5-11.7,2.4-21,2.6c-11.1,0.1-22.1-0.8-33.1-2.8c-10.6-1.9-21.4-4.9-31-9.1c-14.3-6.4-21-15.1-24-22.6
			c-1.5-3.8-2.4-7.8-2.4-11.8l0,0c0-0.2,0-0.4,0-0.7V97c0-0.3,0-0.7,0.1-1.1c0-0.2,0-0.4,0-0.6c0-0.2,0-0.4,0-0.6c0,0,0-0.1,0-0.2
			c0.1-0.6,0.2-1.2,0.3-1.9c0-0.2,0.1-0.5,0.1-0.7c0.1-0.5,0.2-1,0.3-1.6c0.6-2.4,1.4-4.8,2.6-7l0,0c3.5-7.1,10.4-14.9,23.9-20.5
			c4.1-1.7,8.2-3.1,12.5-4.3c0,0,0,0,0,0c7.2-2,14.5-3.5,21.9-4.5l0,0c2.9-0.4,5.7-0.7,8.5-0.9c1-0.1,2.1-0.2,3.1-0.2h0
			C346.6,52,357.1,52.4,364.9,53.4z"/>
		
			<linearGradient id="SVGID_4_" gradientUnits="userSpaceOnUse" x1="425.2318" y1="155.5165" x2="394.2367" y2="155.8514" gradientTransform="matrix(1.239150e-02 -0.9999 -0.9999 -1.239150e-02 484.7447 497.5383)">
			<stop  offset="0" style="stop-color:#FFFFFF"/>
			<stop  offset="1" style="stop-color:#999999"/>
		</linearGradient>
		<path class="st8" d="M372.6,60.2c0,0,10.6-0.1,19.9,6.8c1.2,0.9,2.3,1.9,3.4,2.9l0,0c2,2,3.6,4.2,5,6.6l0.4,0.8
			c1.6,3,2.7,6.3,3.4,9.6c2.2,10.6,2,21.6-1.6,31.7c-0.9,1-1.6,1.8-2,2.4l0,0c-0.2,0.3-0.4,0.5-0.4,0.6c-1.1,1.3-2.1,2.6-3,4
			c-5.2,7.6-12.9,13-24.4,17c-12.7,4.4-54.7,4.2-85.1-9.4c-24.1-10.8-26.5-28.1-26.4-35.1v-1c0.1-7,2.9-24.3,27.3-34.4
			c9.1-3.8,19.1-6.4,29.1-8h0.1c5.7-0.9,11.3-1.6,16.8-1.9c-2,0.4-48.2,10.8-55,32c-6.9,21.6,10.2,37.1,56.8,39s57.8-16.3,59.4-30.3
			C397.7,79.5,388.2,63.4,372.6,60.2z"/>
		
			<linearGradient id="SVGID_5_" gradientUnits="userSpaceOnUse" x1="371.7103" y1="148.6943" x2="343.3885" y2="140.5345" gradientTransform="matrix(1.239150e-02 -0.9999 -0.9999 -1.239150e-02 484.7447 497.5383)">
			<stop  offset="0" style="stop-color:#F2F2F2"/>
			<stop  offset="1" style="stop-color:#999999"/>
		</linearGradient>
		<path class="st9" d="M392.5,67c-0.4-0.7-0.9-1.4-1.4-2l0,0c4.6,1.7,8.2,10.3,9.5,15c0.1,0.4,0.2-3.9,0.3-3.5
			c2.7,10.5,5.7,28.4,0.2,44.5l0,0c-0.2,0.3-0.4,0.5-0.4,0.6c-1.1,1.3-2.1,2.6-3,4c-0.7,1-1.5,2-2.3,3c-5.1,6.1-12.2,10.6-22.1,14
			c-12.7,4.4-54.7,4.2-85.1-9.4c-24.1-10.8-26.5-28.1-26.4-35.1v-1c0.1-7,2.9-24.3,27.3-34.4c3.3-1.4,6.7-2.6,10.2-3.7
			c6.2-1.9,12.5-3.3,18.9-4.4c-2.6,0.7-42.1,12.9-41.9,37.1c0.1,22.9,22.7,29.5,37.7,32.7c15,3.2,45.6,3.1,59-1.4
			c13.4-4.5,19.4-9.1,24.3-22.5C401.4,88.6,396.4,73.4,392.5,67z"/>
		
			<linearGradient id="SVGID_6_" gradientUnits="userSpaceOnUse" x1="371.3904" y1="149.747" x2="343.0807" y2="141.5872" gradientTransform="matrix(1.239150e-02 -0.9999 -0.9999 -1.239150e-02 484.7447 497.5383)">
			<stop  offset="0" style="stop-color:#F2F2F2"/>
			<stop  offset="1" style="stop-color:#999999"/>
		</linearGradient>
		<path class="st10" d="M299.1,59.1c0.3,0,0.5,0,0.5,0s-20.3,9.7-24.5,25.5s2.6,30,27.5,39.5c24.9,9.5,71.4,7.6,84.4-3.9
			c4.5-3.9,8.1-8.8,10.5-14.3c1.6-3.6,2.7-7.5,3.1-11.4l0,0c0.4-3.3,0.4-6.6,0.1-9.9c1.8,11.4,2.7,29.3-5.5,44
			c-0.4,0.5-0.8,0.9-1.2,1.4c-5,5.4-11.8,9.5-20.9,12.6c-12.7,4.4-54.7,4.2-85.1-9.4c-24.1-10.8-26.5-28.1-26.4-35.1v-1
			c0.1-6.7,2.7-22.9,24.4-33.2l0,0c0.9-0.4,1.9-0.9,2.9-1.3C292.3,61.4,295.7,60.1,299.1,59.1z"/>
		
			<linearGradient id="SVGID_7_" gradientUnits="userSpaceOnUse" x1="370.7408" y1="150.7724" x2="342.7965" y2="142.7162" gradientTransform="matrix(1.239150e-02 -0.9999 -0.9999 -1.239150e-02 484.7447 497.5383)">
			<stop  offset="0" style="stop-color:#F2F2F2"/>
			<stop  offset="1" style="stop-color:#999999"/>
		</linearGradient>
		<path class="st11" d="M286.1,64c-0.4,0.2-16,10.6-14.2,31.1c1.7,20.7,23.1,32.3,49.4,37.1c26.3,4.8,64.3,0.6,71.9-15.4
			c1.7-3.5,3.2-7.2,4.5-10.9c3-8.8,3-13.1,3.1-12.7c0,0.1,0,0.5,0,1.3l0,0c-0.1,4.7-0.8,21.5-6.6,35.5c-0.8,0.9-1.6,1.7-2.5,2.4
			c-4.7,4.2-10.7,7.5-18.4,10.2c-12.7,4.4-54.7,4.2-85.1-9.4c-24.1-10.8-26.5-28.1-26.4-35.1v-1c0.1-5.3,1.7-16.8,13.5-26.4
			C278.5,68.1,282.2,65.8,286.1,64z"/>
		
			<linearGradient id="SVGID_8_" gradientUnits="userSpaceOnUse" x1="368.6953" y1="154.3723" x2="341.7801" y2="146.6144" gradientTransform="matrix(1.239150e-02 -0.9999 -0.9999 -1.239150e-02 484.7447 497.5383)">
			<stop  offset="0" style="stop-color:#F2F2F2"/>
			<stop  offset="1" style="stop-color:#999999"/>
		</linearGradient>
		<path class="st12" d="M275.2,70.8c0,0-12.9,16.5-3.9,35.6s29.2,25.6,55,29.3c29.8,4.4,56.4-1.6,63.6-11.7c6.1-8.5,7.3-12.1,7.5-13
			c-0.2,0.9-0.8,4.3-1.9,8.8c0,0,0,0,0,0c0,0,0,0,0,0.1s-0.1,0.2-0.1,0.4c-1,4.1-2.2,8.1-3.7,12.1c-0.9,0.8-1.8,1.6-2.8,2.3
			c-4.2,3.2-9.4,5.7-15.6,7.9c-12.7,4.4-54.7,4.2-85.1-9.4c-24.1-10.8-26.5-28.1-26.4-35.1v-1c0.2-7.8,3.1-15.3,8.2-21.1
			c0,0,0-0.1,0.1-0.1C271.5,74.1,273.2,72.4,275.2,70.8z"/>
		
			<linearGradient id="SVGID_9_" gradientUnits="userSpaceOnUse" x1="367.1841" y1="156.1326" x2="341.298" y2="148.6731" gradientTransform="matrix(1.239150e-02 -0.9999 -0.9999 -1.239150e-02 484.7447 497.5383)">
			<stop  offset="0" style="stop-color:#F2F2F2"/>
			<stop  offset="1" style="stop-color:#999999"/>
		</linearGradient>
		<path class="st13" d="M269.8,76c-0.8,1.2-9.3,15.5-1.8,31.4c7.8,16.7,24.2,26.9,53.3,31.1c29.1,4.2,52.7,0,61.7-5.9
			c8.5-5.5,11.9-11.9,12.3-12.7c0,0,0,0,0,0c0,0,0,0,0,0.1c0,0.1-0.1,0.2-0.1,0.4c-1.6,5-3.8,9.9-6.5,14.4
			c-4.2,3.2-9.4,5.7-15.6,7.9c-12.7,4.4-54.7,4.2-85.1-9.4c-24.1-10.8-26.5-28.1-26.4-35.1v-1C261.8,89.4,264.7,81.9,269.8,76z"/>
		
			<linearGradient id="SVGID_10_" gradientUnits="userSpaceOnUse" x1="437.7858" y1="95.4342" x2="359.9692" y2="192.5846" gradientTransform="matrix(1.239150e-02 -0.9999 -0.9999 -1.239150e-02 484.7447 497.5383)">
			<stop  offset="0" style="stop-color:#FFFFFF"/>
			<stop  offset="1" style="stop-color:#999999"/>
		</linearGradient>
		<path class="st14" d="M401.1,77.1l0.2,0.2c0.7,0.9,1.5,1.8,2.4,2.7l0.1,0.1c0.4,0.4,0.7,0.8,1.2,1.3c2.5,2.7,5.3,5.1,8.4,7.1
			c-0.9,8.6-2.7,17.2-5.2,25.4c-1.8,1.5-3.5,3-5,4.7c-0.9,0.9-1.7,1.9-2.4,3c-1.1,1.3-2.1,2.6-3,4c-5.2,7.6-12.9,13-24.4,17
			c-12.7,4.4-54.7,4.2-85.1-9.4c-2.1-0.9-4.2-2-6.2-3.2c-0.3-0.2-0.6-0.4-0.9-0.6c-1.5-0.9-3-1.9-4.3-2.9l-0.8-0.6
			c-1.4-1.1-2.8-2.3-4.1-3.7c-0.4-0.4-0.8-0.8-1.2-1.2c-1.8-2-3.3-4.1-4.6-6.4c-0.2-0.4-0.4-0.7-0.6-1.1c0,0,0-0.1,0-0.1
			c-0.1-0.3-0.3-0.5-0.4-0.8c-0.1-0.3-0.3-0.6-0.4-0.9c-0.1-0.3-0.3-0.8-0.5-1.2c-0.3-0.8-0.6-1.7-0.9-2.4c-0.2-0.6-0.3-1.2-0.5-1.7
			c-0.3-1.1-0.5-2.3-0.7-3.4c0-0.3-0.1-0.6-0.1-0.9c-0.1-0.5-0.1-0.9-0.1-1.4c0-0.2,0-0.5,0-0.7c0-0.2,0-0.4,0-0.6s0-0.4,0-0.6
			s0-0.5,0-0.7v-1c0-0.4,0-0.8,0.1-1.3c0-0.2,0-0.4,0-0.6s0-0.4,0-0.6c0.1-0.7,0.2-1.4,0.3-2.1c0-0.2,0.1-0.5,0.1-0.7
			c0.1-0.5,0.2-1,0.3-1.6c23.1,7.1,47.2,10.3,71.3,9.7C366.1,99,388.4,86.7,401.1,77.1z"/>
		
			<linearGradient id="SVGID_11_" gradientUnits="userSpaceOnUse" x1="436.2641" y1="94.2217" x2="358.4475" y2="191.366" gradientTransform="matrix(1.239150e-02 -0.9999 -0.9999 -1.239150e-02 484.7447 497.5383)">
			<stop  offset="0" style="stop-color:#FFFFFF"/>
			<stop  offset="1" style="stop-color:#999999"/>
		</linearGradient>
		<path class="st15" d="M404.8,81.4c0.8,0.9,1.7,1.8,2.8,2.8c1.7,1.6,3.6,3,5.6,4.3c-0.9,8.6-2.7,17.2-5.2,25.4
			c-1.8,1.5-3.5,3-5,4.7c-0.9,0.9-1.7,1.9-2.4,3c-1.1,1.3-2.1,2.6-3,4c-5.2,7.6-12.9,13-24.4,17c-12.7,4.4-54.7,4.2-85.1-9.4
			c-2.1-0.9-4.2-2-6.2-3.2c-0.3-0.1-0.5-0.3-0.8-0.5c-0.4-0.2-0.9-0.5-1.3-0.8c-0.7-0.5-1.5-1-2.1-1.4c-0.3-0.2-0.6-0.4-0.9-0.6
			c-0.3-0.2-0.7-0.5-1-0.8c-0.3-0.3-0.7-0.5-1-0.8c-0.6-0.5-1.2-1.1-1.8-1.6c-0.2-0.2-0.4-0.4-0.6-0.6c-0.2-0.2-0.4-0.4-0.6-0.6
			c-0.7-0.7-1.3-1.3-1.9-2c-0.2-0.3-0.4-0.5-0.7-0.8c-0.4-0.5-0.8-1.1-1.2-1.6c-0.2-0.2-0.3-0.4-0.4-0.6c-1-1.4-1.9-3-2.6-4.5
			c-0.2-0.3-0.3-0.6-0.4-0.9c-0.1-0.3-0.3-0.8-0.5-1.2c-0.1-0.2-0.2-0.4-0.2-0.6c-0.1-0.3-0.2-0.6-0.3-0.9s-0.2-0.7-0.3-1
			s-0.2-0.5-0.2-0.8c-0.1-0.3-0.2-0.7-0.3-1c-0.1-0.5-0.2-1-0.4-1.5c0-0.3-0.1-0.5-0.2-0.8c-0.1-0.7-0.2-1.3-0.3-2
			c0-0.2-0.1-0.5-0.1-0.7c0-0.2,0-0.5-0.1-0.7c0-0.2,0-0.5,0-0.7s0-0.4,0-0.6s0-0.4,0-0.6c0-0.2,0-0.5,0-0.7v-1c0-0.4,0-0.8,0.1-1.3
			c23.7,7.5,48.5,11,73.3,10.3C369.6,105.1,392.7,91.2,404.8,81.4z"/>
		
			<linearGradient id="SVGID_12_" gradientUnits="userSpaceOnUse" x1="434.9633" y1="93.1761" x2="357.1406" y2="190.3205" gradientTransform="matrix(1.239150e-02 -0.9999 -0.9999 -1.239150e-02 484.7447 497.5383)">
			<stop  offset="0" style="stop-color:#FFFFFF"/>
			<stop  offset="1" style="stop-color:#999999"/>
		</linearGradient>
		<path class="st16" d="M407.7,84.2c0.8,0.7,1.6,1.4,2.5,2.1c0.9,0.7,2,1.5,3.1,2.2c-0.1,0.7-0.2,1.4-0.2,2.1
			c-0.1,0.8-0.2,1.6-0.3,2.5c0,0,0,0.1,0,0.2c-0.1,0.6-0.2,1.1-0.3,1.7c0,0.2-0.1,0.4-0.1,0.7c0,0,0,0.1,0,0.1
			c-0.1,0.5-0.2,1.1-0.3,1.6c-0.1,0.5-0.2,1-0.3,1.4s-0.2,1.1-0.3,1.7c0,0.2-0.1,0.3-0.1,0.5c-0.1,0.4-0.1,0.8-0.2,1.1
			c-0.1,0.5-0.2,1.1-0.4,1.6l-0.1,0.4c0,0.1-0.1,0.3-0.1,0.4c0,0.1,0,0.2-0.1,0.2c-0.2,0.7-0.3,1.4-0.5,2.1
			c-0.1,0.3-0.1,0.5-0.2,0.8c0,0.1-0.1,0.2-0.1,0.4c-0.2,0.8-0.4,1.7-0.7,2.6c0,0.1,0,0.2-0.1,0.2c-0.3,1-0.6,2.1-0.9,3.1
			c-1.8,1.5-3.5,3-5,4.7c-0.9,0.9-1.7,1.9-2.4,3c-1.1,1.3-2.1,2.6-3,4c-5.2,7.6-12.9,13-24.4,17c-12.7,4.4-54.7,4.2-85.1-9.4
			l-1.3-0.6c-0.1,0-0.2-0.1-0.2-0.1c0,0-0.1,0-0.1,0l-1.2-0.6c-0.3-0.2-0.7-0.3-1-0.5l-0.3-0.2l-0.8-0.4l-0.5-0.3
			c-0.4-0.2-0.8-0.5-1.2-0.7c-0.2-0.1-0.3-0.2-0.4-0.3l-0.5-0.3c-0.1,0-0.1-0.1-0.2-0.1c-1.2-0.8-2.4-1.6-3.4-2.4
			c-0.3-0.2-0.6-0.4-0.8-0.7l-0.2-0.1c-0.3-0.2-0.5-0.4-0.8-0.6c-0.2-0.2-0.6-0.5-0.9-0.8c-0.2-0.2-0.4-0.4-0.6-0.6
			c-0.2-0.2-0.3-0.3-0.5-0.4s-0.4-0.4-0.6-0.6c0,0,0,0-0.1-0.1c-0.2-0.2-0.5-0.5-0.7-0.7l-0.2-0.2c-0.2-0.2-0.5-0.5-0.7-0.7
			c-0.2-0.2-0.5-0.6-0.8-0.9c-0.1-0.1-0.1-0.1-0.2-0.2l-0.5-0.6c-0.3-0.4-0.6-0.8-0.9-1.1c-0.1-0.1-0.2-0.2-0.2-0.3
			c-0.5-0.6-0.9-1.3-1.3-1.9c-0.1-0.1-0.1-0.2-0.2-0.3c-0.1-0.1-0.2-0.3-0.2-0.4c-0.1-0.2-0.2-0.4-0.4-0.6l0,0
			c-0.2-0.3-0.3-0.5-0.4-0.8c0-0.1-0.1-0.1-0.1-0.2c-0.1-0.2-0.2-0.4-0.3-0.6l0,0c-0.1-0.2-0.2-0.3-0.3-0.5c0-0.1-0.1-0.2-0.1-0.3
			c-0.4-0.8-0.7-1.6-1-2.4c-0.1-0.3-0.2-0.6-0.3-0.9c0-0.2-0.1-0.3-0.2-0.5c-0.1-0.4-0.3-0.8-0.4-1.2c-0.1-0.4-0.2-0.7-0.3-1.1
			c0-0.2-0.1-0.4-0.1-0.6c-0.2-0.6-0.3-1.2-0.4-1.7c-0.1-0.7-0.2-1.3-0.3-2c0-0.2-0.1-0.5-0.1-0.7c0-0.2,0-0.5-0.1-0.7s0-0.5,0-0.7
			c23.9,7.7,49,11.2,74.1,10.6C372.4,109.5,396.2,94,407.7,84.2z"/>
		
			<linearGradient id="SVGID_13_" gradientUnits="userSpaceOnUse" x1="433.6081" y1="92.0944" x2="355.7915" y2="189.2388" gradientTransform="matrix(1.239150e-02 -0.9999 -0.9999 -1.239150e-02 484.7447 497.5383)">
			<stop  offset="0" style="stop-color:#FFFFFF"/>
			<stop  offset="1" style="stop-color:#999999"/>
		</linearGradient>
		<path class="st17" d="M410.2,86.3c1,0.7,2,1.5,3.1,2.2c-0.1,0.7-0.2,1.4-0.2,2.1c-0.1,0.8-0.2,1.6-0.3,2.5c0,0,0,0.1,0,0.2
			c-0.1,0.6-0.2,1.1-0.3,1.7c0,0.2-0.1,0.4-0.1,0.7c0,0,0,0.1,0,0.1c-0.1,0.5-0.2,1.1-0.3,1.6c-0.1,0.5-0.2,1-0.3,1.4
			c-0.1,0.5-0.2,1.1-0.3,1.7c0,0.2-0.1,0.3-0.1,0.5c-0.1,0.4-0.1,0.8-0.2,1.1c0,0.1-0.1,0.3-0.1,0.4c-0.1,0.3-0.1,0.6-0.2,1
			c0,0.2-0.1,0.4-0.1,0.6c0,0.1-0.1,0.3-0.1,0.4c0,0.1,0,0.2-0.1,0.2c-0.2,0.7-0.3,1.4-0.5,2.1c-0.1,0.3-0.1,0.5-0.2,0.8
			c0,0.1-0.1,0.2-0.1,0.4c-0.2,0.8-0.4,1.7-0.7,2.6c0,0.1,0,0.2-0.1,0.2c-0.3,1-0.6,2.1-0.9,3.1c-1.8,1.5-3.5,3-5,4.7
			c-0.9,0.9-1.7,1.9-2.4,3c-1.1,1.3-2.1,2.6-3,4c-5.2,7.6-12.9,13-24.4,17c-12.7,4.4-54.7,4.2-85.1-9.4l-1.3-0.6
			c-0.1,0-0.2-0.1-0.2-0.1c0,0-0.1,0-0.1,0l-1.2-0.6c-0.3-0.2-0.7-0.3-1-0.5l-0.3-0.2l-0.8-0.4l-0.5-0.3c-0.4-0.2-0.8-0.5-1.2-0.7
			c-0.2-0.1-0.3-0.2-0.4-0.3l-0.5-0.3c-0.1,0-0.1-0.1-0.2-0.1c-1.2-0.8-2.4-1.6-3.4-2.4c-0.3-0.2-0.6-0.4-0.8-0.7l-0.2-0.1
			c-0.3-0.2-0.5-0.4-0.8-0.6c-0.2-0.2-0.6-0.5-0.9-0.8c-0.2-0.2-0.4-0.4-0.6-0.6c-0.2-0.2-0.3-0.3-0.5-0.4s-0.4-0.4-0.6-0.6
			c0,0,0,0-0.1-0.1c-0.2-0.2-0.5-0.5-0.7-0.7l-0.2-0.2c-0.2-0.2-0.5-0.5-0.7-0.7c-0.2-0.2-0.5-0.6-0.8-0.9c-0.1-0.1-0.1-0.1-0.2-0.2
			l-0.5-0.6c-0.3-0.4-0.6-0.8-0.9-1.1c-0.1-0.1-0.2-0.2-0.2-0.3c-0.5-0.6-0.9-1.3-1.3-1.9c-0.1-0.1-0.1-0.2-0.2-0.3
			c-0.1-0.1-0.2-0.3-0.2-0.4c-0.1-0.2-0.2-0.4-0.4-0.6l0,0c-0.2-0.3-0.3-0.5-0.4-0.8c-0.1-0.1-0.1-0.2-0.2-0.4
			c-0.1-0.1-0.1-0.3-0.2-0.4l0,0c-0.1-0.3-0.3-0.5-0.4-0.8c-0.4-0.8-0.7-1.6-1-2.4c-0.2-0.5-0.3-0.9-0.5-1.4s-0.3-0.8-0.4-1.2
			c-0.1-0.4-0.2-0.7-0.3-1.1c0-0.2-0.1-0.4-0.1-0.6c-0.2-0.6-0.3-1.2-0.4-1.7c16.7,5.4,43.2,11.5,74.2,10.5
			C375.3,113.4,399.7,95.8,410.2,86.3z"/>
		
			<linearGradient id="SVGID_14_" gradientUnits="userSpaceOnUse" x1="431.9253" y1="90.7433" x2="354.1087" y2="187.8938" gradientTransform="matrix(1.239150e-02 -0.9999 -0.9999 -1.239150e-02 484.7447 497.5383)">
			<stop  offset="0" style="stop-color:#FFFFFF"/>
			<stop  offset="1" style="stop-color:#999999"/>
		</linearGradient>
		<path class="st18" d="M413,90.6c-0.4,3.2-0.9,6.7-1.7,10.4c-0.9,4.4-2,8.7-3.3,13c-1.8,1.5-3.5,3-5,4.7c-0.9,0.9-1.7,1.9-2.4,3
			c-1.1,1.3-2.1,2.6-3,4c-5.2,7.6-12.9,13-24.4,17c-12.7,4.4-54.7,4.2-85.1-9.4c-11.7-5.2-18.3-12-22-18.4c-1.1-2-2-4-2.8-6.2
			c24.2,7.9,49.7,11.6,75.1,10.9C378.3,118.3,403,99.9,413,90.6z"/>
		
			<linearGradient id="SVGID_15_" gradientUnits="userSpaceOnUse" x1="429.3642" y1="88.6884" x2="351.5476" y2="185.8388" gradientTransform="matrix(1.239150e-02 -0.9999 -0.9999 -1.239150e-02 484.7447 497.5383)">
			<stop  offset="0" style="stop-color:#FFFFFF"/>
			<stop  offset="1" style="stop-color:#999999"/>
		</linearGradient>
		<path class="st19" d="M411.3,100.9c-0.5,2.7-1.2,5.4-1.9,8.3c-0.4,1.5-0.9,3.1-1.4,4.7c-1.8,1.5-3.5,3-5,4.7
			c-0.9,0.9-1.7,1.9-2.4,3c-1.1,1.3-2.1,2.6-3,4c-5.2,7.6-12.9,13-24.4,17c-12.7,4.4-54.7,4.2-85.1-9.4c-7.4-3.3-12.8-7.3-16.7-11.3
			c-2.1-2.1-3.8-4.5-5.3-7.1c16.7,5.4,43.6,12,75.4,11C376.1,124.7,399.3,110.7,411.3,100.9z"/>
		
			<linearGradient id="SVGID_16_" gradientUnits="userSpaceOnUse" x1="425.9156" y1="85.9271" x2="348.0991" y2="183.0715" gradientTransform="matrix(1.239150e-02 -0.9999 -0.9999 -1.239150e-02 484.7447 497.5383)">
			<stop  offset="0" style="stop-color:#FFFFFF"/>
			<stop  offset="1" style="stop-color:#999999"/>
		</linearGradient>
		<path class="st20" d="M409.4,109.2c-0.4,1.5-0.9,3.1-1.4,4.7c-1.8,1.5-3.5,3-5,4.7c-0.5,0.6-1,1.1-1.3,1.6c-0.7,0.8-1,1.3-1.1,1.4
			c-1.1,1.3-2.1,2.6-3,4c-5.2,7.6-12.9,13-24.4,17c-12.7,4.4-54.7,4.2-85.1-9.4c-2.4-1.1-4.8-2.3-7.1-3.7c-3.5-2.1-6.7-4.7-9.6-7.6
			c23.1,7.1,47.2,10.3,71.3,9.7C374.5,130.6,396.6,118.8,409.4,109.2z"/>
		
			<linearGradient id="SVGID_17_" gradientUnits="userSpaceOnUse" x1="421.2678" y1="82.2052" x2="343.4512" y2="179.3495" gradientTransform="matrix(1.239150e-02 -0.9999 -0.9999 -1.239150e-02 484.7447 497.5383)">
			<stop  offset="0" style="stop-color:#FFFFFF"/>
			<stop  offset="1" style="stop-color:#999999"/>
		</linearGradient>
		<path class="st21" d="M401.7,120.2c-0.7,0.8-1,1.3-1.1,1.4c-1.1,1.3-2.1,2.6-3,4c-5.2,7.6-12.9,13-24.4,17
			c-12.7,4.4-54.7,4.2-85.1-9.4c-2.4-1.1-4.8-2.3-7.1-3.7c20.5,5.4,41.6,7.8,62.7,7.2C369.2,136,388.5,128.2,401.7,120.2z"/>
		
			<linearGradient id="SVGID_18_" gradientUnits="userSpaceOnUse" x1="350.6236" y1="176.6952" x2="443.4596" y2="176.6952" gradientTransform="matrix(1.239150e-02 -0.9999 -0.9999 -1.239150e-02 484.7447 497.5383)">
			<stop  offset="0" style="stop-color:#FFFFFF"/>
			<stop  offset="1" style="stop-color:#999999"/>
		</linearGradient>
		<path class="st22" d="M354.6,52.5c3.8,0.2,7.3,0.5,10.4,0.9c-17.4,1.8-55.4,14.1-56.1,43c-0.7,31,40.7,47.8,43.3,48.8
			c-6.1,0.1-12.2-0.2-18.2-0.8c-15-1.4-31.7-4.8-45.8-11.1c-24.1-10.8-26.5-28.1-26.4-35.1v-1c0-0.4,0-0.8,0.1-1.3
			c0-0.2,0-0.4,0-0.6s0-0.4,0-0.6c0.1-0.7,0.2-1.4,0.3-2.1c0-0.2,0.1-0.5,0.1-0.7c0.1-0.5,0.2-1,0.3-1.6c2-8.3,8.1-19.9,26.4-27.6
			c14.3-5.9,31-8.9,46-10h0C341.5,52.3,348,52.2,354.6,52.5z"/>
		
			<linearGradient id="SVGID_19_" gradientUnits="userSpaceOnUse" x1="351.2257" y1="181.8673" x2="443.4582" y2="181.8673" gradientTransform="matrix(1.239150e-02 -0.9999 -0.9999 -1.239150e-02 484.7447 497.5383)">
			<stop  offset="0" style="stop-color:#FFFFFF"/>
			<stop  offset="1" style="stop-color:#999999"/>
		</linearGradient>
		<path class="st23" d="M354.6,52.5c-20,4.4-50.5,18.4-51.2,46.1c-0.5,21.7,17,37.1,30.5,45.7c-0.8-0.1-1.6-0.2-2.4-0.2
			c-14.4-1.5-30.1-4.9-43.5-10.9c-24.1-10.8-26.5-28.1-26.4-35.1v-1c0-0.4,0-0.8,0.1-1.3c0-0.2,0-0.4,0-0.6c0-0.2,0-0.4,0-0.6
			c0.1-0.7,0.2-1.4,0.3-2.1c0-0.2,0.1-0.5,0.1-0.7c0.1-0.5,0.2-1,0.3-1.6c2-8.3,8.1-19.9,26.4-27.6c14.3-5.9,31-8.9,46-10h0
			c3.1-0.2,6.1-0.4,9-0.4C347.7,52.3,351.3,52.4,354.6,52.5z"/>
		
			<linearGradient id="SVGID_20_" gradientUnits="userSpaceOnUse" x1="351.4214" y1="187.1411" x2="443.3731" y2="187.1411" gradientTransform="matrix(1.239150e-02 -0.9999 -0.9999 -1.239150e-02 484.7447 497.5383)">
			<stop  offset="0" style="stop-color:#FFFFFF"/>
			<stop  offset="1" style="stop-color:#999999"/>
		</linearGradient>
		<path class="st24" d="M344,52.4c-19.6,5.7-44.7,19.5-45.3,44.7c-0.5,23,19,38.8,32.8,47.2c-2.4-0.3-4.9-0.6-7.3-0.9
			c-12.3-1.8-25-5-36.2-10c-24.1-10.8-26.5-28.1-26.4-35.1v-1c0-0.4,0-0.8,0.1-1.3c0-0.2,0-0.4,0-0.6c0-0.2,0-0.4,0-0.6
			c0.1-0.7,0.2-1.4,0.3-2.1c0-0.2,0.1-0.5,0.1-0.7c0.1-0.5,0.2-1,0.3-1.6c2-8.3,8.1-19.9,26.4-27.6c13.6-5.6,29.3-8.6,43.7-9.8
			l2.3-0.2h0C338.1,52.6,341.1,52.4,344,52.4z"/>
		
			<linearGradient id="SVGID_21_" gradientUnits="userSpaceOnUse" x1="352.2624" y1="192.8034" x2="442.6664" y2="192.8034" gradientTransform="matrix(1.239150e-02 -0.9999 -0.9999 -1.239150e-02 484.7447 497.5383)">
			<stop  offset="0" style="stop-color:#FFFFFF"/>
			<stop  offset="1" style="stop-color:#999999"/>
		</linearGradient>
		<path class="st25" d="M332.7,53c-18.3,6.8-38.4,20.5-38.9,43.6c-0.5,22.2,16.9,37.9,30.4,46.7c-1.7-0.2-3.4-0.5-5.2-0.8
			c-10.6-1.9-21.4-4.9-31-9.1c-24.1-10.8-26.5-28.1-26.4-35.1v-1c0-0.4,0-0.8,0.1-1.3c0-0.2,0-0.4,0-0.6s0-0.4,0-0.6
			c0.1-0.7,0.2-1.4,0.3-2.1c0-0.2,0.1-0.5,0.1-0.7c0.1-0.5,0.2-1,0.3-1.6c2-8.3,8.1-19.9,26.4-27.6c10.7-4.5,22.7-7.2,34.4-8.8
			C326.5,53.5,329.6,53.2,332.7,53z"/>
		
			<linearGradient id="SVGID_22_" gradientUnits="userSpaceOnUse" x1="353.0328" y1="197.4521" x2="441.5463" y2="197.4521" gradientTransform="matrix(1.239150e-02 -0.9999 -0.9999 -1.239150e-02 484.7447 497.5383)">
			<stop  offset="0" style="stop-color:#FFFFFF"/>
			<stop  offset="1" style="stop-color:#999999"/>
		</linearGradient>
		<path class="st26" d="M323.4,54c-17,7.3-34.1,20.6-34.6,41.8c-0.5,22.1,16.8,37.8,30.3,46.6c-3-0.5-6.1-1.2-9.2-1.9
			c-7.5-1.7-14.8-4.2-21.8-7.2c-24.1-10.8-26.5-28.1-26.4-35.1v-1c0-0.4,0-0.8,0.1-1.3c0-0.2,0-0.4,0-0.6c0-0.2,0-0.4,0-0.6
			c0.1-0.7,0.2-1.4,0.3-2.1c0-0.2,0.1-0.5,0.1-0.7c0.1-0.5,0.2-1,0.3-1.6c2-8.3,8.1-19.9,26.4-27.6c8.4-3.4,17.1-5.9,26.1-7.5
			C317.8,54.7,320.6,54.3,323.4,54z"/>
		
			<linearGradient id="SVGID_23_" gradientUnits="userSpaceOnUse" x1="354.7885" y1="201.627" x2="440.1335" y2="201.627" gradientTransform="matrix(1.239150e-02 -0.9999 -0.9999 -1.239150e-02 484.7447 497.5383)">
			<stop  offset="0" style="stop-color:#FFFFFF"/>
			<stop  offset="1" style="stop-color:#999999"/>
		</linearGradient>
		<path class="st27" d="M315,55.3c-16.2,7.5-31.8,20.5-32.2,40.8c-0.5,20.4,14.2,35.3,27.1,44.5c-2.9-0.7-5.7-1.5-8.5-2.3
			c-4.5-1.4-9-3-13.3-4.9c-24.1-10.8-26.5-28.1-26.4-35.1v-1c0-0.4,0-0.8,0.1-1.3c0-0.2,0-0.4,0-0.6c0-0.2,0-0.4,0-0.6
			c0.1-0.7,0.2-1.4,0.3-2.1c0-0.2,0.1-0.5,0.1-0.7c0.1-0.5,0.2-1,0.3-1.6c2-8.3,8.1-19.9,26.4-27.6c4-1.7,8.2-3.1,12.4-4.3l0,0
			C305.8,57.2,310.4,56.1,315,55.3z"/>
		
			<linearGradient id="SVGID_24_" gradientUnits="userSpaceOnUse" x1="357.0149" y1="207.9327" x2="436.7553" y2="207.9327" gradientTransform="matrix(1.239150e-02 -0.9999 -0.9999 -1.239150e-02 484.7447 497.5383)">
			<stop  offset="0" style="stop-color:#FFFFFF"/>
			<stop  offset="1" style="stop-color:#999999"/>
		</linearGradient>
		<path class="st28" d="M301.3,58.5c-12.9,7.9-23.6,20-24,36.9c-0.4,19.1,12,33.4,24,42.8c-2.6-0.8-5.2-1.7-7.8-2.7
			c-1.9-0.7-3.7-1.5-5.5-2.3c-24.1-10.8-26.5-28.1-26.4-35.1v-1c0-0.4,0-0.8,0.1-1.3c0-0.2,0-0.4,0-0.6c0-0.2,0-0.4,0-0.6
			c0.1-0.7,0.2-1.4,0.3-2.1c0-0.2,0.1-0.5,0.1-0.7c0.1-0.5,0.2-1,0.3-1.6c2-8.3,8.1-19.9,26.4-27.6c1.1-0.5,2.2-0.9,3.3-1.3
			C295.2,60.3,298.3,59.3,301.3,58.5z"/>
		
			<linearGradient id="SVGID_25_" gradientUnits="userSpaceOnUse" x1="359.604" y1="211.8252" x2="433.6837" y2="211.8252" gradientTransform="matrix(1.239150e-02 -0.9999 -0.9999 -1.239150e-02 484.7447 497.5383)">
			<stop  offset="0" style="stop-color:#FFFFFF"/>
			<stop  offset="1" style="stop-color:#999999"/>
		</linearGradient>
		<path class="st29" d="M292.3,61.4c-10.8,7.9-19.1,19-19.5,33.9c-0.4,17.4,9.9,30.9,20.8,40.2c-1.9-0.7-3.7-1.5-5.5-2.3
			c-1.8-0.8-3.5-1.7-5.1-2.6c-19.4-10.8-21.4-26.1-21.3-32.5v-1c0-0.4,0-0.8,0.1-1.3c0-0.2,0-0.4,0-0.6c0-0.2,0-0.4,0-0.6
			c0.1-0.7,0.2-1.4,0.3-2.1c0-0.2,0.1-0.5,0.1-0.7c0.1-0.5,0.2-1,0.3-1.6c1.6-6.6,5.8-15.3,16.6-22.4c3.1-2,6.4-3.7,9.8-5.1
			C290,62.3,291.1,61.9,292.3,61.4z"/>
		
			<linearGradient id="SVGID_26_" gradientUnits="userSpaceOnUse" x1="364.2761" y1="217.1857" x2="427.0485" y2="217.1857" gradientTransform="matrix(1.239150e-02 -0.9999 -0.9999 -1.239150e-02 484.7447 497.5383)">
			<stop  offset="0" style="stop-color:#FFFFFF"/>
			<stop  offset="1" style="stop-color:#999999"/>
		</linearGradient>
		<path class="st30" d="M279.1,67.9c-6.9,7.1-11.7,16.2-11.9,27.4c-0.3,14.6,6.9,26.5,15.7,35.5c-2.6-1.4-5.1-3.1-7.5-5
			c-12.4-10.1-13.9-22-13.9-27.5v-1c0-0.4,0-0.8,0.1-1.3c0-0.2,0-0.4,0-0.6c0-0.2,0-0.4,0-0.6c0.1-0.7,0.2-1.4,0.3-2.1
			c0-0.2,0.1-0.5,0.1-0.7c0.1-0.5,0.2-1,0.3-1.6c1.3-5.2,3.7-10.1,7.2-14.2C272.5,72.9,275.6,70.2,279.1,67.9z"/>
		
			<linearGradient id="SVGID_27_" gradientUnits="userSpaceOnUse" x1="369.2134" y1="220.9251" x2="418.7058" y2="220.9251" gradientTransform="matrix(1.239150e-02 -0.9999 -0.9999 -1.239150e-02 484.7447 497.5383)">
			<stop  offset="0" style="stop-color:#FFFFFF"/>
			<stop  offset="1" style="stop-color:#999999"/>
		</linearGradient>
		<path class="st31" d="M269.7,76.1c-3.5,5.8-5.4,12.4-5.5,19.1c-0.3,12.1,4.6,22.3,11.3,30.5c-12.4-10.1-13.9-22-13.9-27.5v-1
			c0-0.4,0-0.8,0.1-1.3c0-0.2,0-0.4,0-0.6c0-0.2,0-0.4,0-0.6c0.1-0.7,0.2-1.4,0.3-2.1c0-0.2,0.1-0.5,0.1-0.7c0.1-0.5,0.2-1,0.3-1.6
			C263.8,85.1,266.3,80.2,269.7,76.1z"/>
		
			<linearGradient id="SVGID_28_" gradientUnits="userSpaceOnUse" x1="426.456" y1="152.2651" x2="435.1212" y2="152.2651" gradientTransform="matrix(1.239150e-02 -0.9999 -0.9999 -1.239150e-02 484.7447 497.5383)">
			<stop  offset="0" style="stop-color:#FFFFFF"/>
			<stop  offset="1" style="stop-color:#999999"/>
		</linearGradient>
		<path class="st32" d="M364.9,53.4c3.2,0.4,6.3,1.1,9.3,2.1c9.7,3.7,16.7,8.3,21.6,14.4l0,0c0.8,1,1.6,2.1,2.3,3.2
			c0.9,1.4,1.8,2.7,2.9,4l0.2,0.2c0.7,0.9,1.5,1.8,2.4,2.7l0.1,0.1c1.5,1.7,3.1,3.4,4.9,4.9c1.5,1.3,3.1,2.5,4.7,3.5
			c0,0,0.1,0,0.1,0.1c-0.1,2.2-0.4,4.3-0.9,6.4c-5,19.2-9.5,18.7-10.5,14.2c-1-4.6-3.3-28.6-22.2-35.8c-18.9-7.2-55.8-3.8-85.3,4.6
			s-30.3,32.8-30.3,32.8c-1.6-4-2.5-8.2-2.4-12.5v-1c0-0.4,0-0.8,0.1-1.3c0-0.2,0-0.4,0-0.6s0-0.4,0-0.6c0-0.4,0.1-0.8,0.2-1.3
			c0-0.2,0.1-0.5,0.1-0.8c0-0.3,0.1-0.5,0.1-0.7c0.1-0.5,0.2-1,0.3-1.6c2-8.3,8.1-19.9,26.4-27.6c14.3-5.9,31-8.9,46-10h0
			C346.6,52,357.1,52.4,364.9,53.4z"/>
		
			<linearGradient id="SVGID_29_" gradientUnits="userSpaceOnUse" x1="412.4284" y1="158.1762" x2="427.7554" y2="167.5052" gradientTransform="matrix(1.239150e-02 -0.9999 -0.9999 -1.239150e-02 484.7447 497.5383)">
			<stop  offset="0" style="stop-color:#FFFFFF"/>
			<stop  offset="1" style="stop-color:#999999"/>
		</linearGradient>
		<path class="st33" d="M364.9,53.4c3.2,0.4,6.3,1.1,9.3,2.1c9.7,3.7,16.7,8.3,21.6,14.4l0,0c0.8,1,1.6,2.1,2.3,3.2
			c0.9,1.4,1.8,2.7,2.9,4l0.2,0.2c0.7,0.9,1.5,1.8,2.4,2.7l0.1,0.1c1.5,1.7,3.1,3.4,4.9,4.9c0.7,5.1,0.6,10.2-0.7,14.7
			c-3.1,10.3-3,5.3-5.8-2.8s-6.1-27-37.2-30.1c-31.1-3.1-61.9,0.6-86.6,13C270,83.9,265,88.7,262,93.4c0-0.2,0.1-0.5,0.1-0.8
			c0-0.3,0.1-0.5,0.1-0.7c0.1-0.2,0.1-0.5,0.1-0.8c0-0.3,0.1-0.5,0.2-0.8c2-8.3,8.1-19.9,26.4-27.6c14.3-5.9,31-8.9,46-10h0
			C346.6,52,357.1,52.4,364.9,53.4z"/>
		
			<linearGradient id="SVGID_30_" gradientUnits="userSpaceOnUse" x1="412.8134" y1="157.5384" x2="428.1405" y2="166.8673" gradientTransform="matrix(1.239150e-02 -0.9999 -0.9999 -1.239150e-02 484.7447 497.5383)">
			<stop  offset="0" style="stop-color:#FFFFFF"/>
			<stop  offset="1" style="stop-color:#999999"/>
		</linearGradient>
		<path class="st34" d="M364.9,53.4c3.2,0.4,6.3,1.1,9.3,2.1c9.7,3.7,16.7,8.3,21.6,14.4l0,0c0.8,1,1.6,2.1,2.3,3.2
			c0.9,1.4,1.8,2.7,2.9,4l0.2,0.2c0.7,0.9,1.5,1.8,2.4,2.7l0.1,0.1c1.1,1.2,2.2,2.4,3.4,3.5c0.5,0.4,1,0.9,1.5,1.3
			c0.7,5.1,0.6,10.2-0.7,14.7c-2.9-4.4-3.2-20.5-25.3-32s-71.6-6.9-97.7,3.3c-11.1,4.3-18.1,12.3-22.5,20.1c0.1-0.2,0.1-0.5,0.2-0.8
			c1.3-5.3,3.8-10.2,7.4-14.3l0,0c4.1-4.8,10.1-9.5,19-13.2c14.3-5.9,31-8.9,46-10h0C346.6,52,357.1,52.4,364.9,53.4z"/>
		
			<linearGradient id="SVGID_31_" gradientUnits="userSpaceOnUse" x1="416.3568" y1="151.7202" x2="431.6838" y2="161.0492" gradientTransform="matrix(1.239150e-02 -0.9999 -0.9999 -1.239150e-02 484.7447 497.5383)">
			<stop  offset="0" style="stop-color:#FFFFFF"/>
			<stop  offset="1" style="stop-color:#999999"/>
		</linearGradient>
		<path class="st35" d="M364.9,53.4c3.2,0.4,6.3,1.1,9.3,2.1c9.7,3.7,16.7,8.3,21.6,14.4l0,0c0.8,1,1.6,2.1,2.3,3.2
			c0.9,1.4,1.8,2.7,2.9,4l0.2,0.2c0.7,0.9,1.5,1.8,2.4,2.7l0.1,0.1c1.1,1.2,2.2,2.4,3.4,3.5c-0.1,1.5-0.4,2.9-0.8,4.3
			c0,0-2.9-10.2-13.7-18.6c-10.8-8.4-22.2-11.1-54.6-11.5s-68,18.1-68,18.1l0,0c4.1-4.8,10.1-9.5,19-13.2c14.3-5.9,31-8.9,46-10h0
			C346.6,52,357.1,52.4,364.9,53.4z"/>
		
			<linearGradient id="SVGID_32_" gradientUnits="userSpaceOnUse" x1="403.8868" y1="212.4966" x2="405.8842" y2="225.8263" gradientTransform="matrix(1.239150e-02 -0.9999 -0.9999 -1.239150e-02 484.7447 497.5383)">
			<stop  offset="0" style="stop-color:#FFFFFF"/>
			<stop  offset="1" style="stop-color:#999999"/>
		</linearGradient>
		<path class="st36" d="M323.4,54c-22.1,6.1-53.4,20-49.3,48.4c3.9,26.8,45,40.1,45,40.1c-10.6-1.9-21.4-4.9-31-9.1
			c-14.3-6.4-21-15.1-24-22.6c-1.6-4-2.5-8.2-2.4-12.5v-1c0-0.4,0-0.8,0.1-1.3c0-0.2,0-0.4,0-0.6c0-0.2,0-0.4,0-0.6
			c0.1-0.7,0.2-1.4,0.3-2.1c0-0.2,0.1-0.5,0.1-0.7c0.1-0.5,0.2-1,0.3-1.6c2-8.3,8.1-19.9,26.4-27.6C299.6,58.3,311.7,55.5,323.4,54z
			"/>
		
			<linearGradient id="SVGID_33_" gradientUnits="userSpaceOnUse" x1="426.284" y1="156.5483" x2="404.9224" y2="157.9611" gradientTransform="matrix(1.239150e-02 -0.9999 -0.9999 -1.239150e-02 484.7447 497.5383)">
			<stop  offset="0" style="stop-color:#FFFFFF"/>
			<stop  offset="1" style="stop-color:#000000"/>
		</linearGradient>
		<path class="st37" d="M282.8,100.7c0,0,18.5-6.9,38.5-7.3s57.6-0.2,64.9,0.1c7.3,0.3,6-4-2.3-14.5c-8.4-10.5-48.7-17.9-66.2-14.5
			c-17.5,3.3-30.9,4.7-41.4,19.6C265.6,98.9,280.9,101.3,282.8,100.7z"/>
		
			<linearGradient id="SVGID_34_" gradientUnits="userSpaceOnUse" x1="423.9275" y1="151.111" x2="409.0998" y2="152.0914" gradientTransform="matrix(1.239150e-02 -0.9999 -0.9999 -1.239150e-02 484.7447 497.5383)">
			<stop  offset="0" style="stop-color:#FFFFFF"/>
			<stop  offset="1" style="stop-color:#000000"/>
		</linearGradient>
		<path class="st38" d="M291.1,91.7c0,0,0.1-0.4,0.3-1.1c1.3-3.9,6.6-16.4,21.9-20.4c8.6-2.1,17.5-2.9,26.4-2.2
			c8.3,0.5,17.4,1.5,25,4.9c6.3,2.7,14.9,6.6,18.7,12.7c3.9,6.2-14.5,6.4-22.1,5.2c-7.5-1.2-12.4-3-18.1-6.4
			c-5.7-3.4-22.7-2.3-30-0.6c-7.3,1.7-10.1,1.9-15.2,6C292.8,93.9,290.8,92.8,291.1,91.7z"/>
		
			<linearGradient id="SVGID_35_" gradientUnits="userSpaceOnUse" x1="473.1913" y1="156.0725" x2="417.6499" y2="157.4061" gradientTransform="matrix(1.239150e-02 -0.9999 -0.9999 -1.239150e-02 484.7447 497.5383)">
			<stop  offset="0" style="stop-color:#FFFFFF"/>
			<stop  offset="1" style="stop-color:#000000"/>
		</linearGradient>
		<path class="st39" d="M364.9,53.4c2.7,0.3,5.4,0.9,8,1.7c0.5,0.1,0.9,0.3,1.3,0.4c2.5,0.9,4.9,2,7.2,3.1
			c-7.8-1.7-24.4-2.3-14.3,0.6c11.7,3.4,31.8,21.8,32,37.9c0.2,16-4.1,26.7-7.1,26.1c-2.7-0.6-1.3-5.2-9.8-15.1
			c-0.7-0.9-1.6-1.8-2.4-2.7c-11.3-11.8-35.1-14.5-66.8-15.4c-9.8-0.3-19.6,0.3-29.2,1.8c-1.4,0.2-2.9,0.5-4.3,0.8
			c-5,1-9.9,2.4-14.9,3.3c-1.7-4,3.8-8.1,6.2-10.4c3.7-3.5,7.6-6.8,11.6-10c13.4-10.7,38.6-14.6,37.2-16.3
			c-1.8-2.2-11.9-1.6-18.3-0.9c4.1-1.2,8.3-2.1,12.5-2.9c3.2-0.6,6.3-1.1,9.4-1.5c3.9-0.5,7.8-0.9,11.6-1.2h0
			C346.6,52,357.1,52.4,364.9,53.4z"/>
		
			<linearGradient id="SVGID_36_" gradientUnits="userSpaceOnUse" x1="448.5909" y1="153.9021" x2="357.6091" y2="154.5659" gradientTransform="matrix(1.239150e-02 -0.9999 -0.9999 -1.239150e-02 484.7447 497.5383)">
			<stop  offset="0" style="stop-color:#FFFFFF"/>
			<stop  offset="0.14" style="stop-color:#C9C9C9"/>
			<stop  offset="0.31" style="stop-color:#8D8D8D"/>
			<stop  offset="0.48" style="stop-color:#5A5A5A"/>
			<stop  offset="0.64" style="stop-color:#333333"/>
			<stop  offset="0.78" style="stop-color:#171717"/>
			<stop  offset="0.91" style="stop-color:#060606"/>
			<stop  offset="1" style="stop-color:#000000"/>
		</linearGradient>
		<path class="st40" d="M364.9,53.4c2.7,0.3,5.4,0.9,8,1.7c-4.7-0.2-6.7-1.1-9.8-0.2c-7,2.1,8.1,8.3,24,22.7
			c7.9,7.2,5,19.8-4.8,30.5c-10,10.8-27,19.5-47.3,18.6c-3.8-0.2-7.6-0.5-11.3-1c-10.8-1.5-23.2-6.6-31.9-13.4
			c-6.3-5-11.3-11.3-12.3-19.6c-0.2-2-0.1-4,0.4-5.9c2.2-9.2,12.1-14.6,20.4-17.6c17.8-6.4,22.6-7.9,23.5-10.4
			c0.5-1.4-5-2.5-9.9-3.3c3.2-0.6,6.3-1.1,9.4-1.5c3.9-0.5,7.8-0.9,11.6-1.2h0C346.6,52,357.1,52.4,364.9,53.4z"/>
		
			<linearGradient id="SVGID_37_" gradientUnits="userSpaceOnUse" x1="429.4193" y1="205.6436" x2="415.4258" y2="195.316" gradientTransform="matrix(1.239150e-02 -0.9999 -0.9999 -1.239150e-02 484.7447 497.5383)">
			<stop  offset="0" style="stop-color:#FFFFFF"/>
			<stop  offset="1" style="stop-color:#000000"/>
		</linearGradient>
		<path class="st41" d="M275.3,94.8c0,0,2.3-22,41.1-28.8c0,0-7.7-4.1-27.8,4.3S270.9,96.5,275.3,94.8z"/>
		
			<linearGradient id="SVGID_38_" gradientUnits="userSpaceOnUse" x1="425.2908" y1="205.5703" x2="415.8401" y2="198.5979" gradientTransform="matrix(1.239150e-02 -0.9999 -0.9999 -1.239150e-02 484.7447 497.5383)">
			<stop  offset="0" style="stop-color:#FFFFFF"/>
			<stop  offset="1" style="stop-color:#000000"/>
		</linearGradient>
		<path class="st42" d="M274.1,92.5c0,0,3.5-21,35.5-25C309.6,67.5,272.9,68.7,274.1,92.5z"/>
		
			<linearGradient id="SVGID_39_" gradientUnits="userSpaceOnUse" x1="378.5504" y1="174.9731" x2="376.5531" y2="132.6517" gradientTransform="matrix(1.239150e-02 -0.9999 -0.9999 -1.239150e-02 484.7447 497.5383)">
			<stop  offset="0" style="stop-color:#FFFFFF"/>
			<stop  offset="1" style="stop-color:#000000"/>
		</linearGradient>
		<path class="st43" d="M276.3,98.5c0,0,6.7,26,39.3,30.7c22.9,3.2,40.7,4.8,55,3.9c0.3,0,0.6,0.2,0.7,0.5c0,0.3-0.2,0.6-0.5,0.7
			c-11.2,2.4-29,3.7-47.1,1.7c-27.8-3-50.7-13.8-52.5-29.5S276.1,96.1,276.3,98.5z"/>
		
			<linearGradient id="SVGID_40_" gradientUnits="userSpaceOnUse" x1="428.7182" y1="151.0962" x2="399.3856" y2="154.762" gradientTransform="matrix(1.239150e-02 -0.9999 -0.9999 -1.239150e-02 484.7447 497.5383)">
			<stop  offset="0" style="stop-color:#FFFFFF"/>
			<stop  offset="0.14" style="stop-color:#C9C9C9"/>
			<stop  offset="0.31" style="stop-color:#8D8D8D"/>
			<stop  offset="0.48" style="stop-color:#5A5A5A"/>
			<stop  offset="0.64" style="stop-color:#333333"/>
			<stop  offset="0.78" style="stop-color:#171717"/>
			<stop  offset="0.91" style="stop-color:#060606"/>
			<stop  offset="1" style="stop-color:#000000"/>
		</linearGradient>
		<path class="st44" d="M285.1,88.8c0,0,10.6-20.2,27.9-22c17.4-1.8,28.3-1,26-3.7s13-1.8,20.3,0.3s29.7,11.9,27.7,22.6
			c-0.3,1.6-31.4,3-37.1,0.6c-5.6-2.4-9.6-4.5-14.6-5.2c-5-0.7-23.9,1-26,3c-2.1,2-5.3,1.9-8.8,1.2c-3.6-0.7-8.9-0.8-12.3,3.2
			C285.1,92.8,285.1,88.8,285.1,88.8z"/>
		
			<linearGradient id="SVGID_41_" gradientUnits="userSpaceOnUse" x1="402.441" y1="91.6633" x2="402.441" y2="104.9078" gradientTransform="matrix(1.239150e-02 -0.9999 -0.9999 -1.239150e-02 484.7447 497.5383)">
			<stop  offset="0" style="stop-color:#FFFFFF"/>
			<stop  offset="0.14" style="stop-color:#C9C9C9"/>
			<stop  offset="0.31" style="stop-color:#8D8D8D"/>
			<stop  offset="0.48" style="stop-color:#5A5A5A"/>
			<stop  offset="0.64" style="stop-color:#333333"/>
			<stop  offset="0.78" style="stop-color:#171717"/>
			<stop  offset="0.91" style="stop-color:#060606"/>
			<stop  offset="1" style="stop-color:#000000"/>
		</linearGradient>
		<path class="st45" d="M382.1,124.4c0,0,11.5-8.5,12.4-23.7s-6-30-19-36.5c-12.9-6.5-0.2,4.8,5.4,17.5c5.6,12.7,6.1,22.4,2,32.4
			C378.8,124,380.1,126.6,382.1,124.4z"/>
		
			<linearGradient id="SVGID_42_" gradientUnits="userSpaceOnUse" x1="394.4622" y1="153.0431" x2="384.2442" y2="153.0431" gradientTransform="matrix(1.239150e-02 -0.9999 -0.9999 -1.239150e-02 484.7447 497.5383)">
			<stop  offset="0" style="stop-color:#FFFFFF"/>
			<stop  offset="1" style="stop-color:#999999"/>
		</linearGradient>
		<path class="st46" d="M279.2,95.8c0.3-2.4,2.1-1,4.5-0.7c10.1,1.4,16.6,4.4,34.9,6.1c38.1,3.7,50.9,2.1,65.5-1.8
			c12.8-3.4,9.8,6.2,9.8,6.2s0.6,20.3-24.7,25.8c-25.4,5.5-66.6-2.7-75.3-10.2C286.7,115,278.1,105.8,279.2,95.8z"/>
		
			<linearGradient id="SVGID_43_" gradientUnits="userSpaceOnUse" x1="424.2469" y1="68.7191" x2="399.2803" y2="118.64" gradientTransform="matrix(1.239150e-02 -0.9999 -0.9999 -1.239150e-02 484.7447 497.5383)">
			<stop  offset="0" style="stop-color:#FFFFFF"/>
			<stop  offset="1" style="stop-color:#999999"/>
		</linearGradient>
		<path class="st47" d="M387,120.8c0,0,14.7-17.2,5.2-36.2c-8.1-16.2-13.7-15.8-16.7-19.8c-3-4,11.9-4.9,18.8,3.7
			c9.3,11.5,11.5,15.1,15.9,17.8c4.3,2.8-0.4,0.6-5.6,5C402.1,93.3,400.4,114.9,387,120.8z"/>
		
			<linearGradient id="SVGID_44_" gradientUnits="userSpaceOnUse" x1="401.1382" y1="87.0296" x2="393.1367" y2="129.3571" gradientTransform="matrix(1.239150e-02 -0.9999 -0.9999 -1.239150e-02 484.7447 497.5383)">
			<stop  offset="0" style="stop-color:#FFFFFF"/>
			<stop  offset="0.14" style="stop-color:#C9C9C9"/>
			<stop  offset="0.31" style="stop-color:#8D8D8D"/>
			<stop  offset="0.48" style="stop-color:#5A5A5A"/>
			<stop  offset="0.64" style="stop-color:#333333"/>
			<stop  offset="0.78" style="stop-color:#171717"/>
			<stop  offset="0.91" style="stop-color:#060606"/>
			<stop  offset="1" style="stop-color:#000000"/>
		</linearGradient>
		<path class="st48" d="M395.8,69.9c0.8,1,1.6,2.1,2.3,3.2c0.9,1.4,1.8,2.7,2.9,4l0.2,0.2c0.7,0.9,1.5,1.8,2.4,2.7l0.1,0.1
			c0.2,0.3,0.5,0.6,0.8,0.9c-4,2.1-8.1,5.5-9.7,11c-3.4,11.8-2,25.6-18,33.1c-16,7.5-33,3.3-35.4-2.5c-2.5-5.8,4.8-21.3,14.7-20
			c0,0,22.3,3.8,25.9,0.3c3.6-3.4,9.5-11.5,7-16.8S387.8,71.9,395.8,69.9z"/>
		
			<linearGradient id="SVGID_45_" gradientUnits="userSpaceOnUse" x1="448.2682" y1="150.4092" x2="362.6511" y2="151.0364" gradientTransform="matrix(1.239150e-02 -0.9999 -0.9999 -1.239150e-02 484.7447 497.5383)">
			<stop  offset="0" style="stop-color:#FFFFFF"/>
			<stop  offset="0.14" style="stop-color:#C9C9C9"/>
			<stop  offset="0.31" style="stop-color:#8D8D8D"/>
			<stop  offset="0.48" style="stop-color:#5A5A5A"/>
			<stop  offset="0.64" style="stop-color:#333333"/>
			<stop  offset="0.78" style="stop-color:#171717"/>
			<stop  offset="0.91" style="stop-color:#060606"/>
			<stop  offset="1" style="stop-color:#000000"/>
		</linearGradient>
		<path class="st49" d="M364.9,53.4c2.7,0.3,5.4,0.9,8,1.7c-16.8,4.3-17.3,2-0.8,10c24.6,12,10.4,48.6-5.4,54.7
			c-15.7,6.1-64.8,2-72.2-14.4c-7.4-16.4,8.3-30.9,20.2-32.6c23-3.2,21.3-14.2,17.1-19.8c1-0.1,2.1-0.2,3.1-0.2h0
			C346.6,52,357.1,52.4,364.9,53.4z"/>
		
			<linearGradient id="SVGID_46_" gradientUnits="userSpaceOnUse" x1="396.0332" y1="170.9596" x2="356.2389" y2="171.2519" gradientTransform="matrix(1.239150e-02 -0.9999 -0.9999 -1.239150e-02 484.7447 497.5383)">
			<stop  offset="0" style="stop-color:#FFFFFF"/>
			<stop  offset="0.14" style="stop-color:#C9C9C9"/>
			<stop  offset="0.31" style="stop-color:#8D8D8D"/>
			<stop  offset="0.48" style="stop-color:#5A5A5A"/>
			<stop  offset="0.64" style="stop-color:#333333"/>
			<stop  offset="0.78" style="stop-color:#171717"/>
			<stop  offset="0.91" style="stop-color:#060606"/>
			<stop  offset="1" style="stop-color:#000000"/>
		</linearGradient>
		<path class="st50" d="M272.8,104.9c-0.6-2.6,3.3-5.6,4.6-3.3c3.4,5.9,10.1,17.1,23.5,23.4c20.5,9.7,51.6,10,63,9.6
			c0,0-48.8,2.1-67.4-6.5C280.7,120.7,274.1,111.3,272.8,104.9z"/>
		
			<linearGradient id="SVGID_47_" gradientUnits="userSpaceOnUse" x1="446.2588" y1="159.245" x2="427.5947" y2="159.245" gradientTransform="matrix(1.239150e-02 -0.9999 -0.9999 -1.239150e-02 484.7447 497.5383)">
			<stop  offset="0" style="stop-color:#FFFFFF"/>
			<stop  offset="1" style="stop-color:#000000"/>
		</linearGradient>
		<path class="st51" d="M365.9,53.1c2.7,0.3,5.4,0.9,8,1.7l0,0c0.5,0.1,0.9,0.3,1.3,0.4c2.5,0.9,4.9,2,7.2,3.1
			c4.9,2.4,9.2,5.6,12.9,9.5c-2.3-1.6-4.8-2.8-6.8-2.9c-5.7-0.2-7.1,3.7-3.4,9.4s8.8,14.1-1.3,2.2s-39.8-10.7-64.6-9.3
			c-24.4,1.4-52.6,15.2-53.2,15.7c3.5-7,10.4-14.9,23.9-20.5c4.1-1.7,8.2-3.1,12.5-4.3l0,0c7.2-2,14.5-3.5,21.9-4.5l0,0
			c2.9-0.4,5.7-0.7,8.5-0.9c1-0.1,2.1-0.2,3.1-0.2h0C347.6,51.6,358.1,52,365.9,53.1z"/>
		
			<linearGradient id="SVGID_48_" gradientUnits="userSpaceOnUse" x1="449.8922" y1="175.8572" x2="396.3481" y2="154.3068" gradientTransform="matrix(1.239150e-02 -0.9999 -0.9999 -1.239150e-02 484.7447 497.5383)">
			<stop  offset="0" style="stop-color:#FFFFFF"/>
			<stop  offset="1" style="stop-color:#000000"/>
		</linearGradient>
		<path class="st52" d="M364.9,53.4c2.7,0.3,5.4,0.9,8,1.7l0,0c0.5,0.1,0.9,0.3,1.3,0.4c2.5,0.9,4.9,2,7.2,3.1
			c4.8,2.3,9.2,5.6,12.9,9.5l0,0c0.5,0.6,1,1.1,1.4,1.7l0,0c0.8,1,1.6,2.1,2.3,3.2c0.4,0.7,0.9,1.3,1.3,2c-1-0.5-4.2-5-19.2-12.6
			c-15-7.6-47-11-81.8-1.1c-34.1,9.7-36.8,36.4-36.8,37.4c0-0.2,0-0.4,0-0.7V97c0-0.3,0-0.7,0.1-1.1c0-0.2,0-0.4,0-0.6
			c0-0.2,0-0.4,0-0.6c0,0,0-0.1,0-0.2c0.1-0.6,0.2-1.2,0.3-1.9c0-0.2,0.1-0.5,0.1-0.7c0.1-0.5,0.2-1,0.3-1.6c0,0,0-0.1,0-0.2
			c0.6-2.4,1.4-4.6,2.5-6.8l0,0c3.5-7.1,10.4-14.9,23.9-20.5c4.1-1.7,8.2-3.1,12.5-4.3c0,0,0,0,0,0c7.2-2,14.5-3.5,21.9-4.5l0,0
			c2.9-0.4,5.7-0.7,8.5-0.9c1-0.1,2.1-0.2,3.1-0.2h0C346.6,52,357.1,52.4,364.9,53.4z"/>
		
			<linearGradient id="SVGID_49_" gradientUnits="userSpaceOnUse" x1="416.3321" y1="94.1424" x2="423.3288" y2="89.7885" gradientTransform="matrix(1.239150e-02 -0.9999 -0.9999 -1.239150e-02 484.7447 497.5383)">
			<stop  offset="0" style="stop-color:#B3B3B3"/>
			<stop  offset="0.23" style="stop-color:#FFFFFF"/>
			<stop  offset="1" style="stop-color:#999999"/>
		</linearGradient>
		<path class="st53" d="M396.4,73l2.1,0.7c0.3,0.5,0.7,1,1,1.5l0,0c0.5,0.7,1,1.4,1.5,2l0.2,0.2l0,0c0.6,0.7,0.5,1.8-0.2,2.4
			c-0.2,0.1-0.3,0.2-0.5,0.3c-1,0.3-1.9,0.8-2.7,1.3c-0.9,0.6-1.7,1.4-2.3,2.4c-0.5,0.8-1.6,0.9-2.3,0.4c-0.4-0.3-0.7-0.8-0.7-1.3
			c-0.1-3.4,0.3-7.1,2.4-8.8C395.4,73.6,395.9,73.2,396.4,73z"/>
		
			<linearGradient id="SVGID_50_" gradientUnits="userSpaceOnUse" x1="441.9498" y1="166.9416" x2="410.6198" y2="160.2737" gradientTransform="matrix(1.239150e-02 -0.9999 -0.9999 -1.239150e-02 484.7447 497.5383)">
			<stop  offset="0" style="stop-color:#FFFFFF"/>
			<stop  offset="1" style="stop-color:#000000"/>
		</linearGradient>
		<path class="st54" d="M364.9,53.4c2.7,0.3,5.4,0.9,8,1.7l0,0c0.5,0.1,0.9,0.3,1.3,0.4c2.5,0.9,4.9,2,7.2,3.1
			c4.8,2.3,9.2,5.6,12.9,9.5c-0.9-0.7-11.8-12.6-39.8-13.8c-24.2-1-44.3,1.9-64.5,8.8s-27.5,27.2-27.5,27.2s0-0.1,0-0.2
			c0.6-2.4,1.4-4.7,2.5-6.9l0,0c3.5-7.1,10.4-14.9,23.9-20.5c4.1-1.7,8.2-3.1,12.5-4.3c0,0,0,0,0,0c7.2-2,14.5-3.5,21.9-4.5l0,0
			c2.9-0.4,5.7-0.7,8.5-0.9c1-0.1,2.1-0.2,3.1-0.2h0C346.6,52,357.1,52.4,364.9,53.4z"/>
		
			<linearGradient id="SVGID_51_" gradientUnits="userSpaceOnUse" x1="391.2443" y1="89.2341" x2="390.6536" y2="79.2901" gradientTransform="matrix(1.239150e-02 -0.9999 -0.9999 -1.239150e-02 484.7447 497.5383)">
			<stop  offset="0" style="stop-color:#FFFFFF"/>
			<stop  offset="0.14" style="stop-color:#C9C9C9"/>
			<stop  offset="0.31" style="stop-color:#8D8D8D"/>
			<stop  offset="0.48" style="stop-color:#5A5A5A"/>
			<stop  offset="0.64" style="stop-color:#333333"/>
			<stop  offset="0.78" style="stop-color:#171717"/>
			<stop  offset="0.91" style="stop-color:#060606"/>
			<stop  offset="1" style="stop-color:#000000"/>
		</linearGradient>
		<path class="st55" d="M402.4,82.7c-0.6,0.6-1,1.3-1.2,2.1c-2,6.3,0.5,14.5,0.1,21.1c-0.4,6.6-3.7,12-7.5,17.4
			c-1.1,1.5-2.1,2.6-2.2,4.4c1.1,0.6,2.1,0.3,3-0.6c2.9-3.1,4.3-7.4,7.4-10.6c5.2-5.3,11.8-8.7,17.1-13.8c0.7-0.5,1.1-1.2,1.4-2
			c0.2-1.3-0.8-2.5-1.7-3.5L405,83c-0.3-0.3-0.6-0.6-1-0.7C403.5,82,402.8,82.2,402.4,82.7z"/>
		
			<linearGradient id="SVGID_52_" gradientUnits="userSpaceOnUse" x1="429.4999" y1="157.7761" x2="404.9901" y2="157.9588" gradientTransform="matrix(-4.000000e-02 -1 -1.09 4.000000e-02 524.09 487.98)">
			<stop  offset="0" style="stop-color:#FFFFFF"/>
			<stop  offset="0.14" style="stop-color:#C9C9C9"/>
			<stop  offset="0.31" style="stop-color:#8D8D8D"/>
			<stop  offset="0.48" style="stop-color:#5A5A5A"/>
			<stop  offset="0.64" style="stop-color:#333333"/>
			<stop  offset="0.78" style="stop-color:#171717"/>
			<stop  offset="0.91" style="stop-color:#060606"/>
			<stop  offset="1" style="stop-color:#000000"/>
		</linearGradient>
		<path class="st56" d="M289.7,86.1c0,0,22.4-3.5,39.1-1.5c16.7,2,21.7,0.5,21.6-0.8c0-1.3,22.5-3.1,29.2,0.4
			c6.8,3.5,1.7-4.6-7.9-9.6c-9.6-5-25.9-10.4-30.6-7.8s-16.2-1-29.1,3.5C299.1,74.7,283.8,85.3,289.7,86.1z"/>
		
			<linearGradient id="SVGID_53_" gradientUnits="userSpaceOnUse" x1="423.3872" y1="155.9396" x2="405.7279" y2="154.466" gradientTransform="matrix(1.239150e-02 -0.9999 -0.9999 -1.239150e-02 484.7447 497.5383)">
			<stop  offset="0" style="stop-color:#FFFFFF"/>
			<stop  offset="0.14" style="stop-color:#C9C9C9"/>
			<stop  offset="0.31" style="stop-color:#8D8D8D"/>
			<stop  offset="0.48" style="stop-color:#5A5A5A"/>
			<stop  offset="0.64" style="stop-color:#333333"/>
			<stop  offset="0.78" style="stop-color:#171717"/>
			<stop  offset="0.91" style="stop-color:#060606"/>
			<stop  offset="1" style="stop-color:#000000"/>
		</linearGradient>
		<path class="st57" d="M292,82.8c-0.6,0.3-0.8,0.9-0.5,1.5c0.2,0.5,0.8,0.8,1.4,0.6c5.5-1.4,11-2.5,16.6-3.3
			c26.5-4.2,41.6,0.5,44.9,4.6c3.3,4,24.2,3.1,24.2,3.1s3.1-11.2-18-16.4c-24.1-6-38.9-2.2-58.6,5.6C297.6,80.1,294.4,81.5,292,82.8
			z"/>
		
			<linearGradient id="SVGID_54_" gradientUnits="userSpaceOnUse" x1="417.7852" y1="118.8171" x2="420.4463" y2="112.5937" gradientTransform="matrix(1.239150e-02 -0.9999 -0.9999 -1.239150e-02 484.7447 497.5383)">
			<stop  offset="0" style="stop-color:#B3B3B3"/>
			<stop  offset="0.23" style="stop-color:#FFFFFF"/>
			<stop  offset="1" style="stop-color:#999999"/>
		</linearGradient>
		<path class="st58" d="M382.1,91.4c0,0,2.8-11-6.2-18.6c-9-7.6-10.7-8.9-8.5-10.5s6.2,4.2,10.1,7.4
			C381.4,72.9,388.4,85.9,382.1,91.4z"/>
		
			<linearGradient id="SVGID_55_" gradientUnits="userSpaceOnUse" x1="376.4197" y1="210.079" x2="401.2218" y2="152.2052" gradientTransform="matrix(1.239150e-02 -0.9999 -0.9999 -1.239150e-02 484.7613 497.5358)">
			<stop  offset="0" style="stop-color:#FFFFFF"/>
			<stop  offset="1" style="stop-color:#000000"/>
		</linearGradient>
		<path class="st59" d="M284.5,95.8c0.2-14,22-25.2,48.7-24.8c26.7,0.3,48.3,12,48.1,26s-22,25.2-48.7,24.8
			C305.9,121.5,284.3,109.8,284.5,95.8z"/>
		
			<linearGradient id="SVGID_56_" gradientUnits="userSpaceOnUse" x1="447.8836" y1="54.6686" x2="428.8055" y2="-0.1848" gradientTransform="matrix(1.239150e-02 -0.9999 -0.9999 -1.239150e-02 484.7447 497.5383)">
			<stop  offset="0" style="stop-color:#FFFFFF"/>
			<stop  offset="1" style="stop-color:#999999"/>
		</linearGradient>
		<path class="st60" d="M682.9,86.9c2.7,1.9,4.5,5.1,5.2,9.4c0.4,2.2,0.6,4.4,0.6,6.6c0,3.1-0.5,6.3-1.5,9.2
			c-0.1,0.2-0.1,0.3-0.2,0.4l-0.1,0.2c0,0.1,0,0.1-0.1,0.2c-0.8,2.4-2.3,4.4-4.4,5.9c-2.2,1.5-6.5,2.1-12.6,2
			c-3.3-0.8-9.9-0.1-9.9-0.1c24.2-0.8,22.4-27.5,7.9-29.6c-14.2-2.1-209.8,5.3-230.3,6.5c-20.5,1.2-26.1-9.4-26.1-9.4
			s0.3-0.1,0.9-0.4c0.3,0.2,0.6,0.4,0.8,0.5c0,0,0.1,0,0.1,0.1c3.1,2,6.5,3.4,10.1,4.1h0.2c0.1,0,0.2,0,0.3,0.1l0.2,0.1h0.1
			c7,1.2,18.7,1.7,34.8,1.6c45.8-0.4,116.8-3.6,154.3-6.2c7.2-0.5,13.9-1,20.1-1.5C660,84.5,677.6,83.2,682.9,86.9z"/>
		
			<linearGradient id="SVGID_57_" gradientUnits="userSpaceOnUse" x1="385.6082" y1="-70.6453" x2="394.1821" y2="-70.6453" gradientTransform="matrix(1.239150e-02 -0.9999 -0.9999 -1.239150e-02 484.7447 497.5383)">
			<stop  offset="0" style="stop-color:#FFFFFF"/>
			<stop  offset="1" style="stop-color:#000000"/>
		</linearGradient>
		<path class="st61" d="M435.7,102.8c0,0,216.8,12.8,231.6,14.2c14.8,1.4,17.6-7.1,17.7-12.6c0.1-5.5-28.2-5.6-65.5-4.4
			C582.2,101.2,429.5,99.8,435.7,102.8z"/>
		
			<linearGradient id="SVGID_58_" gradientUnits="userSpaceOnUse" x1="396.7395" y1="70.6764" x2="394.0723" y2="30.2427" gradientTransform="matrix(1.239150e-02 -0.9999 -0.9999 -1.239150e-02 484.7447 497.5383)">
			<stop  offset="0" style="stop-color:#FCFCFC"/>
			<stop  offset="0.4" style="stop-color:#AEAEAE"/>
			<stop  offset="1" style="stop-color:#FFFFFF"/>
		</linearGradient>
		<path class="st62" d="M420.2,91.8c1.1,0.4,2.2,0.6,3.3,0.8h0.2c0.1,0,0.2,0,0.3,0.1l0.2,0.1h0.1c6.9,1.1,18.5,1.7,34.3,1.6
			c1.1,4,2.4,7.9,3.9,11.7l-3.5-0.1c-17-0.6-29.1-0.3-35.9,0.8c-2.1,0.3-4.2,0.9-6.2,1.8C418.5,103.1,419.6,97.5,420.2,91.8z"/>
		
			<linearGradient id="SVGID_59_" gradientUnits="userSpaceOnUse" x1="393.9635" y1="232.5538" x2="403.2924" y2="-45.1659" gradientTransform="matrix(1.239150e-02 -0.9999 -0.9999 -1.239150e-02 484.7447 497.5383)">
			<stop  offset="0" style="stop-color:#FFFFFF"/>
			<stop  offset="0.92" style="stop-color:#4D4D4D"/>
		</linearGradient>
		<path class="st63" d="M364.9,53.4c2.7,0.3,5.4,0.9,8,1.7l0,0c0.5,0.1,0.9,0.3,1.3,0.4c2.5,0.9,4.9,2,7.2,3.1
			c4.9,2.4,9.2,5.6,12.9,9.6c0.5,0.5,1,1.1,1.4,1.7l0,0c0.7,0.8,1.3,1.7,1.9,2.6c0.1,0.2,0.3,0.4,0.4,0.6c0.4,0.7,0.9,1.3,1.3,2l0,0
			c0.5,0.7,1,1.4,1.5,2l0.2,0.2c0.5,0.7,1.1,1.3,1.7,2c0.2,0.2,0.4,0.5,0.7,0.7l0.1,0.1c0.2,0.3,0.5,0.6,0.8,0.9c2.4,2.6,5,5,8,7
			c0.3,0.2,0.6,0.4,0.8,0.5c0,0,0.1,0,0.1,0.1c2.1,1.4,4.4,2.5,6.9,3.2c1.1,0.4,2.2,0.6,3.3,0.8h0.2c0.1,0,0.2,0,0.3,0.1l0.2,0.1
			h0.1c6.9,1.1,18.5,1.7,34.3,1.6c0.2,0,0.3,0,0.5,0c45.8-0.4,116.8-3.5,154.3-6.2c4.1-0.3,8.1-0.6,11.9-0.9l8.3-0.6
			c26.5-2.1,44.1-3.5,49.4,0.3c2.7,1.9,4.5,5.1,5.1,9.4c0.4,2.2,0.6,4.4,0.6,6.6c0,3.1-0.5,6.3-1.5,9.2c-0.1,0.2-0.1,0.3-0.2,0.4
			l-0.1,0.3c0,0.1,0,0.1-0.1,0.2c-0.8,2.4-2.3,4.4-4.4,5.9c-2.2,1.5-6.5,2.1-12.6,2c-6.9,0-16.1-0.8-27.4-2c-3-0.3-6.1-0.6-9.4-1
			c-6.2-0.6-12.9-1.3-20.1-2c-36.5-3.5-104.7-8.3-150.6-9.9l-3.5-0.1c-17-0.6-29.1-0.3-35.9,0.8c-2.1,0.3-4.2,0.9-6.2,1.8
			c-3.2,1.4-6.1,3.2-8.8,5.4c-1.8,1.5-3.5,3-5,4.7c-0.9,0.9-1.7,1.9-2.4,3c-1.1,1.3-2.1,2.6-3,4c-5.2,7.6-12.9,13-24.4,17
			c-4.3,1.5-11.7,2.4-21,2.6c-11.1,0.1-22.1-0.8-33.1-2.8c-10.6-1.9-21.4-4.9-31-9.1c-14.3-6.4-21-15.1-24-22.6
			c-1.5-3.8-2.4-7.8-2.4-11.8l0,0c0-0.2,0-0.4,0-0.7V97c0-0.3,0-0.7,0.1-1c0-0.2,0-0.4,0-0.6s0-0.4,0-0.6c0-0.1,0-0.1,0-0.2
			c0.1-0.6,0.1-1.2,0.3-1.9c0-0.3,0.1-0.5,0.1-0.7c0.1-0.5,0.2-1,0.3-1.6c0.6-2.4,1.4-4.8,2.5-7l0,0c3.5-7,10.4-14.9,23.9-20.5
			c4.1-1.7,8.3-3.1,12.5-4.3l0,0c7.2-2,14.5-3.5,21.9-4.5l0,0c2.9-0.4,5.7-0.7,8.5-0.9c1-0.1,2.1-0.2,3.1-0.2h0
			C346.6,52,357.1,52.4,364.9,53.4z"/>
		
			<linearGradient id="SVGID_60_" gradientUnits="userSpaceOnUse" x1="427.2165" y1="94.691" x2="427.3261" y2="91.2444" gradientTransform="matrix(0.1867 -0.9824 -0.9824 -0.1867 406.5836 515.8891)">
			<stop  offset="0" style="stop-color:#FFFFFF"/>
			<stop  offset="1" style="stop-color:#000000"/>
		</linearGradient>
		<path class="st64" d="M392.4,83.8l0.8-0.9c1-1.2,2.8-3.2,4.2-4.7c2-2.2-0.2-6.2-2.4-4.2C392.7,76,392.4,83.8,392.4,83.8z"/>
		
			<linearGradient id="SVGID_61_" gradientUnits="userSpaceOnUse" x1="395.77" y1="-139.8749" x2="397.2314" y2="-185.8865" gradientTransform="matrix(1.239150e-02 -0.9999 -0.9999 -1.239150e-02 484.7447 497.5383)">
			<stop  offset="0" style="stop-color:#FFFFFF"/>
			<stop  offset="1" style="stop-color:#999999"/>
		</linearGradient>
		<path class="st65" d="M682.9,86.9c2.7,1.9,4.5,5.1,5.1,9.4c0.4,2.2,0.6,4.4,0.6,6.6c0,3.1-0.5,6.3-1.5,9.2
			c-0.1,0.2-0.1,0.3-0.2,0.4l-0.1,0.3c0,0.1,0,0.1-0.1,0.2c-0.8,2.4-2.3,4.4-4.4,5.9c-2.2,1.5-6.5,2.1-12.6,2
			c-5.4,0-12.3-0.5-20.4-1.3c-2.2-0.2-4.6-0.4-7-0.7c-0.1-5.2-1-10.3-2.5-15.2c-2.1-6.8-8-12.3-14.7-16.5l8.3-0.6l4.4-0.3
			C661.9,84.4,677.8,83.4,682.9,86.9z"/>
		
			<linearGradient id="SVGID_62_" gradientUnits="userSpaceOnUse" x1="396.1451" y1="-151.7311" x2="397.3142" y2="-188.4989" gradientTransform="matrix(1.239150e-02 -0.9999 -0.9999 -1.239150e-02 484.7447 497.5383)">
			<stop  offset="0" style="stop-color:#FFFFFF"/>
			<stop  offset="1" style="stop-color:#999999"/>
		</linearGradient>
		<path class="st66" d="M682.9,86.9c2.7,1.9,4.5,5.1,5.1,9.4c0.4,2.2,0.6,4.4,0.6,6.6c0,3.1-0.5,6.3-1.5,9.2
			c-0.1,0.2-0.1,0.3-0.2,0.4l-0.1,0.3c0,0.1,0,0.1-0.1,0.2c-0.8,2.4-2.3,4.4-4.4,5.9c-2.2,1.5-6.5,2.1-12.6,2c-4.2,0-9.2-0.3-15-0.8
			c-1.7-0.1-3.5-0.3-5.4-0.5c-0.6-13.8-6.7-25.9-11.6-33.4l6.4-0.5C664.8,84.2,678.3,83.7,682.9,86.9z"/>
		
			<linearGradient id="SVGID_63_" gradientUnits="userSpaceOnUse" x1="396.336" y1="-157.7475" x2="397.3529" y2="-189.8326" gradientTransform="matrix(1.239150e-02 -0.9999 -0.9999 -1.239150e-02 484.7447 497.5383)">
			<stop  offset="0" style="stop-color:#FFFFFF"/>
			<stop  offset="1" style="stop-color:#999999"/>
		</linearGradient>
		<path class="st67" d="M682.9,86.9c2.7,1.9,4.5,5.1,5.1,9.4c0.4,2.2,0.6,4.4,0.6,6.6c0,3.1-0.5,6.3-1.5,9.2
			c-0.1,0.2-0.1,0.3-0.2,0.4l-0.1,0.3c0,0.1,0,0.1-0.1,0.2c-0.8,2.4-2.3,4.4-4.4,5.9c-2.2,1.5-6.5,2.1-12.6,2
			c-2.8,0-5.9-0.1-9.5-0.4c-1.8-0.1-3.6-0.3-5.5-0.4c0.1-13.9-5.6-26.3-10.6-34.4c2.2-0.2,4.3-0.3,6.2-0.4
			C667.5,84.2,678.8,84.1,682.9,86.9z"/>
		
			<linearGradient id="SVGID_64_" gradientUnits="userSpaceOnUse" x1="396.5221" y1="-163.5994" x2="397.399" y2="-191.1235" gradientTransform="matrix(1.239150e-02 -0.9999 -0.9999 -1.239150e-02 484.7447 497.5383)">
			<stop  offset="0" style="stop-color:#FFFFFF"/>
			<stop  offset="1" style="stop-color:#999999"/>
		</linearGradient>
		<path class="st68" d="M682.9,86.9c2.7,1.9,4.5,5.1,5.1,9.4c0.4,2.2,0.6,4.4,0.6,6.6c0,3.1-0.5,6.3-1.5,9.2
			c-0.1,0.2-0.1,0.3-0.2,0.4l-0.1,0.3c0,0.1,0,0.1-0.1,0.2c-0.8,2.4-2.3,4.4-4.4,5.9c-2.2,1.5-6.5,2.1-12.6,2c-0.9,0-1.8,0-2.8,0
			c-2.1-0.1-4.3-0.2-6.7-0.3v-0.2c0.6-14-4.9-26.6-9.9-35.1c2.8-0.2,5.4-0.3,7.9-0.5C671,84.2,679.5,84.5,682.9,86.9z"/>
		
			<linearGradient id="SVGID_65_" gradientUnits="userSpaceOnUse" x1="396.762" y1="-171.0101" x2="397.4561" y2="-192.7614" gradientTransform="matrix(1.239150e-02 -0.9999 -0.9999 -1.239150e-02 484.7447 497.5383)">
			<stop  offset="0" style="stop-color:#FFFFFF"/>
			<stop  offset="1" style="stop-color:#999999"/>
		</linearGradient>
		<path class="st69" d="M682.9,86.9c2.7,1.9,4.5,5.1,5.1,9.4c0.4,2.2,0.6,4.4,0.6,6.6c0,3.1-0.5,6.3-1.5,9.2
			c-0.1,0.2-0.1,0.3-0.2,0.4l-0.1,0.3c0,0.1,0,0.1-0.1,0.2c-0.8,2.4-2.3,4.4-4.4,5.9c-1.5,1-3.9,1.6-7.2,1.9
			c-1.6,0.1-3.4,0.2-5.4,0.2c-0.9,0-1.8,0-2.8,0c-0.1-1-0.1-2.1,0-3.1c0.6-12.9-4-24.6-8.6-33c3.2-0.2,6.1-0.3,8.8-0.3
			C675,84.5,680.3,85.1,682.9,86.9z"/>
		
			<linearGradient id="SVGID_66_" gradientUnits="userSpaceOnUse" x1="397.0642" y1="-179.2246" x2="397.5514" y2="-194.5699" gradientTransform="matrix(1.239150e-02 -0.9999 -0.9999 -1.239150e-02 484.7447 497.5383)">
			<stop  offset="0" style="stop-color:#FFFFFF"/>
			<stop  offset="1" style="stop-color:#999999"/>
		</linearGradient>
		<path class="st70" d="M674.6,84.8c3.8,0.3,6.6,1,8.3,2.1c2.7,1.9,4.5,5.1,5.1,9.4c0.4,2.2,0.6,4.4,0.6,6.6c0,3.1-0.5,6.3-1.5,9.2
			c-0.1,0.2-0.1,0.3-0.2,0.4l-0.1,0.3c0,0.1,0,0.1-0.1,0.2c-0.8,2.3-2.2,4.3-4.2,5.8c-0.1,0-0.1,0.1-0.2,0.1c-1.5,1-3.9,1.6-7.2,1.9
			c-0.2-1.5-0.2-3.1-0.1-4.6c0.6-12.2-3.5-23.3-7.9-31.6C670,84.5,672.5,84.6,674.6,84.8z"/>
		
			<linearGradient id="SVGID_67_" gradientUnits="userSpaceOnUse" x1="398.0262" y1="-186.1119" x2="398.3429" y2="-196.0742" gradientTransform="matrix(1.239150e-02 -0.9999 -0.9999 -1.239150e-02 484.7447 497.5383)">
			<stop  offset="0" style="stop-color:#FFFFFF"/>
			<stop  offset="1" style="stop-color:#999999"/>
		</linearGradient>
		<path class="st71" d="M674.6,84.8c3.8,0.3,6.6,1,8.3,2.1c2.7,1.9,4.5,5.1,5.1,9.4c0.4,2.2,0.6,4.4,0.6,6.6c0,3.1-0.5,6.3-1.5,9.2
			c-0.1,0.2-0.1,0.3-0.2,0.4l-0.1,0.3c0,0.1,0,0.1-0.1,0.2c-0.8,2.3-2.2,4.3-4.2,5.8c0-0.7,0-1.4,0-2.1
			C683.3,104.4,679,93.1,674.6,84.8z"/>
		
			<linearGradient id="SVGID_68_" gradientUnits="userSpaceOnUse" x1="435.0414" y1="-69.5238" x2="443.6091" y2="-69.5238" gradientTransform="matrix(-1.000000e-02 1 -1 -1.000000e-02 495.26 -346.13)">
			<stop  offset="0" style="stop-color:#FFFFFF"/>
			<stop  offset="1" style="stop-color:#000000"/>
		</linearGradient>
		<path class="st72" d="M435.8,97.1c0,0,217.1-7.4,231.9-8.4c14.8-1,17.4,7.5,17.4,13s-28.4,4.9-65.6,2.8
			C582.2,102.4,429.5,99.8,435.8,97.1z"/>
	</g>
</g>
</svg>
