<svg xmlns="http://www.w3.org/2000/svg" xmlns:xlink="http://www.w3.org/1999/xlink" viewBox="0 0 960 200"><defs><style>.cls-1{isolation:isolate;}.cls-2{fill:#231f20;}.cls-3{fill:url(#linear-gradient);}.cls-4{fill:url(#radial-gradient);}.cls-40,.cls-5{opacity:0.1;}.cls-10,.cls-11,.cls-12,.cls-13,.cls-14,.cls-15,.cls-16,.cls-17,.cls-18,.cls-19,.cls-20,.cls-21,.cls-22,.cls-23,.cls-24,.cls-25,.cls-26,.cls-27,.cls-28,.cls-29,.cls-30,.cls-31,.cls-32,.cls-33,.cls-43,.cls-44,.cls-5,.cls-57,.cls-59,.cls-6,.cls-62,.cls-63,.cls-64,.cls-65,.cls-66,.cls-67,.cls-68,.cls-7,.cls-8,.cls-9{mix-blend-mode:multiply;}.cls-5{fill:url(#linear-gradient-2);}.cls-10,.cls-6,.cls-7,.cls-8,.cls-9{opacity:0.41;}.cls-6{fill:url(#linear-gradient-3);}.cls-7{fill:url(#linear-gradient-4);}.cls-8{fill:url(#linear-gradient-5);}.cls-9{fill:url(#linear-gradient-6);}.cls-10{fill:url(#linear-gradient-7);}.cls-11,.cls-12,.cls-13,.cls-14,.cls-15,.cls-16,.cls-17,.cls-18,.cls-19,.cls-20,.cls-21,.cls-22,.cls-23,.cls-24,.cls-25,.cls-26,.cls-27,.cls-28,.cls-29,.cls-30,.cls-31,.cls-34,.cls-35{opacity:0.16;}.cls-11{fill:url(#linear-gradient-8);}.cls-12{fill:url(#linear-gradient-9);}.cls-13{fill:url(#linear-gradient-10);}.cls-14{fill:url(#linear-gradient-11);}.cls-15{fill:url(#linear-gradient-12);}.cls-16{fill:url(#linear-gradient-13);}.cls-17{fill:url(#linear-gradient-14);}.cls-18{fill:url(#linear-gradient-15);}.cls-19{fill:url(#linear-gradient-16);}.cls-20{fill:url(#linear-gradient-17);}.cls-21{fill:url(#linear-gradient-18);}.cls-22{fill:url(#linear-gradient-19);}.cls-23{fill:url(#linear-gradient-20);}.cls-24{fill:url(#linear-gradient-21);}.cls-25{fill:url(#linear-gradient-22);}.cls-26{fill:url(#linear-gradient-23);}.cls-27{fill:url(#linear-gradient-24);}.cls-28{fill:url(#linear-gradient-25);}.cls-29{fill:url(#linear-gradient-26);}.cls-30{fill:url(#linear-gradient-27);}.cls-31{fill:url(#linear-gradient-28);}.cls-32,.cls-58,.cls-69{opacity:0.14;}.cls-32{fill:url(#linear-gradient-29);}.cls-33{fill:url(#linear-gradient-30);}.cls-34,.cls-35,.cls-36,.cls-37,.cls-38,.cls-39,.cls-40,.cls-41,.cls-42,.cls-45,.cls-46,.cls-47,.cls-48,.cls-49,.cls-50,.cls-51,.cls-52,.cls-53,.cls-54,.cls-55,.cls-56,.cls-58,.cls-61,.cls-69{mix-blend-mode:screen;}.cls-34{fill:url(#linear-gradient-31);}.cls-35{fill:url(#linear-gradient-32);}.cls-36,.cls-62,.cls-63,.cls-64,.cls-65,.cls-66,.cls-67,.cls-68{opacity:0.26;}.cls-36{fill:url(#linear-gradient-33);}.cls-37{opacity:0.2;fill:url(#linear-gradient-34);}.cls-38,.cls-39{opacity:0.45;}.cls-38{fill:url(#linear-gradient-35);}.cls-39{fill:url(#linear-gradient-36);}.cls-40{fill:url(#linear-gradient-37);}.cls-41,.cls-52{opacity:0.19;}.cls-41{fill:url(#linear-gradient-38);}.cls-42{opacity:0.35;fill:url(#linear-gradient-39);}.cls-43{opacity:0.54;fill:url(#linear-gradient-40);}.cls-44{opacity:0.44;fill:url(#linear-gradient-41);}.cls-45,.cls-47{opacity:0.21;}.cls-45{fill:url(#linear-gradient-42);}.cls-46{opacity:0.08;fill:url(#linear-gradient-43);}.cls-47{fill:url(#linear-gradient-44);}.cls-48{opacity:0.5;fill:url(#linear-gradient-45);}.cls-49{opacity:0.56;fill:url(#linear-gradient-46);}.cls-50,.cls-55{opacity:0.36;}.cls-50{fill:url(#linear-gradient-47);}.cls-51{fill:url(#linear-gradient-48);}.cls-52{fill:url(#linear-gradient-49);}.cls-53{opacity:0.53;fill:url(#linear-gradient-50);}.cls-54{fill:url(#linear-gradient-51);}.cls-55{fill:url(#linear-gradient-52);}.cls-56{opacity:0.09;fill:url(#linear-gradient-53);}.cls-57{opacity:0.07;fill:url(#linear-gradient-54);}.cls-58{fill:url(#linear-gradient-55);}.cls-59{fill:url(#linear-gradient-56);}.cls-60{opacity:0.72;mix-blend-mode:soft-light;fill:url(#linear-gradient-57);}.cls-61{opacity:0.66;fill:url(#linear-gradient-58);}.cls-62{fill:url(#linear-gradient-59);}.cls-63{fill:url(#linear-gradient-60);}.cls-64{fill:url(#linear-gradient-61);}.cls-65{fill:url(#linear-gradient-62);}.cls-66{fill:url(#linear-gradient-63);}.cls-67{fill:url(#linear-gradient-64);}.cls-68{fill:url(#linear-gradient-65);}.cls-69{fill:url(#linear-gradient-66);}</style><linearGradient id="linear-gradient" x1="374.32" y1="203.87" x2="402.23" y2="206.06" gradientTransform="translate(284.76 495.06) rotate(-89.29)" gradientUnits="userSpaceOnUse"><stop offset="0" stop-color="#fff"/><stop offset="1" stop-color="#666"/></linearGradient><radialGradient id="radial-gradient" cx="373.51" cy="259.7" r="261.26" gradientTransform="translate(284.76 495.06) rotate(-89.29)" gradientUnits="userSpaceOnUse"><stop offset="0.09" stop-color="#f2f2f2"/><stop offset="0.26" stop-color="#ccc"/><stop offset="0.65" stop-color="gray"/><stop offset="1" stop-color="gray"/></radialGradient><linearGradient id="linear-gradient-2" x1="439.17" y1="-26.16" x2="388.27" y2="-26.71" gradientTransform="translate(284.76 495.06) rotate(-89.29)" gradientUnits="userSpaceOnUse"><stop offset="0" stop-color="#fff"/><stop offset="1" stop-color="#999"/></linearGradient><linearGradient id="linear-gradient-3" x1="351.27" y1="-14.95" x2="304.76" y2="-1.55" gradientTransform="translate(284.76 495.06) rotate(-89.29)" gradientUnits="userSpaceOnUse"><stop offset="0" stop-color="#f2f2f2"/><stop offset="1" stop-color="#999"/></linearGradient><linearGradient id="linear-gradient-4" x1="350.75" y1="-16.66" x2="304.26" y2="-3.26" xlink:href="#linear-gradient-3"/><linearGradient id="linear-gradient-5" x1="349.67" y1="-18.39" x2="303.78" y2="-5.16" xlink:href="#linear-gradient-3"/><linearGradient id="linear-gradient-6" x1="346.32" y1="-24.27" x2="302.12" y2="-11.53" xlink:href="#linear-gradient-3"/><linearGradient id="linear-gradient-7" x1="343.85" y1="-27.12" x2="301.34" y2="-14.87" xlink:href="#linear-gradient-3"/><linearGradient id="linear-gradient-8" x1="459.82" y1="72.51" x2="332.03" y2="-87.03" xlink:href="#linear-gradient-2"/><linearGradient id="linear-gradient-9" x1="457.31" y1="74.51" x2="329.52" y2="-85.02" xlink:href="#linear-gradient-2"/><linearGradient id="linear-gradient-10" x1="455.22" y1="76.19" x2="327.42" y2="-83.34" xlink:href="#linear-gradient-2"/><linearGradient id="linear-gradient-11" x1="452.99" y1="77.97" x2="325.2" y2="-81.56" xlink:href="#linear-gradient-2"/><linearGradient id="linear-gradient-12" x1="450.2" y1="80.21" x2="322.41" y2="-79.33" xlink:href="#linear-gradient-2"/><linearGradient id="linear-gradient-13" x1="446" y1="83.58" x2="318.21" y2="-75.96" xlink:href="#linear-gradient-2"/><linearGradient id="linear-gradient-14" x1="440.33" y1="88.12" x2="312.54" y2="-71.41" xlink:href="#linear-gradient-2"/><linearGradient id="linear-gradient-15" x1="432.7" y1="94.23" x2="304.91" y2="-65.3" xlink:href="#linear-gradient-2"/><linearGradient id="linear-gradient-16" x1="316.65" y1="-60.91" x2="469.11" y2="-60.91" xlink:href="#linear-gradient-2"/><linearGradient id="linear-gradient-17" x1="317.63" y1="-69.4" x2="469.11" y2="-69.4" xlink:href="#linear-gradient-2"/><linearGradient id="linear-gradient-18" x1="317.98" y1="-78.08" x2="468.99" y2="-78.08" xlink:href="#linear-gradient-2"/><linearGradient id="linear-gradient-19" x1="319.34" y1="-87.37" x2="467.81" y2="-87.37" xlink:href="#linear-gradient-2"/><linearGradient id="linear-gradient-20" x1="320.61" y1="-95.01" x2="465.97" y2="-95.01" xlink:href="#linear-gradient-2"/><linearGradient id="linear-gradient-21" x1="323.52" y1="-101.87" x2="463.65" y2="-101.87" xlink:href="#linear-gradient-2"/><linearGradient id="linear-gradient-22" x1="327.15" y1="-112.22" x2="458.11" y2="-112.22" xlink:href="#linear-gradient-2"/><linearGradient id="linear-gradient-23" x1="331.36" y1="-118.61" x2="453.05" y2="-118.61" xlink:href="#linear-gradient-2"/><linearGradient id="linear-gradient-24" x1="339.06" y1="-127.41" x2="442.15" y2="-127.41" xlink:href="#linear-gradient-2"/><linearGradient id="linear-gradient-25" x1="347.14" y1="-133.59" x2="428.42" y2="-133.59" xlink:href="#linear-gradient-2"/><linearGradient id="linear-gradient-26" x1="441.18" y1="-20.77" x2="455.41" y2="-20.77" xlink:href="#linear-gradient-2"/><linearGradient id="linear-gradient-27" x1="418.13" y1="-30.52" x2="443.3" y2="-45.84" xlink:href="#linear-gradient-2"/><linearGradient id="linear-gradient-28" x1="418.77" y1="-29.46" x2="443.94" y2="-44.78" xlink:href="#linear-gradient-2"/><linearGradient id="linear-gradient-29" x1="424.58" y1="-19.92" x2="449.75" y2="-35.24" xlink:href="#linear-gradient-2"/><linearGradient id="linear-gradient-30" x1="404.13" y1="-119.7" x2="407.41" y2="-141.59" xlink:href="#linear-gradient-2"/><linearGradient id="linear-gradient-31" x1="440.9" y1="-27.86" x2="405.82" y2="-30.18" gradientTransform="translate(284.76 495.06) rotate(-89.29)" gradientUnits="userSpaceOnUse"><stop offset="0" stop-color="#fff"/><stop offset="1"/></linearGradient><linearGradient id="linear-gradient-32" x1="437.03" y1="-18.93" x2="412.68" y2="-20.54" xlink:href="#linear-gradient-31"/><linearGradient id="linear-gradient-33" x1="517.93" y1="-27.1" x2="426.72" y2="-29.29" xlink:href="#linear-gradient-31"/><linearGradient id="linear-gradient-34" x1="477.53" y1="-23.49" x2="328.12" y2="-24.58" gradientTransform="translate(284.76 495.06) rotate(-89.29)" gradientUnits="userSpaceOnUse"><stop offset="0" stop-color="#fff"/><stop offset="0.14" stop-color="#c9c9c9"/><stop offset="0.31" stop-color="#8d8d8d"/><stop offset="0.48" stop-color="#5a5a5a"/><stop offset="0.64" stop-color="#333"/><stop offset="0.78" stop-color="#171717"/><stop offset="0.91" stop-color="#060606"/><stop offset="1"/></linearGradient><linearGradient id="linear-gradient-35" x1="446.03" y1="-108.47" x2="423.05" y2="-91.51" xlink:href="#linear-gradient-31"/><linearGradient id="linear-gradient-36" x1="439.25" y1="-108.35" x2="423.73" y2="-96.9" xlink:href="#linear-gradient-31"/><linearGradient id="linear-gradient-37" x1="362.53" y1="-58.08" x2="359.25" y2="11.42" xlink:href="#linear-gradient-31"/><linearGradient id="linear-gradient-38" x1="444.9" y1="-18.91" x2="396.73" y2="-24.93" xlink:href="#linear-gradient-34"/><linearGradient id="linear-gradient-39" x1="401.75" y1="78.73" x2="401.75" y2="56.98" xlink:href="#linear-gradient-34"/><linearGradient id="linear-gradient-40" x1="388.64" y1="-22.09" x2="371.86" y2="-22.09" xlink:href="#linear-gradient-2"/><linearGradient id="linear-gradient-41" x1="437.57" y1="116.4" x2="396.57" y2="34.42" xlink:href="#linear-gradient-2"/><linearGradient id="linear-gradient-42" x1="399.6" y1="86.34" x2="386.46" y2="16.83" xlink:href="#linear-gradient-34"/><linearGradient id="linear-gradient-43" x1="477" y1="-17.76" x2="336.4" y2="-18.79" xlink:href="#linear-gradient-34"/><linearGradient id="linear-gradient-44" x1="391.22" y1="-51.52" x2="325.87" y2="-52" xlink:href="#linear-gradient-34"/><linearGradient id="linear-gradient-45" x1="473.7" y1="-32.28" x2="443.05" y2="-32.28" xlink:href="#linear-gradient-31"/><linearGradient id="linear-gradient-46" x1="479.66" y1="-59.55" x2="391.73" y2="-24.16" xlink:href="#linear-gradient-31"/><linearGradient id="linear-gradient-47" x1="424.56" y1="74.65" x2="436.05" y2="81.8" gradientTransform="translate(284.76 495.06) rotate(-89.29)" gradientUnits="userSpaceOnUse"><stop offset="0" stop-color="#b3b3b3"/><stop offset="0.23" stop-color="#fff"/><stop offset="1" stop-color="#999"/></linearGradient><linearGradient id="linear-gradient-48" x1="466.62" y1="-44.91" x2="415.17" y2="-33.96" xlink:href="#linear-gradient-31"/><linearGradient id="linear-gradient-49" x1="383.37" y1="82.72" x2="382.4" y2="99.05" xlink:href="#linear-gradient-34"/><linearGradient id="linear-gradient-50" x1="450.47" y1="-21.99" x2="410.22" y2="-22.29" gradientTransform="matrix(-0.04, -1, 1.09, -0.04, 306.09, 495.98)" xlink:href="#linear-gradient-34"/><linearGradient id="linear-gradient-51" x1="436.14" y1="-26.83" x2="407.14" y2="-24.41" xlink:href="#linear-gradient-34"/><linearGradient id="linear-gradient-52" x1="426.96" y1="34.13" x2="431.33" y2="44.35" xlink:href="#linear-gradient-47"/><linearGradient id="linear-gradient-53" x1="359.01" y1="-115.72" x2="399.74" y2="-20.68" gradientTransform="translate(-135.06 126.53)" xlink:href="#linear-gradient-31"/><linearGradient id="linear-gradient-54" x1="476.39" y1="139.49" x2="445.06" y2="229.57" xlink:href="#linear-gradient-2"/><linearGradient id="linear-gradient-55" x1="374.1" y1="345.26" x2="388.18" y2="345.26" xlink:href="#linear-gradient-31"/><linearGradient id="linear-gradient-56" x1="392.31" y1="113.19" x2="387.93" y2="179.59" gradientTransform="translate(284.76 495.06) rotate(-89.29)" gradientUnits="userSpaceOnUse"><stop offset="0" stop-color="#fcfcfc"/><stop offset="0.4" stop-color="#aeaeae"/><stop offset="1" stop-color="#fff"/></linearGradient><linearGradient id="linear-gradient-57" x1="387.83" y1="-152.64" x2="403.15" y2="303.43" gradientTransform="translate(284.76 495.06) rotate(-89.29)" gradientUnits="userSpaceOnUse"><stop offset="0" stop-color="#fff"/><stop offset="0.92" stop-color="#4d4d4d"/></linearGradient><linearGradient id="linear-gradient-58" x1="430.55" y1="71.42" x2="430.73" y2="77.08" gradientTransform="translate(210.1 478.55) rotate(-79.24)" xlink:href="#linear-gradient-31"/><linearGradient id="linear-gradient-59" x1="390.82" y1="458.96" x2="393.22" y2="534.52" xlink:href="#linear-gradient-2"/><linearGradient id="linear-gradient-60" x1="391.44" y1="478.43" x2="393.36" y2="538.81" xlink:href="#linear-gradient-2"/><linearGradient id="linear-gradient-61" x1="391.76" y1="488.31" x2="393.43" y2="541" xlink:href="#linear-gradient-2"/><linearGradient id="linear-gradient-62" x1="392.06" y1="497.92" x2="393.5" y2="543.12" xlink:href="#linear-gradient-2"/><linearGradient id="linear-gradient-63" x1="392.45" y1="510.09" x2="393.59" y2="545.81" xlink:href="#linear-gradient-2"/><linearGradient id="linear-gradient-64" x1="392.94" y1="523.58" x2="393.74" y2="548.78" xlink:href="#linear-gradient-2"/><linearGradient id="linear-gradient-65" x1="394.53" y1="534.89" x2="395.05" y2="551.25" xlink:href="#linear-gradient-2"/><linearGradient id="linear-gradient-66" x1="431.81" y1="345.26" x2="445.88" y2="345.26" gradientTransform="matrix(-0.01, 1, 1, 0.01, 295.26, -348.13)" xlink:href="#linear-gradient-31"/></defs><title>projecteur2Plan de travail 1</title><g class="cls-1"><g id="Calque_1" data-name="Calque 1"><rect class="cls-2" x="-51.88" y="-41.9" width="1133.94" height="307.48"/><path class="cls-3" d="M188.4,41c-42.32,17.65-46.23,48.33-46.17,59.37-.33,11,2.81,41.78,44.68,60.48,51.73,23.08,120.7,22.58,141.3,15.44s33.05-16.82,41.15-28.76A76,76,0,0,1,374.3,141l0,0c.63-.89,14.85-20.17,35.37-23.49,8.76-1.44,25.74-2.45,58.59-1.36,72.39,2.43,189.28,10.35,252.94,16.5S825,145,836.7,137.13a21.79,21.79,0,0,0,7.93-10.6c.11-.25.18-.5.27-.75s.2-.54.29-.82a51.52,51.52,0,0,0,2.55-15.87,57.3,57.3,0,0,0-1-11.29c-.89-5.56-3.23-12.54-9.37-16.89-11.51-8.14-51.77-2.93-115.56,1.6S541,92.08,468.57,92.71c-30.74.25-47.56-1-56.74-2.51a6.63,6.63,0,0,0-1-.24l-.25,0c-14.77-2.75-26-13.72-31.39-20a.57.57,0,0,0-.11-.11,71.68,71.68,0,0,1-8.62-11c-7.79-12.14-20-22.15-40.41-29.8S240.69,19.22,188.4,41Z"/><path class="cls-4" d="M314,27.7a82.49,82.49,0,0,1,13.16,2.74h0c.75.23,1.42.46,2.08.71a116.35,116.35,0,0,1,11.89,5.16A72.35,72.35,0,0,1,362.38,52c.82.91,1.62,1.84,2.38,2.79l0,0c1.14,1.37,2.17,2.8,3.16,4.26.24.35.48.68.69,1,.71,1.1,1.44,2.18,2.19,3.22h0c.8,1.15,1.64,2.23,2.52,3.32l.29.35c.88,1.11,1.81,2.21,2.78,3.25.34.4.71.78,1.08,1.16l.11.11c.41.48.86,1,1.34,1.5A72.05,72.05,0,0,0,392,84.39c.45.31.91.6,1.37.89a.56.56,0,0,0,.17.09,49.61,49.61,0,0,0,11.25,5.33,41.92,41.92,0,0,0,5.35,1.38l.39,0a3.43,3.43,0,0,1,.46.11l.33.09.11,0c11.4,1.87,30.35,2.74,56.3,2.56.28,0,.54,0,.83,0,75.28-.67,191.79-5.83,253.41-10.23q17.72-1.25,33-2.5c43.59-3.39,72.39-5.66,81.11.51,4.49,3.19,7.34,8.39,8.46,15.45a55,55,0,0,1,.95,10.92,49.54,49.54,0,0,1-2.42,15.18c-.11.29-.18.5-.25.7l-.16.41a1.08,1.08,0,0,1-.09.29,19.53,19.53,0,0,1-7.17,9.67c-3.64,2.45-10.63,3.39-20.66,3.31-14.32,0-34.81-2.16-60.41-4.82-10.17-1.05-21.17-2.19-33-3.32-59.92-5.78-172-13.57-247.28-16.3l-5.78-.21c-27.92-.94-47.76-.46-59,1.39a44.71,44.71,0,0,0-10.13,2.92,60.54,60.54,0,0,0-14.4,8.79,76.59,76.59,0,0,0-8.24,7.78,62.14,62.14,0,0,0-4,4.88,79,79,0,0,0-5,6.59c-8.49,12.53-21.21,21.41-40,27.9-7,2.41-19.29,4-34.49,4.19a295.69,295.69,0,0,1-54.28-4.55c-17.45-3.11-35.13-8-50.91-15-23.51-10.49-34.46-24.81-39.43-37.11a53.25,53.25,0,0,1-4-19.41v0c0-.37,0-.72,0-1.07l0-2c0-.55,0-1.11.09-1.73,0-.32,0-.65.05-1s0-.64.08-1c0-.08,0-.17,0-.28.1-1,.25-2,.44-3.17,0-.41.12-.81.21-1.22.14-.83.33-1.68.54-2.56A55.21,55.21,0,0,1,150,76.73l0,0c5.68-11.58,17-24.44,39.19-33.69a187.64,187.64,0,0,1,20.47-7.08s0,0,.05,0a253.23,253.23,0,0,1,36-7.34h0c4.71-.65,9.38-1.16,14-1.54,1.69-.15,3.38-.28,5.06-.39h.07C283.88,25.33,301.25,25.94,314,27.7Z"/><path class="cls-5" d="M326.64,38.87s17.47-.16,32.61,11.11a50.39,50.39,0,0,1,5.51,4.77l0,0a49.74,49.74,0,0,1,8.16,10.87l.71,1.32a61.3,61.3,0,0,1,5.53,15.79c3.64,17.36,3.24,35.4-2.61,52.09-1.51,1.67-2.6,3-3.29,3.93v0c-.4.5-.65.82-.72.93a79,79,0,0,0-5,6.59c-8.49,12.53-21.21,21.41-40,27.9-20.86,7.25-89.78,6.92-139.68-15.36-39.6-17.68-43.54-46.19-43.4-57.63l0-1.65c.15-11.44,4.79-39.87,44.82-56.56,14.9-6.2,31.44-10.47,47.85-13.17l.22,0c9.3-1.53,18.6-2.55,27.51-3.16-3.29.72-79.16,17.79-90.3,52.47-11.39,35.43,16.75,61,93.34,64.1s95-26.73,97.5-49.69S352.3,44.11,326.64,38.87Z"/><path class="cls-6" d="M359.25,50a25.22,25.22,0,0,0-2.34-3.29h0c7.56,2.76,13.43,16.89,15.54,24.66.19.71.3-6.45.49-5.7,4.43,17.22,9.29,46.68.34,73.13v0c-.4.5-.65.82-.72.93a79,79,0,0,0-5,6.59,59.34,59.34,0,0,1-3.71,4.93c-8.36,10-20.08,17.37-36.33,23-20.86,7.25-89.78,6.92-139.68-15.36-39.6-17.68-43.54-46.19-43.4-57.63l0-1.65c.15-11.44,4.79-39.87,44.82-56.56A175.05,175.05,0,0,1,206,37a236.45,236.45,0,0,1,31.07-7.19C232.86,31,168,51,168.21,90.75c.23,37.55,37.32,48.41,61.88,53.64S305,149.44,327,142.05s31.93-14.93,39.87-37C373.92,85.43,365.71,60.57,359.25,50Z"/><path class="cls-7" d="M206,37c.5,0,.77.05.77.05s-33.3,16-40.2,41.93,4.29,49.31,45.17,64.88S329,156.31,350.31,137.4a67.91,67.91,0,0,0,17.26-23.48,66.59,66.59,0,0,0,5.16-18.76v0a71.79,71.79,0,0,0,.15-16.2c3,18.71,4.46,48.06-9.06,72.31-.65.75-1.29,1.51-2,2.23-8.19,8.87-19.33,15.56-34.35,20.74-20.86,7.25-89.78,6.92-139.68-15.36-39.6-17.68-43.54-46.19-43.4-57.63l0-1.65c.14-11,4.41-37.58,40.11-54.45l0,0c1.5-.7,3.06-1.41,4.69-2.09A175.05,175.05,0,0,1,206,37Z"/><path class="cls-8" d="M184.54,45.13c-.68.39-26.2,17.34-23.36,51.07,2.86,34,37.92,53,81.08,60.93s105.6,1,118-25.35a186.35,186.35,0,0,0,7.34-17.86c5-14.39,5-21.44,5.14-20.84,0,.09,0,.79,0,2.06v0c-.1,7.7-1.39,35.32-10.89,58.32q-1.93,2.1-4.1,4c-7.7,6.93-17.6,12.37-30.25,16.72-20.86,7.25-89.78,6.92-139.68-15.36-39.6-17.68-43.54-46.19-43.4-57.63l0-1.65c.11-8.77,2.86-27.52,22.17-43.29A86.9,86.9,0,0,1,184.54,45.13Z"/><path class="cls-9" d="M166.6,56.29s-21.13,27.11-6.48,58.51,47.95,42,90.25,48.19c48.93,7.18,92.56-2.7,104.52-19.23,10.09-13.95,11.92-19.84,12.24-21.33-.26,1.51-1.29,7.06-3.13,14.46,0,0,0,0-.05.08s0,.07,0,.09-.09.33-.16.59a200.33,200.33,0,0,1-6.05,19.85,58.11,58.11,0,0,1-4.62,3.75c-6.94,5.21-15.38,9.44-25.63,13-20.86,7.25-89.78,6.92-139.68-15.36-39.6-17.68-43.54-46.19-43.4-57.63l0-1.65a54.88,54.88,0,0,1,13.44-34.73.52.52,0,0,0,.09-.13A65.48,65.48,0,0,1,166.6,56.29Z"/><path class="cls-10" d="M157.87,64.85c-1.25,2-15.2,25.39-3,51.61,12.79,27.42,39.66,44.17,87.48,51.07s86.48,0,101.38-9.68c14-9.07,19.55-19.59,20.18-20.88,0,0,.05-.06.05-.08s0,.08-.05.17-.09.33-.16.59a105.59,105.59,0,0,1-10.67,23.6c-6.94,5.21-15.38,9.44-25.63,13-20.86,7.25-89.78,6.92-139.68-15.36-39.6-17.68-43.54-46.19-43.4-57.63l0-1.65A54.88,54.88,0,0,1,157.87,64.85Z"/><path class="cls-11" d="M373.36,66.62l.29.35a55.61,55.61,0,0,0,3.86,4.41l.11.11c.58.66,1.21,1.39,1.92,2.14a70.44,70.44,0,0,0,13.87,11.65,221.12,221.12,0,0,1-8.6,41.79,76.59,76.59,0,0,0-8.24,7.78,62.14,62.14,0,0,0-4,4.88,79,79,0,0,0-5,6.59c-8.49,12.53-21.21,21.41-40,27.9-20.86,7.25-89.78,6.92-139.68-15.36a99.23,99.23,0,0,1-10.22-5.25c-.53-.29-1.05-.6-1.55-.91q-3.78-2.32-7-4.75l-1.25-1a65.91,65.91,0,0,1-6.67-6c-.67-.66-1.32-1.35-1.93-2a60.24,60.24,0,0,1-7.59-10.48c-.35-.59-.67-1.17-1-1.76a1.05,1.05,0,0,1-.08-.18c-.24-.44-.45-.86-.66-1.3s-.5-1-.71-1.52-.57-1.29-.83-2c-.57-1.39-1.06-2.73-1.48-4-.29-1-.55-1.89-.77-2.79a51.58,51.58,0,0,1-1.16-5.64c-.08-.53-.14-1-.2-1.54-.1-.76-.16-1.53-.21-2.23,0-.4-.06-.79-.08-1.16s0-.66,0-1,0-.7,0-1,0-.76,0-1.11l0-1.65c0-.65,0-1.35.1-2.1,0-.32,0-.65.05-1s0-.64.08-1c.1-1.07.25-2.23.46-3.45,0-.41.12-.81.21-1.22.14-.83.33-1.68.54-2.56A366.6,366.6,0,0,0,263,104.15C315.93,102.49,352.59,82.34,373.36,66.62Z"/><path class="cls-12" d="M379.54,73.63c1.32,1.44,2.87,3,4.65,4.59a65.58,65.58,0,0,0,9.22,7.06,221.12,221.12,0,0,1-8.6,41.79,76.59,76.59,0,0,0-8.24,7.78,62.14,62.14,0,0,0-4,4.88,79,79,0,0,0-5,6.59c-8.49,12.53-21.21,21.41-40,27.9-20.86,7.25-89.78,6.92-139.68-15.36a101.32,101.32,0,0,1-10.22-5.25c-.44-.24-.9-.51-1.31-.78-.72-.4-1.41-.85-2.08-1.3-1.22-.78-2.39-1.58-3.5-2.38q-.72-.51-1.41-1.05c-.56-.4-1.11-.82-1.65-1.27s-1.1-.89-1.62-1.33c-1-.87-2-1.75-3-2.66-.33-.31-.65-.63-1-1s-.61-.6-.91-.91c-1.1-1.11-2.12-2.21-3.07-3.34-.37-.44-.73-.86-1.08-1.31-.71-.88-1.38-1.74-2-2.63-.26-.35-.5-.7-.73-1a53.08,53.08,0,0,1-4.35-7.44c-.26-.5-.5-1-.71-1.52s-.57-1.29-.83-2a10,10,0,0,1-.38-1c-.21-.49-.38-1-.55-1.46s-.38-1.07-.55-1.6-.27-.88-.38-1.3c-.17-.57-.31-1.14-.44-1.69-.23-.83-.41-1.65-.58-2.44-.08-.46-.16-.87-.25-1.31-.2-1.12-.36-2.2-.48-3.23a11.31,11.31,0,0,1-.12-1.14c0-.37-.05-.74-.09-1.09s-.06-.79-.08-1.16,0-.66,0-1,0-.7,0-1,0-.76,0-1.11l0-1.65c0-.65,0-1.35.1-2.1A367,367,0,0,0,265,114.4C321.67,112.61,359.68,89.7,379.54,73.63Z"/><path class="cls-13" d="M384.19,78.22c1.28,1.16,2.64,2.34,4.14,3.49s3.27,2.43,5.08,3.57c-.13,1.11-.25,2.27-.4,3.43-.17,1.33-.34,2.69-.53,4.07,0,.08,0,.17-.05.26-.12.94-.26,1.88-.43,2.84,0,.35-.09.72-.16,1.07,0,.07,0,.13,0,.17-.14.88-.28,1.75-.45,2.65s-.28,1.57-.42,2.38-.35,1.86-.54,2.79a6.57,6.57,0,0,1-.16.77c-.1.61-.23,1.24-.37,1.88-.19.89-.4,1.79-.58,2.68l-.14.59c0,.24-.12.46-.17.7a1.83,1.83,0,0,1-.09.39c-.25,1.16-.53,2.32-.83,3.47-.11.46-.23.9-.34,1.36-.05.19-.1.39-.17.59-.34,1.37-.71,2.79-1.12,4.19a3.11,3.11,0,0,1-.11.41q-.74,2.52-1.51,5.1a76.59,76.59,0,0,0-8.24,7.78,62.14,62.14,0,0,0-4,4.88,79,79,0,0,0-5,6.59c-8.49,12.53-21.21,21.41-40,27.9-20.86,7.25-89.78,6.92-139.68-15.36l-2.2-1c-.13-.07-.26-.11-.37-.18a.52.52,0,0,1-.15-.07l-1.92-.94c-.56-.27-1.11-.56-1.65-.85l-.54-.29-1.24-.68-.85-.47c-.7-.38-1.37-.78-2-1.18-.26-.14-.5-.29-.72-.43l-.87-.53c-.11-.07-.24-.16-.37-.23-2-1.27-3.88-2.56-5.62-3.9-.48-.35-.93-.71-1.39-1.07l-.26-.2c-.45-.35-.89-.71-1.3-1.06s-1-.87-1.54-1.31c-.34-.31-.69-.63-1-1s-.5-.42-.74-.66-.65-.63-1-1c-.05,0-.07,0-.11-.11-.41-.38-.82-.8-1.21-1.22l-.26-.26c-.39-.4-.76-.8-1.1-1.18s-.89-1-1.3-1.48a2.83,2.83,0,0,1-.3-.35l-.78-.93c-.52-.65-1-1.26-1.44-1.88a5.49,5.49,0,0,1-.39-.53c-.77-1.06-1.48-2.12-2.15-3.16-.11-.16-.19-.31-.28-.46a6.66,6.66,0,0,1-.38-.64c-.22-.33-.41-.67-.6-1,0,0,0,0,0,0-.25-.44-.49-.86-.72-1.3,0-.09-.09-.18-.15-.27-.2-.35-.37-.68-.52-1v0a8,8,0,0,1-.42-.82,3.49,3.49,0,0,1-.2-.44c-.66-1.36-1.21-2.7-1.72-4-.21-.49-.38-1-.55-1.46-.08-.26-.19-.52-.25-.79-.24-.68-.45-1.34-.64-2s-.33-1.23-.48-1.82c-.08-.31-.16-.61-.23-.92-.25-1-.43-1.91-.6-2.83-.2-1.12-.36-2.2-.48-3.23a11.31,11.31,0,0,1-.12-1.14c0-.37-.05-.74-.09-1.09s-.06-.79-.08-1.16A367.19,367.19,0,0,0,266.39,121.7C326.33,119.82,365.4,94.28,384.19,78.22Z"/><path class="cls-14" d="M388.33,81.71c1.58,1.23,3.27,2.43,5.08,3.57-.13,1.11-.25,2.27-.4,3.43-.17,1.33-.34,2.69-.53,4.07,0,.08,0,.17-.05.26-.12.94-.26,1.88-.43,2.84,0,.35-.09.72-.16,1.07,0,.07,0,.13,0,.17-.14.88-.28,1.75-.45,2.65s-.28,1.57-.42,2.38-.35,1.86-.54,2.79a6.57,6.57,0,0,1-.16.77c-.1.61-.23,1.24-.37,1.88-.05.22-.1.46-.17.67-.09.53-.21,1-.34,1.6a8.45,8.45,0,0,1-.21,1c0,.24-.12.46-.17.7a1.83,1.83,0,0,1-.09.39c-.25,1.16-.53,2.32-.83,3.47-.11.46-.23.9-.34,1.36-.05.19-.1.39-.17.59-.34,1.39-.71,2.79-1.12,4.19a3.11,3.11,0,0,1-.11.41q-.74,2.52-1.51,5.1a76.59,76.59,0,0,0-8.24,7.78,62.14,62.14,0,0,0-4,4.88,79,79,0,0,0-5,6.59c-8.49,12.53-21.21,21.41-40,27.9-20.86,7.25-89.78,6.92-139.68-15.36l-2.2-1c-.13-.07-.26-.11-.37-.18a.52.52,0,0,1-.15-.07l-1.92-.94c-.56-.27-1.11-.56-1.65-.85l-.54-.29-1.24-.68-.85-.47c-.7-.38-1.37-.78-2-1.18-.26-.14-.5-.29-.72-.43l-.87-.53c-.11-.07-.24-.16-.37-.23-2-1.27-3.88-2.56-5.62-3.9-.48-.35-.93-.71-1.39-1.07l-.26-.2c-.45-.35-.89-.71-1.3-1.06s-1-.87-1.54-1.31c-.34-.31-.69-.63-1-1s-.5-.42-.74-.66-.65-.63-1-1c-.05,0-.07,0-.11-.11-.41-.38-.82-.8-1.21-1.22l-.26-.26c-.39-.4-.76-.8-1.1-1.18s-.89-1-1.3-1.48a2.83,2.83,0,0,1-.3-.35l-.78-.93c-.52-.65-1-1.26-1.44-1.88a5.49,5.49,0,0,1-.39-.53c-.77-1.06-1.48-2.12-2.15-3.16-.11-.16-.19-.31-.28-.46a6.66,6.66,0,0,1-.38-.64c-.22-.33-.41-.67-.6-1,0,0,0,0,0,0-.25-.44-.49-.86-.72-1.3a5.59,5.59,0,0,1-.3-.6c-.13-.22-.24-.46-.37-.68v0c-.21-.42-.42-.84-.62-1.26-.66-1.36-1.21-2.7-1.72-4-.3-.77-.55-1.5-.8-2.25s-.45-1.34-.64-2-.33-1.23-.48-1.82c-.08-.31-.16-.61-.23-.92-.25-1-.43-1.91-.6-2.83,27.5,8.79,70.88,18.92,121.78,17.32C331,126.27,371.17,97.33,388.33,81.71Z"/><path class="cls-15" d="M393,88.71c-.65,5.31-1.54,11-2.77,17a212.16,212.16,0,0,1-5.43,21.36,76.59,76.59,0,0,0-8.24,7.78,62.14,62.14,0,0,0-4,4.88,79,79,0,0,0-5,6.59c-8.49,12.53-21.21,21.41-40,27.9-20.86,7.25-89.78,6.92-139.68-15.36-19.25-8.6-30.08-19.72-36.08-30.22a55.68,55.68,0,0,1-4.53-10.13,366.8,366.8,0,0,0,123.38,17.85C336,134.28,376.53,104.05,393,88.71Z"/><path class="cls-16" d="M390.24,105.71c-.89,4.39-1.93,8.93-3.19,13.62-.69,2.53-1.42,5.13-2.24,7.74a76.59,76.59,0,0,0-8.24,7.78,62.14,62.14,0,0,0-4,4.88,79,79,0,0,0-5,6.59c-8.49,12.53-21.21,21.41-40,27.9-20.86,7.25-89.78,6.92-139.68-15.36-12.21-5.45-21-11.93-27.35-18.6a58.71,58.71,0,0,1-8.73-11.62c27.37,8.94,71.64,19.63,123.83,18C332.37,144.83,370.42,121.79,390.24,105.71Z"/><path class="cls-17" d="M387.05,119.33c-.69,2.53-1.42,5.13-2.24,7.74a76.59,76.59,0,0,0-8.24,7.78c-.87,1-1.63,1.84-2.2,2.58-1.07,1.28-1.67,2.13-1.81,2.3a79,79,0,0,0-5,6.59c-8.49,12.53-21.21,21.41-40,27.9-20.86,7.25-89.78,6.92-139.68-15.36a103.78,103.78,0,0,1-11.62-6.07,76.06,76.06,0,0,1-15.73-12.53,366.87,366.87,0,0,0,117.17,15.89C329.78,154.5,366.12,135,387.05,119.33Z"/><path class="cls-18" d="M374.37,137.43c-1.07,1.28-1.67,2.13-1.81,2.3a79,79,0,0,0-5,6.59c-8.49,12.53-21.21,21.41-40,27.9-20.86,7.25-89.78,6.92-139.68-15.36a103.78,103.78,0,0,1-11.62-6.07,364.53,364.53,0,0,0,103,11.87C321,163.35,352.66,150.52,374.37,137.43Z"/><path class="cls-19" d="M297,26.22c6.26.27,12,.8,17,1.48-28.57,2.88-91,23.14-92.11,70.62-1.16,50.88,66.85,78.44,71.09,80.09a277.8,277.8,0,0,1-29.91-1.27c-24.71-2.28-52-7.89-75.28-18.28-39.6-17.68-43.54-46.19-43.4-57.63l0-1.65c0-.65,0-1.35.1-2.1,0-.32,0-.65.05-1s0-.64.08-1c.1-1.07.25-2.23.46-3.45,0-.41.12-.81.21-1.22.14-.83.33-1.68.54-2.56,3.23-13.6,13.34-32.74,43.38-45.26,23.44-9.75,50.87-14.69,75.58-16.37h.07A280.82,280.82,0,0,1,297,26.22Z"/><path class="cls-20" d="M297,26.22C264.11,33.51,214,56.42,213,102c-.79,35.68,27.88,61,50.1,75.13-1.29-.13-2.6-.25-3.91-.4-23.66-2.48-49.36-8-71.37-17.88-39.6-17.68-43.54-46.19-43.4-57.63l0-1.65c0-.65,0-1.35.1-2.1,0-.32,0-.65.05-1s0-.64.08-1c.1-1.07.25-2.23.46-3.45,0-.41.12-.81.21-1.22.14-.83.33-1.68.54-2.56,3.23-13.6,13.34-32.74,43.38-45.26,23.44-9.75,50.87-14.69,75.58-16.37h.07c5.06-.36,10-.58,14.79-.67C285.8,25.88,291.62,26,297,26.22Z"/><path class="cls-21" d="M279.69,26c-32.24,9.34-73.39,32-74.32,73.33-.85,37.69,31.23,63.77,53.81,77.43-4-.42-8-.91-12-1.51-20.13-2.94-41-8.17-59.37-16.37-39.6-17.68-43.54-46.19-43.4-57.63l0-1.65c0-.65,0-1.35.1-2.1,0-.32,0-.65.05-1s0-.64.08-1c.1-1.07.25-2.23.46-3.45,0-.41.12-.81.21-1.22.14-.83.33-1.68.54-2.56,3.23-13.6,13.34-32.74,43.38-45.26,22.27-9.27,48.12-14.18,71.84-16.09l3.74-.28h.07C270,26.29,274.91,26.07,279.69,26Z"/><path class="cls-22" d="M261.09,26.93c-30,11.18-63.08,33.74-63.92,71.54-.81,36.44,27.81,62.28,50,76.76-2.8-.4-5.64-.85-8.46-1.37-17.45-3.09-35.13-8-50.91-15-39.6-17.68-43.54-46.19-43.4-57.63l0-1.65c0-.65,0-1.35.1-2.1,0-.32,0-.65.05-1s0-.64.08-1c.1-1.07.25-2.23.46-3.45,0-.41.12-.81.21-1.22.14-.83.33-1.68.54-2.56,3.23-13.6,13.34-32.74,43.38-45.26,17.56-7.31,37.33-11.9,56.54-14.44C250.94,27.87,256.07,27.35,261.09,26.93Z"/><path class="cls-23" d="M245.79,28.58c-27.91,12-56,33.87-56.82,68.69-.8,36.31,27.58,62.06,49.75,76.59-5-.87-10.07-1.92-15.07-3.1a205.27,205.27,0,0,1-35.84-11.9c-39.6-17.68-43.54-46.19-43.4-57.63l0-1.65c0-.65,0-1.35.1-2.1,0-.32,0-.65.05-1s0-.64.08-1c.1-1.07.25-2.23.46-3.45,0-.41.12-.81.21-1.22.14-.83.33-1.68.54-2.56,3.23-13.6,13.34-32.74,43.38-45.26a213.53,213.53,0,0,1,42.8-12.29Q238.93,29.47,245.79,28.58Z"/><path class="cls-24" d="M232.05,30.73c-26.58,12.3-52.19,33.74-52.94,67-.74,33.5,23.39,58,44.54,73.06-4.71-1.13-9.4-2.39-14-3.81a186,186,0,0,1-21.84-8.09c-39.6-17.68-43.54-46.19-43.4-57.63l0-1.65c0-.65,0-1.35.1-2.1,0-.32,0-.65.05-1s0-.64.08-1c.1-1.07.25-2.23.46-3.45,0-.41.12-.81.21-1.22.14-.83.33-1.68.54-2.56,3.23-13.6,13.34-32.74,43.38-45.26a183.51,183.51,0,0,1,20.36-7s0,0,0,0C217,33.84,224.5,32.12,232.05,30.73Z"/><path class="cls-25" d="M209.61,36c-21.13,13-38.76,32.77-39.39,60.65-.7,31.32,19.7,54.89,39.43,70.31q-6.48-1.95-12.73-4.36c-3.1-1.16-6.15-2.4-9.11-3.73-39.6-17.68-43.54-46.19-43.4-57.63l0-1.65c0-.65,0-1.35.1-2.1,0-.32,0-.65.05-1s0-.64.08-1c.1-1.07.25-2.23.46-3.45,0-.41.12-.81.21-1.22.14-.83.33-1.68.54-2.56,3.23-13.6,13.34-32.74,43.38-45.26,1.81-.74,3.61-1.46,5.46-2.16C199.55,39.06,204.54,37.43,209.61,36Z"/><path class="cls-26" d="M194.71,40.86C177,53.77,163.28,72,162.73,96.55c-.64,28.54,16.25,50.67,34.19,66-3.1-1.16-6.15-2.4-9.11-3.73s-5.81-2.74-8.4-4.2c-31.79-17.71-35.13-42.86-35-53.43l0-1.65c0-.65,0-1.35.1-2.1,0-.32,0-.65.05-1s0-.64.08-1c.1-1.07.25-2.23.46-3.45,0-.41.12-.81.21-1.22.14-.83.33-1.68.54-2.56,2.56-10.8,9.48-25.1,27.29-36.79A96.45,96.45,0,0,1,189.25,43C191.06,42.28,192.86,41.56,194.71,40.86Z"/><path class="cls-27" d="M173.16,51.49C161.81,63.19,154,78.05,153.6,96.44c-.54,24,11.33,43.49,25.81,58.22a82.47,82.47,0,0,1-12.24-8.23c-20.44-16.56-22.87-36.19-22.76-45.2l0-1.65c0-.65,0-1.35.1-2.1,0-.32,0-.65.05-1s0-.64.08-1c.1-1.07.25-2.23.46-3.45,0-.41.12-.81.21-1.22.14-.83.33-1.68.54-2.56A56.38,56.38,0,0,1,157.71,65,70.18,70.18,0,0,1,173.16,51.49Z"/><path class="cls-28" d="M157.71,65a62.69,62.69,0,0,0-9,31.34c-.45,19.81,7.55,36.55,18.49,50.06-20.44-16.56-22.87-36.19-22.76-45.2l0-1.65c0-.65,0-1.35.1-2.1,0-.32,0-.65.05-1s0-.64.08-1c.1-1.07.25-2.23.46-3.45,0-.41.12-.81.21-1.22.14-.83.33-1.68.54-2.56A56.38,56.38,0,0,1,157.71,65Z"/><path class="cls-29" d="M314,27.7a75.6,75.6,0,0,1,15.26,3.45c16,6,27.39,13.56,35.48,23.6l0,0a56.27,56.27,0,0,1,3.85,5.3,71.06,71.06,0,0,0,4.73,6.54l.29.35a55.61,55.61,0,0,0,3.86,4.41l.11.11a76.74,76.74,0,0,0,8,8,63.56,63.56,0,0,0,7.79,5.79.56.56,0,0,0,.17.09A50.9,50.9,0,0,1,392,95.88c-8.2,31.47-15.57,30.78-17.28,23.3s-5.47-47-36.52-58.85-91.59-6.2-140.11,7.53-49.71,53.89-49.71,53.89a53.32,53.32,0,0,1-4-20.52l0-1.65c0-.65,0-1.35.1-2.1,0-.32,0-.65.05-1s0-.64.08-1c.07-.67.15-1.39.27-2.16,0-.41.12-.85.19-1.29s.12-.81.21-1.22c.14-.83.33-1.68.54-2.56,3.23-13.6,13.34-32.74,43.38-45.26,23.44-9.75,50.87-14.69,75.58-16.37h.07C283.88,25.33,301.25,25.94,314,27.7Z"/><path class="cls-30" d="M314,27.7a75.6,75.6,0,0,1,15.26,3.45c16,6,27.39,13.56,35.48,23.6l0,0a56.27,56.27,0,0,1,3.85,5.3,71.06,71.06,0,0,0,4.73,6.54l.29.35a55.61,55.61,0,0,0,3.86,4.41l.11.11a76.74,76.74,0,0,0,8,8c1.23,8.36,1,16.69-1.22,24.15-5.14,16.93-5,8.68-9.56-4.6s-10.08-44.29-61.1-49.39S212.1,50.58,171.43,71c-13.33,6.71-21.53,14.64-26.5,22.31,0-.41.12-.85.19-1.29s.12-.81.21-1.22.16-.83.23-1.27.21-.85.31-1.29c3.23-13.6,13.34-32.74,43.38-45.26,23.44-9.75,50.87-14.69,75.58-16.37h.07C283.88,25.33,301.25,25.94,314,27.7Z"/><path class="cls-31" d="M314,27.7a75.6,75.6,0,0,1,15.26,3.45c16,6,27.39,13.56,35.48,23.6l0,0a56.27,56.27,0,0,1,3.85,5.3,71.06,71.06,0,0,0,4.73,6.54l.29.35a55.61,55.61,0,0,0,3.86,4.41l.11.11a78.09,78.09,0,0,0,5.55,5.8c.78.73,1.58,1.47,2.45,2.2,1.23,8.36,1,16.69-1.22,24.15-4.75-7.21-5.21-33.67-41.49-52.53S225.37,39.79,182.47,56.49c-18.24,7.11-29.72,20.28-36.91,33.08.1-.41.21-.85.31-1.29A56.26,56.26,0,0,1,158,64.72a.06.06,0,0,1,0,0c6.71-7.84,16.62-15.53,31.27-21.66,23.44-9.75,50.87-14.69,75.58-16.37h.07C283.88,25.33,301.25,25.94,314,27.7Z"/><path class="cls-32" d="M314,27.7a75.6,75.6,0,0,1,15.26,3.45c16,6,27.39,13.56,35.48,23.6l0,0a56.27,56.27,0,0,1,3.85,5.3,71.06,71.06,0,0,0,4.73,6.54l.29.35a55.61,55.61,0,0,0,3.86,4.41l.11.11a78.09,78.09,0,0,0,5.55,5.8,30.46,30.46,0,0,1-1.38,7.14S377,67.58,359.29,53.81,322.85,35.53,269.63,35,158,64.72,158,64.72a.06.06,0,0,1,0,0c6.71-7.84,16.62-15.53,31.27-21.66,23.44-9.75,50.87-14.69,75.58-16.37h.07C283.88,25.33,301.25,25.94,314,27.7Z"/><path class="cls-33" d="M245.76,28.58c-36.22,10-87.76,32.8-80.9,79.42,6.48,44,73.86,65.86,73.86,65.86-17.45-3.11-35.13-8-50.91-15-23.51-10.49-34.46-24.81-39.43-37.11a53.32,53.32,0,0,1-4-20.52l0-1.65c0-.65,0-1.35.1-2.1,0-.32,0-.65.05-1s0-.64.08-1c.1-1.07.25-2.23.46-3.45,0-.41.12-.81.21-1.22.14-.83.33-1.68.54-2.56,3.23-13.6,13.34-32.74,43.38-45.26C206.79,35.73,226.55,31.12,245.76,28.58Z"/><path class="cls-34" d="M179.09,105.26s30.41-11.29,63.28-12,94.56-.26,106.5.17,9.91-6.54-3.82-23.77S265,40.32,236.31,45.8s-50.68,7.74-68,32.17S176.08,106.3,179.09,105.26Z"/><path class="cls-35" d="M192.8,90.52s.17-.69.57-1.88c2.14-6.35,10.9-27,35.93-33.42a138.81,138.81,0,0,1,43.28-3.61c13.63.86,28.51,2.45,41.13,8,10.33,4.51,24.4,10.81,30.64,20.8C350.79,90.66,320.5,91,308.12,89s-20.37-5-29.79-10.59S241,74.7,229,77.47s-16.59,3.08-25,9.91S192.23,92.4,192.8,90.52Z"/><path class="cls-36" d="M314,27.7a87.5,87.5,0,0,1,13.18,2.74c.75.23,1.42.46,2.08.71a116.35,116.35,0,0,1,11.89,5.16c-12.73-2.72-40.13-3.78-23.44,1C337,42.89,370,73.19,370.33,99.51s-6.72,43.9-11.59,42.81c-4.48-1-2.15-8.5-16.13-24.81-1.21-1.42-2.57-2.9-4-4.45C320.11,93.63,281,89.2,228.91,87.83a269.61,269.61,0,0,0-48,3q-3.56.56-7,1.3c-8.16,1.69-16.2,4-24.39,5.41-2.72-6.52,6.17-13.24,10.2-17,6.13-5.69,12.44-11.19,19-16.41,22-17.61,63.41-23.93,61.08-26.73-3-3.61-19.47-2.59-30-1.54,6.72-1.91,13.59-3.53,20.48-4.82q7.77-1.52,15.51-2.52c6.47-.89,12.85-1.51,19.07-1.93h.07C283.88,25.33,301.25,25.94,314,27.7Z"/><path class="cls-37" d="M314,27.7a87.5,87.5,0,0,1,13.18,2.74c-7.78-.38-11.07-1.82-16.17-.31-11.52,3.43,13.36,13.63,39.49,37.3,13,11.78,8.29,32.57-7.91,50.08-16.34,17.68-44.34,32-77.67,30.47-6.23-.3-12.44-.83-18.63-1.7-17.74-2.54-38.18-10.91-52.31-22-10.39-8.16-18.58-18.61-20.14-32.13a27.69,27.69,0,0,1,.6-9.67c3.67-15.09,19.94-24,33.47-28.88,29.27-10.58,37.14-13,38.65-17.16.84-2.31-8.18-4.18-16.33-5.35q7.77-1.52,15.51-2.52c6.47-.89,12.85-1.51,19.07-1.93h.07C283.88,25.33,301.25,25.94,314,27.7Z"/><path class="cls-38" d="M166.83,95.73s3.85-36.07,67.48-47.32c0,0-12.7-6.73-45.61,7.09S159.56,98.38,166.83,95.73Z"/><path class="cls-39" d="M164.85,91.86s5.71-34.55,58.27-41.08C223.12,50.78,162.93,52.71,164.85,91.86Z"/><path class="cls-40" d="M168.47,101.66S179.54,144.42,233,152c37.67,5.32,66.89,7.92,90.36,6.47a1,1,0,0,1,.29,2c-18.36,3.86-47.56,6-77.39,2.76-45.66-4.94-83.22-22.64-86.16-48.4S168.13,97.75,168.47,101.66Z"/><path class="cls-41" d="M183,85.85s17.35-33.17,45.85-36.1,46.54-1.61,42.76-6,21.39-3,33.39.42,48.79,19.49,45.55,37.11c-.49,2.69-51.64,5-60.85,1s-15.69-7.31-23.91-8.5-39.21,1.7-42.66,4.94-8.65,3.17-14.51,2-14.54-1.28-20.14,5.22S183,85.85,183,85.85Z"/><path class="cls-42" d="M342.27,144.24s18.93-13.9,20.33-38.87-9.9-49.27-31.12-59.94-.38,7.82,8.79,28.73,10.07,36.8,3.3,53.13S339,147.82,342.27,144.24Z"/><path class="cls-43" d="M173.22,97.22c.43-3.9,3.48-1.69,7.37-1.13,16.58,2.38,27.31,7.19,57.25,10.06,62.56,6,83.61,3.41,107.51-3,21-5.64,16.16,10.18,16.16,10.18s1,33.28-40.64,42.3-109.39-4.36-123.66-16.7C185.54,128.86,171.39,113.73,173.22,97.22Z"/><path class="cls-44" d="M350.29,138.42s24.08-28.17,8.55-59.48C345.62,52.31,336.32,53,331.47,46.46s19.48-8.11,30.81,6c15.23,18.95,18.91,24.73,26.05,29.28s-.71,1.05-9.23,8.16C375.13,93.18,372.2,128.74,350.29,138.42Z"/><path class="cls-45" d="M364.78,54.78a56.27,56.27,0,0,1,3.85,5.3,71.06,71.06,0,0,0,4.73,6.54l.29.35a55.61,55.61,0,0,0,3.86,4.41l.11.11c.41.48.86,1,1.34,1.5-6.57,3.42-13.36,9-15.93,18-5.54,19.39-3.3,42-29.51,54.34s-54.16,5.44-58.2-4.07,7.92-35,24.18-32.89c0,0,36.66,6.17,42.53.53S357.68,90,353.46,81.28,351.62,58,364.78,54.78Z"/><path class="cls-46" d="M314,27.7a82.49,82.49,0,0,1,13.16,2.74c-27.52,7.13-28.34,3.31-1.32,16.45,40.39,19.64,17,79.82-8.8,89.83S210.61,140,198.47,113.08s13.58-50.79,33.22-53.5c37.7-5.2,34.94-23.33,28.08-32.54,1.69-.15,3.38-.28,5.06-.39h.07C283.88,25.33,301.25,25.94,314,27.7Z"/><path class="cls-47" d="M162.67,112.27c-.91-4.23,5.48-9.24,7.63-5.49,5.54,9.66,16.63,28.08,38.53,38.47,33.62,15.94,84.73,16.35,103.53,15.77,0,0-80.17,3.37-110.68-10.74C175.66,138.25,164.94,122.75,162.67,112.27Z"/><path class="cls-48" d="M315.64,27.12a81.44,81.44,0,0,1,13.17,2.75h0c.74.22,1.42.45,2.07.7a117.61,117.61,0,0,1,11.89,5.16A72.24,72.24,0,0,1,364,51.39c-3.84-2.59-7.89-4.66-11.24-4.76-9.32-.29-11.63,6-5.64,15.47s14.49,23.13-2.06,3.57S279.65,48.09,239,50.38c-40.05,2.26-86.33,24.89-87.3,25.75,5.68-11.57,17-24.44,39.19-33.69a185.5,185.5,0,0,1,20.47-7.07s0,0,0,0a253.65,253.65,0,0,1,36-7.34h0q7.08-1,14-1.54c1.69-.15,3.37-.28,5.06-.39h.07C285.5,24.75,302.88,25.36,315.64,27.12Z"/><path class="cls-49" d="M314,27.7a82.49,82.49,0,0,1,13.16,2.74h0c.75.23,1.42.46,2.08.71a116.35,116.35,0,0,1,11.89,5.16A72,72,0,0,1,362.32,51.9l.06.06c.82.91,1.62,1.84,2.38,2.79l0,0a56.27,56.27,0,0,1,3.85,5.3c.71,1.1,1.44,2.18,2.19,3.22-1.67-.76-6.94-8.23-31.57-20.64s-77.19-18.08-134.32-1.81c-56.05,15.94-60.36,59.76-60.51,61.45,0-.37,0-.72,0-1.07l0-2c0-.55,0-1.11.09-1.73,0-.32,0-.65.05-1s0-.64.08-1c0-.08,0-.17,0-.28.1-1,.25-2,.44-3.17,0-.41.12-.81.21-1.22.14-.83.33-1.68.54-2.56,0,0,0-.11.07-.3A55.47,55.47,0,0,1,150,76.73l0,0c5.68-11.58,17-24.44,39.19-33.69a187.64,187.64,0,0,1,20.47-7.08s0,0,.05,0a253.23,253.23,0,0,1,36-7.34h0c4.71-.65,9.38-1.16,14-1.54,1.69-.15,3.38-.28,5.06-.39h.07C283.88,25.33,301.25,25.94,314,27.7Z"/><path class="cls-50" d="M365.72,59.83l3.45,1.07q.81,1.23,1.65,2.4h0c.8,1.15,1.64,2.23,2.52,3.32l.29.35,0,0a2.75,2.75,0,0,1-1.22,4.35A18,18,0,0,0,368,73.49a14.48,14.48,0,0,0-3.75,3.87,2.76,2.76,0,0,1-5-1.54c-.21-5.53.48-11.63,4-14.43A12.91,12.91,0,0,1,365.72,59.83Z"/><path class="cls-51" d="M314,27.7a82.49,82.49,0,0,1,13.16,2.74h0c.75.23,1.42.46,2.08.71a116.35,116.35,0,0,1,11.89,5.16A72,72,0,0,1,362.32,51.9C360.76,50.72,343,31.17,297,29.21c-39.78-1.68-72.75,3.08-106,14.47s-45.15,44.6-45.15,44.6,0-.11.07-.3A55.47,55.47,0,0,1,150,76.73l0,0c5.68-11.58,17-24.44,39.19-33.69a187.64,187.64,0,0,1,20.47-7.08s0,0,.05,0a253.23,253.23,0,0,1,36-7.34h0c4.71-.65,9.38-1.16,14-1.54,1.69-.15,3.38-.28,5.06-.39h.07C283.88,25.33,301.25,25.94,314,27.7Z"/><path class="cls-52" d="M375.59,75.72a8.15,8.15,0,0,0-2,3.4c-3.25,10.36.75,23.89.15,34.73s-6,19.68-12.36,28.5c-1.78,2.48-3.37,4.27-3.54,7.25,1.73,1,3.51.51,4.94-1,4.71-5.08,7.05-12.2,12.17-17.4,8.5-8.66,19.38-14.24,28.06-22.67a6.73,6.73,0,0,0,2.23-3.35c.41-2.2-1.28-4.18-2.84-5.79L379.9,76.23A4.55,4.55,0,0,0,378.31,75,2.59,2.59,0,0,0,375.59,75.72Z"/><path class="cls-53" d="M190.48,81.3s36.75-5.8,64.19-2.48,35.56.82,35.53-1.37,36.87-5.13,48,.67S341,70.55,325.29,62.4s-42.6-17-50.27-12.85-26.65-1.7-47.86,5.69S180.76,80,190.48,81.3Z"/><path class="cls-54" d="M194.27,75.89a1.87,1.87,0,0,0,1.34,3.48,264.85,264.85,0,0,1,27.22-5.46c43.58-6.92,68.37.9,73.78,7.48s39.73,5.13,39.73,5.13,5.05-18.42-29.49-27c-39.57-9.84-63.92-3.57-96.25,9.18C203.53,71.47,198.24,73.86,194.27,75.89Z"/><path class="cls-55" d="M342.28,90s4.66-18.12-10.19-30.57-17.57-14.63-14-17.17,10.25,6.89,16.65,12.15S352.65,81,342.28,90Z"/><ellipse class="cls-56" cx="261.43" cy="98.26" rx="41.78" ry="79.48" transform="translate(159.93 358.44) rotate(-89.29)"/><path class="cls-57" d="M836.14,82.69c4.49,3.19,7.34,8.39,8.46,15.45a55,55,0,0,1,.95,10.92,49.54,49.54,0,0,1-2.42,15.18c-.11.29-.18.5-.25.7l-.16.41a1.08,1.08,0,0,1-.09.29,19.53,19.53,0,0,1-7.17,9.67c-3.64,2.45-10.63,3.39-20.66,3.31-5.5-1.38-16.32-.2-16.32-.2,39.79-1.3,36.72-45.09,13-48.64-23.31-3.48-344.56,8.67-378.16,10.62S390.5,85,390.5,85s.53-.23,1.54-.61c.45.31.91.6,1.37.89a.56.56,0,0,0,.17.09,47.64,47.64,0,0,0,16.6,6.71l.39,0a3.43,3.43,0,0,1,.46.11l.33.09.11,0c11.53,1.89,30.74,2.76,57.13,2.55,75.28-.67,191.79-5.83,253.41-10.23q17.72-1.25,33-2.5C798.62,78.79,827.42,76.52,836.14,82.69Z"/><path class="cls-58" d="M430.31,108.72s356,21,380.35,23.25,28.91-11.68,29-20.65-46.36-9.18-107.61-7.2S420.06,103.94,430.31,108.72Z"/><path class="cls-59" d="M404.83,90.7a41.92,41.92,0,0,0,5.35,1.38l.39,0a3.43,3.43,0,0,1,.46.11l.33.09.11,0c11.4,1.87,30.35,2.74,56.3,2.56a196.57,196.57,0,0,0,6.37,19.26l-5.78-.21c-27.92-.94-47.76-.46-59,1.39a44.71,44.71,0,0,0-10.13,2.92A152.67,152.67,0,0,0,404.83,90.7Z"/><path class="cls-60" d="M314,27.7a81.44,81.44,0,0,1,13.17,2.75h0c.74.22,1.42.45,2.07.7a117.61,117.61,0,0,1,11.89,5.16A72.24,72.24,0,0,1,362.37,52c.82.9,1.62,1.83,2.37,2.78l0,0A51.65,51.65,0,0,1,367.93,59c.23.36.47.69.69,1,.7,1.1,1.44,2.18,2.19,3.22h0c.8,1.15,1.64,2.23,2.52,3.32l.28.35c.88,1.11,1.81,2.21,2.78,3.26.35.39.72.77,1.08,1.15l.11.11c.41.48.87,1,1.34,1.5A72.74,72.74,0,0,0,392,84.39c.46.31.92.6,1.37.89a.76.76,0,0,0,.18.09,49.41,49.41,0,0,0,11.25,5.33,42.2,42.2,0,0,0,5.34,1.38l.4,0a4.35,4.35,0,0,1,.46.11l.32.09.11,0c11.41,1.87,30.36,2.74,56.3,2.56.29,0,.55,0,.83,0,75.28-.66,191.8-5.82,253.41-10.22,6.75-.49,13.24-1,19.46-1.45l13.57-1c43.59-3.4,72.38-5.67,81.11.5,4.49,3.19,7.34,8.39,8.45,15.45a54.31,54.31,0,0,1,1,10.92,49.84,49.84,0,0,1-2.42,15.18c-.11.29-.18.51-.25.7l-.16.42a1.8,1.8,0,0,1-.09.28,19.59,19.59,0,0,1-7.17,9.67c-3.64,2.45-10.64,3.4-20.67,3.32-11.31,0-26.51-1.36-45-3.26-4.9-.47-10-1-15.37-1.57-10.17-1-21.17-2.19-33-3.32-59.91-5.78-172-13.57-247.28-16.3l-5.77-.21c-27.93-.93-47.77-.46-59,1.39a44.56,44.56,0,0,0-10.13,2.92,60.11,60.11,0,0,0-14.41,8.8,77.55,77.55,0,0,0-8.24,7.78,59.57,59.57,0,0,0-4,4.87,74.93,74.93,0,0,0-5,6.59c-8.5,12.53-21.22,21.42-40,27.9-7,2.41-19.29,4-34.49,4.19a295.62,295.62,0,0,1-54.28-4.55c-17.46-3.11-35.13-8-50.91-15-23.52-10.5-34.46-24.82-39.43-37.12a53,53,0,0,1-4-19.41v0c0-.37,0-.72,0-1.07l0-2c0-.54,0-1.11.09-1.72,0-.33,0-.66.06-1s.05-.63.07-1a2.36,2.36,0,0,0,0-.29c.1-1,.24-2,.43-3.17a10.42,10.42,0,0,1,.22-1.22c.14-.83.32-1.68.53-2.55A55.65,55.65,0,0,1,150,76.73l0,0c5.68-11.57,17-24.44,39.19-33.69A185.5,185.5,0,0,1,209.71,36s0,0,0,0a253.36,253.36,0,0,1,36-7.34h0q7.08-1,14-1.54c1.69-.15,3.37-.28,5.06-.39h.07C283.86,25.33,301.24,25.94,314,27.7Z"/><path class="cls-61" d="M359.11,77.63l1.32-1.47c1.69-1.89,4.68-5.23,6.87-7.71,3.22-3.67-.3-10.13-3.95-6.88S359.11,77.63,359.11,77.63Z"/><path class="cls-62" d="M836.13,82.69c4.49,3.19,7.34,8.39,8.45,15.45a54.31,54.31,0,0,1,1,10.92,49.84,49.84,0,0,1-2.42,15.18c-.11.29-.18.51-.25.7l-.16.42a1.8,1.8,0,0,1-.09.28,19.59,19.59,0,0,1-7.17,9.67c-3.64,2.45-10.64,3.4-20.67,3.32-8.88,0-20.15-.85-33.55-2.13-3.68-.33-7.5-.73-11.48-1.13a91.89,91.89,0,0,0-4.16-25c-3.47-11.23-13.12-20.22-24.14-27.17l13.57-1,7.21-.57C801.78,78.56,827.9,76.87,836.13,82.69Z"/><path class="cls-63" d="M836.13,82.69c4.49,3.19,7.34,8.39,8.45,15.45a54.31,54.31,0,0,1,1,10.92,49.84,49.84,0,0,1-2.42,15.18c-.11.29-.18.51-.25.7l-.16.42a1.8,1.8,0,0,1-.09.28,19.59,19.59,0,0,1-7.17,9.67c-3.64,2.45-10.64,3.4-20.67,3.32-6.85,0-15.12-.52-24.67-1.34-2.85-.23-5.8-.49-8.88-.79-1-22.61-11-42.48-19-54.88l10.54-.81C806.43,78.32,828.66,77.41,836.13,82.69Z"/><path class="cls-64" d="M836.13,82.69c4.49,3.19,7.34,8.39,8.45,15.45a54.31,54.31,0,0,1,1,10.92,49.84,49.84,0,0,1-2.42,15.18c-.11.29-.18.51-.25.7l-.16.42a1.8,1.8,0,0,1-.09.28,19.59,19.59,0,0,1-7.17,9.67c-3.64,2.45-10.64,3.4-20.67,3.32q-6.85,0-15.58-.64c-2.88-.19-5.92-.42-9.09-.7.24-22.77-9.17-43.13-17.34-56.48,3.55-.26,7-.51,10.25-.73C810.94,78.2,829.44,78,836.13,82.69Z"/><path class="cls-65" d="M836.13,82.69c4.49,3.19,7.34,8.39,8.45,15.45a54.31,54.31,0,0,1,1,10.92,49.84,49.84,0,0,1-2.42,15.18c-.11.29-.18.51-.25.7l-.16.42a1.8,1.8,0,0,1-.09.28,19.59,19.59,0,0,1-7.17,9.67c-3.64,2.45-10.64,3.4-20.67,3.32-1.46,0-3,0-4.55-.08-3.39-.11-7.07-.29-11-.56v-.26C800.3,114.78,791.28,94,783,80.08q6.87-.47,13-.78C816.7,78.25,830.55,78.75,836.13,82.69Z"/><path class="cls-66" d="M836.13,82.69c4.49,3.19,7.34,8.39,8.45,15.45a54.31,54.31,0,0,1,1,10.92,49.84,49.84,0,0,1-2.42,15.18c-.11.29-.18.51-.25.7l-.16.42a1.8,1.8,0,0,1-.09.28,19.59,19.59,0,0,1-7.17,9.67c-2.45,1.66-6.43,2.62-11.82,3.05-2.61.21-5.56.28-8.85.27-1.46,0-3,0-4.55-.08a42.59,42.59,0,0,1,0-5.06c1-21.12-6.55-40.39-14.19-54.19,5.25-.26,10.07-.44,14.41-.48C823.21,78.72,832,79.75,836.13,82.69Z"/><path class="cls-67" d="M822.55,79.17c6.32.52,10.91,1.63,13.58,3.52,4.49,3.19,7.34,8.39,8.45,15.45a54.31,54.31,0,0,1,1,10.92,49.84,49.84,0,0,1-2.42,15.18c-.11.29-.18.51-.25.7l-.16.42a1.8,1.8,0,0,1-.09.28,19.86,19.86,0,0,1-6.86,9.46c-.09.06-.2.15-.31.21-2.45,1.66-6.43,2.62-11.82,3.05a48.76,48.76,0,0,1-.23-7.62c1-20-5.76-38.32-13-51.92C815,78.79,819.05,78.89,822.55,79.17Z"/><path class="cls-68" d="M822.55,79.17c6.32.52,10.91,1.63,13.58,3.52,4.49,3.19,7.34,8.39,8.45,15.45a54.31,54.31,0,0,1,1,10.92,49.84,49.84,0,0,1-2.42,15.18c-.11.29-.18.51-.25.7l-.16.42a1.8,1.8,0,0,1-.09.28,19.86,19.86,0,0,1-6.86,9.46c0-1.14,0-2.3,0-3.48C836.78,111.38,829.87,92.84,822.55,79.17Z"/><path class="cls-69" d="M430.43,99.41S786.87,87.3,811.23,85.64,839.85,98,839.73,107s-46.57,8-107.75,4.53S420.06,103.94,430.43,99.41Z"/></g></g></svg>