<svg xmlns="http://www.w3.org/2000/svg" viewBox="0 0 1224.71 484.51"><defs><style>.cls-1,.cls-2,.cls-20,.cls-21{fill:#231f20;}.cls-1,.cls-17,.cls-21{stroke:#231f20;}.cls-1,.cls-10,.cls-17,.cls-20,.cls-21{stroke-miterlimit:10;}.cls-3{fill:#fbcaaa;}.cls-4{fill:#333;}.cls-5{fill:#ef8b46;}.cls-6{fill:#f3ac71;}.cls-7{fill:#f6c785;}.cls-8{fill:#ef9d9c;}.cls-9{fill:#8c959d;}.cls-10{fill:#d1d3d4;stroke:#939598;}.cls-11{fill:#939598;}.cls-12{fill:#808285;}.cls-13,.cls-15{fill:#414042;}.cls-14{fill:#bb5a3f;}.cls-15{opacity:0.33;}.cls-16{fill:#445d7b;}.cls-17{fill:none;opacity:0.28;}.cls-18{fill:#fbcc34;}.cls-19{fill:#fff;}.cls-20{stroke:#f1f2f2;}.cls-21{stroke-width:2px;}</style></defs><title>banFichier 2</title><g id="Calque_2" data-name="Calque 2"><g id="Calque_1-2" data-name="Calque 1"><rect class="cls-1" x="0.5" y="0.5" width="1223.71" height="483.51"/><rect class="cls-2" x="431.36" y="55.61" width="340.16" height="208.7"/><g id="Pointe"><polygon class="cls-3" points="686.53 59.78 684.21 65.21 670.6 97 649.93 77.08 681.19 62.3 686.53 59.78"/><polygon class="cls-4" points="686.49 59.75 683.1 67.79 678.66 63.51 686.49 59.75"/></g><g id="Corps"><g id="Bois"><rect class="cls-5" x="500.44" y="140.64" width="180.58" height="9.57" transform="translate(76.16 469.97) rotate(-46.07)"/><rect class="cls-6" x="507.33" y="147.28" width="180.58" height="9.57" transform="translate(73.49 476.96) rotate(-46.07)"/><rect class="cls-7" x="514.22" y="153.92" width="180.58" height="9.57" transform="translate(70.82 483.96) rotate(-46.07)"/></g><rect id="Gomme" class="cls-8" x="513.12" y="214.38" width="21.29" height="28.71" rx="5.59" ry="5.59" transform="translate(-4.34 447.25) rotate(-46.07)"/><rect class="cls-9" x="524.96" y="206.99" width="11.83" height="28.71" transform="translate(3.15 450.11) rotate(-46.07)"/></g><path class="cls-10" d="M563.58,112l-28.3-22-2.64-8.31q-2.85-9-5.69-17.94L551.64,74l19.12,27.8Q567.17,106.93,563.58,112Z"/><path class="cls-11" d="M538.19,83.38l-5.55-1.67q-2.85-9-5.69-17.94l37.72,41.46Z"/><path class="cls-12" d="M527.31,64.16c5.48,6.24,11.69,12.53,17.16,18.77"/><path class="cls-12" d="M527.35,64.13c2.9,3.09,5.88,6.1,8.83,9.14,1.49,1.51,3,3,4.4,4.6a54.63,54.63,0,0,1,3.93,5l-.08.07c-1.61-1.4-3.08-2.92-4.58-4.42S537,75.4,535.6,73.82c-2.83-3.16-5.64-6.34-8.33-9.62Z"/><ellipse class="cls-13" cx="545.61" cy="83.83" rx="1.52" ry="1.37" transform="translate(366.54 605.99) rotate(-79.81)"/><path class="cls-14" d="M569.53,90.77l118.13,124a31.82,31.82,0,0,1,7.49,13.9c1,4.1,2.39,9.63-.31,13.13-3.65,4.74-12.05,2.17-13.47,1.74-6.51-2-10.13-7.17-11.43-9.24L552.06,108.43Z"/><polygon class="cls-15" points="563.72 104.27 556.34 112.67 672.27 235.62 679.65 227.22 563.72 104.27"/><path class="cls-16" d="M593.2,115.62l-17.12,18.47-20.37-21.75L573,94.45Z"/><line class="cls-17" x1="683.99" y1="219.74" x2="569.74" y2="97.85"/><path class="cls-18" d="M552,108.32l18-17.64a1.37,1.37,0,0,1,2.06.1l.38.47a1.75,1.75,0,0,1-.16,2.28l-18,17.63a1.37,1.37,0,0,1-2.06-.1l-.38-.47A1.74,1.74,0,0,1,552,108.32Z"/><path class="cls-18" d="M574.43,132.3l18-17.64a1.38,1.38,0,0,1,2.07.1l.38.47a1.75,1.75,0,0,1-.16,2.28l-18,17.63a1.37,1.37,0,0,1-2.06-.1l-.38-.47A1.73,1.73,0,0,1,574.43,132.3Z"/><path class="cls-18" d="M668.54,232.58l18-17.63a1.37,1.37,0,0,1,2.06.09l.38.48a1.74,1.74,0,0,1-.16,2.27l-18,17.63a1.37,1.37,0,0,1-2.06-.09l-.38-.48A1.74,1.74,0,0,1,668.54,232.58Z"/><path class="cls-18" d="M554.53,111.53l18-17.64a1.37,1.37,0,0,1,2.06.1L576,95.84a1.74,1.74,0,0,1-.16,2.27l-18,17.63a1.37,1.37,0,0,1-2.06-.09l-1.49-1.85A1.74,1.74,0,0,1,554.53,111.53Z"/><rect class="cls-19" x="590.91" y="82.06" width="19.86" height="45.94"/><path class="cls-2" d="M610.77,125.5H590.91l2.5,2.5V82.06l-2.5,2.5h19.86l-2.5-2.5V128c0,3.22,5,3.22,5,0V82.06a2.53,2.53,0,0,0-2.5-2.5H590.91a2.54,2.54,0,0,0-2.5,2.5V128a2.54,2.54,0,0,0,2.5,2.5h19.86C614,130.5,614,125.5,610.77,125.5Z"/><path class="cls-19" d="M635.19,222.91c-.4,3.7-1.75,10.87-7.37,16.17-7,6.59-16.42,6.39-26.7,6.18A76.83,76.83,0,0,1,578,241.13c-1.62-.55-2.67-1.93-3.9-3.11-5.42-5.21-5.21-7.36-5.7-11.66-.12-1,.46-1.92.69-2.88l7.44-30.92,46.63-5.79q5.56,16.74,11.12,33.48C634.6,221.14,634.9,222,635.19,222.91Z"/><path class="cls-2" d="M632.69,222.91C631.57,232.28,626,240,616.45,242c-8.23,1.74-17.88,1.12-26.14-.33-7.77-1.36-19-4.53-19.27-14.32-.16-5.23,2.52-11.67,3.75-16.77q2.09-8.7,4.18-17.39l-2.41,1.83,46.63-5.79-2.41-1.84,12,36.14c1,3,5.84,1.74,4.82-1.33l-12-36.14a2.52,2.52,0,0,0-2.41-1.83l-46.63,5.79a2.59,2.59,0,0,0-2.41,1.84l-5.58,23.18c-1.26,5.23-3.35,10.34-2.06,15.72,2.64,11.07,14.19,14.44,24,16,10,1.58,22.43,2.57,32-1.37,9.36-3.85,14-12.88,15.2-22.5C638.07,219.72,633.07,219.75,632.69,222.91Z"/><path class="cls-2" d="M572.84,207.66a80.33,80.33,0,0,0,56.81.83c3-1.09,1.71-5.92-1.33-4.82a76.1,76.1,0,0,1-54.15-.83c-3-1.19-4.29,3.65-1.33,4.82Z"/><path class="cls-2" d="M569.13,220.35a76.29,76.29,0,0,0,65.4-1.08c2.88-1.42.35-5.74-2.52-4.32A70.86,70.86,0,0,1,571.65,216c-2.91-1.32-5.45,3-2.52,4.31Z"/><path class="cls-20" d="M635.19,222.91c-.4,3.7-1.75,10.87-7.37,16.17-7,6.59-16.42,6.33-26.7,6.18-5.17-.08-20,.33-26.41-5.3-3.4-3-6.13-14.23-5.86-15.36v0a.46.46,0,0,1,.84-.14,24.08,24.08,0,0,0,8.38,8c2.63,1.48,9.25,5.19,15.45,2.21a13.16,13.16,0,0,0,5.62-5.48.8.8,0,0,1,1.33-.09,15.68,15.68,0,0,0,5.88,4.87c8.67,4.05,17.89-2.2,19.31-3.17a24.22,24.22,0,0,0,7.42-8.09,1.15,1.15,0,0,1,2.09.2Z"/><path class="cls-2" d="M588.43,198.08l-5.22,24.61"/><path class="cls-2" d="M586,197.41,580.79,222c-.66,3.14,4.16,4.48,4.83,1.33l5.22-24.62c.66-3.14-4.16-4.48-4.82-1.33Z"/><path class="cls-2" d="M601,198.51v26.34"/><path class="cls-2" d="M598.48,198.51v26.34c0,3.21,5,3.22,5,0V198.51c0-3.22-5-3.23-5,0Z"/><path class="cls-2" d="M613.81,197.94,620.69,222"/><path class="cls-2" d="M611.4,198.61l6.88,24.07c.88,3.09,5.71,1.78,4.82-1.33l-6.88-24.07c-.88-3.09-5.71-1.78-4.82,1.33Z"/><path class="cls-19" d="M558.41,136.28c-4.95.25-5.9.63-6.66,1.14s-2.24,1.75-2.89,5a19.16,19.16,0,0,1-11.59-3.32c-.59-.41-7.53-5.36-7.86-12.82-.22-4.87,2.55-6.61,2.07-12.42a19.15,19.15,0,0,0-2.07-7c-.8,2-2,5-3.31,8.7-1.45,3.89-4.13,11.29-5,14.07-2.69,8.88-3.31,25.93,5.38,33.1,8.31,6.87,24.92,4.52,25.24,4.56a10.54,10.54,0,0,0,3.73,4.55,11.17,11.17,0,0,0,9.1,1.24c.61-3.85,5.42-35-.41-36.83C563.68,136,561.92,136.11,558.41,136.28Z"/><path class="cls-2" d="M558.41,133.78c-6.22.37-10.17,1.34-12,7.94l2.41-1.83c-7,.16-14.25-4.06-16.44-11-1.33-4.23,1-7.57,1.46-11.66a20.83,20.83,0,0,0-2.32-11.69c-1-2.14-3.86-1.2-4.56.6-6,15.24-13.91,32.21-8.32,48.79,4.94,14.65,19.84,15.5,33.07,14.8l-2.16-1.24a13.19,13.19,0,0,0,15.66,6.94,2.46,2.46,0,0,0,1.74-1.75,175.08,175.08,0,0,0,2.53-25.54c0-3.65.17-8.17-1.59-11.5-2-3.83-5.75-3-9.52-2.85-3.21.16-3.23,5.16,0,5,4.38-.21,5.26-1.1,5.87,3.39a58.4,58.4,0,0,1,0,11.14c-.38,6.38-1.15,12.73-2.15,19l1.75-1.75a8.3,8.3,0,0,1-10-4.65,2.42,2.42,0,0,0-2.16-1.23c-4.54.24-9,.58-13.51-.11-8.7-1.31-14-6-15.71-14.68-3-14.67,4.09-29.16,9.29-42.47l-4.57.6a15,15,0,0,1,1.23,10.58,48.14,48.14,0,0,0-1.4,5,16.57,16.57,0,0,0,3.51,12.3,21.93,21.93,0,0,0,18.27,8.95,2.57,2.57,0,0,0,2.41-1.84c1.15-4.25,3.14-4,7.14-4.27C561.6,138.6,561.63,133.59,558.41,133.78Z"/><path class="cls-19" d="M551.75,167.22a11.6,11.6,0,0,1-1.1-4.14,11,11,0,0,1,0-1.52"/><path class="cls-2" d="M549.05,168.51a13.26,13.26,0,0,1,.31-3.76,11.49,11.49,0,0,1,.54-1.69q.38-.8.75-1.5.38.75.75,1.41a7.88,7.88,0,0,0,.91,1.2,8.75,8.75,0,0,0,2.15,1.75Z"/><path class="cls-19" d="M549.09,141.45a32,32,0,0,0,0,5.07c.1,1.09.24,2.11.42,3"/><path class="cls-2" d="M552.08,141.66a28,28,0,0,0-1.52,3.77,15.84,15.84,0,0,0-.54,2l-.47,2.11-1-1.93a21,21,0,0,1-1-2,32,32,0,0,1-1.46-4.37Z"/><path class="cls-19" d="M545.68,148.87a9.63,9.63,0,0,0,.56,7.72"/><path class="cls-11" d="M545.68,148.87a17.86,17.86,0,0,1,.31,2l.16,1.8c0,.6.08,1.19.11,1.82a16,16,0,0,1,0,2.06,4.08,4.08,0,0,1-1.49-1.63,5.33,5.33,0,0,1-.59-2.1,5.18,5.18,0,0,1,.28-2.17A4.07,4.07,0,0,1,545.68,148.87Z"/><path class="cls-19" d="M542.64,148.87a15.43,15.43,0,0,0-.28,2.69,15.81,15.81,0,0,0,.56,4.48"/><path class="cls-11" d="M542.64,148.87a8.3,8.3,0,0,1,.55,1.85,12.73,12.73,0,0,1,.18,1.71,12.59,12.59,0,0,1,0,1.73,8.47,8.47,0,0,1-.4,1.88,4.19,4.19,0,0,1-1.16-1.65,6.12,6.12,0,0,1-.39-1.88,5.85,5.85,0,0,1,.25-1.9A4.26,4.26,0,0,1,542.64,148.87Z"/><path class="cls-19" d="M540.75,148.17a9.07,9.07,0,0,0-.42,2.45,9.27,9.27,0,0,0,.83,4.08"/><path class="cls-11" d="M540.75,148.17a10,10,0,0,1,.42,1.73c.09.52.14,1,.18,1.51s0,1,0,1.52a10.4,10.4,0,0,1-.21,1.77,3.36,3.36,0,0,1-1.31-1.39,4.44,4.44,0,0,1-.5-1.77,4.39,4.39,0,0,1,.27-1.83A3.31,3.31,0,0,1,540.75,148.17Z"/><path class="cls-19" d="M538.16,147a8.66,8.66,0,0,0-.42,2.39,8.85,8.85,0,0,0,.83,4"/><path class="cls-11" d="M538.16,147a9.87,9.87,0,0,1,.42,1.69,13.08,13.08,0,0,1,.18,1.47,14.69,14.69,0,0,1,0,1.49,10,10,0,0,1-.21,1.73,3.24,3.24,0,0,1-1.31-1.34,4.3,4.3,0,0,1-.5-1.74,4.25,4.25,0,0,1,.27-1.8A3.21,3.21,0,0,1,538.16,147Z"/><path class="cls-19" d="M535.31,147a10.16,10.16,0,0,0-.28,2.16,10.46,10.46,0,0,0,.55,3.6"/><path class="cls-11" d="M535.31,147a7,7,0,0,1,.54,1.51,7.2,7.2,0,0,1,.19,1.34,7.72,7.72,0,0,1-.06,1.35,6.29,6.29,0,0,1-.4,1.56,3,3,0,0,1-1.14-1.26,3.87,3.87,0,0,1-.4-1.55,4.09,4.09,0,0,1,.25-1.58A3.09,3.09,0,0,1,535.31,147Z"/><path class="cls-19" d="M643.85,136.28c4.95.25,5.9.63,6.65,1.14s2.25,1.75,2.9,5A19.16,19.16,0,0,0,665,139.07c.59-.41,7.52-5.36,7.86-12.82.22-4.87-2.55-6.61-2.07-12.42a18.78,18.78,0,0,1,2.07-7c.8,2,2,5,3.31,8.7,1.44,3.89,4.13,11.29,5,14.07,2.69,8.88,3.3,25.93-5.38,33.1-8.31,6.87-24.92,4.52-25.25,4.56a10.42,10.42,0,0,1-3.72,4.55,11.19,11.19,0,0,1-9.11,1.24c-.6-3.85-5.41-35,.42-36.83C638.58,136,640.34,136.11,643.85,136.28Z"/><path class="cls-2" d="M643.85,138.78c4,.24,6,0,7.14,4.27a2.56,2.56,0,0,0,2.41,1.84,21.94,21.94,0,0,0,18.27-8.95,16.8,16.8,0,0,0,3.58-11.68,34.2,34.2,0,0,0-1.48-5.62A15,15,0,0,1,675,108.06l-4.57-.6c5.2,13.31,12.25,27.8,9.29,42.47-1.67,8.23-6.49,13.06-14.81,14.55-4.82.86-9.57.49-14.42.24a2.42,2.42,0,0,0-2.15,1.23,8.3,8.3,0,0,1-10,4.65l1.75,1.75c-1-6.31-1.77-12.66-2.16-19a57.59,57.59,0,0,1,.05-11.14c.61-4.5,1.4-3.61,5.87-3.39,3.22.16,3.21-4.84,0-5-3.6-.17-7.35-1-9.41,2.6-1.91,3.33-1.73,8.07-1.7,11.75a175.07,175.07,0,0,0,2.52,25.54,2.46,2.46,0,0,0,1.75,1.75,13.17,13.17,0,0,0,15.65-6.94l-2.16,1.24c13.26.7,28.11-.15,33.07-14.8,5.62-16.56-2.37-33.58-8.31-48.79-.7-1.79-3.54-2.73-4.57-.6a21.23,21.23,0,0,0-2.36,11.35c.45,4.24,2.88,7.62,1.51,12-2.19,7-9.42,11.17-16.44,11l2.41,1.83c-1.79-6.6-5.74-7.57-12-7.94C640.64,133.6,640.65,138.6,643.85,138.78Z"/><path class="cls-19" d="M650.5,167.22a11.38,11.38,0,0,0,1.11-4.14,11,11,0,0,0,0-1.52"/><path class="cls-2" d="M647.8,165.92a8.75,8.75,0,0,0,2.15-1.75,7.88,7.88,0,0,0,.91-1.2q.38-.66.75-1.41.38.7.75,1.5a11.47,11.47,0,0,1,.53,1.69,13.26,13.26,0,0,1,.32,3.76Z"/><path class="cls-19" d="M653.17,141.45a33.29,33.29,0,0,1,0,5.07c-.1,1.09-.25,2.11-.42,3"/><path class="cls-2" d="M656.16,141.23a33.45,33.45,0,0,1-1.47,4.37,18.81,18.81,0,0,1-1,2l-1,1.93-.47-2.11a17.69,17.69,0,0,0-.54-2,28,28,0,0,0-1.53-3.77Z"/><path class="cls-19" d="M656.57,148.87a9.42,9.42,0,0,1,.56,2.9,9.87,9.87,0,0,1-1.11,4.82"/><path class="cls-11" d="M656.57,148.87a4,4,0,0,1,1.25,1.82,5.53,5.53,0,0,1,.28,2.17,5.33,5.33,0,0,1-.59,2.1,4.08,4.08,0,0,1-1.49,1.63,16,16,0,0,1,0-2.06c0-.63.06-1.22.11-1.82l.16-1.8A17.68,17.68,0,0,1,656.57,148.87Z"/><path class="cls-19" d="M659.62,148.87a16.65,16.65,0,0,1,.27,2.69,15.54,15.54,0,0,1-.55,4.48"/><path class="cls-11" d="M659.62,148.87a4.12,4.12,0,0,1,1,1.74,5.35,5.35,0,0,1,.25,1.9,5.59,5.59,0,0,1-.39,1.88,4.06,4.06,0,0,1-1.15,1.65,8.47,8.47,0,0,1-.4-1.88,12.62,12.62,0,0,1-.06-1.73,14.66,14.66,0,0,1,.19-1.71A8.3,8.3,0,0,1,659.62,148.87Z"/><path class="cls-19" d="M661.51,148.17a9.13,9.13,0,0,1-.42,6.53"/><path class="cls-11" d="M661.51,148.17a3.38,3.38,0,0,1,1.13,1.54,4.38,4.38,0,0,1,.26,1.83,4.27,4.27,0,0,1-.49,1.77,3.32,3.32,0,0,1-1.32,1.39,9.39,9.39,0,0,1-.2-1.77c0-.53,0-1,0-1.52s.09-1,.17-1.51A11.14,11.14,0,0,1,661.51,148.17Z"/><path class="cls-19" d="M664.1,147a8.73,8.73,0,0,1-.42,6.38"/><path class="cls-11" d="M664.1,147a3.28,3.28,0,0,1,1.13,1.5,4.24,4.24,0,0,1,.26,1.8A4.14,4.14,0,0,1,665,152a3.21,3.21,0,0,1-1.32,1.34,9,9,0,0,1-.2-1.73,14.69,14.69,0,0,1,0-1.49c0-.48.09-1,.17-1.47A11,11,0,0,1,664.1,147Z"/><path class="cls-19" d="M667,147a10.16,10.16,0,0,1,.28,2.16,10.71,10.71,0,0,1-.55,3.6"/><path class="cls-11" d="M667,147a3.09,3.09,0,0,1,1,1.37,4.09,4.09,0,0,1,.25,1.58,4,4,0,0,1-.4,1.55,3,3,0,0,1-1.14,1.26,6.29,6.29,0,0,1-.4-1.56,6.85,6.85,0,0,1-.06-1.35,7.2,7.2,0,0,1,.19-1.34A6.46,6.46,0,0,1,667,147Z"/><circle class="cls-19" cx="600.56" cy="153.35" r="45.47"/><path class="cls-2" d="M643.53,153.35c-.27,17.92-11.33,34.35-28.39,40.44a43,43,0,1,1-5.75-82.5c19.88,4.22,33.84,21.9,34.14,42.06.05,3.22,5.05,3.23,5,0A48,48,0,1,0,609.4,200.5c22.66-4.12,38.79-24.42,39.13-47.15C648.58,150.13,643.58,150.13,643.53,153.35Z"/><circle class="cls-21" cx="581.86" cy="154.7" r="11.07"/><circle class="cls-21" cx="621.59" cy="154.7" r="11.07"/><path class="cls-21" d="M598.93,172.22l-2.2,3.09a2.56,2.56,0,0,0,2,4l4.51.13a2.56,2.56,0,0,0,2.16-4.06l-2.32-3.22A2.56,2.56,0,0,0,598.93,172.22Z"/></g></g></svg>