<svg id="Calque_1" data-name="Calque 1" xmlns="http://www.w3.org/2000/svg" viewBox="0 0 960 200"><defs><style>.cls-1,.cls-21,.cls-22,.cls-23{fill:#231f20;}.cls-1,.cls-18,.cls-23{stroke:#231f20;}.cls-1,.cls-11,.cls-18,.cls-22,.cls-23,.cls-3{stroke-miterlimit:10;}.cls-2{opacity:0.17;}.cls-18,.cls-3{fill:none;}.cls-3{stroke:#f4eddf;}.cls-4{fill:#fbcaaa;}.cls-5{fill:#333;}.cls-6{fill:#ef8b46;}.cls-7{fill:#f3ac71;}.cls-8{fill:#f6c785;}.cls-9{fill:#ef9d9c;}.cls-10{fill:#8c959d;}.cls-11{fill:#d1d3d4;stroke:#939598;}.cls-12{fill:#939598;}.cls-13{fill:#808285;}.cls-14,.cls-16{fill:#414042;}.cls-15{fill:#bb5a3f;}.cls-16{opacity:0.33;}.cls-17{fill:#445d7b;}.cls-18{opacity:0.28;}.cls-19{fill:#fbcc34;}.cls-20{fill:#fff;}.cls-22{stroke:#f1f2f2;}.cls-22,.cls-23{stroke-width:0.5px;}</style></defs><title>banPlan de travail 1</title><rect class="cls-1" x="-165.5" y="-20.52" width="1281" height="652.99"/><g class="cls-2"><path class="cls-3" d="M433.39,505.94H-5.16V-182.55h994.3v364c-.73-1-1.55-2-2.17-3.11-6.37-11.09-12.81-22.13-19-33.33-1.61-2.94-3.32-4.15-6.84-4.09-12.8.24-25.61,0-38.41.08a4.82,4.82,0,0,1-4.87-2.79c-6.58-11.7-13.32-23.28-19.93-35a4.17,4.17,0,0,0-4.18-2.56q-21.15.13-42.3-.06a4.49,4.49,0,0,0-4.51,2.7c-6.67,11.64-13.52,23.21-20.18,34.86a4.8,4.8,0,0,1-4.87,2.81c-12.55-.21-25.1-.33-37.65-.25-2.75,0-4.13-1-5.43-3.26-6.39-11.37-13-22.62-19.34-34-1.39-2.52-3-3.31-5.77-3.29-12.94.08-25.88-.12-38.81-.06-2.49,0-3.94-.64-5.19-2.89q-9.26-16.59-18.83-33a4.37,4.37,0,0,1,0-5.21q9.75-16.49,19.28-33.15A4.79,4.79,0,0,1,715,23.14c13.71.16,27.42.07,41.13.25a5.06,5.06,0,0,0,5.14-3q10.26-18,20.81-35.84a4.08,4.08,0,0,0,.09-4.86q-10.5-18.06-20.73-36.31a4.83,4.83,0,0,0-4.86-2.81c-13.72,0-27.43,0-41.14-.31-2.76-.06-4.1,1-5.4,3.22-6.38,11.21-13,22.3-19.4,33.53a4.8,4.8,0,0,1-4.84,2.81q-20-.22-40-.08c-2.33,0-3.42-.83-4.49-2.74-6.46-11.48-12.94-22.93-19.63-34.3-1.25-2.11-1.07-3.54.13-5.55,6.73-11.32,13.25-22.77,20-34.09a4.8,4.8,0,0,0,.11-5.6q-10.54-18-20.79-36.26a4.51,4.51,0,0,0-4.59-2.58c-13.06.09-26.13-.07-39.19.08-2.81,0-4.36-.78-5.75-3.27-6.39-11.52-13-22.89-19.51-34.36-1.06-1.89-2.19-2.77-4.51-2.76q-21,.13-41.91-.09a4.56,4.56,0,0,0-4.58,2.59C494.47-167.54,487.6-156,481-144.31c-1.26,2.2-2.58,3-5.14,3-13.06-.18-26.13-.07-39.2-.25a5.14,5.14,0,0,0-5.16,3c-6.64,11.64-13.52,23.21-20.18,34.88a4.77,4.77,0,0,1-4.84,2.78c-12.94-.15-25.87,0-38.81-.2a4.85,4.85,0,0,0-4.89,2.77C356.29-87,349.61-75.87,343.17-64.5c-1.49,2.63-3.07,3.82-6.3,3.75-12-.32-24.06-.37-36.08-.28-2.88,0-4.33-1-5.69-3.45-6.21-11.16-12.75-22.16-19-33.38-1.33-2.41-2.83-3.1-5.43-3.1-12.81.08-25.62-.15-38.41,0-3.2,0-4.78-1.11-6.25-3.76-6.28-11.28-12.83-22.41-19.15-33.68a4.78,4.78,0,0,0-4.81-2.88q-20.74.09-41.52-.15a4.81,4.81,0,0,0-4.81,2.85c-6.53,11.42-13.23,22.78-19.77,34.24-1.37,2.4-2.81,3.42-5.71,3.37-12.93-.19-25.87,0-38.81-.15-2.45,0-3.93.54-5.24,2.83-6.81,12-13.8,23.91-20.85,35.82a4.44,4.44,0,0,0,0,5.2Q75.88-39.36,86-21.28c1.35,2.43,2.93,3.05,5.51,3.05,13.07-.06,26.13.11,39.2.07a4.82,4.82,0,0,1,4.87,2.79q9.65,17.24,19.65,34.28c1.16,2,1,3.36-.13,5.24Q145.07,41,135.38,58c-1.28,2.25-2.71,2.94-5.21,2.91-12.55-.21-25.1-.12-37.64-.35-2.72,0-4.11.88-5.44,3.19C80.72,75,74.08,86,67.69,97.26c-1.51,2.64-3.15,3.76-6.33,3.7-12.8-.23-25.62-.07-38.42-.23-2.51,0-3.88.67-5.18,2.92q-10.23,18-20.85,35.83a4.46,4.46,0,0,0-.06,5.25Q7.38,162.79,17.63,181a4.78,4.78,0,0,0,4.88,2.74c13.19-.09,26.39.07,39.58,0A4.83,4.83,0,0,1,67,186.53q9.26,16.56,18.83,32.95c1.34,2.29,1.43,4,0,6.31C79.12,237,72.7,248.34,66,259.53c-1.36,2.29-1.48,3.89-.09,6.29q10.41,17.7,20.4,35.65a4.8,4.8,0,0,0,4.88,2.76c13.2-.08,26.39.07,39.59,0a4.88,4.88,0,0,1,4.89,2.78q9.67,17.24,19.65,34.29c1.22,2.09,1.07,3.62-.12,5.63-6.72,11.33-13.25,22.77-20,34.09-1.21,2-1.33,3.47-.11,5.56q10.45,17.85,20.59,36a4.75,4.75,0,0,0,4.82,2.79c13.2-.07,26.39.12,39.59,0a5.14,5.14,0,0,1,5.14,3c6.37,11.38,13,22.63,19.35,34,1.26,2.23,2.56,3.29,5.33,3.27,13.71-.13,27.42-.06,41.14.12a5,5,0,0,0,5.14-3c6.58-11.57,13.38-23,20-34.54a4.83,4.83,0,0,1,4.89-2.84q18.81.33,37.64.29c2.46,0,3.64,1,4.76,3,6.39,11.37,13,22.64,19.35,34a4.77,4.77,0,0,0,4.85,2.83c10.73-.1,21.52.67,32.19-.18,8.26-.66,12.73,2.06,16.3,9.48C421.24,485.52,427.58,495.6,433.39,505.94Z"/><path class="cls-3" d="M989.14,183.82V505.94H757.84c7.36-12.6,14.74-25.17,22-37.82a4.49,4.49,0,0,1,4.55-2.58c13.2.14,26.39.07,39.59.23,2.33,0,3.73-.54,4.93-2.65q10.27-18,20.85-35.82a4.8,4.8,0,0,0,.05-5.62C843,409.86,836.11,398,829.46,386c-1.35-2.42-2.9-3.11-5.5-3.11-12.93,0-25.87-.17-38.81-.13-2.61,0-4.19-.65-5.52-3q-9.69-17.43-19.78-34.66a4.44,4.44,0,0,1,0-5.2q9.71-16.29,19.09-32.82c1.34-2.37,2.9-3.05,5.5-3,12.94.15,25.87,0,38.81.17,2.71,0,4.09-.87,5.44-3.2,6.56-11.56,13.37-23,20-34.54a4.77,4.77,0,0,1,4.87-2.76c13.07.14,26.14,0,39.2.18a4.84,4.84,0,0,0,4.87-2.81c6.39-11.21,13-22.29,19.4-33.54,1.64-2.91,3.34-4.17,6.89-4.07,12.66.36,25.35.22,38,.46,2.57,0,3.88-.78,5.14-3,6-10.56,12.15-21,18.3-31.48C986.47,187.52,987.86,185.7,989.14,183.82Z"/><path class="cls-3" d="M989.14,183.82c-1.28,1.88-2.67,3.7-3.83,5.66-6.15,10.46-12.31,21-18.3,31.48-1.25,2.2-2.57,3-5.14,3-12.66-.24-25.35-.09-38-.45-3.55-.1-5.25,1.16-6.88,4.06-6.35,11.26-13,22.33-19.41,33.55a4.81,4.81,0,0,1-4.87,2.8c-13.06-.14-26.13,0-39.19-.18a4.86,4.86,0,0,0-4.88,2.77c-6.6,11.55-13.41,23-20,34.54-1.32,2.33-2.7,3.23-5.43,3.2-12.93-.17-25.87,0-38.81-.17-2.61,0-4.17.65-5.51,3q-9.32,16.53-19.08,32.83a4.37,4.37,0,0,0,0,5.2q10.05,17.24,19.77,34.66c1.33,2.39,2.92,3.05,5.52,3,12.93-.05,25.87.16,38.81.13,2.6,0,4.16.68,5.51,3.11,6.65,12,13.49,23.82,20.39,35.64a4.8,4.8,0,0,1,0,5.62q-10.57,17.85-20.86,35.82c-1.2,2.11-2.6,2.68-4.93,2.65-13.19-.17-26.39-.1-39.58-.24a4.51,4.51,0,0,0-4.56,2.59c-7.28,12.64-14.68,25.22-22.05,37.82H709.66a3.44,3.44,0,0,0-.18-1.11C702.37,492.42,695.3,480,688,467.62a5.3,5.3,0,0,0-4-1.95q-20-.24-39.93-.07a4.76,4.76,0,0,1-4.83-2.8c-6.57-11.69-13.32-23.28-19.9-35a4.51,4.51,0,0,0-4.55-2.62q-18.63.17-37.21,0a4.86,4.86,0,0,0-4.86,2.78c-6.72,11.76-13.65,23.4-20.38,35.16a4.49,4.49,0,0,1-4.54,2.6c-13.3-.12-26.62-.17-39.93,0a5.69,5.69,0,0,0-4.23,2.17c-7.54,12.63-14.85,25.38-22.24,38.1H433.34c-5.81-10.34-12.15-20.41-17.23-31.09-3.53-7.43-8-10.15-16.3-9.49-10.67.85-21.46.08-32.19.19a4.79,4.79,0,0,1-4.84-2.84c-6.4-11.36-13-22.63-19.35-34-1.13-2-2.33-3-4.77-3q-18.81,0-37.64-.28a4.81,4.81,0,0,0-4.89,2.83c-6.61,11.54-13.4,23-20,34.54a5,5,0,0,1-5.14,3c-13.71-.18-27.42-.25-41.14-.12-2.77,0-4.07-1-5.32-3.26-6.39-11.38-13-22.63-19.36-34a5.08,5.08,0,0,0-5.14-3c-13.2.08-26.39-.11-39.59,0a4.76,4.76,0,0,1-4.82-2.8q-10.14-18.08-20.59-36c-1.22-2.09-1.09-3.53.11-5.56,6.74-11.32,13.26-22.76,20-34.09a4.85,4.85,0,0,0,.11-5.63q-10-17.07-19.65-34.28a4.82,4.82,0,0,0-4.89-2.79c-13.2.08-26.39-.07-39.59,0a4.8,4.8,0,0,1-4.88-2.76q-9.92-18-20.3-35.73c-1.39-2.37-1.27-4,.1-6.29,6.69-11.19,13.1-22.55,19.8-33.75,1.4-2.33,1.31-4,0-6.3q-9.6-16.38-18.84-33a4.76,4.76,0,0,0-4.88-2.74c-13.2.09-26.39-.07-39.59,0-2.33,0-3.7-.64-4.88-2.74Q7.41,162.76-3.13,144.7a4.44,4.44,0,0,1,.06-5.24q10.59-17.85,20.85-35.83c1.27-2.25,2.67-2.95,5.19-2.92,12.8.16,25.61,0,38.41.23,3.18.06,4.83-1.06,6.33-3.71,6.38-11.23,13-22.31,19.41-33.54,1.31-2.33,2.7-3.23,5.43-3.18,12.54.23,25.1.14,37.64.34,2.51,0,3.93-.65,5.22-2.9q9.65-17,19.67-33.82c1.11-1.89,1.3-3.25.13-5.25q-10-17.07-19.65-34.27a4.8,4.8,0,0,0-4.87-2.8c-13.07.05-26.13-.12-39.19-.07-2.59,0-4.16-.62-5.51-3q-10.15-18.06-20.63-36a4.44,4.44,0,0,1,0-5.2Q76-80.32,86.25-98.29c1.3-2.33,2.79-2.86,5.24-2.83,12.93.11,25.87,0,38.81.15,2.89,0,4.34-1,5.7-3.37,6.54-11.46,13.24-22.82,19.73-34.23,1.16-2,2.39-2.88,4.81-2.85q20.76.28,41.52.15a4.82,4.82,0,0,1,4.81,2.89C213.19-127.12,219.74-116,226-104.7c1.47,2.64,3,3.8,6.25,3.75,12.8-.17,25.61.06,38.41,0,2.62,0,4.12.7,5.43,3.11,6.21,11.18,12.72,22.18,18.95,33.38C296.42-62,297.87-61,300.75-61q18-.12,36.09.28c3.22.08,4.8-1.12,6.29-3.74,6.44-11.35,13.12-22.56,19.58-33.89a4.79,4.79,0,0,1,4.88-2.76c12.94.15,25.87,0,38.81.19a4.8,4.8,0,0,0,4.84-2.78c6.66-11.64,13.54-23.2,20.18-34.88a5.06,5.06,0,0,1,5.16-3c13.07.18,26.14.07,39.2.26a5.07,5.07,0,0,0,5.14-3c6.64-11.64,13.51-23.22,20.18-34.87a4.54,4.54,0,0,1,4.58-2.59q21,.19,41.92.09c2.32,0,3.44.86,4.51,2.76,6.46,11.47,13.11,22.84,19.5,34.36,1.39,2.5,2.94,3.3,5.75,3.27,13.07-.15,26.13,0,39.19-.08a4.52,4.52,0,0,1,4.59,2.58q10.25,18.24,20.79,36.31a4.77,4.77,0,0,1-.11,5.59c-6.72,11.33-13.24,22.78-20,34.09-1.2,2-1.38,3.44-.13,5.55q10,17.06,19.63,34.29c1.07,1.91,2.19,2.76,4.49,2.74q20-.15,40,.08a4.84,4.84,0,0,0,4.84-2.81c6.4-11.22,13-22.31,19.41-33.53,1.29-2.27,2.63-3.27,5.39-3.22,13.71.26,27.42.33,41.14.32a4.82,4.82,0,0,1,4.86,2.8q10.23,18.24,20.76,36.32a4.06,4.06,0,0,1-.09,4.86Q771.57,2.46,761.27,20.44c-1.25,2.19-2.57,3-5.13,3-13.72-.18-27.43-.09-41.14-.24A4.83,4.83,0,0,0,710.11,26Q700.62,42.57,690.85,59a4.48,4.48,0,0,0,0,5.21q9.54,16.41,18.83,33c1.25,2.25,2.71,2.91,5.19,2.89,12.93-.06,25.87.14,38.81.06,2.79,0,4.38.77,5.78,3.29,6.32,11.4,12.94,22.65,19.33,34,1.28,2.26,2.66,3.27,5.44,3.26,12.55-.08,25.09,0,37.64.25a4.84,4.84,0,0,0,4.88-2.81c6.67-11.64,13.52-23.2,20.18-34.86a4.47,4.47,0,0,1,4.51-2.7q21.15.19,42.3.06a4.16,4.16,0,0,1,4.18,2.56c6.6,11.7,13.35,23.29,19.93,35a4.78,4.78,0,0,0,4.87,2.79c12.8-.09,25.61.16,38.41-.08,3.52-.06,5.22,1.15,6.84,4.09,6.21,11.2,12.62,22.24,19,33.33.63,1.09,1.45,2.08,2.18,3.11ZM735.65,20.75v.07c6.6,0,13.2.12,19.79-.1a5.46,5.46,0,0,0,3.88-2.22q10.15-16.93,19.91-34.15a5.34,5.34,0,0,0,.1-4.44c-6.44-11.49-13.09-22.86-19.55-34.33a4.19,4.19,0,0,0-4.23-2.49q-19.59.1-39.18-.11a4.46,4.46,0,0,0-4.56,2.61q-9.59,16.81-19.48,33.47c-1.11,1.88-1.29,3.27-.12,5.26q9.9,16.88,19.45,33.94a4.43,4.43,0,0,0,4.59,2.53C722.72,20.67,729.19,20.75,735.65,20.75ZM43.1,181.09v.24c6.46,0,12.93.13,19.41-.1a5.44,5.44,0,0,0,3.88-2.17q10.29-17.26,20.26-34.78a4.83,4.83,0,0,0,0-4Q77,123,67,106a5.36,5.36,0,0,0-3.8-2.33q-19.77-.39-39.54-.28a5.37,5.37,0,0,0-3.89,2.22Q9.57,122.68-.28,140a5,5,0,0,0,0,4.12q9.68,17.43,19.78,34.6A5.42,5.42,0,0,0,23.33,181C29.91,181.22,36.51,181.09,43.1,181.09Zm553.26-239v-.3c-6.59,0-13.19-.14-19.77.1a5.87,5.87,0,0,0-4.19,2.33q-10.2,16.88-19.92,34.06a5.32,5.32,0,0,0,0,4.45Q562.1,0,572.14,17a5.77,5.77,0,0,0,4.1,2.46c12.92.3,25.84.29,38.81.52a4.25,4.25,0,0,0,4.24-2.49C625.9,6,632.67-5.47,639.23-17a5.27,5.27,0,0,0,.11-4.38q-9.51-17.07-19.45-33.91a5.84,5.84,0,0,0-4.1-2.44C609.3-58,602.82-57.88,596.36-57.88ZM181.6-138.52v-.28c-6.59,0-13.19-.14-19.76.11a5.85,5.85,0,0,0-4.19,2.33c-6.72,11.16-13.19,22.51-19.83,33.69a4.5,4.5,0,0,0,.07,5.28q9.75,16.73,19.23,33.58A4.89,4.89,0,0,0,162-60.93q19,0,38,.28a4.84,4.84,0,0,0,4.82-2.87q9.69-17,19.69-33.78a4.46,4.46,0,0,0,0-5.21q-9.66-16.55-19-33.26a4.71,4.71,0,0,0-4.86-2.76C194.27-138.43,187.94-138.52,181.6-138.52ZM457.35,503.11v.3c6.46,0,12.92-.12,19.4.06a4.8,4.8,0,0,0,4.86-2.8q9.5-16.65,19.31-33.1c1.34-2.23,1.14-3.79-.08-5.9q-9.66-16.53-19-33.24a4.82,4.82,0,0,0-4.87-2.78q-19,0-38-.37c-2.16,0-3.51.52-4.66,2.5q-9.78,17.14-19.85,34.16a4.47,4.47,0,0,0,0,5.24q9.68,16.54,19,33.26a4.78,4.78,0,0,0,4.92,2.75C444.68,503,451,503.11,457.35,503.11ZM595.41-61.27V-61c6.46,0,12.92-.09,19.4.06a4.6,4.6,0,0,0,4.66-2.56c6.53-11.44,13.24-22.76,19.72-34.22a5.24,5.24,0,0,0-.05-4.35q-9.6-17.26-19.61-34.27a5.74,5.74,0,0,0-4.13-2.42c-12.92-.24-25.85-.14-38.77-.31-2.33,0-3.41.91-4.48,2.77-6.5,11.3-13.2,22.51-19.59,33.83a5.73,5.73,0,0,0-.07,4.79Q562-80.6,571.89-63.75a5.9,5.9,0,0,0,4.17,2.38C582.48-61.13,588.94-61.27,595.41-61.27ZM526.86-179.12v-.19c-6.59,0-13.19-.15-19.79.11a5.8,5.8,0,0,0-4.14,2.33q-10.1,16.74-19.7,33.8a5.73,5.73,0,0,0-.09,4.79Q492.73-121,502.77-104a5.44,5.44,0,0,0,3.88,2.22c12.93.27,25.87.25,38.81.47a4.52,4.52,0,0,0,4.54-2.67c6.48-11.32,13.2-22.51,19.58-33.88a6.21,6.21,0,0,0,.07-5.13q-9.36-17-19.24-33.62a5.84,5.84,0,0,0-4.14-2.43C539.8-179.26,533.33-179.12,526.86-179.12Zm207,682.4v.2c6.59,0,13.19.12,19.77-.1a5.4,5.4,0,0,0,3.88-2.14q10.25-17.07,20.08-34.45a4.9,4.9,0,0,0,0-4.07q-9.74-17.4-19.84-34.57a5.32,5.32,0,0,0-3.81-2.24c-12.93-.27-25.85-.26-38.78-.47a4.66,4.66,0,0,0-4.65,2.58q-9.81,17.13-19.86,34.15a4.13,4.13,0,0,0,0,4.87q9.76,16.71,19.22,33.6a4.78,4.78,0,0,0,4.94,2.72C721.24,503.2,727.58,503.28,733.91,503.28Zm-.38-322.77v.16c6.34,0,12.67-.11,19,.06a4.73,4.73,0,0,0,4.86-2.79q9.57-16.81,19.48-33.44a4.79,4.79,0,0,0-.06-5.6q-9.64-16.56-19-33.26c-1.06-1.89-2.19-2.78-4.5-2.77-12.92,0-25.84-.2-38.8-.11a5.79,5.79,0,0,0-4.2,2.33Q700,122.16,690.21,139.53a4.83,4.83,0,0,0-.11,4q9.75,17.4,19.84,34.59a5.81,5.81,0,0,0,4.21,2.27c6.45.24,12.93.1,19.38.1Zm70,282.67v.07c6.33,0,12.67-.11,19,.06a4.74,4.74,0,0,0,4.92-2.67c6.45-11.32,13.12-22.51,19.51-33.87a5.71,5.71,0,0,0,0-4.75q-9.5-17.07-19.41-33.91a5.72,5.72,0,0,0-4.11-2.41q-19.58-.33-39.15-.12a5.71,5.71,0,0,0-4.06,2.45q-10.1,16.75-19.69,33.77a5.77,5.77,0,0,0-.14,4.79q9.57,17.27,19.62,34.24a5.87,5.87,0,0,0,4.21,2.25C790.66,463.32,797.1,463.18,803.57,463.18ZM181.44,345.25v-.06c-6.59,0-13.19-.1-19.77.08a5.06,5.06,0,0,0-3.64,1.91Q147.8,364.27,138,381.64a5.32,5.32,0,0,0,0,4.45c6.41,11.5,13,22.86,19.53,34.33a4.13,4.13,0,0,0,4.21,2.48q19.4-.13,38.8.08a4.61,4.61,0,0,0,4.55-2.64q9.67-17,19.68-33.79a4.44,4.44,0,0,0-.09-5.2q-9.73-16.73-19.23-33.59a4.42,4.42,0,0,0-4.58-2.56C194.37,345.33,187.91,345.25,181.44,345.25Zm-.36-3.17v.07c6.59,0,13.19.12,19.77-.1a5.37,5.37,0,0,0,3.84-2.17q10.25-17.08,20.08-34.43a4.87,4.87,0,0,0-.09-4Q215,284,204.88,266.82a5.32,5.32,0,0,0-3.88-2.2q-19.58-.3-39.15-.13a5.38,5.38,0,0,0-3.88,2.12q-10.26,17.08-20.08,34.44a5.37,5.37,0,0,0,0,4.47q9.6,17.26,19.62,34.26a5.38,5.38,0,0,0,3.88,2.2C167.89,342.2,174.49,342.08,181.08,342.08ZM872.73,103.16v-.07c-6.46,0-12.93.1-19.41,0a4.73,4.73,0,0,0-4.89,2.72c-6.38,11.23-12.9,22.37-19.47,33.46-1,1.75-1.21,3-.12,4.86,6.65,11.36,13.08,22.85,19.77,34.16a5.69,5.69,0,0,0,4.11,2.32q19.39.34,38.76.14a5.75,5.75,0,0,0,4.18-2.32q10.27-17.08,20.08-34.45a5.3,5.3,0,0,0-.12-4.39c-6.33-11.38-12.9-22.64-19.3-34a4.14,4.14,0,0,0-4.23-2.5c-6.43.21-12.9.11-19.36.11Zm-760.67,121v0c-6.46,0-12.93.1-19.41,0a4.45,4.45,0,0,0-4.56,2.62q-9.61,16.78-19.48,33.45a4.54,4.54,0,0,0,0,5.24c6.55,11.26,12.92,22.62,19.54,33.84a5.7,5.7,0,0,0,4.08,2.44q19.56.3,39.14.05a5.33,5.33,0,0,0,3.88-2.18c6.77-11.29,13.29-22.71,20-34a4.58,4.58,0,0,0,0-5.29q-9.75-16.69-19.2-33.58c-1.14-2-2.5-2.54-4.66-2.5-6.46.09-12.91,0-19.37,0Zm552.8-164.5v.23c6.6,0,13.2.14,19.79-.11a5.86,5.86,0,0,0,4.16-2.33q10.1-16.77,19.7-33.8a5.3,5.3,0,0,0,.13-4.44Q699,1.92,689-15.09a5.8,5.8,0,0,0-4.12-2.46c-12.93-.26-25.87-.22-38.81-.39a4.25,4.25,0,0,0-4.3,2.38c-6.62,11.55-13.41,23-20,34.55a5.32,5.32,0,0,0,.05,4.4C628.1,34.67,634.61,45.83,641,57.08a4.41,4.41,0,0,0,4.5,2.66c6.44-.17,12.91-.06,19.37-.06ZM250.59,463.18v.07c6.46,0,12.93-.11,19.41.06a4.46,4.46,0,0,0,4.52-2.68q9.62-16.78,19.49-33.44A4.43,4.43,0,0,0,294,422q-9.85-16.87-19.4-33.92a4.15,4.15,0,0,0-4.2-2.51q-19.4.14-38.77,0a4.56,4.56,0,0,0-4.55,2.65q-9.72,17-19.66,33.8c-1,1.72-1.27,3-.15,4.86q9.89,16.86,19.4,33.93c1.12,2,2.46,2.54,4.61,2.5C237.67,463.1,244.13,463.18,250.59,463.18ZM180.79,19.31v.18c6.46,0,12.92-.09,19.4.05A4.45,4.45,0,0,0,204.78,17Q214.36.14,224.27-16.46a4.5,4.5,0,0,0-.07-5.27q-9.84-16.89-19.4-33.94a4.48,4.48,0,0,0-4.51-2.67q-19.18.15-38.39,0a4.49,4.49,0,0,0-4.51,2.69q-9.82,17.13-19.89,34.11c-1.11,1.86-.92,3.1.08,4.85Q147.3,0,156.81,16.86A4.11,4.11,0,0,0,161,19.35C167.59,19.23,174.19,19.31,180.79,19.31ZM941.28,221.12v.13c6.59,0,13.2.14,19.77-.11a5.79,5.79,0,0,0,4.11-2.39Q975.24,202,984.85,185a5.72,5.72,0,0,0,.09-4.77c-6.39-11.51-13.06-22.86-19.51-34.33a4.17,4.17,0,0,0-4.27-2.4c-12.92.08-25.86.09-38.81-.05-2.33,0-3.42.88-4.48,2.72q-9.74,17-19.68,33.79a4.13,4.13,0,0,0,0,4.87c6.56,11.26,12.93,22.63,19.56,33.85a5.74,5.74,0,0,0,4.11,2.33c6.48.25,13,.11,19.42.11ZM111.26-21v.23c6.46,0,12.94.16,19.4-.12a6.29,6.29,0,0,0,4.5-2.48C142-34.64,148.55-46,155.07-57.48a4.94,4.94,0,0,0,.17-4.07q-9.81-17.58-20-34.93a5,5,0,0,0-3.62-2q-19.79-.27-39.59-.08a5.35,5.35,0,0,0-3.8,2.27Q78-79.21,68.12-61.84a5,5,0,0,0,0,4.07c6.45,11.48,13.1,22.85,19.55,34.32a4.12,4.12,0,0,0,4.2,2.51C98.33-21.09,104.8-21,111.26-21ZM319.32,180.92v.34c6.47,0,12.94.14,19.41-.11a5.83,5.83,0,0,0,4.18-2.28Q353.1,162,362.8,144.72a4.92,4.92,0,0,0,0-4.08q-9.81-17.53-20-34.94a5.43,5.43,0,0,0-3.88-2.24q-19.41-.36-38.81-.21a5.34,5.34,0,0,0-3.83,2.25Q286,122.57,276.21,140a4.83,4.83,0,0,0,0,4c6.42,11.49,13.07,22.84,19.5,34.33a4.42,4.42,0,0,0,4.55,2.61C306.65,180.84,313,180.92,319.32,180.92Zm414.62,2.84v-.14c-6.59,0-13.2-.13-19.77.09a5.39,5.39,0,0,0-3.88,2.16Q700.14,202.81,690.41,220a5.25,5.25,0,0,0,0,4.42c6.47,11.61,13.19,23.07,19.71,34.65,1.06,1.89,2.28,2.37,4.3,2.33,12.79-.06,25.61-.06,38.38.07a4.52,4.52,0,0,0,4.52-2.65q9.61-16.8,19.48-33.45c1.09-1.85,1.36-3.28.18-5.29-6.58-11.24-12.93-22.62-19.56-33.83a5.82,5.82,0,0,0-4.12-2.4C746.87,183.62,740.4,183.76,733.94,183.76Zm138.57.05v-.12c-6.47,0-12.93.07-19.4-.05a4.46,4.46,0,0,0-4.61,2.54C842.05,197.5,835.38,208.69,829,220a5.33,5.33,0,0,0-.09,4.42q9.69,17.42,19.81,34.59a5.32,5.32,0,0,0,3.88,2.23q19.58.28,39.16.07a5.29,5.29,0,0,0,3.88-2.15q10.15-16.92,19.88-34.11a5.29,5.29,0,0,0,.09-4.37q-9.67-17.42-19.79-34.6a5.38,5.38,0,0,0-3.88-2.2C885.43,183.68,879,183.81,872.51,183.81ZM389,302.14v.16c6.33,0,12.66-.08,19,.05a4.46,4.46,0,0,0,4.61-2.55c6.46-11.31,13.13-22.51,19.56-33.83a4.79,4.79,0,0,0,0-4c-6.48-11.6-13.2-23.08-19.69-34.65a4.57,4.57,0,0,0-4.52-2.75c-12.79,0-25.61-.18-38.37-.11a5.33,5.33,0,0,0-3.88,2.15Q355.46,243.66,345.64,261a4.83,4.83,0,0,0,0,4.07q9.71,17.4,19.81,34.58a5.8,5.8,0,0,0,4.17,2.37C376.08,302.29,382.55,302.14,389,302.14Zm413.72-.46v.11c6.59,0,13.19.09,19.76-.08a4.93,4.93,0,0,0,3.7-1.77q10.34-17.28,20.27-34.79a4.54,4.54,0,0,0,0-3.78q-9.93-17.73-20.19-35.27a4.53,4.53,0,0,0-3.26-1.93q-19.75-.3-39.58-.21a5,5,0,0,0-3.63,2q-10.32,17.28-20.25,34.79a4.89,4.89,0,0,0,0,4.1c6.41,11.49,13.05,22.86,19.5,34.32a4.48,4.48,0,0,0,4.6,2.57c6.42-.13,12.75-.05,19.08-.05Zm-68,43.57v-.06c-6.58,0-13.19-.13-19.76.1a5.35,5.35,0,0,0-3.81,2.2c-6.77,11.27-13.42,22.63-19.86,34.09a6.25,6.25,0,0,0,.15,5.13c6.21,11.28,12.77,22.41,19.06,33.66,1.13,2,2.48,2.51,4.66,2.5,12.66-.06,25.32-.06,38,.07a4.83,4.83,0,0,0,4.88-2.73q9.67-17,19.68-33.76a4.5,4.5,0,0,0,0-5.27q-9.66-16.53-19-33.24a4.71,4.71,0,0,0-4.89-2.74C747.45,345.34,741.12,345.25,734.77,345.25Zm-69.34,40.26v-.22c-6.47,0-12.93-.16-19.41.12a6.36,6.36,0,0,0-4.47,2.54q-10.2,16.91-19.88,34.1a5.24,5.24,0,0,0-.06,4.4q9.5,17.07,19.4,33.91a6.23,6.23,0,0,0,4.46,2.55c12.79.25,25.61.14,38.38.31a4.58,4.58,0,0,0,4.55-2.64c6.55-11.42,13.25-22.75,19.74-34.19a5.28,5.28,0,0,0,.07-4.35c-6.34-11.4-12.93-22.63-19.28-34a4.41,4.41,0,0,0-4.57-2.56c-6.25.12-12.59,0-18.91,0ZM802.82,143.45v-.13c-6.46,0-12.92.09-19.41,0a4.14,4.14,0,0,0-4.24,2.44C772.69,157,766,168.22,759.6,179.52a5.32,5.32,0,0,0,0,4.45q9.69,17.42,19.81,34.57A5.7,5.7,0,0,0,783.5,221c12.79.19,25.58.07,38.37.17a4.47,4.47,0,0,0,4.54-2.59q9.6-16.8,19.47-33.43c1.19-2,1.38-3.52.15-5.63-6.52-11.12-12.8-22.39-19.36-33.49a5.8,5.8,0,0,0-4.12-2.42c-6.52-.25-13.11-.11-19.7-.11ZM111.89,221.19v.4c6.34,0,12.68-.1,19,.06a4.8,4.8,0,0,0,4.94-2.71q9.69-17,19.68-33.82a4.44,4.44,0,0,0,0-5.21q-9.69-16.54-19.06-33.28c-1.19-2.14-2.57-2.75-4.89-2.76-12.54,0-25.09-.08-37.64-.33a5,5,0,0,0-5.2,2.9q-9.66,17-19.67,33.82a4.13,4.13,0,0,0-.08,4.88c6.51,11.14,12.81,22.42,19.4,33.54a5.78,5.78,0,0,0,4.14,2.39C99,221.35,105.42,221.19,111.89,221.19Zm69.56-198.6v-.17c-6.46,0-12.93.13-19.41-.07-2.43-.07-3.65.78-4.81,2.84Q147.84,41.69,138.16,58a4.47,4.47,0,0,0-.11,5.24q10,17.07,19.64,34.26a4.53,4.53,0,0,0,4.51,2.73c12.67,0,25.34.22,38,.13A5.69,5.69,0,0,0,204.4,98q10.2-16.92,19.91-34.15a5.78,5.78,0,0,0,.06-4.78c-6.31-11.4-12.9-22.66-19.28-34a4.51,4.51,0,0,0-4.66-2.56C194.12,22.65,187.79,22.59,181.45,22.59ZM249.51-20.7v.25c6.33,0,12.67.14,19-.1a5.91,5.91,0,0,0,4.16-2.33q10.59-17.59,20.7-35.44a5,5,0,0,0,0-4.09Q283.92-79.34,274.11-96a4.92,4.92,0,0,0-3.5-2.14q-19.78-.36-39.59-.28a5.33,5.33,0,0,0-3.88,2.21q-10.23,17.07-20.06,34.46a5.29,5.29,0,0,0-.08,4.42q9.6,17.24,19.64,34.25a5.81,5.81,0,0,0,4.21,2.33C237.09-20.55,243.3-20.7,249.51-20.7Zm276.63-78v-.06c-6.21,0-12.42.11-18.63-.06-2.33-.06-3.74.56-4.93,2.66C496.25-85,489.69-74,483.44-62.91a6.18,6.18,0,0,0-.15,5.15c6.36,11.52,13,22.87,19.48,34.35A4.18,4.18,0,0,0,507.06-21c12.93-.07,25.87.07,38.81-.07a5.33,5.33,0,0,0,3.88-2.12q10.17-16.94,19.91-34.16a5.28,5.28,0,0,0-.07-4.4Q559.9-79.21,549.78-96.4a5.34,5.34,0,0,0-3.88-2.19C539.33-98.79,532.73-98.66,526.14-98.66ZM250.76,305v-.11c-6.34,0-12.68.08-19,0-2.14,0-3.5.45-4.66,2.47q-9.65,17-19.66,33.78a4.14,4.14,0,0,0,.06,4.87q9.84,16.91,19.41,34a4.52,4.52,0,0,0,4.55,2.66q19.22-.07,38.42.16a4.5,4.5,0,0,0,4.56-2.63q9.6-16.83,19.5-33.48a4.13,4.13,0,0,0,.06-4.87q-10-17.07-19.64-34.28a4.47,4.47,0,0,0-4.6-2.58C263.44,305.1,257.1,305,250.76,305Zm482.92,36.6v.29c6.33,0,12.68-.09,19,0a4.55,4.55,0,0,0,4.66-2.55c6.47-11.31,13.19-22.51,19.58-33.86a5.37,5.37,0,0,0,.1-4.47q-9.71-17.43-19.84-34.61a5.42,5.42,0,0,0-3.88-2.29q-19.59-.37-39.18-.24a4.86,4.86,0,0,0-3.59,2q-10.14,16.95-19.88,34.15a5.29,5.29,0,0,0,.05,4.42q9.69,17.43,19.83,34.62a5.89,5.89,0,0,0,4.13,2.41c6.33.25,12.67.1,19,.1ZM388.37-98.64v-.06c-6.6,0-13.2-.1-19.79.08a5,5,0,0,0-3.65,1.87Q354.58-79.45,344.64-62a4.44,4.44,0,0,0,0,3.74q9.84,17.58,20,34.93a4.9,4.9,0,0,0,3.54,2.11q19.79.25,39.58.07a5.31,5.31,0,0,0,3.84-2.24q10-16.76,19.67-33.78a5.3,5.3,0,0,0,.08-4.39q-9.74-17.41-19.86-34.59a5.85,5.85,0,0,0-4.12-2.4C401.05-98.79,394.7-98.64,388.37-98.64Zm68.3,37.26v.11c6.59,0,13.2.13,19.79-.1a5.4,5.4,0,0,0,3.88-2.2q10.23-17.17,20-34.53a4.81,4.81,0,0,0,.06-4q-9.62-17.27-19.64-34.26a5.7,5.7,0,0,0-4.06-2.51q-19.59-.32-39.19-.08a5.8,5.8,0,0,0-4.11,2.42q-10,16.59-19.49,33.46a5.25,5.25,0,0,0-.11,4.37q9.78,17.61,20,35a5.4,5.4,0,0,0,3.88,2.23c6.28.22,12.63.1,19,.1Zm70.22,524.57v.06c6.47,0,12.94-.08,19.41,0,2.16,0,3.46-.49,4.6-2.5q9.48-16.67,19.29-33.15c1.1-1.86,1.28-3.23.12-5.22q-10-17.07-19.63-34.29a4.48,4.48,0,0,0-4.59-2.57q-18.81,0-37.64-.2c-2.33,0-3.73.56-4.94,2.68q-9.67,17-19.69,33.81a4.19,4.19,0,0,0,0,4.88q9.82,16.9,19.4,34c1.13,2,2.47,2.57,4.66,2.53,6.32-.15,12.67-.07,19-.07ZM457.18,100v.18c6.59,0,13.2.13,19.78-.1A5.44,5.44,0,0,0,480.84,98Q491.05,81,500.76,63.86a4.94,4.94,0,0,0,.06-4.12q-9.81-17.58-20-34.93a5.37,5.37,0,0,0-3.88-2.22q-19.57-.3-39.17-.11a4.91,4.91,0,0,0-3.54,2.06q-10.09,17-19.86,34.15a5.82,5.82,0,0,0,0,4.8Q424,80.74,434,97.74A5.32,5.32,0,0,0,437.8,100C444.25,100.16,450.69,100,457.18,100ZM319.6,261.44v.08c6.47,0,12.94.15,19.41-.11a5.83,5.83,0,0,0,4.14-2.4q10.08-16.77,19.67-33.81a5.29,5.29,0,0,0,.06-4.37q-9.7-17.43-19.81-34.63a5.33,5.33,0,0,0-3.81-2.28q-19.59-.25-39.19,0a5.38,5.38,0,0,0-3.88,2.19q-10.14,16.95-19.89,34.15a4.87,4.87,0,0,0-.05,4c6.49,11.64,13.2,23.08,19.71,34.68,1.15,2.06,2.5,2.54,4.66,2.51C306.93,261.37,313.3,261.44,319.6,261.44ZM112.55,141v.06c6.34,0,12.67-.08,19,0a4.47,4.47,0,0,0,4.61-2.53c6.44-11.33,13.11-22.51,19.55-33.87a4.85,4.85,0,0,0,.11-4q-9.83-17.58-20-34.93a5.39,5.39,0,0,0-3.88-2.21q-19.41-.31-38.81-.12a5.78,5.78,0,0,0-4.18,2.33Q78.86,82.53,69.28,99.57a5.24,5.24,0,0,0-.1,4.35q9.7,17.46,19.8,34.64a5.84,5.84,0,0,0,4.15,2.33C99.61,141.17,106.06,141,112.55,141Zm414.2,160.56v.17c6.33,0,12.66-.11,19,.06a4.46,4.46,0,0,0,4.55-2.6q9.62-16.8,19.49-33.43a4.84,4.84,0,0,0-.08-5.62c-6.5-11.15-12.79-22.41-19.35-33.51a5.76,5.76,0,0,0-4.1-2.46c-12.92-.31-25.84-.3-38.75-.53-2.33,0-3.43.82-4.51,2.72-6.41,11.19-13,22.28-19.36,33.5a5.27,5.27,0,0,0-.06,4.36c6.45,11.64,13.19,23.07,19.65,34.67,1.19,2.15,2.61,2.76,4.92,2.72C514.34,301.5,520.55,301.58,526.75,301.58Zm137.48-81.13v.28c6.46,0,12.93.13,19.41-.11a5.92,5.92,0,0,0,4.16-2.37c6.71-11.16,13.16-22.51,19.79-33.7a4.1,4.1,0,0,0,0-4.85q-9.95-17.08-19.58-34.27a4.46,4.46,0,0,0-4.58-2.61c-12.78.08-25.61-.08-38.37.08a5.75,5.75,0,0,0-4.17,2.32q-10,16.58-19.44,33.44a5.69,5.69,0,0,0-.09,4.74Q631,200.82,641.17,218a5.81,5.81,0,0,0,4.12,2.39C651.57,220.58,657.93,220.45,664.23,220.45ZM457.77,180.69h0c6.33,0,12.66-.06,19,0,2,0,3.2-.42,4.28-2.33q9.66-17,19.69-33.77a4.52,4.52,0,0,0-.07-5.27q-9.82-16.89-19.41-33.92A4.17,4.17,0,0,0,477,103c-12.91.07-25.84-.08-38.75.07a5.69,5.69,0,0,0-4.13,2.33q-10,16.58-19.52,33.45a5.69,5.69,0,0,0-.15,4.74q9.66,17.43,19.81,34.58a5.81,5.81,0,0,0,4.12,2.39c6.45.25,12.92.11,19.38.11Zm206.51-40.53v.18c6.34,0,12.68-.08,19,.06a4.47,4.47,0,0,0,4.59-2.57q9.79-17.16,19.88-34.15a4.16,4.16,0,0,0,.07-4.89c-6.51-11.15-12.8-22.42-19.4-33.54a5.74,5.74,0,0,0-4.11-2.41q-19.4-.31-38.81-.09a5.76,5.76,0,0,0-4.12,2.39q-10.18,16.94-19.92,34.12a5.77,5.77,0,0,0,0,4.81q9.38,16.94,19.25,33.6a5.84,5.84,0,0,0,4.16,2.39C651.34,140.31,657.82,140.16,664.28,140.16ZM250.48,62.89v-.16c-6.46,0-12.93-.12-19.4.1A5.45,5.45,0,0,0,227.2,65q-10.14,17-19.85,34.15a5.24,5.24,0,0,0,0,4.38q9.71,17.38,19.79,34.57a5.34,5.34,0,0,0,3.83,2.28q19.41.36,38.76.2a5.77,5.77,0,0,0,4.19-2.38c6.71-11.16,13.15-22.5,19.79-33.71a4.19,4.19,0,0,0,0-4.89c-6.61-11.37-13-22.85-19.73-34.15A5.86,5.86,0,0,0,269.83,63C263.41,62.74,256.94,62.89,250.48,62.89Zm-.27-2.64v.09c6.46,0,12.93.14,19.41-.1A5.83,5.83,0,0,0,273.8,58q10.09-16.74,19.7-33.75a5.34,5.34,0,0,0,.06-4.44q-9.8-17.58-20-34.93a4.89,4.89,0,0,0-3.5-2.11q-19.58-.36-39.15-.27a5,5,0,0,0-3.65,1.92Q216.9,1.68,207,19.18a4.49,4.49,0,0,0,0,3.76c6.57,11.69,13.2,23.34,20.06,34.88a5.83,5.83,0,0,0,4.18,2.33C237.54,60.39,243.88,60.25,250.21,60.25ZM526.54-17.92V-18c-6.47,0-12.93-.12-19.41.11a5.42,5.42,0,0,0-3.88,2.15q-10.14,16.92-19.87,34.1a5.33,5.33,0,0,0,0,4.42q9.71,17.4,19.82,34.58a5.28,5.28,0,0,0,3.8,2.21q19.41.35,38.76.19a5.37,5.37,0,0,0,3.88-2.16q10.25-17.08,20.06-34.44a5.36,5.36,0,0,0,0-4.45c-6.33-11.38-12.91-22.63-19.29-34a4.73,4.73,0,0,0-4.9-2.72c-6.3.17-12.61.06-18.94.06ZM388,59.55v.08c6.34,0,12.67-.1,19,0A4.73,4.73,0,0,0,411.89,57q9.57-16.85,19.49-33.49a4,4,0,0,0,0-4.87c-6.63-11.37-13.06-22.87-19.75-34.21a5.75,5.75,0,0,0-4.16-2.33c-12.8-.23-25.62-.18-38.41-.32-2.19,0-3.52.55-4.66,2.53Q354.93.95,345.13,17.44a4.46,4.46,0,0,0,0,5.27q10,17.07,19.65,34.28a4.47,4.47,0,0,0,4.59,2.61c6.19-.15,12.4-.05,18.61-.05ZM250.6,301.82v.1c6.33,0,12.66-.09,19,0a4.53,4.53,0,0,0,4.66-2.52c6.39-11.2,13-22.29,19.34-33.52a5.74,5.74,0,0,0,.1-4.73c-6.45-11.64-13.15-23.09-19.66-34.67a4.14,4.14,0,0,0-4.31-2.33c-12.79.08-25.62,0-38.38.11a5.39,5.39,0,0,0-3.88,2.17q-10.23,17.07-20.05,34.43a5.19,5.19,0,0,0,0,4.36Q217,282.51,227,299.52a5.33,5.33,0,0,0,3.82,2.22c6.55.2,13.15.08,19.74.08ZM457.17,19.29v.12c6.6,0,13.19.1,19.78-.08a5.07,5.07,0,0,0,3.64-1.95Q490.82.25,500.67-17.09a4.44,4.44,0,0,0,0-3.77q-9.93-17.76-20.22-35.31a4.91,4.91,0,0,0-3.56-2q-19.59-.26-39.2-.06a4.92,4.92,0,0,0-3.49,2.15Q424-39,414.13-21.64a5.34,5.34,0,0,0,0,4.46q9.5,17.09,19.45,33.94a5.79,5.79,0,0,0,4.12,2.4c6.49.26,13,.11,19.43.11Zm139,325.91v-.14c-6.35,0-12.69.1-19-.05a4.78,4.78,0,0,0-4.88,2.78C565.88,358.9,559.32,369.87,553,381a5.73,5.73,0,0,0-.13,4.74q9.66,17.44,19.82,34.62a5.77,5.77,0,0,0,4.2,2.33c12.67.2,25.35.09,38,.26,2.33,0,3.42-.91,4.47-2.75q9.66-16.83,19.52-33.52c1.18-2,1.33-3.47.1-5.55-6.53-11.13-12.83-22.41-19.4-33.52a5.78,5.78,0,0,0-4.13-2.33C609,345.06,602.58,345.2,596.12,345.2ZM319.7,264.63v-.09c-6.34,0-12.69-.14-19,.1a5.82,5.82,0,0,0-4.19,2.24q-10.1,16.75-19.72,33.79a5.79,5.79,0,0,0,0,4.82c6.39,11.51,13,22.89,19.49,34.37a4.22,4.22,0,0,0,4.29,2.42q19-.07,38,.12c2.16,0,3.51-.52,4.66-2.52,6.53-11.41,13.23-22.77,19.73-34.22a4.88,4.88,0,0,0,.17-4.06q-9.7-17.42-19.85-34.61a5.89,5.89,0,0,0-4.21-2.26C332.64,264.49,326.16,264.63,319.7,264.63Zm276.14,77.52v.1c6.46,0,12.94.14,19.4-.1a5.87,5.87,0,0,0,4.23-2.24q10.1-16.77,19.69-33.81a4.85,4.85,0,0,0,0-4.05q-9.92-17.76-20.19-35.3a4.91,4.91,0,0,0-3.52-2.08q-19.61-.24-39.19,0a5,5,0,0,0-3.56,2.08q-10.25,17.15-20.1,34.49a4.45,4.45,0,0,0-.07,3.71q9.84,17.58,20,34.93a5.47,5.47,0,0,0,3.88,2.2C582.9,342.28,589.37,342.15,595.84,342.15ZM457.61,422.82v0c6.47,0,12.93.14,19.41-.1a5.88,5.88,0,0,0,4.2-2.27q10.15-16.92,19.86-34.15a4.87,4.87,0,0,0,.07-4q-9.82-17.58-20-34.93a4.92,4.92,0,0,0-3.57-2.06q-19.57-.23-39.16,0a4.88,4.88,0,0,0-3.54,2q-10.23,17.12-20.08,34.45a5.4,5.4,0,0,0,0,4.45q9.57,17.24,19.59,34.26a5.42,5.42,0,0,0,3.88,2.22C444.69,422.94,451.15,422.82,457.61,422.82Zm68.92-201.75h0c6.34,0,12.68-.11,19,.07a4.75,4.75,0,0,0,4.9-2.7c6.33-11.1,12.87-22.09,19.15-33.22a5.29,5.29,0,0,0,.11-4.42q-9.8-17.6-20-34.93a5.75,5.75,0,0,0-4.16-2.33q-19.2-.28-38.41,0a5.33,5.33,0,0,0-3.82,2.21q-10.15,16.93-19.88,34.15a5.33,5.33,0,0,0,0,4.42c6.41,11.51,13.05,22.88,19.52,34.35,1,1.78,2.06,2.56,4.2,2.51,6.49-.17,12.95-.07,19.42-.07ZM389.14,305v-.07c-6.46,0-12.93.07-19.4,0-2,0-3.22.42-4.31,2.33C359,318.51,352.28,329.7,345.88,341a5.73,5.73,0,0,0,0,4.79q9.58,17.26,19.63,34.26a5.29,5.29,0,0,0,3.76,2.33q19.41.3,38.81.1a5.35,5.35,0,0,0,3.88-2.14q10.4-17.29,20.32-34.83a4.42,4.42,0,0,0,0-3.73q-9.75-17.38-19.84-34.58a5.36,5.36,0,0,0-3.88-2.19c-6.45-.2-12.91-.08-19.38-.08ZM181.06,261.44v.14c6.6,0,13.2.13,19.78-.1a5.39,5.39,0,0,0,3.88-2.19q10.16-16.92,19.89-34.15a4.9,4.9,0,0,0,0-4.07q-9.72-17.41-19.81-34.61a5.77,5.77,0,0,0-4.12-2.36q-19.22-.37-38.4-.18a5.74,5.74,0,0,0-4.05,2.47q-10.15,16.94-19.86,34.15a5.24,5.24,0,0,0-.13,4.35q9.58,17.27,19.61,34.27a5.35,5.35,0,0,0,3.82,2.2C168.15,261.57,174.6,261.44,181.06,261.44ZM388.3,462.88v.24c6.34,0,12.68-.09,19,.05a4.54,4.54,0,0,0,4.66-2.52q9.7-17,19.69-33.79c1.11-1.86,1.35-3.32.19-5.3-6.52-11.14-12.83-22.4-19.41-33.51a5.73,5.73,0,0,0-4.08-2.44q-19-.39-38-.22a5.87,5.87,0,0,0-4.26,2.26Q355.6,405.1,345.62,422.8a5.23,5.23,0,0,0,.05,4.36c6.14,11.06,12.53,22,18.7,33a4.77,4.77,0,0,0,4.93,2.74c6.32-.12,12.66,0,19,0ZM665,382.49v.08c6.48,0,12.94.14,19.41-.1a5.91,5.91,0,0,0,4.22-2.28q10.1-16.76,19.7-33.8a4.88,4.88,0,0,0,0-4.06q-9.94-17.74-20.25-35.28a4.85,4.85,0,0,0-3.53-2.05q-19.41-.24-38.81,0a4.84,4.84,0,0,0-3.53,2q-10.23,17.11-20.08,34.47a5.37,5.37,0,0,0,0,4.44q9.6,17.25,19.63,34.28a5.37,5.37,0,0,0,3.88,2.19C652,382.62,658.5,382.49,665,382.49Zm-.44-81.11v.27c6.21,0,12.42-.08,18.63,0,2.13.05,3.51-.45,4.66-2.45,6.59-11.54,13.38-23,20-34.53a4.92,4.92,0,0,0,.07-4.08q-9.74-17.4-19.85-34.56a5.33,5.33,0,0,0-3.88-2.15q-19-.37-38-.26a5.76,5.76,0,0,0-4.13,2.39c-6.77,11.29-13.29,22.72-20,34.05a4.13,4.13,0,0,0-.1,4.85q9.87,16.86,19.4,33.93c1.14,2.05,2.51,2.56,4.66,2.53,6.17-.11,12.38,0,18.58,0Zm-68.84-279h0c-6.33,0-12.67.1-19,0a4.46,4.46,0,0,0-4.57,2.6c-6.4,11.2-13,22.29-19.36,33.53a5.7,5.7,0,0,0-.12,4.73q9.57,17.28,19.61,34.28a5.7,5.7,0,0,0,4.08,2.41q19.18.28,38.39,0a5.3,5.3,0,0,0,3.82-2.26q10.23-17.07,20.06-34.47a5.31,5.31,0,0,0,.07-4.41c-6.33-11.39-12.92-22.64-19.31-34a4.14,4.14,0,0,0-4.28-2.4C608.61,22.48,602.15,22.39,595.68,22.39Zm-275.87.53v-.27c-6.33,0-12.67.11-19-.06a4.53,4.53,0,0,0-4.58,2.67q-9.74,17-19.68,33.78a4.44,4.44,0,0,0,0,5.2q9.75,16.7,19.22,33.58c1.08,1.9,2.19,2.78,4.48,2.77,12.54-.07,25.08.12,37.62,0A5.75,5.75,0,0,0,342,98.27Q352.41,81,362.33,63.51a4.9,4.9,0,0,0,0-4.07C356,48.07,349.39,36.82,343,25.47a4.44,4.44,0,0,0-4.58-2.6c-6.21.13-12.41.05-18.62.05ZM250.23,221.09v.12c6.46,0,12.93.13,19.4-.1a5.35,5.35,0,0,0,3.88-2.14q10.26-17.07,20.1-34.44a5,5,0,0,0,.08-4.13q-9.78-17.58-20-34.93a4.55,4.55,0,0,0-3.26-1.89q-19.4-.21-38.77,0a4.9,4.9,0,0,0-3.61,2Q217.67,163,207.63,180.7a4.94,4.94,0,0,0,0,4.12q9.52,17.07,19.46,33.91a5.82,5.82,0,0,0,4.18,2.29C237.56,221.23,243.89,221.09,250.23,221.09ZM320,345.34v-.08c-6.33,0-12.67-.14-19,.11a5.85,5.85,0,0,0-4.18,2.28q-10.17,16.91-19.9,34.1a5.82,5.82,0,0,0,0,4.8q9.46,17.08,19.41,33.94a5.39,5.39,0,0,0,3.78,2.33q19.39.3,38.81.11a4.92,4.92,0,0,0,3.54-2.11q10.31-17.29,20.26-34.8a5.35,5.35,0,0,0,0-4.43c-6.33-11.26-12.85-22.39-19.14-33.64a4.45,4.45,0,0,0-4.54-2.67C332.66,345.44,326.33,345.34,320,345.34Zm206.6,37.11v.06c6.34,0,12.67-.08,19,0,2.15,0,3.48-.5,4.61-2.5,6.52-11.44,13.26-22.75,19.75-34.2a5.37,5.37,0,0,0,.11-4.42q-9.59-17.25-19.6-34.27a5.36,5.36,0,0,0-3.88-2.21c-12.66-.22-25.34-.15-38-.32a4.62,4.62,0,0,0-4.57,2.68c-6.54,11.42-13.28,22.74-19.75,34.2a5.75,5.75,0,0,0,0,4.77c6.25,11.3,12.78,22.43,19.08,33.69a4.44,4.44,0,0,0,4.62,2.52c6.25-.07,12.45,0,18.66,0ZM389.08,143.65v-.15c-6.21,0-12.42.12-18.63-.06-2.47-.06-3.94.57-5.22,2.84q-9.63,17-19.65,33.82a4.13,4.13,0,0,0,0,4.85c6.56,11.26,12.94,22.63,19.56,33.87a5.34,5.34,0,0,0,3.78,2.32q19.2.39,38.4.28a5.35,5.35,0,0,0,3.88-2.22q10.35-17.28,20.29-34.79a4.91,4.91,0,0,0,.1-4.09q-9.63-17.25-19.71-34.26a5.89,5.89,0,0,0-4.22-2.33C401.5,143.51,395.28,143.65,389.08,143.65ZM181.84,103.78v-.19c-6.34,0-12.68-.14-19,.11a5.85,5.85,0,0,0-4.21,2.26q-10.23,16.92-20,34.11a5.45,5.45,0,0,0-.14,4.49q9.69,17.41,19.81,34.62a4.91,4.91,0,0,0,3.55,2q19.22.24,38.42.05a5.4,5.4,0,0,0,3.88-2.2Q214.43,162,224.25,144.6a5.8,5.8,0,0,0,0-4.79c-6.21-11.18-12.69-22.19-18.93-33.38-1.19-2.15-2.58-2.76-4.89-2.72-6.2.16-12.42.07-18.63.07Zm206.53,36.57v0c6.46,0,12.92.11,19.4-.09a5,5,0,0,0,3.64-2q10.32-17.28,20.26-34.8a4.92,4.92,0,0,0,0-4.11q-9.74-17.39-19.84-34.57a4.88,4.88,0,0,0-3.52-2.05q-19.41-.27-38.81-.08a5,5,0,0,0-3.53,2.1q-10.31,17.3-20.24,34.81a5.21,5.21,0,0,0,0,4.37q9.51,17.08,19.44,33.93a5.86,5.86,0,0,0,4.18,2.29c6.3.25,12.64.11,19,.11ZM319.48-58.36v-.1c-6.33,0-12.67-.12-19,.1a5.45,5.45,0,0,0-3.93,2.1c-7,11.64-13.76,23.32-20.49,35.08a4,4,0,0,0,0,3.4q9.85,17.55,20,34.93a4.94,4.94,0,0,0,3.57,2q19.41.24,38.76,0a4.86,4.86,0,0,0,3.55-2Q352.23-.09,362.2-17.59a4.85,4.85,0,0,0,0-4.05q-9.61-17.22-19.63-34.23a5.83,5.83,0,0,0-4.1-2.41c-6.36-.25-12.7-.11-19-.11Zm138,400.68v.21c6.33,0,12.67.14,19-.1a5.87,5.87,0,0,0,4.19-2.27c6.79-11.28,13.31-22.73,20-34.05a4.54,4.54,0,0,0-.06-5.28q-9.64-16.56-19-33.26a4.85,4.85,0,0,0-4.87-2.82c-12.28.06-24.57.05-36.85-.18-2.75-.05-4.12,1-5.43,3.22q-9.49,16.65-19.3,33.11c-1.26,2.1-1.11,3.58.06,5.59q9.65,16.54,19,33.27a4.49,4.49,0,0,0,4.61,2.6C445.07,342.23,451.28,342.32,457.48,342.32ZM458,183.71v-.2c-6,0-11.91.16-17.85-.07-2.8-.1-4.42.71-5.83,3.2q-9.32,16.53-19.07,32.82c-1.27,2.13-1.44,3.73-.13,6Q424.8,242,434.14,258.7a4.54,4.54,0,0,0,4.57,2.65c12.54-.06,25.09.11,37.63,0a5.75,5.75,0,0,0,4.19-2.33q10.28-17.07,20.1-34.45a5.38,5.38,0,0,0-.06-4.46Q491,203,481.11,186.19a5.81,5.81,0,0,0-4.14-2.37C470.64,183.56,464.3,183.71,458,183.71Zm137.19,77.73v0c6.33,0,12.67-.11,19,0a4.47,4.47,0,0,0,4.55-2.63c6.47-11.3,13.13-22.51,19.53-33.85a5.7,5.7,0,0,0,.09-4.73q-9.47-17.07-19.4-33.91a5.73,5.73,0,0,0-4-2.48q-19-.33-38-.11a5.85,5.85,0,0,0-4.22,2.27c-6.85,11.39-13.51,22.88-20.08,34.44a4.88,4.88,0,0,0,0,4q9.72,17.4,19.82,34.58a5.35,5.35,0,0,0,3.82,2.2C582.49,261.56,588.85,261.44,595.16,261.44ZM526.86,62.79v-.06c-6.48,0-12.94-.1-19.41.09a5,5,0,0,0-3.66,1.88q-10.41,17.44-20.5,35.14a4.47,4.47,0,0,0,0,3.75Q493,121,503.16,138.18A5.3,5.3,0,0,0,507,140.3q18.81.31,37.64.14a5.73,5.73,0,0,0,4.18-2.33q10.38-17.27,20.28-34.81a5.21,5.21,0,0,0,.07-4.37Q559.81,82,550,65.32a5.81,5.81,0,0,0-4.12-2.39c-6.28-.28-12.63-.14-19-.14ZM595,180.17v.29c6.21,0,12.42-.1,18.63.06,2.33,0,3.74-.57,4.95-2.69q9.69-17,19.69-33.76a4.58,4.58,0,0,0-.08-5.3q-9.64-16.53-19-33.23a4.52,4.52,0,0,0-4.51-2.71q-18.63,0-37.21-.32c-2.2,0-3.51.57-4.66,2.53-6.59,11.54-13.36,23-19.91,34.53a5.23,5.23,0,0,0-.11,4.36c6.26,11.28,12.77,22.42,19.08,33.67a4.51,4.51,0,0,0,4.59,2.62c6.17-.14,12.38-.05,18.58-.05Z"/><path class="cls-3" d="M735.65,20.75c-6.46,0-12.93-.08-19.4,0-2.17,0-3.48-.53-4.6-2.53Q702.08,1.19,692.2-15.68c-1.16-2-1-3.38.12-5.26q9.85-16.66,19.49-33.47A4.46,4.46,0,0,1,716.37-57q19.59.21,39.18.11a4.2,4.2,0,0,1,4.23,2.49c6.46,11.47,13.11,22.84,19.51,34.38a5.3,5.3,0,0,1-.1,4.44q-9.75,17.17-19.91,34.15a5.41,5.41,0,0,1-3.88,2.21c-6.59.23-13.2.1-19.79.1Z"/><path class="cls-3" d="M43.1,181.09c-6.59,0-13.2.13-19.78-.11a5.42,5.42,0,0,1-3.88-2.23Q9.31,161.59-.37,144.15a4.94,4.94,0,0,1,0-4.12q9.87-17.33,20.1-34.44a5.34,5.34,0,0,1,3.88-2.22q19.77-.09,39.58.28A5.34,5.34,0,0,1,67,106q10,17,19.61,34.26a4.83,4.83,0,0,1,0,4q-9.93,17.5-20.27,34.78a5.42,5.42,0,0,1-3.88,2.17c-6.45.23-12.92.1-19.41.1Z"/><path class="cls-3" d="M596.36-57.88c6.46,0,12.94-.15,19.41.11a5.84,5.84,0,0,1,4.1,2.44Q629.8-38.5,639.3-21.42a5.27,5.27,0,0,1-.11,4.38c-6.55,11.57-13.33,23-19.94,34.53A4.19,4.19,0,0,1,615,20c-12.93-.23-25.85-.22-38.81-.52A5.79,5.79,0,0,1,572.1,17Q562,0,552.44-17.24a5.32,5.32,0,0,1,0-4.45q9.78-17.17,20-34.06a5.87,5.87,0,0,1,4.19-2.33c6.58-.24,13.19-.1,19.77-.1Z"/><path class="cls-3" d="M733.53,180.51c-6.45,0-12.93.14-19.4-.1a5.83,5.83,0,0,1-4.22-2.27q-10.14-17.16-19.79-34.6a4.83,4.83,0,0,1,.11-4q9.85-17.34,20.08-34.44a5.75,5.75,0,0,1,4.19-2.33c12.92-.08,25.85.14,38.81.11,2.33,0,3.44.88,4.49,2.77q9.41,16.7,19,33.26a4.79,4.79,0,0,1,0,5.61q-9.89,16.62-19.47,33.43a4.75,4.75,0,0,1-4.87,2.79c-6.32-.17-12.66-.06-19-.06Z"/><path class="cls-3" d="M872.73,103.16c6.46,0,12.93.1,19.4,0a4.13,4.13,0,0,1,4.23,2.49c6.4,11.36,13,22.61,19.3,34a5.31,5.31,0,0,1,.12,4.38Q906,161.34,895.7,178.43a5.73,5.73,0,0,1-4.18,2.33q-19.41.19-38.76-.14a5.65,5.65,0,0,1-4.11-2.33C842,167,835.53,155.47,828.88,144.14c-1.09-1.86-.92-3.11.12-4.86,6.57-11.1,13.09-22.24,19.46-33.46a4.77,4.77,0,0,1,4.9-2.73c6.46.15,12.93.06,19.41.06Z"/><path class="cls-3" d="M664.82,59.68c-6.46,0-12.93-.11-19.4.06a4.41,4.41,0,0,1-4.5-2.66c-6.34-11.25-12.85-22.41-19.12-33.69a5.32,5.32,0,0,1,0-4.4c6.56-11.57,13.35-23,20-34.55a4.19,4.19,0,0,1,4.3-2.38c12.93.17,25.87.13,38.81.39A5.79,5.79,0,0,1,689-15.09q10.1,17,19.66,34.28a5.28,5.28,0,0,1-.13,4.43q-9.64,17-19.7,33.8a5.86,5.86,0,0,1-4.16,2.33c-6.59.25-13.2.11-19.79.11Z"/><path class="cls-3" d="M180.79,19.31c-6.6,0-13.2-.08-19.79.05a4.15,4.15,0,0,1-4.19-2.49Q147.33,0,137.58-16.73c-1-1.73-1.19-3-.08-4.85q10.09-17,19.88-34.15a4.49,4.49,0,0,1,4.5-2.69q19.2.21,38.39.05a4.52,4.52,0,0,1,4.51,2.67q9.6,17.07,19.41,33.94a4.52,4.52,0,0,1,.07,5.27Q214.36.14,204.77,17a4.47,4.47,0,0,1-4.59,2.56c-6.47-.14-12.93-.05-19.41-.05Z"/><path class="cls-3" d="M941.28,221.09c-6.46,0-12.94.14-19.4-.11a5.78,5.78,0,0,1-4.12-2.33c-6.63-11.22-13-22.59-19.56-33.85a4.16,4.16,0,0,1,0-4.87q10-16.81,19.69-33.79c1.05-1.84,2.15-2.75,4.48-2.72,12.92.14,25.85.13,38.81.05a4.17,4.17,0,0,1,4.26,2.4c6.45,11.47,13.13,22.82,19.52,34.33a5.72,5.72,0,0,1-.1,4.77q-9.61,17-19.69,33.78a5.77,5.77,0,0,1-4.1,2.39c-6.59.25-13.2.11-19.77.11Z"/><path class="cls-3" d="M319.32,180.92c-6.33,0-12.67-.08-19,0a4.41,4.41,0,0,1-4.56-2.61c-6.43-11.48-13.08-22.84-19.5-34.33a4.88,4.88,0,0,1,0-4q9.86-17.34,20.07-34.46a5.35,5.35,0,0,1,3.83-2.25q19.41-.13,38.81.21a5.41,5.41,0,0,1,3.88,2.24q10.22,17.36,20,34.93a4.85,4.85,0,0,1,0,4.08q-9.75,17.19-19.88,34.16a5.85,5.85,0,0,1-4.19,2.28c-6.46.24-12.92.11-19.4.11Z"/><path class="cls-3" d="M733.94,183.76c6.46,0,12.93-.14,19.4.11a5.85,5.85,0,0,1,4.12,2.4c6.62,11.22,13,22.59,19.56,33.83,1.18,2,.91,3.44-.18,5.29Q767,242,757.36,258.84a4.49,4.49,0,0,1-4.52,2.65c-12.79-.13-25.62-.13-38.39-.07-2,0-3.23-.47-4.3-2.33-6.51-11.58-13.19-23-19.7-34.65a5.25,5.25,0,0,1,0-4.42q9.74-17.19,19.87-34.11a5.44,5.44,0,0,1,3.89-2.17c6.58-.22,13.19-.09,19.77-.09Z"/><path class="cls-3" d="M872.51,183.81c6.46,0,12.92-.13,19.41.1a5.4,5.4,0,0,1,3.88,2.2q10.08,17.19,19.78,34.6a5.25,5.25,0,0,1-.09,4.37q-9.72,17.17-19.87,34.11a5.33,5.33,0,0,1-3.88,2.15q-19.59.21-39.16-.07A5.28,5.28,0,0,1,848.7,259q-10.1-17.18-19.82-34.59A5.33,5.33,0,0,1,829,220c6.43-11.34,13.11-22.51,19.56-33.85a4.45,4.45,0,0,1,4.6-2.54c6.46.12,12.92.05,19.4.05Z"/><path class="cls-3" d="M802.85,143.45c6.59,0,13.19-.14,19.76.11a5.8,5.8,0,0,1,4.11,2.42c6.56,11.1,12.84,22.37,19.36,33.49,1.24,2.11,1,3.63-.15,5.63q-9.85,16.64-19.46,33.43a4.48,4.48,0,0,1-4.54,2.59c-12.8-.1-25.62,0-38.37-.17a5.72,5.72,0,0,1-4.1-2.41Q769.34,201.4,759.65,184a5.32,5.32,0,0,1,0-4.45c6.42-11.32,13.1-22.5,19.57-33.81a4.15,4.15,0,0,1,4.25-2.44c6.45.14,12.91,0,19.4,0Z"/><path class="cls-3" d="M111.89,221.19c-6.47,0-12.94.14-19.41-.12a5.78,5.78,0,0,1-4.14-2.39c-6.56-11.12-12.86-22.4-19.4-33.54a4.11,4.11,0,0,1,.09-4.88q10-16.83,19.66-33.82a5,5,0,0,1,5.2-2.9c12.55.25,25.1.33,37.64.33,2.33,0,3.7.62,4.89,2.76q9.32,16.76,19.06,33.28a4.44,4.44,0,0,1,0,5.21q-9.94,16.83-19.64,33.82a4.78,4.78,0,0,1-4.94,2.71c-6.33-.16-12.67-.06-19-.06Z"/><path class="cls-3" d="M181.45,22.59c6.34,0,12.67.07,19,0a4.57,4.57,0,0,1,4.66,2.56c6.38,11.36,13,22.62,19.28,34a5.78,5.78,0,0,1-.07,4.78q-9.71,17.2-19.91,34.15a5.69,5.69,0,0,1-4.16,2.33c-12.67.09-25.34-.14-38-.13a4.5,4.5,0,0,1-4.51-2.73Q148,80.36,138.08,63.31a4.46,4.46,0,0,1,.1-5.24q9.69-16.29,19.08-32.81c1.15-2,2.38-2.91,4.81-2.84,6.46.2,12.93.07,19.4.07Z"/><path class="cls-3" d="M457.18,100c-6.46,0-12.93.13-19.4-.1a5.31,5.31,0,0,1-3.8-2.22q-10-17-19.65-34.24a5.82,5.82,0,0,1,0-4.8q9.69-17.2,19.86-34.15a4.94,4.94,0,0,1,3.54-2.07q19.57-.15,39.16.11a5.4,5.4,0,0,1,3.88,2.23q10.23,17.35,20,34.93a4.94,4.94,0,0,1-.06,4.12Q491,81,480.87,97.94a5.46,5.46,0,0,1-3.88,2.14c-6.59.23-13.2.1-19.78.1Z"/><path class="cls-3" d="M319.6,261.44c-6.34,0-12.67-.07-19,0-2.13,0-3.48-.45-4.66-2.51-6.5-11.61-13.2-23.08-19.71-34.69a4.83,4.83,0,0,1,0-4q9.75-17.16,19.89-34.15A5.36,5.36,0,0,1,300,183.9q19.59-.24,39.19,0a5.36,5.36,0,0,1,3.81,2.28q10.08,17.2,19.81,34.64a5.27,5.27,0,0,1-.06,4.36q-9.63,17-19.68,33.82a5.87,5.87,0,0,1-4.13,2.4c-6.46.25-12.93.11-19.41.11Z"/><path class="cls-3" d="M112.55,141c-6.46,0-12.94.15-19.41-.11A5.84,5.84,0,0,1,89,138.58Q78.9,121.4,69.2,104a5.24,5.24,0,0,1,.1-4.35Q78.95,82.56,89,65.78a5.79,5.79,0,0,1,4.18-2.33q19.4-.21,38.81.13a5.33,5.33,0,0,1,3.88,2.21q10.22,17.34,20,34.93a4.85,4.85,0,0,1-.11,4c-6.45,11.33-13.11,22.51-19.56,33.86a4.44,4.44,0,0,1-4.61,2.53c-6.33-.12-12.66,0-19,0Z"/><path class="cls-3" d="M664.23,220.45c-6.33,0-12.66.14-19-.11a5.81,5.81,0,0,1-4.12-2.39Q631,200.79,621.32,183.37a5.7,5.7,0,0,1,.13-4.71q9.51-16.84,19.49-33.42a5.79,5.79,0,0,1,4.17-2.33c12.79-.15,25.61,0,38.37-.08a4.54,4.54,0,0,1,4.58,2.62q9.63,17.22,19.58,34.26a4.11,4.11,0,0,1,0,4.86c-6.64,11.21-13.08,22.51-19.79,33.69a5.85,5.85,0,0,1-4.16,2.37c-6.45.25-12.92.11-19.41.11Z"/><path class="cls-3" d="M457.75,180.69c-6.46,0-12.93.14-19.4-.11a5.81,5.81,0,0,1-4.13-2.39q-10.14-17.15-19.8-34.58a5.72,5.72,0,0,1,.14-4.74q9.56-16.87,19.52-33.43a5.69,5.69,0,0,1,4.13-2.33c12.91-.16,25.84,0,38.75-.08a4.2,4.2,0,0,1,4.26,2.43q9.58,17,19.41,33.91a4.53,4.53,0,0,1,.07,5.28q-10,16.78-19.69,33.76c-1.08,1.91-2.32,2.33-4.28,2.33-6.33-.1-12.66,0-19,0Z"/><path class="cls-3" d="M664.28,140.16c-6.46,0-12.94.15-19.4-.1a5.84,5.84,0,0,1-4.16-2.39q-9.87-16.66-19.25-33.6a5.77,5.77,0,0,1,0-4.81q9.72-17.19,19.92-34.12a5.76,5.76,0,0,1,4.12-2.39q19.41-.22,38.81.09a5.74,5.74,0,0,1,4.11,2.41c6.56,11.12,12.86,22.39,19.4,33.54a4.16,4.16,0,0,1-.07,4.89q-10.1,17-19.87,34.15a4.49,4.49,0,0,1-4.6,2.57c-6.33-.14-12.67-.06-19-.06Z"/><path class="cls-3" d="M250.48,62.89c6.46,0,12.93-.15,19.41.1A5.91,5.91,0,0,1,274,65.4c6.69,11.33,13.11,22.81,19.73,34.15a4.22,4.22,0,0,1,0,4.89C287.12,115.66,280.68,127,274,138.15a5.77,5.77,0,0,1-4.19,2.38q-19.41.16-38.76-.2a5.35,5.35,0,0,1-3.83-2.28q-10.09-17.16-19.79-34.6a5.24,5.24,0,0,1,0-4.38q9.71-17.16,19.84-34.15a5.42,5.42,0,0,1,3.89-2.15c6.45-.23,12.91-.1,19.4-.1Z"/><path class="cls-3" d="M250.21,60.25c-6.33,0-12.67.14-19-.11A5.83,5.83,0,0,1,227,57.81c-6.84-11.54-13.49-23.19-20-34.88a4.49,4.49,0,0,1,0-3.76Q216.92,1.7,227.23-15.6a5,5,0,0,1,3.65-1.92q19.56-.09,39.15.27a4.89,4.89,0,0,1,3.5,2.11q10.2,17.34,20,34.92a5.37,5.37,0,0,1-.06,4.44q-9.68,17-19.7,33.75a5.84,5.84,0,0,1-4.19,2.27c-6.45.24-12.92.1-19.4.1Z"/><path class="cls-3" d="M526.53-17.92c6.33,0,12.66.11,19-.06a4.75,4.75,0,0,1,4.9,2.72c6.38,11.35,13,22.6,19.28,34a5.36,5.36,0,0,1,0,4.45q-9.81,17.32-20.07,34.41a5.35,5.35,0,0,1-3.88,2.15q-19.39.17-38.75-.18a5.32,5.32,0,0,1-3.81-2.21q-10.08-17.16-19.81-34.58a5.25,5.25,0,0,1,0-4.42q9.72-17.17,19.87-34.11a5.49,5.49,0,0,1,3.88-2.15c6.45-.22,12.91-.1,19.4-.1Z"/><path class="cls-3" d="M388,59.55c-6.21,0-12.42-.1-18.63.05A4.49,4.49,0,0,1,364.76,57q-9.67-17.22-19.63-34.28a4.46,4.46,0,0,1,0-5.27Q354.93,1,364.42-15.7a4.54,4.54,0,0,1,4.66-2.53c12.81.14,25.61.08,38.41.31a5.75,5.75,0,0,1,4.16,2.33c6.69,11.34,13.12,22.84,19.76,34.22a4.16,4.16,0,0,1,0,4.86Q421.48,40.13,411.88,57A4.74,4.74,0,0,1,407,59.68c-6.34-.15-12.68,0-19,0Z"/><path class="cls-3" d="M457.13,19.27c-6.47,0-12.94.15-19.4-.11a5.77,5.77,0,0,1-4.12-2.4Q423.67-.07,414.16-17.18a5.34,5.34,0,0,1,0-4.46Q424-39,434.23-56.13a4.92,4.92,0,0,1,3.5-2.15q19.59-.19,39.19.06a4.91,4.91,0,0,1,3.56,2q10.29,17.55,20.23,35.3a4.49,4.49,0,0,1,0,3.76Q490.83.23,480.62,17.36A5,5,0,0,1,477,19.31c-6.59.19-13.2.09-19.79.09Z"/><path class="cls-3" d="M526.53,221.07c-6.47,0-12.93-.1-19.41.06a4.09,4.09,0,0,1-4.19-2.51c-6.47-11.47-13.11-22.84-19.53-34.34a5.35,5.35,0,0,1,0-4.43q9.72-17.19,19.88-34.15a5.38,5.38,0,0,1,3.83-2.21q19.2-.21,38.41,0a5.79,5.79,0,0,1,4.16,2.33q10.26,17.32,20,34.93a5.29,5.29,0,0,1-.11,4.42c-6.29,11.13-12.82,22.12-19.16,33.22a4.72,4.72,0,0,1-4.9,2.7c-6.32-.18-12.66-.06-19-.06Z"/><path class="cls-3" d="M181.06,261.44c-6.46,0-12.93.13-19.4-.1a5.37,5.37,0,0,1-3.82-2.19q-10-17-19.62-34.28a5.24,5.24,0,0,1,.13-4.35q9.72-17.16,19.87-34.15a5.7,5.7,0,0,1,4-2.47q19.2-.18,38.4.18a5.76,5.76,0,0,1,4.15,2.39q10.14,17.17,19.81,34.61a4.9,4.9,0,0,1,0,4.07q-9.75,17.17-19.88,34.15a5.46,5.46,0,0,1-3.89,2.19c-6.58.23-13.19.1-19.77.1Z"/><path class="cls-3" d="M595.68,22.39c6.47,0,12.93.09,19.41,0a4.19,4.19,0,0,1,4.27,2.39c6.39,11.37,13,22.61,19.31,34a5.25,5.25,0,0,1-.07,4.42q-9.81,17.34-20.05,34.47a5.38,5.38,0,0,1-3.82,2.26q-19.2.26-38.39,0a5.71,5.71,0,0,1-4.08-2.42q-10.05-17-19.61-34.27a5.69,5.69,0,0,1,.12-4.74c6.34-11.24,13-22.32,19.35-33.53a4.47,4.47,0,0,1,4.58-2.6c6.33.14,12.66.05,19,.05Z"/><path class="cls-3" d="M319.81,22.92c6.21,0,12.42.08,18.63-.05a4.46,4.46,0,0,1,4.58,2.6c6.38,11.36,13,22.61,19.33,34a4.88,4.88,0,0,1,0,4.06Q352.41,81,342,98.27a5.71,5.71,0,0,1-4.17,2.33c-12.53.13-25.08-.06-37.61,0-2.33,0-3.41-.87-4.48-2.77Q286.28,81,276.53,64.24a4.4,4.4,0,0,1,0-5.19q10-16.81,19.7-33.8a4.53,4.53,0,0,1,4.57-2.67c6.33.16,12.67.05,19,.05Z"/><path class="cls-3" d="M250.23,221.09c-6.34,0-12.67.14-19-.1a5.82,5.82,0,0,1-4.17-2.29q-10-16.83-19.46-33.91a4.94,4.94,0,0,1,0-4.12q10-17.68,20.44-35.13a4.93,4.93,0,0,1,3.62-2q19.41-.21,38.77,0a4.55,4.55,0,0,1,3.26,1.89q10.15,17.37,20,34.93a5,5,0,0,1-.08,4.13q-9.85,17.33-20.1,34.44a5.35,5.35,0,0,1-3.88,2.14c-6.46.23-12.92.1-19.4.1Z"/><path class="cls-3" d="M389.08,143.65c6.21,0,12.42-.14,18.63.11a5.84,5.84,0,0,1,4.21,2.33q10.09,17,19.66,34.25a4.87,4.87,0,0,1-.1,4.09q-10,17.5-20.29,34.79a5.34,5.34,0,0,1-3.88,2.22q-19.2.12-38.4-.27a5.32,5.32,0,0,1-3.78-2.33c-6.62-11.23-13-22.6-19.55-33.87a4.1,4.1,0,0,1,0-4.85q10-16.83,19.64-33.82c1.28-2.26,2.76-2.9,5.22-2.84,6.21.18,12.42.06,18.63.06Z"/><path class="cls-3" d="M181.8,103.78c6.21,0,12.42.09,18.63,0,2.33,0,3.7.57,4.89,2.72,6.21,11.17,12.73,22.18,18.93,33.37a5.8,5.8,0,0,1,0,4.79Q214.44,162,204.18,179.1a5.36,5.36,0,0,1-3.88,2.19q-19.22.22-38.42,0a4.91,4.91,0,0,1-3.55-2.05q-10.08-17.2-19.81-34.63a5.43,5.43,0,0,1,.14-4.48q9.75-17.18,19.92-34.12a5.92,5.92,0,0,1,4.21-2.26c6.33-.24,12.67-.1,19-.1Z"/><path class="cls-3" d="M388.33,140.35c-6.34,0-12.68.14-19-.11a5.82,5.82,0,0,1-4.18-2.29q-9.93-16.81-19.44-33.93a5.21,5.21,0,0,1,0-4.37Q355.63,82.13,366,64.84a4.93,4.93,0,0,1,3.52-2.1q19.41-.18,38.81.08a4.88,4.88,0,0,1,3.53,2.05Q421.91,82,431.65,99.44a5,5,0,0,1,0,4.11q-9.93,17.51-20.26,34.8a5,5,0,0,1-3.64,2c-6.46.2-12.92.09-19.41.09Z"/><path class="cls-3" d="M319.44-58.39c6.33,0,12.67-.14,19,.11a5.83,5.83,0,0,1,4.11,2.41q10,17,19.66,34.23a4.85,4.85,0,0,1,0,4.05q-10,17.49-20.27,34.76a4.93,4.93,0,0,1-3.56,2q-19.39.18-38.75-.05a4.91,4.91,0,0,1-3.57-2Q285.85-.25,276-17.83a4,4,0,0,1,0-3.4C282.75-33,289.54-44.7,296.51-56.31a5.43,5.43,0,0,1,3.94-2.1c6.32-.22,12.66-.1,19-.1Z"/><path class="cls-3" d="M458,183.71c6.33,0,12.67-.15,19,.11a5.81,5.81,0,0,1,4.14,2.37q10,16.83,19.46,33.93a5.38,5.38,0,0,1,.07,4.46q-9.84,17.35-20.1,34.45a5.75,5.75,0,0,1-4.19,2.33c-12.54.13-25.09,0-37.63,0a4.51,4.51,0,0,1-4.57-2.66q-9.37-16.71-19-33.27c-1.31-2.24-1.14-3.83.13-6q9.69-16.31,19.06-32.82a5.57,5.57,0,0,1,5.83-3.2c5.94.23,11.9.07,17.86.07Z"/><path class="cls-3" d="M595.16,261.44c-6.33,0-12.67.12-19-.1a5.35,5.35,0,0,1-3.82-2.2q-10.1-17.16-19.82-34.58a4.88,4.88,0,0,1,0-4c6.57-11.56,13.2-23.05,20.07-34.44a5.88,5.88,0,0,1,4.23-2.27q19-.19,38,.11a5.73,5.73,0,0,1,4.05,2.48q9.95,16.82,19.4,33.91a5.7,5.7,0,0,1-.09,4.73c-6.4,11.35-13.06,22.55-19.54,33.85a4.49,4.49,0,0,1-4.54,2.63c-6.32-.16-12.66,0-19,0Z"/><path class="cls-3" d="M526.88,62.79c6.33,0,12.68-.14,19,.11A5.83,5.83,0,0,1,550,65.28Q559.87,82,569.26,98.9a5.25,5.25,0,0,1-.07,4.37q-9.93,17.53-20.28,34.81a5.75,5.75,0,0,1-4.18,2.33q-18.83.21-37.64-.15a5.29,5.29,0,0,1-3.89-2.11Q493.08,121,483.33,103.56a4.47,4.47,0,0,1,0-3.75q10.1-17.67,20.5-35.14a5,5,0,0,1,3.66-1.88c6.47-.19,12.93-.09,19.4-.09Z"/><path class="cls-3" d="M595,180.17c-6.21,0-12.41-.09-18.62.05a4.53,4.53,0,0,1-4.6-2.62c-6.31-11.25-12.81-22.39-19.08-33.67a5.23,5.23,0,0,1,.11-4.36c6.55-11.55,13.33-23,19.92-34.53a4.53,4.53,0,0,1,4.65-2.53q18.63.3,37.22.32a4.51,4.51,0,0,1,4.51,2.71q9.39,16.69,19,33.23a4.57,4.57,0,0,1,.08,5.3q-10,16.8-19.69,33.76c-1.21,2.12-2.62,2.74-4.95,2.69-6.21-.16-12.42-.06-18.63-.06Z"/></g><g id="Pointe"><polygon class="cls-4" points="551.54 33.63 549.85 37.59 539.94 60.76 524.87 46.24 547.65 35.47 551.54 33.63"/><polygon class="cls-5" points="551.52 33.61 549.05 39.47 545.81 36.35 551.52 33.61"/></g><g id="Corps"><g id="Bois"><rect class="cls-6" x="415.91" y="92.57" width="131.62" height="6.98" transform="matrix(0.69, -0.72, 0.72, 0.69, 78.33, 376.34)"/><rect class="cls-7" x="420.93" y="97.41" width="131.62" height="6.98" transform="translate(76.39 381.44) rotate(-46.07)"/><rect class="cls-8" x="425.96" y="102.25" width="131.62" height="6.98" transform="translate(74.44 386.54) rotate(-46.07)"/></g><rect id="Gomme" class="cls-9" x="425.15" y="146.31" width="15.52" height="20.93" rx="5.59" ry="5.59" transform="translate(19.66 359.78) rotate(-46.07)"/><rect class="cls-10" x="433.78" y="140.93" width="8.62" height="20.93" transform="translate(25.12 361.87) rotate(-46.07)"/></g><path class="cls-11" d="M452,69.33l-20.63-16-1.92-6.06c-1.39-4.36-2.76-8.72-4.15-13.08l18,7.48q7,10.14,13.93,20.26Q454.63,65.63,452,69.33Z"/><path class="cls-12" d="M433.5,48.47l-4-1.22c-1.39-4.36-2.76-8.72-4.15-13.08l27.5,30.22Z"/><path class="cls-13" d="M425.57,34.46c4,4.54,8.52,9.13,12.51,13.68"/><path class="cls-13" d="M425.61,34.43c2.15,2.22,4.34,4.4,6.51,6.59,1.09,1.1,2.23,2.15,3.23,3.33a32.12,32.12,0,0,1,2.77,3.75l-.08.07A44.48,44.48,0,0,1,434.61,45c-1.09-1.09-2.06-2.29-3.08-3.46-2-2.32-4.06-4.66-6-7.08Z"/><ellipse class="cls-14" cx="438.91" cy="48.79" rx="1.11" ry="1" transform="translate(313.21 472.14) rotate(-79.81)"/><path class="cls-15" d="M456.34,53.85l86.1,90.4a23.05,23.05,0,0,1,5.47,10.13c.74,3,1.74,7-.23,9.56-2.66,3.46-8.78,1.59-9.82,1.27a15.54,15.54,0,0,1-8.33-6.73L443.61,66.73Q450,60.28,456.34,53.85Z"/><polygon class="cls-16" points="452.11 63.69 446.73 69.81 531.23 159.43 536.61 153.31 452.11 63.69"/><path class="cls-17" d="M473.6,72,461.12,85.43,446.27,69.57l12.63-13Z"/><line class="cls-18" x1="539.77" y1="147.86" x2="456.5" y2="59.01"/><path class="cls-19" d="M443.53,66.64l13.09-12.85a1,1,0,0,1,1.5.07l.28.34a1.28,1.28,0,0,1-.11,1.66l-13.1,12.85a1,1,0,0,1-1.5-.07l-.28-.34A1.27,1.27,0,0,1,443.53,66.64Z"/><path class="cls-19" d="M459.92,84.12,473,71.27a1,1,0,0,1,1.5.07l.28.34a1.28,1.28,0,0,1-.11,1.66l-13.1,12.85a1,1,0,0,1-1.5-.07l-.28-.35A1.25,1.25,0,0,1,459.92,84.12Z"/><path class="cls-19" d="M528.51,157.21l13.09-12.85a1,1,0,0,1,1.5.07l.28.35a1.26,1.26,0,0,1-.11,1.65l-13.1,12.86a1,1,0,0,1-1.5-.07l-.28-.35A1.27,1.27,0,0,1,528.51,157.21Z"/><path class="cls-19" d="M445.41,69,458.5,56.13a1,1,0,0,1,1.5.07l1.09,1.35A1.25,1.25,0,0,1,461,59.2L447.88,72.05a1,1,0,0,1-1.5-.07l-1.09-1.34A1.28,1.28,0,0,1,445.41,69Z"/><rect class="cls-20" x="479.62" y="40.59" width="14.48" height="33.48"/><path class="cls-21" d="M494.1,72.82H479.62l1.25,1.25V40.59l-1.25,1.25H494.1l-1.25-1.25V74.07a1.25,1.25,0,0,0,2.5,0V40.59a1.26,1.26,0,0,0-1.25-1.25H479.62a1.27,1.27,0,0,0-1.25,1.25V74.07a1.27,1.27,0,0,0,1.25,1.25H494.1A1.25,1.25,0,0,0,494.1,72.82Z"/><path class="cls-20" d="M511.9,143.24c-.29,2.7-1.28,7.93-5.38,11.79-5.08,4.81-12,4.66-19.46,4.5a55.4,55.4,0,0,1-16.83-3,8.32,8.32,0,0,1-2.84-2.26c-3.95-3.8-3.8-5.36-4.16-8.5a6.33,6.33,0,0,1,.51-2.1q2.72-11.26,5.42-22.54l34-4.22,8.1,24.41C511.47,142,511.68,142.6,511.9,143.24Z"/><path class="cls-21" d="M510.65,143.24c-.79,6.3-4.21,12.07-10.54,14.07-4.74,1.49-10.27,1.18-15.18.88-5.53-.33-12.36-1.1-16.66-4.82-5.16-4.47-3.36-9.25-2-15,.75-3.13,1.51-6.26,2.26-9.39.83-3.46.63-6.21,4.38-7.07,5.77-1.32,12.06-1.49,17.94-2.22,2.93-.37,6.5-1.41,9.44-1.18,3.31.27,3.48,4.32,4.43,7.18l5.94,17.9c.51,1.51,2.92.86,2.41-.67q-4.38-13.17-8.75-26.34a1.26,1.26,0,0,0-1.2-.92l-34,4.22a1.3,1.3,0,0,0-1.2.92q-2.15,8.92-4.3,17.84c-.79,3.3-2.09,6.39-1.35,9.79,1.72,7.86,9.44,10.36,16.42,11.55,7.28,1.24,16.35,2,23.35-.71,6.8-2.67,10.2-9.08,11.07-16C513.35,141.65,510.84,141.67,510.65,143.24Z"/><path class="cls-21" d="M466.61,131.58a58.21,58.21,0,0,0,41.09.6c1.51-.54.86-3-.66-2.41a56.18,56.18,0,0,1-39.77-.6c-1.5-.59-2.15,1.82-.66,2.41Z"/><path class="cls-21" d="M464,140.89a55.13,55.13,0,0,0,47.1-.79c1.44-.71.17-2.87-1.27-2.16a52.3,52.3,0,0,1-44.56.79c-1.46-.66-2.73,1.5-1.27,2.16Z"/><path class="cls-22" d="M511.9,143.24c-.29,2.7-1.28,7.93-5.38,11.79-5.08,4.81-12,4.62-19.46,4.5-3.77-.06-14.61.25-19.25-3.86-2.48-2.19-4.47-10.37-4.27-11.2v0a.34.34,0,0,1,.61-.1,17.48,17.48,0,0,0,6.11,5.83c1.92,1.08,6.74,3.79,11.26,1.61a9.54,9.54,0,0,0,4.1-4,.57.57,0,0,1,1-.06,11.6,11.6,0,0,0,4.29,3.55c6.32,2.94,13-1.61,14.08-2.32a17.49,17.49,0,0,0,5.4-5.89.84.84,0,0,1,1.53.14Z"/><path class="cls-21" d="M477.81,125.15,474,143.09"/><path class="cls-21" d="M476.61,124.81l-3.81,17.94c-.33,1.57,2.08,2.24,2.41.67L479,125.48c.33-1.57-2.08-2.24-2.41-.67Z"/><path class="cls-21" d="M487,125.46v19.2"/><path class="cls-21" d="M485.71,125.46v19.2a1.25,1.25,0,0,0,2.5,0v-19.2a1.25,1.25,0,0,0-2.5,0Z"/><path class="cls-21" d="M496.31,125.05l5,17.55"/><path class="cls-21" d="M495.11,125.38l5,17.55a1.25,1.25,0,0,0,2.41-.67l-5-17.55a1.25,1.25,0,0,0-2.41.67Z"/><path class="cls-20" d="M455.93,80.11c-3.61.17-4.3.45-4.85.82A5.4,5.4,0,0,0,449,84.55a14,14,0,0,1-8.45-2.41c-.43-.3-5.48-3.91-5.73-9.35-.16-3.55,1.87-4.82,1.51-9.05a13.49,13.49,0,0,0-1.51-5.13c-.58,1.49-1.43,3.68-2.41,6.34-1.05,2.83-3,8.23-3.62,10.25-2,6.48-2.41,18.9,3.92,24.13,6.06,5,18.16,3.3,18.4,3.32A7.62,7.62,0,0,0,453.8,106a8.12,8.12,0,0,0,6.63.9c.45-2.8,3.95-25.5-.3-26.84A24,24,0,0,0,455.93,80.11Z"/><path class="cls-21" d="M455.93,78.86c-2.13.13-4.53,0-6.21,1.57-.66.6-1.13,2.66-1.44,2.88-1.64,1.18-6.26-1.57-7.62-2.63-4.2-3.31-5-7.4-3.68-12.32A14.45,14.45,0,0,0,435.87,58c-.5-1.08-1.93-.6-2.28.3-4.5,11.51-13.26,30.2-2.65,41.14,4.37,4.51,11.71,5,17.61,4.68a7.4,7.4,0,0,1,1.68-.12c.4.07.8.18.41,0a14.51,14.51,0,0,0,2.27,2.92,9.39,9.39,0,0,0,7.85,1.23,1.23,1.23,0,0,0,.88-.87,122,122,0,0,0,1.82-19c0-2.32.11-5.49-1.08-7.62-1.42-2.54-3.83-1.9-6.45-1.77-1.6.07-1.61,2.57,0,2.5,4.05-.2,4.62,0,4.95,4.09a59,59,0,0,1-.25,9.58c-.24,3-.59,5.92-1,8.87a7.11,7.11,0,0,1-.35,2.35c.84-1.07-.66,0-1.25-.29-3.4-1.45-4.5-1.14-5.86-3.94a1.21,1.21,0,0,0-1.08-.62c-9.87.66-20.09-.37-22-12.05-1.74-10.57,3.18-20.81,6.93-30.41l-2.29.3c2.17,4.6.32,7.7-.11,12.15a11.81,11.81,0,0,0,2.58,8.2A15.43,15.43,0,0,0,449,85.8a1.29,1.29,0,0,0,1.21-.92c1-3.4,2.65-3.33,5.75-3.52C457.53,81.26,457.54,78.76,455.93,78.86Z"/><path class="cls-20" d="M451.08,102.65a8.27,8.27,0,0,1-.8-3,6.73,6.73,0,0,1,0-1.1"/><path class="cls-21" d="M450.86,102.76a8.65,8.65,0,0,1-.57-2.09,7.85,7.85,0,0,1-.08-1.08l.07-1.06.06,1.06a8.89,8.89,0,0,0,.19,1,8.23,8.23,0,0,0,.78,1.92Z"/><path class="cls-20" d="M449.14,83.87a23,23,0,0,0,0,3.7c.07.79.18,1.53.3,2.21"/><path class="cls-21" d="M449.39,83.89a23.92,23.92,0,0,0-.15,2.94c0,1,.16,2,.23,3-.15-1-.39-2-.48-2.94a24.83,24.83,0,0,1-.1-3Z"/><path class="cls-20" d="M446.66,89.28a6.59,6.59,0,0,0-.4,2.11,7.12,7.12,0,0,0,.8,3.52"/><path class="cls-12" d="M446.66,89.28a12.39,12.39,0,0,0-.14,2.84,13.34,13.34,0,0,0,.54,2.79,5.05,5.05,0,0,1-1-2.76A4.94,4.94,0,0,1,446.66,89.28Z"/><path class="cls-20" d="M444.44,89.28a11.29,11.29,0,0,0-.2,2,11.67,11.67,0,0,0,.4,3.27"/><path class="cls-12" d="M444.44,89.28c0,.9,0,1.75.05,2.61s.11,1.72.15,2.62a4.9,4.9,0,0,1-.46-1.26,6.75,6.75,0,0,1-.18-1.34A6.08,6.08,0,0,1,444.44,89.28Z"/><path class="cls-20" d="M443.06,88.77a6.47,6.47,0,0,0-.3,1.78,6.69,6.69,0,0,0,.6,3"/><path class="cls-12" d="M443.06,88.77a16,16,0,0,0,0,2.39,18.53,18.53,0,0,0,.34,2.37,4.34,4.34,0,0,1-.84-2.34A4.24,4.24,0,0,1,443.06,88.77Z"/><path class="cls-20" d="M441.17,87.9a6.16,6.16,0,0,0-.3,1.74,6.58,6.58,0,0,0,.6,2.91"/><path class="cls-12" d="M441.17,87.9a16.6,16.6,0,0,0,0,2.33,17.8,17.8,0,0,0,.34,2.32,4.15,4.15,0,0,1-.84-2.28A4,4,0,0,1,441.17,87.9Z"/><path class="cls-20" d="M439.09,87.9a8.07,8.07,0,0,0-.2,1.57,7.82,7.82,0,0,0,.4,2.62"/><path class="cls-12" d="M439.09,87.9c0,.73,0,1.41.06,2.1s.1,1.36.14,2.09a3.58,3.58,0,0,1-.46-1,4.36,4.36,0,0,1-.18-1.08A4.08,4.08,0,0,1,439.09,87.9Z"/><path class="cls-20" d="M518.21,80.11c3.6.17,4.3.45,4.85.82a5.4,5.4,0,0,1,2.11,3.62,14,14,0,0,0,8.45-2.41c.43-.3,5.48-3.91,5.73-9.35.16-3.55-1.87-4.82-1.51-9.05a13.49,13.49,0,0,1,1.51-5.13c.58,1.49,1.43,3.68,2.41,6.34,1,2.83,3,8.23,3.62,10.25,2,6.48,2.41,18.9-3.92,24.13-6.06,5-18.16,3.3-18.4,3.32a7.62,7.62,0,0,1-2.72,3.32,8.12,8.12,0,0,1-6.63.9c-.45-2.8-4-25.5.3-26.84A24,24,0,0,1,518.21,80.11Z"/><path class="cls-21" d="M518.21,81.36c3.25.2,4.65-.07,5.75,3.52a1.29,1.29,0,0,0,1.21.92A15.44,15.44,0,0,0,538,79.59a11.84,11.84,0,0,0,2.6-8c-.38-4.56-2.33-7.64-.13-12.31l-2.29-.3c3.75,9.6,8.67,19.83,6.93,30.41-1.92,11.68-12.15,12.71-22,12.05A1.21,1.21,0,0,0,522,102c-.88,1.82-6.35,5.14-7.3,4,.32.38,0-1.32-.11-1.78-.44-3.06-.81-6.13-1.06-9.21a61.91,61.91,0,0,1-.27-9.13c.28-4.29.69-4.75,5-4.54,1.61.07,1.6-2.43,0-2.5-2.49-.13-4.83-.75-6.33,1.55-1.36,2.09-1.2,5.5-1.2,7.84a121.84,121.84,0,0,0,1.82,19,1.23,1.23,0,0,0,.87.87A9.4,9.4,0,0,0,521.1,107c1.12-.77,1.71-2.31,2.71-3,0,0-1,.27-.12,0a5.11,5.11,0,0,1,1.49.12c6.05.36,13.5-.08,18-4.66,10.68-10.81,1.8-29.73-2.65-41.14-.35-.89-1.78-1.37-2.28-.3A14.37,14.37,0,0,0,537,67.86c1.31,5.12,1,9.26-3.52,12.82-1.4,1.1-5.34,3.38-7.15,2.61-.61-.25-.86-1.71-1.62-2.52-1.71-1.84-4.13-1.77-6.5-1.91C516.6,78.76,516.61,81.26,518.21,81.36Z"/><path class="cls-20" d="M523.06,102.65a8.27,8.27,0,0,0,.8-3,6.73,6.73,0,0,0,0-1.1"/><path class="cls-21" d="M522.83,102.54a8.23,8.23,0,0,0,.78-1.92,8.89,8.89,0,0,0,.19-1l.06-1.06.06,1.06a6.53,6.53,0,0,1-.07,1.08,8.65,8.65,0,0,1-.57,2.09Z"/><path class="cls-20" d="M525,83.87a23,23,0,0,1,0,3.7c-.07.79-.18,1.53-.3,2.21"/><path class="cls-21" d="M525.25,83.85a24.83,24.83,0,0,1-.1,3c-.09,1-.33,2-.48,2.94.07-1,.23-2,.23-3a23.92,23.92,0,0,0-.15-2.94Z"/><path class="cls-20" d="M527.48,89.28a6.87,6.87,0,0,1,.4,2.11,7.12,7.12,0,0,1-.8,3.52"/><path class="cls-12" d="M527.48,89.28a4.94,4.94,0,0,1,.64,2.87,5.05,5.05,0,0,1-1,2.76,13.34,13.34,0,0,0,.54-2.79A12.39,12.39,0,0,0,527.48,89.28Z"/><path class="cls-20" d="M529.7,89.28a11.29,11.29,0,0,1,.2,2,11.67,11.67,0,0,1-.4,3.27"/><path class="cls-12" d="M529.7,89.28a6.08,6.08,0,0,1,.44,2.63,6.75,6.75,0,0,1-.18,1.34,4.9,4.9,0,0,1-.46,1.26c0-.9.12-1.75.14-2.62S529.67,90.18,529.7,89.28Z"/><path class="cls-20" d="M531.08,88.77a6.47,6.47,0,0,1,.3,1.78,6.83,6.83,0,0,1-.6,3"/><path class="cls-12" d="M531.08,88.77a4.24,4.24,0,0,1,.54,2.42,4.34,4.34,0,0,1-.84,2.34,18.53,18.53,0,0,0,.34-2.37A16,16,0,0,0,531.08,88.77Z"/><path class="cls-20" d="M533,87.9a6.16,6.16,0,0,1,.3,1.74,6.41,6.41,0,0,1-.61,2.91"/><path class="cls-12" d="M533,87.9a4.25,4.25,0,0,1-.31,4.65,16.3,16.3,0,0,0,.35-2.32A16.6,16.6,0,0,0,533,87.9Z"/><path class="cls-20" d="M535.05,87.9a8.07,8.07,0,0,1,.2,1.57,7.51,7.51,0,0,1-.41,2.62"/><path class="cls-12" d="M535.05,87.9a4.08,4.08,0,0,1,.44,2.12,4.36,4.36,0,0,1-.18,1.08,3.34,3.34,0,0,1-.47,1c0-.73.13-1.4.15-2.09S535,88.63,535.05,87.9Z"/><circle class="cls-20" cx="486.66" cy="92.55" r="33.14"/><path class="cls-21" d="M518.55,92.55a31.89,31.89,0,1,1-26-31.36c15.14,2.81,25.73,16.17,26,31.36a1.25,1.25,0,0,0,2.5,0,34.39,34.39,0,1,0-28.55,33.89c16.54-2.79,28.2-17.38,28.55-33.89A1.25,1.25,0,0,0,518.55,92.55Z"/><circle class="cls-23" cx="473.03" cy="93.53" r="8.07"/><circle class="cls-23" cx="501.98" cy="93.53" r="8.07"/><path class="cls-23" d="M485.46,106.3l-1.59,2.25a1.87,1.87,0,0,0,1.47,3l3.29.09a1.87,1.87,0,0,0,1.57-3l-1.69-2.35A1.88,1.88,0,0,0,485.46,106.3Z"/></svg>