<svg id="Calque_1" data-name="Calque 1" xmlns="http://www.w3.org/2000/svg" viewBox="0 0 1282 888"><defs><style>.cls-1,.cls-2,.cls-22,.cls-23{fill:#231f20;}.cls-1,.cls-19,.cls-23{stroke:#231f20;}.cls-1,.cls-12,.cls-19,.cls-22,.cls-23,.cls-4{stroke-miterlimit:10;}.cls-3{opacity:0.17;}.cls-19,.cls-4{fill:none;}.cls-4{stroke:#f4eddf;}.cls-5{fill:#fbcaaa;}.cls-6{fill:#333;}.cls-7{fill:#ef8b46;}.cls-8{fill:#f3ac71;}.cls-9{fill:#f6c785;}.cls-10{fill:#ef9d9c;}.cls-11{fill:#8c959d;}.cls-12{fill:#d1d3d4;stroke:#939598;}.cls-13{fill:#939598;}.cls-14{fill:#808285;}.cls-15,.cls-17{fill:#414042;}.cls-16{fill:#bb5a3f;}.cls-17{opacity:0.33;}.cls-17,.cls-19{isolation:isolate;}.cls-18{fill:#445d7b;}.cls-19{opacity:0.28;}.cls-20{fill:#fbcc34;}.cls-21{fill:#fff;}.cls-22{stroke:#f1f2f2;}.cls-23{stroke-width:2px;}</style></defs><title>ban</title><g id="Calque_2" data-name="Calque 2"><g id="Calque_1-2" data-name="Calque 1-2"><rect class="cls-1" x="18.29" y="190.36" width="1223.71" height="483.51"/><rect class="cls-2" x="449.15" y="245.47" width="340.16" height="208.7"/><g class="cls-3"><path class="cls-4" d="M547.71,697.64h-565v-887h1281v469c-.94-1.33-2-2.6-2.8-4-8.2-14.29-16.5-28.52-24.46-42.94-2.08-3.79-4.28-5.35-8.81-5.27-16.49.3-33,0-49.49.1-3.06,0-4.77-.91-6.27-3.59-8.48-15.08-17.17-30-25.68-45.11-1.27-2.26-2.6-3.32-5.38-3.3q-27.25.18-54.5-.08c-2.94,0-4.41,1-5.81,3.48-8.6,15-17.42,29.91-26,44.92-1.51,2.64-3.19,3.67-6.28,3.62-16.17-.28-32.33-.43-48.5-.33-3.54,0-5.32-1.28-7-4.2-8.23-14.65-16.76-29.14-24.91-43.83-1.8-3.25-3.85-4.26-7.44-4.24-16.67.11-33.34-.15-50-.07-3.2,0-5.08-.83-6.69-3.73q-11.91-21.36-24.26-42.47c-1.42-2.44-1.53-4.21,0-6.71Q892,100.65,904.27,79.18c1.53-2.7,3.27-3.57,6.3-3.54,17.67.2,35.33.08,53,.31,3.3,0,5-1,6.62-3.86Q983.41,48.88,997,25.92c1.36-2.28,1.51-3.86.11-6.26Q983.58-3.62,970.4-27.13c-1.5-2.68-3.21-3.62-6.26-3.61-17.67,0-35.34-.07-53-.41-3.55-.07-5.28,1.23-6.95,4.15-8.23,14.45-16.76,28.74-25,43.2-1.51,2.65-3.16,3.65-6.23,3.62q-25.76-.29-51.5-.1c-3,0-4.41-1.07-5.79-3.53C807.35,1.4,799-13.35,790.38-28c-1.6-2.72-1.37-4.56.17-7.15,8.68-14.58,17.08-29.33,25.74-43.92,1.53-2.58,1.72-4.51.15-7.21Q802.84-109.53,789.65-133c-1.43-2.55-3.09-3.34-5.91-3.32-16.83.11-33.66-.09-50.49.1-3.62,0-5.62-1-7.41-4.21-8.23-14.84-16.8-29.49-25.13-44.27-1.37-2.44-2.83-3.57-5.81-3.55q-27,.17-54-.12c-2.84,0-4.47.84-5.9,3.34-8.59,15-17.44,29.89-26,44.93-1.62,2.84-3.32,3.91-6.62,3.86-16.83-.24-33.67-.1-50.5-.33-3.27,0-5,1-6.65,3.81-8.56,15-17.42,29.91-26,44.94-1.52,2.66-3.18,3.62-6.24,3.58-16.67-.19-33.33-.06-50-.25-3.05,0-4.76.88-6.29,3.56-8.32,14.6-16.92,29-25.22,43.66-1.92,3.38-3.95,4.92-8.11,4.82-15.49-.41-31-.47-46.49-.36-3.71,0-5.58-1.31-7.33-4.44-8-14.38-16.43-28.55-24.41-43-1.72-3.11-3.65-4-7-4-16.5.11-33-.19-49.49,0-4.12.06-6.15-1.43-8.05-4.84-8.09-14.54-16.53-28.88-24.67-43.39-1.48-2.63-3.08-3.74-6.19-3.72q-26.74.13-53.5-.19c-3.12,0-4.7,1.06-6.19,3.67C181.63-118,173-103.37,164.57-88.61c-1.76,3.1-3.62,4.41-7.35,4.35-16.66-.25-33.33,0-50-.2-3.16,0-5.07.7-6.75,3.65C91.7-65.33,82.69-50,73.61-34.66a5.7,5.7,0,0,0,0,6.7c9,15.38,17.85,30.81,26.5,46.36,1.74,3.13,3.77,3.94,7.1,3.93,16.83-.07,33.66.15,50.5.09,3,0,4.75.88,6.27,3.6q12.44,22.2,25.32,44.16c1.5,2.57,1.26,4.33-.17,6.76q-12.87,21.68-25.35,43.57c-1.65,2.9-3.49,3.79-6.72,3.74-16.16-.26-32.33-.15-48.49-.44-3.5-.06-5.29,1.13-7,4.1-8.21,14.47-16.77,28.74-25,43.21-1.94,3.41-4.06,4.85-8.16,4.77-16.49-.3-33-.09-49.49-.29-3.24,0-5,.86-6.68,3.76Q-.94,202.58-14.62,225.52c-1.46,2.47-1.56,4.23-.08,6.76q13.58,23.28,26.77,46.78c1.52,2.71,3.27,3.54,6.29,3.53,17-.11,34,.09,51,0,3,0,4.78.84,6.29,3.54q11.94,21.34,24.27,42.46c1.72,2.94,1.84,5.11,0,8.12-8.63,14.42-16.89,29.06-25.51,43.48-1.76,2.95-1.91,5-.12,8.1q13.41,22.8,26.28,45.92c1.53,2.73,3.27,3.58,6.29,3.56,17-.1,34,.09,51,0,3,0,4.79.9,6.3,3.59q12.47,22.2,25.32,44.17c1.57,2.69,1.38,4.66-.15,7.25-8.66,14.6-17.07,29.34-25.75,43.92-1.55,2.61-1.71,4.47-.14,7.17q13.48,23,26.53,46.35c1.5,2.66,3.13,3.61,6.21,3.6,17-.1,34,.15,51,0,3.31,0,5,1.09,6.62,3.91,8.21,14.66,16.71,29.16,24.94,43.81,1.62,2.87,3.29,4.24,6.86,4.21,17.66-.17,35.33-.08,53,.15,3.3.05,5-1,6.63-3.84,8.48-14.9,17.23-29.63,25.75-44.5,1.5-2.63,3.19-3.71,6.3-3.65q24.24.42,48.49.37c3.17,0,4.69,1.28,6.14,3.86,8.23,14.65,16.69,29.17,24.93,43.81,1.48,2.62,3.13,3.69,6.24,3.65,13.83-.14,27.73.86,41.47-.24,10.65-.85,16.41,2.65,21,12.22C532.06,671.34,540.23,684.32,547.71,697.64Z" transform="translate(17.79 189.86)"/><path class="cls-4" d="M1263.71,282.64v415h-298c9.49-16.23,19-32.43,28.41-48.72a5.8,5.8,0,0,1,5.87-3.33c17,.18,34,.09,51,.3,3,0,4.8-.69,6.35-3.41q13.25-23.18,26.87-46.15c1.55-2.62,1.62-4.58.06-7.24-8.89-15.23-17.71-30.51-26.28-45.92-1.74-3.12-3.74-4-7.09-4-16.66,0-33.33-.23-50-.17-3.36,0-5.4-.84-7.11-3.92q-12.49-22.46-25.48-44.65c-1.44-2.48-1.46-4.22,0-6.7q12.49-21,24.59-42.29c1.72-3.05,3.73-3.92,7.09-3.89,16.66.19,33.33,0,50,.22,3.49,0,5.27-1.12,7-4.12,8.45-14.9,17.23-29.62,25.73-44.5,1.52-2.68,3.23-3.59,6.28-3.56,16.83.18,33.67,0,50.5.23a6.2,6.2,0,0,0,6.27-3.61c8.24-14.45,16.8-28.72,25-43.22,2.11-3.74,4.3-5.37,8.87-5.24,16.32.47,32.66.28,49,.59,3.31.06,5-1,6.62-3.86,7.71-13.6,15.65-27.08,23.58-40.56C1260.27,287.41,1262.06,285.07,1263.71,282.64Z" transform="translate(17.79 189.86)"/><path class="cls-4" d="M1263.71,282.64c-1.65,2.43-3.44,4.77-4.93,7.29-7.93,13.48-15.87,27-23.58,40.56-1.61,2.84-3.31,3.92-6.62,3.86-16.32-.31-32.66-.12-49-.59-4.57-.13-6.76,1.5-8.87,5.24-8.17,14.5-16.73,28.77-25,43.22a6.2,6.2,0,0,1-6.27,3.61c-16.83-.18-33.67-.05-50.5-.23-3,0-4.76.88-6.28,3.56-8.5,14.88-17.28,29.6-25.73,44.5-1.7,3-3.48,4.16-7,4.12-16.66-.21-33.33,0-50-.22-3.36,0-5.37.84-7.09,3.89q-12,21.29-24.59,42.29c-1.48,2.48-1.46,4.22,0,6.7q12.95,22.21,25.48,44.65c1.71,3.08,3.75,3.93,7.11,3.92,16.66-.06,33.33.21,50,.17,3.35,0,5.35.87,7.09,4,8.57,15.41,17.39,30.69,26.28,45.92,1.56,2.66,1.49,4.62-.06,7.24q-13.62,23-26.87,46.15c-1.55,2.72-3.35,3.45-6.35,3.41-17-.21-34-.12-51-.3a5.8,5.8,0,0,0-5.87,3.33c-9.38,16.29-18.92,32.49-28.41,48.72h-62a4.38,4.38,0,0,0-.24-1.43c-9.16-16-18.27-32.05-27.64-47.94-.82-1.4-3.35-2.5-5.11-2.52q-25.71-.3-51.44-.09c-3.06,0-4.74-.93-6.23-3.6-8.46-15.07-17.16-30-25.63-45.08a5.8,5.8,0,0,0-5.86-3.38q-24,.21-47.94,0c-3,0-4.74.91-6.26,3.58-8.66,15.15-17.59,30.15-26.26,45.3a5.77,5.77,0,0,1-5.85,3.35c-17.14-.16-34.29-.22-51.44,0-1.87,0-4.54,1.28-5.45,2.8-9.71,16.26-19.14,32.69-28.65,49.08h-62c-7.48-13.32-15.65-26.3-22.2-40.06-4.55-9.57-10.31-13.07-21-12.22-13.74,1.1-27.64.1-41.47.24-3.11,0-4.76-1-6.24-3.65-8.24-14.64-16.7-29.16-24.93-43.81-1.45-2.58-3-3.87-6.14-3.86q-24.24.06-48.49-.37c-3.11-.06-4.8,1-6.3,3.65-8.52,14.87-17.27,29.6-25.75,44.5-1.61,2.83-3.33,3.89-6.63,3.84-17.66-.23-35.33-.32-53-.15-3.57,0-5.24-1.34-6.86-4.21-8.23-14.65-16.73-29.15-24.94-43.81-1.59-2.82-3.31-3.93-6.62-3.91-17,.11-34-.14-51,0-3.08,0-4.71-.94-6.21-3.6q-13.06-23.29-26.53-46.35c-1.57-2.7-1.41-4.56.14-7.17,8.68-14.58,17.09-29.32,25.75-43.92,1.53-2.59,1.72-4.56.15-7.25q-12.85-22-25.32-44.17c-1.51-2.69-3.26-3.61-6.3-3.59-17,.1-34-.09-51,0-3,0-4.76-.83-6.29-3.56Q87.69,411.1,74.32,388.26c-1.79-3.05-1.64-5.15.12-8.1,8.62-14.42,16.88-29.06,25.51-43.48,1.81-3,1.69-5.18,0-8.12q-12.36-21.1-24.27-42.46c-1.51-2.7-3.25-3.56-6.29-3.54-17,.12-34-.08-51,0-3,0-4.77-.82-6.29-3.53q-13.2-23.51-26.77-46.78c-1.48-2.53-1.38-4.29.08-6.76q13.64-23,26.86-46.16c1.64-2.9,3.44-3.8,6.68-3.76,16.49.2,33,0,49.49.29,4.1.08,6.22-1.36,8.16-4.77,8.21-14.47,16.77-28.74,25-43.21,1.69-3,3.48-4.16,7-4.1,16.16.29,32.33.18,48.49.44,3.23,0,5.07-.84,6.72-3.74q12.44-21.93,25.35-43.57c1.43-2.43,1.67-4.19.17-6.76q-12.88-22-25.32-44.16c-1.52-2.72-3.25-3.61-6.27-3.6-16.84.06-33.67-.16-50.5-.09-3.33,0-5.36-.8-7.1-3.93C91.42,2.85,82.54-12.58,73.57-28a5.7,5.7,0,0,1,0-6.7C82.69-50,91.7-65.33,100.48-80.81c1.68-3,3.59-3.68,6.75-3.65,16.66.15,33.33-.05,50,.2,3.73.06,5.59-1.25,7.35-4.35C173-103.37,181.63-118,190-132.7c1.49-2.61,3.07-3.71,6.19-3.67q26.75.35,53.5.19c3.11,0,4.71,1.09,6.19,3.72,8.14,14.51,16.58,28.85,24.67,43.39,1.9,3.41,3.93,4.9,8.05,4.84,16.49-.23,33,.07,49.49,0,3.38,0,5.31.9,7,4,8,14.41,16.38,28.58,24.41,43,1.75,3.13,3.62,4.47,7.33,4.44,15.5-.11,31,0,46.49.36,4.16.1,6.19-1.44,8.11-4.82,8.3-14.62,16.9-29.06,25.22-43.66,1.53-2.68,3.24-3.59,6.29-3.56,16.67.19,33.33.06,50,.25,3.06,0,4.72-.92,6.24-3.58,8.58-15,17.44-29.89,26-44.94,1.62-2.85,3.38-3.85,6.65-3.81,16.83.23,33.67.09,50.5.33,3.3,0,5-1,6.62-3.86,8.55-15,17.4-29.92,26-44.93,1.43-2.5,3.06-3.36,5.9-3.34q27,.25,54,.12c3,0,4.44,1.11,5.81,3.55,8.33,14.78,16.9,29.43,25.13,44.27,1.79,3.22,3.79,4.25,7.41,4.21,16.83-.19,33.66,0,50.49-.1,2.82,0,4.48.77,5.91,3.32q13.2,23.51,26.79,46.78c1.57,2.7,1.38,4.63-.15,7.21-8.66,14.59-17.06,29.34-25.74,43.92-1.54,2.59-1.77,4.43-.17,7.15,8.58,14.64,17,29.39,25.29,44.18,1.38,2.46,2.83,3.55,5.79,3.53q25.75-.2,51.5.1c3.07,0,4.72-1,6.23-3.62,8.24-14.46,16.77-28.75,25-43.2,1.67-2.92,3.4-4.22,6.95-4.15,17.66.34,35.33.43,53,.41,3.05,0,4.76.93,6.26,3.61q13.19,23.5,26.75,46.79c1.4,2.4,1.25,4-.11,6.26q-13.59,23-26.85,46.17c-1.61,2.82-3.32,3.91-6.62,3.86-17.67-.23-35.33-.11-53-.31-3,0-4.77.84-6.3,3.54Q892,100.66,879.41,121.89c-1.49,2.5-1.38,4.27,0,6.71q12.3,21.14,24.26,42.47c1.61,2.9,3.49,3.75,6.69,3.73,16.66-.08,33.33.18,50,.07,3.59,0,5.64,1,7.44,4.24,8.15,14.69,16.68,29.18,24.91,43.83,1.64,2.92,3.42,4.22,7,4.2,16.17-.1,32.33.05,48.5.33,3.09.05,4.77-1,6.28-3.62,8.6-15,17.42-29.9,26-44.92,1.4-2.45,2.87-3.51,5.81-3.48q27.26.26,54.5.08c2.78,0,4.11,1,5.38,3.3,8.51,15.07,17.2,30,25.68,45.11,1.5,2.68,3.21,3.61,6.27,3.59,16.5-.12,33,.2,49.49-.1,4.53-.08,6.73,1.48,8.81,5.27,8,14.42,16.26,28.65,24.46,42.94.81,1.4,1.86,2.67,2.8,4ZM937.13,72.55v.09c8.5,0,17,.16,25.49-.13a7,7,0,0,0,5-2.85q13.09-21.82,25.65-44a6.85,6.85,0,0,0,.13-5.72C985.1,5.14,976.54-9.51,968.21-24.29c-1.31-2.32-2.71-3.22-5.44-3.21q-25.24.13-50.48-.14a5.77,5.77,0,0,0-5.88,3.36Q894.07-2.61,881.32,18.85c-1.43,2.41-1.66,4.21-.16,6.77q12.75,21.74,25.06,43.73c1.44,2.57,3.13,3.31,5.92,3.26C920.47,72.45,928.8,72.55,937.13,72.55ZM44.89,279.13v.31c8.32,0,16.66.16,25-.13a7,7,0,0,0,5-2.8Q88.15,254.27,101,231.7a6.22,6.22,0,0,0,0-5.2q-12.39-22.2-25.27-44.14a6.87,6.87,0,0,0-4.89-3q-25.47-.5-50.95-.36a6.86,6.86,0,0,0-5,2.86q-13.21,22-25.89,44.37a6.37,6.37,0,0,0-.06,5.3Q1.4,254,14.42,276.11a7,7,0,0,0,5,2.88C27.9,279.29,36.4,279.13,44.89,279.13ZM757.68-28.75v-.39c-8.5,0-17-.18-25.48.14A7.52,7.52,0,0,0,726.81-26Q713.67-4.27,701.14,17.88a6.87,6.87,0,0,0,0,5.73q12.39,22.22,25.33,44.11a7.43,7.43,0,0,0,5.28,3.17c16.65.39,33.3.38,50,.67,2.75,0,4.15-.92,5.46-3.21,8.52-14.85,17.25-29.58,25.7-44.48a6.82,6.82,0,0,0,.14-5.64q-12.25-22-25.06-43.69a7.53,7.53,0,0,0-5.28-3.15C774.34-28.94,766-28.75,757.68-28.75ZM223.33-132.64V-133c-8.49,0-17-.18-25.46.14a7.54,7.54,0,0,0-5.4,3c-8.66,14.38-17,29-25.55,43.41-1.5,2.51-1.34,4.36.09,6.8q12.56,21.54,24.78,43.26c1.49,2.66,3.19,3.71,6.26,3.71q24.47,0,48.94.36c3.13,0,4.72-1.09,6.21-3.7q12.49-21.85,25.37-43.51a5.75,5.75,0,0,0,0-6.71q-12.44-21.33-24.53-42.85c-1.52-2.72-3.25-3.63-6.26-3.56C239.65-132.52,231.49-132.64,223.33-132.64ZM578.58,694v.38c8.33,0,16.65-.15,25,.08,3.08.08,4.75-1,6.26-3.61q12.23-21.44,24.88-42.64c1.72-2.87,1.47-4.89-.11-7.6q-12.45-21.3-24.54-42.82c-1.52-2.72-3.26-3.58-6.27-3.59q-24.48,0-48.95-.47c-2.78,0-4.52.66-6,3.22q-12.6,22.08-25.57,44a5.76,5.76,0,0,0,0,6.76q12.45,21.32,24.51,42.85c1.53,2.73,3.34,3.61,6.34,3.54C562.26,693.89,570.42,694,578.58,694ZM756.45-33.11v.36c8.32,0,16.65-.12,25,.07,2.85.06,4.53-.79,6-3.3,8.41-14.73,17.06-29.32,25.4-44.08a6.74,6.74,0,0,0-.06-5.61q-12.36-22.23-25.26-44.15a7.43,7.43,0,0,0-5.32-3.12c-16.65-.3-33.31-.17-49.95-.39-3,0-4.4,1.17-5.78,3.56-8.37,14.56-17,29-25.23,43.59a7.39,7.39,0,0,0-.1,6.17q12.2,22,25,43.7a7.56,7.56,0,0,0,5.37,3.06C739.79-32.93,748.12-33.11,756.45-33.11ZM668.14-184.94v-.25c-8.5,0-17-.19-25.5.14a7.5,7.5,0,0,0-5.34,3q-13,21.58-25.38,43.55a7.43,7.43,0,0,0-.11,6.17Q624.16-110,637.1-88.12a7,7,0,0,0,5,2.87c16.66.34,33.33.32,50,.6,2.92.05,4.43-1,5.85-3.44,8.35-14.58,17-29,25.22-43.65a8,8,0,0,0,.1-6.61q-12.06-21.85-24.79-43.31a7.54,7.54,0,0,0-5.34-3.13C684.81-185.13,676.47-184.94,668.14-184.94ZM934.88,694.22v.25c8.5,0,17,.16,25.48-.12a7,7,0,0,0,5-2.76q13.2-22,25.86-44.38a6.29,6.29,0,0,0,0-5.25q-12.54-22.41-25.56-44.54a6.84,6.84,0,0,0-4.91-2.88c-16.65-.35-33.3-.34-49.95-.61-2.86,0-4.53.82-6,3.32q-12.63,22.07-25.58,44a5.3,5.3,0,0,0,0,6.27q12.57,21.53,24.76,43.29c1.53,2.73,3.37,3.58,6.36,3.51C918.56,694.11,926.73,694.22,934.88,694.22Zm-.48-415.84v.2c8.16,0,16.32-.14,24.47.08,3.07.08,4.74-.91,6.27-3.59q12.33-21.66,25.09-43.08c1.59-2.67,1.45-4.61-.07-7.22q-12.43-21.33-24.51-42.85c-1.36-2.43-2.82-3.58-5.79-3.57-16.65,0-33.3-.25-50-.14a7.44,7.44,0,0,0-5.4,3q-13.23,22-25.87,44.37a6.21,6.21,0,0,0-.14,5.18Q891,253.19,904,275.33a7.5,7.5,0,0,0,5.43,2.92C917.74,278.56,926.08,278.38,934.4,278.38Zm90.23,364.17v.09c8.16,0,16.32-.14,24.47.08,3,.08,4.78-.72,6.33-3.44,8.31-14.58,16.91-29,25.14-43.63a7.35,7.35,0,0,0,0-6.12q-12.23-22-25-43.69a7.38,7.38,0,0,0-5.3-3.11q-25.22-.43-50.44-.15a7.36,7.36,0,0,0-5.23,3.16q-13,21.57-25.37,43.5a7.44,7.44,0,0,0-.18,6.17q12.33,22.25,25.28,44.12a7.55,7.55,0,0,0,5.42,2.89C1008,642.73,1016.3,642.55,1024.63,642.55ZM223.12,490.62v-.08c-8.49,0-17-.13-25.47.11a6.47,6.47,0,0,0-4.69,2.46q-13.19,22-25.86,44.39a6.89,6.89,0,0,0,0,5.74c8.26,14.81,16.82,29.45,25.16,44.22,1.3,2.32,2.7,3.22,5.42,3.2q25-.17,50,.1c2.9,0,4.45-1,5.86-3.4Q266,565.5,278.89,543.83c1.5-2.53,1.27-4.32-.12-6.7Q266.23,515.58,254,493.85c-1.44-2.58-3.11-3.34-5.9-3.29C239.78,490.72,231.45,490.62,223.12,490.62Zm-.47-4.08v.09c8.49,0,17,.15,25.47-.13a6.91,6.91,0,0,0,4.95-2.8q13.2-22,25.87-44.36a6.22,6.22,0,0,0-.12-5.2q-12.51-22.42-25.5-44.57a6.89,6.89,0,0,0-5-2.83q-25.22-.39-50.44-.16a6.88,6.88,0,0,0-5,2.73q-13.22,22-25.87,44.37a6.9,6.9,0,0,0-.06,5.76q12.36,22.23,25.27,44.13a6.94,6.94,0,0,0,5,2.84C205.66,486.69,214.16,486.54,222.65,486.54Zm891.08-307.81v-.09c-8.32,0-16.65.12-25-.07-3-.07-4.76.79-6.31,3.51-8.21,14.46-16.61,28.81-25.08,43.11-1.33,2.25-1.56,3.86-.15,6.26,8.57,14.63,16.85,29.43,25.47,44a7.32,7.32,0,0,0,5.29,3q25,.44,49.94.18a7.41,7.41,0,0,0,5.39-3q13.23-22,25.86-44.38a6.81,6.81,0,0,0-.15-5.65c-8.16-14.67-16.62-29.17-24.87-43.8-1.29-2.3-2.71-3.28-5.44-3.21C1130.39,178.86,1122.06,178.73,1113.73,178.73Zm-980,155.91v-.05c-8.32,0-16.65.13-25-.07-2.89-.07-4.46.9-5.88,3.38Q90.47,359.53,77.75,381c-1.46,2.47-1.38,4.31,0,6.75,8.45,14.5,16.65,29.14,25.18,43.59a7.39,7.39,0,0,0,5.26,3.15q25.2.38,50.42.06a6.86,6.86,0,0,0,5-2.81c8.72-14.54,17.12-29.26,25.77-43.83,1.48-2.5,1.4-4.34,0-6.81q-12.56-21.52-24.74-43.26c-1.47-2.63-3.22-3.27-6-3.22C150.32,334.73,142,334.64,133.68,334.64Zm712.2-211.93V123c8.5,0,17,.18,25.49-.14a7.53,7.53,0,0,0,5.36-3q13-21.6,25.38-43.55a6.83,6.83,0,0,0,.17-5.71Q889.91,48.3,877,26.38a7.47,7.47,0,0,0-5.31-3.17c-16.66-.34-33.33-.28-50-.5-2.67,0-4.19.72-5.54,3.07-8.52,14.87-17.27,29.6-25.72,44.51a6.81,6.81,0,0,0,.06,5.67c8.08,14.53,16.47,28.9,24.63,43.4,1.38,2.44,2.88,3.51,5.8,3.43C829.21,122.57,837.55,122.71,845.88,122.71ZM312.21,642.55v.09c8.32,0,16.65-.14,25,.08,2.93.07,4.43-1,5.83-3.45q12.39-21.63,25.11-43.09c1.5-2.52,1.35-4.29-.08-6.73q-12.69-21.75-25-43.7c-1.31-2.33-2.68-3.25-5.4-3.23q-25,.16-49.95-.07c-2.9,0-4.46.95-5.87,3.42q-12.51,21.86-25.32,43.54c-1.3,2.21-1.64,3.82-.2,6.26q12.74,21.72,25,43.71c1.44,2.58,3.16,3.28,5.93,3.23C295.56,642.45,303.88,642.55,312.21,642.55ZM222.28,70.7v.23c8.32,0,16.65-.11,25,.06,2.8.06,4.46-.73,5.91-3.29Q265.53,46,278.3,24.62c1.5-2.53,1.33-4.34-.09-6.79q-12.68-21.76-25-43.73c-1.38-2.45-2.9-3.47-5.81-3.44q-24.72.19-49.46-.06c-2.94,0-4.42,1-5.8,3.46Q179.48-3.87,166.51,18c-1.43,2.4-1.19,4,.1,6.25q12.52,21.56,24.78,43.29c1.31,2.34,2.7,3.26,5.4,3.21C205.28,70.59,213.78,70.7,222.28,70.7Zm979.77,260v.16c8.49,0,17,.18,25.47-.14a7.46,7.46,0,0,0,5.29-3.07q13-21.58,25.37-43.52a7.38,7.38,0,0,0,.12-6.15c-8.23-14.83-16.83-29.45-25.14-44.23-1.35-2.39-2.86-3.11-5.5-3.09-16.65.1-33.31.12-50-.06-3,0-4.41,1.13-5.77,3.5q-12.54,21.84-25.36,43.53a5.33,5.33,0,0,0,0,6.27c8.45,14.51,16.66,29.16,25.2,43.62a7.44,7.44,0,0,0,5.3,3C1185.38,330.84,1193.72,330.66,1202.05,330.66ZM132.7,18.77v.29c8.33,0,16.67.21,25-.15a8.13,8.13,0,0,0,5.8-3.2c8.76-14.52,17.25-29.2,25.64-43.94a6.35,6.35,0,0,0,.22-5.25q-12.63-22.65-25.78-45a6.4,6.4,0,0,0-4.66-2.58q-25.49-.34-51-.1a6.87,6.87,0,0,0-4.9,2.93q-13.2,22-25.89,44.38a6.31,6.31,0,0,0,0,5.24C85.44-13.82,94,.83,102.31,15.61c1.31,2.33,2.69,3.29,5.41,3.23C116.05,18.65,124.38,18.77,132.7,18.77ZM400.76,278.91v.44c8.33,0,16.66.17,25-.14a7.54,7.54,0,0,0,5.39-2.94q13.11-21.81,25.62-44a6.31,6.31,0,0,0,0-5.26Q444.13,204.42,431,182a7,7,0,0,0-5-2.89q-25-.45-50-.27a6.88,6.88,0,0,0-4.93,2.9q-13.18,22-25.86,44.39a6.25,6.25,0,0,0,0,5.2c8.27,14.8,16.84,29.43,25.12,44.23a5.7,5.7,0,0,0,5.87,3.36C384.43,278.8,392.6,278.91,400.76,278.91Zm534.16,3.65v-.18c-8.49,0-17-.16-25.47.12a7,7,0,0,0-5,2.79q-13.08,21.81-25.61,43.95a6.84,6.84,0,0,0,0,5.7c8.34,14.95,17,29.72,25.39,44.64,1.37,2.43,2.94,3.05,5.54,3,16.48-.08,33-.08,49.45.09,2.89,0,4.42-.95,5.83-3.41q12.38-21.65,25.09-43.1c1.41-2.38,1.75-4.23.24-6.81-8.48-14.49-16.67-29.14-25.21-43.59a7.48,7.48,0,0,0-5.3-3.09C951.58,282.38,943.25,282.56,934.92,282.56Zm178.53.07v-.16c-8.33,0-16.66.1-25-.06-2.78-.05-4.46.69-5.93,3.27-8.31,14.59-16.91,29-25.19,43.61a6.88,6.88,0,0,0-.12,5.7q12.49,22.44,25.53,44.56a6.86,6.86,0,0,0,5,2.88q25.21.36,50.45.08a6.83,6.83,0,0,0,5-2.76q13.08-21.81,25.6-43.95a6.76,6.76,0,0,0,.12-5.63q-12.46-22.44-25.49-44.57a6.94,6.94,0,0,0-5-2.84C1130.1,282.46,1121.77,282.63,1113.45,282.63ZM490.53,435.08v.21c8.15,0,16.31-.11,24.46.06,2.82.06,4.48-.72,5.94-3.28,8.32-14.58,16.91-29,25.2-43.59a6.21,6.21,0,0,0,0-5.18c-8.35-14.94-17-29.73-25.37-44.64-1.38-2.45-2.9-3.54-5.82-3.54-16.48,0-33-.24-49.43-.14a6.83,6.83,0,0,0-5,2.76q-13.2,22-25.85,44.35a6.29,6.29,0,0,0,0,5.25q12.51,22.41,25.52,44.54a7.52,7.52,0,0,0,5.38,3.06C473.88,435.27,482.21,435.08,490.53,435.08Zm533-.59v.14c8.49,0,17,.12,25.47-.11,1.64,0,4-1,4.76-2.28q13.31-22.26,26.11-44.81a5.83,5.83,0,0,0,0-4.87q-12.78-22.85-26-45.45a5.9,5.9,0,0,0-4.2-2.48q-25.47-.39-51-.27a6.39,6.39,0,0,0-4.67,2.56q-13.3,22.26-26.1,44.82a6.38,6.38,0,0,0,0,5.29c8.27,14.8,16.82,29.44,25.13,44.21,1.43,2.54,3.11,3.37,5.93,3.31C1007.22,434.38,1015.38,434.49,1023.54,434.49ZM936,490.62v-.08c-8.49,0-17-.16-25.46.13a6.92,6.92,0,0,0-4.91,2.83c-8.72,14.53-17.29,29.16-25.59,43.93a8,8,0,0,0,.2,6.6c8,14.54,16.45,28.87,24.55,43.37,1.46,2.61,3.19,3.23,6,3.22,16.31-.08,32.62-.08,48.93.09,3,0,4.75-.81,6.29-3.52q12.46-21.87,25.36-43.49c1.49-2.51,1.38-4.32-.06-6.79q-12.43-21.3-24.5-42.83c-1.53-2.74-3.29-3.59-6.3-3.52C952.33,490.74,944.17,490.62,936,490.62Zm-89.34,51.87v-.28c-8.33,0-16.66-.21-25,.15a8.16,8.16,0,0,0-5.76,3.27q-13.14,21.78-25.62,43.94a6.78,6.78,0,0,0-.08,5.66q12.24,22,25,43.69a8,8,0,0,0,5.74,3.29c16.48.32,33,.18,49.45.4,2.92,0,4.47-1,5.86-3.41,8.44-14.71,17.08-29.3,25.44-44.05a6.76,6.76,0,0,0,.08-5.6c-8.16-14.68-16.65-29.16-24.84-43.82-1.45-2.59-3.09-3.35-5.88-3.29C863,542.59,854.83,542.49,846.68,542.49Zm177-311.86v-.16c-8.32,0-16.64.11-25-.07-2.69-.06-4.13.81-5.47,3.14-8.34,14.56-16.94,29-25.21,43.57a6.87,6.87,0,0,0,0,5.73q12.48,22.43,25.52,44.54a7.38,7.38,0,0,0,5.28,3.1c16.47.24,32.95.09,49.43.22a5.77,5.77,0,0,0,5.85-3.34q12.36-21.64,25.08-43.07c1.53-2.58,1.78-4.53.19-7.25-8.4-14.33-16.49-28.85-24.94-43.15a7.47,7.47,0,0,0-5.3-3.11C1040.68,230.45,1032.19,230.63,1023.7,230.63ZM133.51,330.79v.52c8.17,0,16.34-.13,24.5.07,3,.08,4.82-.78,6.36-3.49q12.48-21.9,25.35-43.57c1.47-2.47,1.43-4.26,0-6.71q-12.47-21.33-24.55-42.88c-1.54-2.76-3.31-3.54-6.3-3.55-16.16,0-32.33-.11-48.49-.43-3.26-.06-5.07.88-6.7,3.74q-12.45,21.9-25.34,43.57c-1.36,2.29-1.5,3.9-.11,6.28,8.39,14.36,16.5,28.89,25,43.22a7.51,7.51,0,0,0,5.33,3.08C116.84,331,125.18,330.79,133.51,330.79ZM223.13,74.92V74.7c-8.32,0-16.66.17-25-.08-3.13-.1-4.71,1-6.2,3.66q-12.1,21.24-24.57,42.27c-1.43,2.42-1.63,4.19-.14,6.74q12.85,22,25.3,44.15c1.39,2.48,2.91,3.51,5.81,3.51,16.33,0,32.65.28,49,.17a7.38,7.38,0,0,0,5.37-3q13.13-21.8,25.65-44a7.44,7.44,0,0,0,.08-6.16c-8.13-14.69-16.62-29.19-24.84-43.83-1.43-2.55-3.15-3.36-6-3.3C239.46,75,231.3,74.92,223.13,74.92Zm87.68-55.77v.33c8.16,0,16.33.18,24.47-.14a7.56,7.56,0,0,0,5.36-3q13.64-22.66,26.67-45.66a6.34,6.34,0,0,0,0-5.27Q355.15-56.4,342.51-77.9A6.37,6.37,0,0,0,338-80.65q-25.49-.48-51-.37a6.9,6.9,0,0,0-5,2.85q-13.19,22-25.85,44.4a6.82,6.82,0,0,0-.1,5.69q12.36,22.21,25.3,44.13a7.52,7.52,0,0,0,5.43,3C294.81,19.34,302.81,19.15,310.81,19.15ZM667.21-81.29v-.07c-8,0-16,.14-24-.08-3-.08-4.82.72-6.36,3.43-8.15,14.3-16.6,28.43-24.66,42.78a8,8,0,0,0-.19,6.64c8.2,14.84,16.79,29.46,25.1,44.25,1.36,2.41,2.91,3.07,5.53,3.06,16.66-.09,33.32.08,50-.1a6.86,6.86,0,0,0,5-2.73q13.1-21.81,25.64-44a6.81,6.81,0,0,0-.08-5.67q-12.49-22.45-25.52-44.59a6.91,6.91,0,0,0-5-2.83C684.2-81.45,675.7-81.29,667.21-81.29ZM312.42,438.79v-.14c-8.16,0-16.33.1-24.49,0-2.75-.05-4.5.58-6,3.18Q269.5,463.7,256.6,485.35c-1.4,2.36-1.24,4,.08,6.28q12.68,21.78,25,43.75a5.82,5.82,0,0,0,5.87,3.42q24.75-.1,49.49.21a5.8,5.8,0,0,0,5.88-3.39q12.36-21.68,25.12-43.13c1.37-2.3,1.45-3.91.08-6.27q-12.84-22-25.3-44.17c-1.45-2.57-3.11-3.38-5.93-3.32C328.76,438.89,320.59,438.79,312.42,438.79Zm622.17,47.15v.38c8.16,0,16.33-.12,24.49.06,2.82.06,4.5-.72,6-3.28,8.34-14.58,17-29,25.23-43.63a6.9,6.9,0,0,0,.13-5.76q-12.51-22.45-25.56-44.59a7,7,0,0,0-5-2.95q-25.23-.48-50.48-.31a6.31,6.31,0,0,0-4.62,2.55q-13.06,21.85-25.61,44a6.84,6.84,0,0,0,.06,5.7q12.49,22.45,25.55,44.6a7.55,7.55,0,0,0,5.32,3.1C918.25,486.13,926.42,485.94,934.59,485.94ZM489.71-81.26v-.08c-8.5,0-17-.12-25.49.11a6.45,6.45,0,0,0-4.71,2.4Q446.19-56.55,433.37-34a5.79,5.79,0,0,0,0,4.82q12.68,22.64,25.78,45a6.35,6.35,0,0,0,4.56,2.71q25.5.34,51,.1a6.85,6.85,0,0,0,4.94-2.89Q532.55-5.84,545-27.78a6.82,6.82,0,0,0,.1-5.66Q532.56-55.88,519.51-78a7.53,7.53,0,0,0-5.31-3.09C506.05-81.45,497.87-81.26,489.71-81.26Zm88,48v.15c8.49,0,17,.16,25.49-.13a7,7,0,0,0,5-2.84Q621.38-58.2,634-80.56a6.22,6.22,0,0,0,.07-5.2Q621.69-108,608.77-129.9a7.38,7.38,0,0,0-5.23-3.23q-25.24-.41-50.49-.1a7.44,7.44,0,0,0-5.3,3.11Q534.91-108.73,522.64-87a6.76,6.76,0,0,0-.14,5.63q12.6,22.68,25.75,45.06a7,7,0,0,0,5,2.87C561.35-33.15,569.52-33.31,577.69-33.31Zm90.47,675.82v.08c8.33,0,16.66-.1,25,.06,2.78.05,4.46-.64,5.93-3.22q12.21-21.48,24.85-42.71c1.42-2.4,1.65-4.17.15-6.73q-12.87-22-25.28-44.18c-1.45-2.59-3.12-3.32-5.92-3.31q-24.24,0-48.49-.25c-3,0-4.81.71-6.37,3.45q-12.46,21.9-25.37,43.56c-1.38,2.33-1.29,4,0,6.28q12.67,21.78,25,43.76c1.46,2.61,3.18,3.31,6,3.26C651.83,642.41,660,642.51,668.16,642.51ZM578.37,174.7v.23c8.49,0,17,.16,25.48-.13a7,7,0,0,0,5-2.76Q622,150.23,634.51,128.1a6.36,6.36,0,0,0,.08-5.31q-12.65-22.65-25.8-45a6.93,6.93,0,0,0-5-2.87q-25.22-.37-50.46-.14a6.37,6.37,0,0,0-4.56,2.66q-13,21.84-25.58,44a7.45,7.45,0,0,0,0,6.18q12.36,22.23,25.32,44.12a6.87,6.87,0,0,0,4.89,2.86C561.71,174.86,570,174.7,578.37,174.7ZM401.12,382.64v.11c8.33,0,16.67.19,25-.14a7.56,7.56,0,0,0,5.33-3.09q13-21.61,25.35-43.57a6.8,6.8,0,0,0,.07-5.62q-12.5-22.47-25.52-44.62a6.87,6.87,0,0,0-4.91-2.94q-25.23-.33-50.48,0a6.91,6.91,0,0,0-5,2.82q-13.08,21.84-25.63,44a6.22,6.22,0,0,0-.06,5.2c8.36,15,17,29.74,25.39,44.69,1.48,2.65,3.22,3.27,6,3.23C384.79,382.55,393,382.64,401.12,382.64ZM134.36,227.5v.08c8.17,0,16.33-.1,24.49.06,2.78.05,4.47-.66,5.94-3.26,8.3-14.59,16.89-29,25.19-43.63a6.24,6.24,0,0,0,.14-5.19q-12.65-22.65-25.79-45a6.89,6.89,0,0,0-5-2.85q-25-.4-50-.16a7.46,7.46,0,0,0-5.38,3q-13,21.6-25.33,43.55a6.75,6.75,0,0,0-.13,5.61Q91,202.19,104,224.33a7.49,7.49,0,0,0,5.35,3C117.7,227.69,126,227.5,134.36,227.5ZM668,434.36v.22c8.15,0,16.31-.14,24.47.07a5.73,5.73,0,0,0,5.86-3.34q12.39-21.65,25.11-43.08c1.59-2.68,1.41-4.65-.1-7.24-8.37-14.36-16.48-28.87-24.93-43.17a7.43,7.43,0,0,0-5.28-3.17c-16.64-.4-33.29-.38-49.93-.68-3-.06-4.41,1.06-5.8,3.5-8.26,14.42-16.75,28.71-24.94,43.16a6.77,6.77,0,0,0-.09,5.62c8.32,15,17,29.73,25.32,44.67,1.54,2.77,3.37,3.56,6.34,3.5C652,434.25,660,434.36,668,434.36ZM845.12,329.83v.36c8.32,0,16.65.18,25-.14a7.57,7.57,0,0,0,5.36-3.05c8.65-14.38,16.95-29,25.5-43.41a5.31,5.31,0,0,0,0-6.26q-12.81-22-25.23-44.14c-1.42-2.54-3-3.39-5.9-3.37-16.47.1-33-.1-49.43.1a7.4,7.4,0,0,0-5.37,3Q802.21,254.26,790,276a7.31,7.31,0,0,0-.12,6.1q12.45,22.44,25.53,44.54a7.46,7.46,0,0,0,5.3,3.08C828.8,330,837,329.83,845.12,329.83Zm-266-51.22v0c8.16,0,16.31-.08,24.47.05,2.56,0,4.12-.54,5.52-3q12.43-21.88,25.36-43.5c1.51-2.54,1.32-4.38-.09-6.8q-12.66-21.76-25-43.69c-1.33-2.36-2.81-3.14-5.49-3.13-16.64.1-33.29-.1-49.93.1a7.33,7.33,0,0,0-5.32,3Q535.74,203,523.49,224.73a7.38,7.38,0,0,0-.19,6.11q12.44,22.46,25.52,44.55a7.5,7.5,0,0,0,5.31,3.08C562.44,278.79,570.78,278.61,579.1,278.61ZM845.18,226.4v.23c8.17,0,16.33-.11,24.49.07a5.77,5.77,0,0,0,5.92-3.31q12.61-22.11,25.6-44c1.36-2.3,1.47-3.93.1-6.29-8.39-14.37-16.5-28.89-25-43.21a7.39,7.39,0,0,0-5.29-3.11q-25-.41-50-.11a7.38,7.38,0,0,0-5.31,3.08q-13.12,21.8-25.66,43.95a7.42,7.42,0,0,0,0,6.2q12.08,21.82,24.79,43.29a7.51,7.51,0,0,0,5.36,3.07C828.51,226.59,836.85,226.4,845.18,226.4ZM312.07,126.84v-.2c-8.33,0-16.66-.16-25,.13a7,7,0,0,0-5,2.77q-13.06,21.83-25.57,44a6.77,6.77,0,0,0,0,5.64Q269,201.58,282,223.72a6.86,6.86,0,0,0,4.93,2.93q25,.47,49.94.26a7.47,7.47,0,0,0,5.4-3.06c8.64-14.39,16.94-29,25.49-43.43a5.41,5.41,0,0,0,0-6.3c-8.52-14.65-16.8-29.45-25.42-44A7.53,7.53,0,0,0,337,127C328.72,126.65,320.39,126.84,312.07,126.84Zm-.35-3.4v.12c8.32,0,16.65.18,25-.13a7.52,7.52,0,0,0,5.39-2.92q13-21.57,25.38-43.49a6.88,6.88,0,0,0,.08-5.72q-12.62-22.65-25.78-45a6.28,6.28,0,0,0-4.51-2.71q-25.22-.47-50.44-.35a6.35,6.35,0,0,0-4.7,2.47Q268.81,48,256,70.53a5.77,5.77,0,0,0,0,4.84c8.46,15.07,17,30.07,25.84,44.94a7.49,7.49,0,0,0,5.38,3C295.39,123.62,303.56,123.44,311.72,123.44Zm356-100.71v-.08c-8.33,0-16.66-.16-25,.13a7,7,0,0,0-5,2.77q-13.07,21.81-25.6,43.94a6.81,6.81,0,0,0,0,5.69q12.5,22.42,25.53,44.55a6.8,6.8,0,0,0,4.9,2.85q25,.44,49.93.24a6.89,6.89,0,0,0,5-2.78q13.2-22,25.85-44.37a6.87,6.87,0,0,0-.06-5.73c-8.15-14.66-16.62-29.15-24.84-43.78-1.51-2.69-3.29-3.58-6.32-3.5C684,22.88,675.86,22.73,667.71,22.73Zm-178.5,99.81v.1c8.17,0,16.33-.13,24.5.07,3,.07,4.76-.79,6.3-3.51q12.33-21.7,25.11-43.14c1.37-2.31,1.43-3.92,0-6.27-8.55-14.66-16.83-29.47-25.45-44.08a7.38,7.38,0,0,0-5.36-3c-16.49-.3-33-.23-49.49-.41-2.81,0-4.53.71-6,3.26Q446.64,47.05,434,68.29a5.78,5.78,0,0,0,0,6.79q12.84,22,25.32,44.16a5.75,5.75,0,0,0,5.91,3.36C473.21,122.41,481.21,122.54,489.21,122.54Zm-177,312.13v.12c8.15,0,16.31-.11,24.47.06,2.8.06,4.51-.69,6-3.25,8.23-14.43,16.74-28.71,24.91-43.18a7.35,7.35,0,0,0,.13-6.1c-8.3-15-16.94-29.74-25.33-44.66-1.35-2.41-2.94-3.06-5.55-3-16.48.1-33-.05-49.44.14a6.87,6.87,0,0,0-5,2.79q-13.19,22-25.84,44.36a6.76,6.76,0,0,0,0,5.62q12.34,22.22,25.24,44.13a6.91,6.91,0,0,0,4.92,2.87C295.18,434.82,303.68,434.67,312.17,434.67Zm266.13-364v.16c8.5,0,17,.13,25.49-.11a6.49,6.49,0,0,0,4.68-2.51q13.18-22.06,25.88-44.41a5.79,5.79,0,0,0,0-4.85Q621.59-3.93,608.34-26.54a6.34,6.34,0,0,0-4.58-2.65q-25.25-.33-50.5-.07a6.32,6.32,0,0,0-4.5,2.77Q535.59-4.43,522.9,17.94a6.88,6.88,0,0,0,0,5.75q12.24,22,25.06,43.73a7.48,7.48,0,0,0,5.31,3.09C561.63,70.84,570,70.65,578.3,70.65ZM757.36,490.56v-.18c-8.17,0-16.34.13-24.5-.07-3-.07-4.76.89-6.29,3.58-8.16,14.31-16.61,28.45-24.71,42.79a7.35,7.35,0,0,0-.16,6.1q12.45,22.49,25.53,44.61a7.43,7.43,0,0,0,5.41,3c16.33.26,32.66.11,49,.33,3,0,4.4-1.17,5.76-3.54Q799.84,565.5,812.54,544c1.52-2.55,1.72-4.47.14-7.16-8.42-14.34-16.53-28.87-25-43.18a7.44,7.44,0,0,0-5.32-3C774,490.38,765.69,490.56,757.36,490.56ZM401.24,386.75v-.11c-8.17,0-16.34-.18-24.49.13a7.53,7.53,0,0,0-5.4,2.88q-13,21.59-25.4,43.53a7.48,7.48,0,0,0,0,6.21c8.23,14.84,16.8,29.49,25.11,44.28,1.34,2.37,2.86,3.13,5.52,3.12q24.5-.1,49,.16c2.78,0,4.52-.67,6-3.25C440,469,448.63,454.36,457,439.61a6.27,6.27,0,0,0,.22-5.23q-12.51-22.44-25.57-44.58a7.6,7.6,0,0,0-5.43-2.92C417.91,386.57,409.57,386.75,401.24,386.75ZM757,486.63v.13c8.33,0,16.67.18,25-.13a7.58,7.58,0,0,0,5.45-2.89q13-21.6,25.36-43.56a6.22,6.22,0,0,0,0-5.22q-12.76-22.87-26-45.47a6.35,6.35,0,0,0-4.54-2.68q-25.25-.31-50.49-.05a6.42,6.42,0,0,0-4.59,2.68Q714,411.52,701.3,433.87a5.71,5.71,0,0,0-.09,4.78q12.67,22.64,25.81,45a7,7,0,0,0,5,2.83C740.33,486.79,748.67,486.63,757,486.63ZM578.92,590.55v.05c8.33,0,16.66.17,25-.14a7.51,7.51,0,0,0,5.41-2.92q13.1-21.79,25.59-44a6.26,6.26,0,0,0,.09-5.2q-12.65-22.64-25.76-45a6.33,6.33,0,0,0-4.6-2.65q-25.23-.3-50.46,0a6.29,6.29,0,0,0-4.56,2.61q-13.17,22.05-25.86,44.38a6.87,6.87,0,0,0,0,5.73Q536.1,565.63,549,587.55a6.94,6.94,0,0,0,5,2.86C562.27,590.71,570.6,590.55,578.92,590.55Zm88.79-259.91v0c8.17,0,16.34-.15,24.49.08,3,.09,4.79-.81,6.31-3.48,8.16-14.3,16.58-28.45,24.68-42.79a6.81,6.81,0,0,0,.14-5.7q-12.62-22.66-25.82-45a7.39,7.39,0,0,0-5.36-3q-24.74-.36-49.48-.05a6.89,6.89,0,0,0-4.93,2.84q-13.08,21.83-25.61,44a6.87,6.87,0,0,0,0,5.7c8.26,14.82,16.82,29.47,25.15,44.25,1.3,2.3,2.66,3.3,5.41,3.23C651.05,330.51,659.38,330.64,667.71,330.64Zm-177,108.09v-.1c-8.33,0-16.66.09-25-.05-2.58,0-4.15.55-5.55,3-8.31,14.59-16.94,29-25.19,43.62a7.39,7.39,0,0,0,0,6.17q12.36,22.23,25.29,44.14a6.85,6.85,0,0,0,4.85,3q25,.39,50,.12a6.9,6.9,0,0,0,5-2.75Q533.49,513.6,546.29,491a5.75,5.75,0,0,0,0-4.8q-12.57-22.39-25.57-44.55a6.92,6.92,0,0,0-5-2.82C507.42,438.57,499.09,438.73,490.76,438.73ZM222.63,382.65v.18c8.5,0,17,.16,25.48-.13a7,7,0,0,0,5-2.82q13.08-21.81,25.62-44a6.27,6.27,0,0,0,0-5.24q-12.51-22.44-25.52-44.59A7.44,7.44,0,0,0,247.9,283q-24.74-.47-49.47-.23a7.35,7.35,0,0,0-5.21,3.18q-13.08,21.82-25.59,44a6.73,6.73,0,0,0-.17,5.6q12.36,22.25,25.27,44.16a6.92,6.92,0,0,0,4.92,2.83C206,382.81,214.31,382.65,222.63,382.65Zm267,259.52v.31c8.16,0,16.33-.12,24.49.06,2.81.06,4.5-.7,6-3.25q12.51-21.87,25.37-43.53c1.42-2.4,1.73-4.28.24-6.83-8.4-14.35-16.53-28.86-25-43.17a7.39,7.39,0,0,0-5.26-3.14q-24.48-.5-49-.28a7.48,7.48,0,0,0-5.48,2.91q-13.49,22.46-26.35,45.28a6.77,6.77,0,0,0,.06,5.62c7.91,14.25,16.15,28.32,24.1,42.54,1.53,2.76,3.37,3.59,6.35,3.53C473.29,642.06,481.46,642.17,489.62,642.17ZM846.06,538.6v.1c8.34,0,16.67.18,25-.13a7.63,7.63,0,0,0,5.44-2.94q13-21.58,25.38-43.54a6.28,6.28,0,0,0,0-5.23Q889.06,464,875.79,441.4a6.29,6.29,0,0,0-4.55-2.64q-25-.3-50,0a6.25,6.25,0,0,0-4.54,2.63q-13.19,22.06-25.87,44.41a6.84,6.84,0,0,0,0,5.72q12.36,22.23,25.28,44.16a6.93,6.93,0,0,0,5,2.83C829.4,538.76,837.73,538.6,846.06,538.6Zm-.57-104.5v.35c8,0,16-.1,24,.05,2.75.06,4.52-.58,6-3.16,8.49-14.87,17.24-29.59,25.7-44.48a6.32,6.32,0,0,0,.1-5.26q-12.54-22.41-25.58-44.53a6.88,6.88,0,0,0-5-2.77q-24.46-.48-48.95-.33a7.42,7.42,0,0,0-5.32,3.08c-8.73,14.54-17.13,29.27-25.76,43.87-1.31,2.23-1.52,3.86-.13,6.24q12.72,21.73,25,43.72c1.47,2.64,3.23,3.3,6,3.26C829.5,434,837.5,434.1,845.49,434.1ZM756.8,74.67v0c-8.16,0-16.32.12-24.48-.06a5.76,5.76,0,0,0-5.89,3.35c-8.24,14.44-16.76,28.72-24.94,43.2a7.35,7.35,0,0,0-.15,6.1q12.33,22.26,25.26,44.16a7.35,7.35,0,0,0,5.26,3.11q24.72.36,49.46,0a6.87,6.87,0,0,0,4.92-2.91q13.18-22,25.84-44.41a6.82,6.82,0,0,0,.09-5.69c-8.16-14.67-16.65-29.16-24.88-43.8-1.34-2.38-2.85-3.14-5.51-3.09C773.46,74.78,765.13,74.67,756.8,74.67Zm-355.41.68V75c-8.16,0-16.33.14-24.48-.07-2.94-.08-4.5,1-5.9,3.44q-12.54,21.84-25.36,43.52c-1.47,2.48-1.41,4.24,0,6.69q12.56,21.52,24.77,43.27c1.38,2.45,2.81,3.58,5.77,3.57,16.15-.09,32.31.15,48.46,0a7.38,7.38,0,0,0,5.37-3q13.36-22.22,26.15-44.78a6.31,6.31,0,0,0,0-5.24c-8.19-14.65-16.68-29.14-24.9-43.77a5.74,5.74,0,0,0-5.9-3.35C417.37,75.45,409.38,75.35,401.39,75.35ZM311.74,330.66v.16c8.33,0,16.66.16,25-.13a6.94,6.94,0,0,0,5-2.76q13.21-22,25.89-44.37a6.42,6.42,0,0,0,.11-5.32q-12.61-22.65-25.73-45a5.84,5.84,0,0,0-4.2-2.44q-25-.27-49.95,0a6.37,6.37,0,0,0-4.66,2.56q-13.41,22.49-26.34,45.26a6.35,6.35,0,0,0,0,5.31q12.27,22,25.07,43.69a7.5,7.5,0,0,0,5.38,2.95C295.42,330.84,303.58,330.66,311.74,330.66Zm89.88,160.07v-.1c-8.16,0-16.33-.18-24.48.14a7.49,7.49,0,0,0-5.38,2.94q-13.12,21.78-25.64,43.94a7.45,7.45,0,0,0,0,6.18q12.19,22,25,43.72a6.88,6.88,0,0,0,4.87,3q25,.4,50,.15a6.38,6.38,0,0,0,4.56-2.72q13.29-22.28,26.1-44.83a6.86,6.86,0,0,0,0-5.71C448.5,522.93,440.1,508.59,432,494.1c-1.41-2.5-2.95-3.51-5.85-3.44C417.94,490.86,409.78,490.73,401.62,490.73Zm266.17,47.82v.07c8.16,0,16.32-.1,24.48,0,2.77.06,4.48-.64,5.94-3.22,8.4-14.73,17.08-29.31,25.44-44.06a6.86,6.86,0,0,0,.14-5.69q-12.35-22.23-25.25-44.16a6.89,6.89,0,0,0-5-2.84c-16.31-.28-32.64-.2-49-.41-2.91,0-4.47,1-5.88,3.45-8.43,14.71-17.11,29.29-25.45,44.06a7.42,7.42,0,0,0,0,6.15c8.06,14.55,16.47,28.89,24.59,43.4,1.45,2.59,3.17,3.31,5.95,3.25C651.8,538.45,659.79,538.55,667.79,538.55ZM490.63,230.89v-.19c-8,0-16,.15-24-.08-3.18-.08-5.08.74-6.73,3.66q-12.41,21.91-25.31,43.57a5.31,5.31,0,0,0,0,6.25c8.45,14.51,16.67,29.16,25.19,43.63a6.87,6.87,0,0,0,4.87,3q24.74.5,49.48.35a6.91,6.91,0,0,0,5-2.86q13.33-22.26,26.14-44.82a6.31,6.31,0,0,0,.12-5.27Q533,255.91,520,234a7.56,7.56,0,0,0-5.43-3C506.63,230.71,498.62,230.89,490.63,230.89Zm-267-51.37v-.24c-8.16,0-16.33-.18-24.49.14a7.58,7.58,0,0,0-5.42,2.91Q180.53,204.13,168,226.28a7,7,0,0,0-.18,5.78q12.48,22.45,25.53,44.61a6.31,6.31,0,0,0,4.57,2.64q24.75.31,49.49.06a6.91,6.91,0,0,0,5-2.83q13.2-22.05,25.86-44.43a7.42,7.42,0,0,0,0-6.17c-8-14.4-16.35-28.59-24.38-43-1.54-2.77-3.33-3.56-6.31-3.5C239.59,179.64,231.58,179.52,223.58,179.52Zm266.08,47.12v.05c8.32,0,16.65.14,25-.12a6.45,6.45,0,0,0,4.69-2.51q13.3-22.26,26.1-44.83a6.35,6.35,0,0,0,0-5.29q-12.54-22.41-25.56-44.55a6.29,6.29,0,0,0-4.54-2.63q-25-.35-50-.11a6.36,6.36,0,0,0-4.54,2.71q-13.28,22.27-26.08,44.84a6.77,6.77,0,0,0,0,5.64q12.25,22,25.05,43.71a7.51,7.51,0,0,0,5.38,2.95C473.33,226.82,481.5,226.64,489.66,226.64Zm-88.75-256v-.13c-8.15,0-16.32-.16-24.46.13a7,7,0,0,0-5.07,2.7c-9,15-17.73,30.05-26.4,45.2a5.24,5.24,0,0,0,0,4.38q12.71,22.61,25.8,45a6.35,6.35,0,0,0,4.6,2.62q25,.32,49.93.06a6.33,6.33,0,0,0,4.58-2.59Q443.16,45.7,456,23.16a6.26,6.26,0,0,0,0-5.22q-12.39-22.18-25.29-44.1a7.51,7.51,0,0,0-5.29-3.1C417.23-29.59,409.07-29.4,400.91-29.4ZM578.75,486.84v.28c8.16,0,16.33.18,24.48-.13a7.57,7.57,0,0,0,5.4-2.93c8.75-14.53,17.14-29.28,25.81-43.86,1.5-2.52,1.35-4.37-.07-6.81q-12.43-21.33-24.55-42.85a6.23,6.23,0,0,0-6.27-3.63c-15.82.08-31.65.06-47.47-.23-3.55-.07-5.31,1.23-7,4.14q-12.23,21.45-24.87,42.66c-1.62,2.71-1.43,4.61.08,7.2q12.43,21.33,24.51,42.87a5.8,5.8,0,0,0,5.94,3.35C562.76,486.73,570.76,486.84,578.75,486.84Zm.63-204.34v-.25c-7.67,0-15.34.2-23-.09-3.6-.14-5.69.91-7.51,4.12q-12,21.29-24.56,42.28c-1.64,2.75-1.86,4.8-.17,7.68q12.51,21.3,24.54,42.87a5.84,5.84,0,0,0,5.89,3.42c16.16-.08,32.32.14,48.48,0a7.42,7.42,0,0,0,5.4-3q13.24-22,25.89-44.39a6.89,6.89,0,0,0-.08-5.74Q622,307.4,609.2,285.7a7.52,7.52,0,0,0-5.34-3.06C595.71,282.31,587.54,282.5,579.38,282.5ZM756.13,382.64v.05c8.16,0,16.32-.14,24.47.07,2.9.08,4.44-.94,5.85-3.39,8.34-14.56,16.92-29,25.17-43.61a7.36,7.36,0,0,0,.12-6.09q-12.21-22-25-43.69a7.39,7.39,0,0,0-5.21-3.2q-24.46-.42-48.94-.13a7.51,7.51,0,0,0-5.44,2.92c-8.82,14.67-17.4,29.48-25.86,44.37a6.23,6.23,0,0,0,0,5.19q12.51,22.42,25.53,44.55a6.88,6.88,0,0,0,4.92,2.83C739.81,382.8,748,382.64,756.13,382.64Zm-88-255.93v-.07c-8.34,0-16.67-.13-25,.11a6.47,6.47,0,0,0-4.71,2.43Q625,151.66,612,174.45a5.74,5.74,0,0,0,0,4.83q12.57,22.41,25.6,44.57a6.85,6.85,0,0,0,5,2.72q24.24.41,48.5.19a7.44,7.44,0,0,0,5.38-3q13.37-22.25,26.13-44.85a6.75,6.75,0,0,0,.09-5.63q-12.12-21.81-24.8-43.31a7.46,7.46,0,0,0-5.31-3.07C684.5,126.53,676.32,126.71,668.16,126.71Zm87.73,151.23v.38c8,0,16-.13,24,.07,3,.07,4.82-.73,6.38-3.46q12.48-21.87,25.36-43.5c1.49-2.51,1.32-4.38-.1-6.82Q799.07,203.3,787,181.79c-1.39-2.47-2.9-3.49-5.81-3.49q-24,0-47.94-.41c-2.83,0-4.53.73-6,3.26-8.49,14.87-17.22,29.6-25.66,44.49a6.75,6.75,0,0,0-.14,5.61c8.07,14.54,16.45,28.89,24.58,43.38a5.8,5.8,0,0,0,5.92,3.37C739.9,277.83,747.9,277.94,755.89,277.94Z" transform="translate(17.79 189.86)"/><path class="cls-4" d="M609.71,697.64c9.51-16.39,18.94-32.82,28.65-49.08.91-1.52,3.58-2.78,5.45-2.8,17.15-.18,34.3-.12,51.44,0a5.77,5.77,0,0,0,5.85-3.35c8.67-15.15,17.6-30.15,26.26-45.3,1.52-2.67,3.21-3.61,6.26-3.58q24,.24,47.94,0a5.8,5.8,0,0,1,5.86,3.38c8.47,15.07,17.17,30,25.63,45.08,1.49,2.67,3.17,3.63,6.23,3.6q25.72-.21,51.44.09c1.76,0,4.29,1.12,5.11,2.52,9.37,15.89,18.48,31.93,27.64,47.94a4.38,4.38,0,0,1,.24,1.43Z" transform="translate(17.79 189.86)"/><path class="cls-4" d="M937.13,72.55c-8.33,0-16.66-.1-25,.06-2.79,0-4.48-.69-5.92-3.26q-12.33-22-25.06-43.73c-1.5-2.56-1.27-4.36.16-6.77Q894-2.62,906.41-24.28a5.77,5.77,0,0,1,5.88-3.36q25.23.27,50.48.14c2.73,0,4.13.89,5.44,3.21C976.54-9.51,985.1,5.14,993.35,20a6.85,6.85,0,0,1-.13,5.72q-12.56,22.14-25.65,44a7,7,0,0,1-5,2.85c-8.49.29-17,.13-25.49.13Z" transform="translate(17.79 189.86)"/><path class="cls-4" d="M44.89,279.13c-8.49,0-17,.16-25.48-.14a7,7,0,0,1-5-2.88Q1.37,254-11.12,231.53a6.37,6.37,0,0,1,.06-5.3Q1.65,203.9,14.83,181.86a6.86,6.86,0,0,1,5-2.86q25.47-.13,51,.36a6.87,6.87,0,0,1,4.89,3q12.9,21.91,25.27,44.14a6.22,6.22,0,0,1,0,5.2q-12.81,22.55-26.12,44.81a7,7,0,0,1-5,2.8c-8.31.29-16.65.13-25,.13Z" transform="translate(17.79 189.86)"/><path class="cls-4" d="M757.68-28.75c8.32,0,16.66-.19,25,.14a7.53,7.53,0,0,1,5.28,3.15Q800.76-3.78,813,18.23a6.82,6.82,0,0,1-.14,5.64c-8.45,14.9-17.18,29.63-25.7,44.48-1.31,2.29-2.71,3.26-5.46,3.21-16.65-.29-33.3-.28-50-.67a7.43,7.43,0,0,1-5.28-3.17q-13-21.88-25.33-44.11a6.87,6.87,0,0,1,0-5.73Q713.7-4.25,726.81-26A7.52,7.52,0,0,1,732.2-29c8.48-.32,17-.14,25.48-.14Z" transform="translate(17.79 189.86)"/><path class="cls-4" d="M223.33-132.64c8.16,0,16.32.12,24.48-.06,3-.07,4.74.84,6.26,3.56q12,21.55,24.53,42.85a5.75,5.75,0,0,1,0,6.71Q265.72-57.92,253.2-36.07c-1.49,2.61-3.08,3.75-6.21,3.7q-24.47-.42-48.94-.36c-3.07,0-4.77-1.05-6.26-3.71Q179.58-58.17,167-79.7c-1.43-2.44-1.59-4.29-.09-6.8,8.57-14.44,16.89-29,25.55-43.41a7.54,7.54,0,0,1,5.4-3c8.48-.32,17-.14,25.46-.14Z" transform="translate(17.79 189.86)"/><path class="cls-4" d="M578.58,694c-8.16,0-16.32-.11-24.47.06-3,.07-4.81-.81-6.34-3.54q-12-21.54-24.51-42.85a5.76,5.76,0,0,1,0-6.76q13-21.87,25.57-44c1.46-2.56,3.2-3.26,6-3.22q24.48.4,48.95.47c3,0,4.75.87,6.27,3.59q12,21.53,24.54,42.82c1.58,2.71,1.83,4.73.11,7.6Q622,669.38,609.81,690.85c-1.51,2.65-3.18,3.69-6.26,3.61-8.32-.23-16.64-.08-25-.08Z" transform="translate(17.79 189.86)"/><path class="cls-4" d="M756.45-33.11c-8.33,0-16.66.18-25-.14a7.56,7.56,0,0,1-5.37-3.06Q713.28-58,701.09-80a7.39,7.39,0,0,1,.1-6.17c8.26-14.61,16.86-29,25.23-43.59,1.38-2.39,2.78-3.6,5.78-3.56,16.64.22,33.3.09,49.95.39a7.43,7.43,0,0,1,5.32,3.12q12.91,21.9,25.26,44.15a6.74,6.74,0,0,1,.06,5.61c-8.34,14.76-17,29.35-25.4,44.08-1.44,2.51-3.12,3.36-6,3.3-8.32-.19-16.65-.07-25-.07Z" transform="translate(17.79 189.86)"/><path class="cls-4" d="M668.14-184.94c8.33,0,16.67-.19,25,.15a7.54,7.54,0,0,1,5.34,3.13q12.71,21.47,24.79,43.31a8,8,0,0,1-.1,6.61c-8.25,14.64-16.87,29.07-25.22,43.65-1.42,2.48-2.93,3.49-5.85,3.44-16.66-.28-33.33-.26-50-.6a7,7,0,0,1-5-2.87Q624.17-110,611.81-132.29a7.43,7.43,0,0,1,.11-6.17Q624.31-160.4,637.3-182a7.5,7.5,0,0,1,5.34-3c8.49-.33,17-.14,25.5-.14Z" transform="translate(17.79 189.86)"/><path class="cls-4" d="M934.88,694.22c-8.15,0-16.32-.11-24.47.06-3,.07-4.83-.78-6.36-3.51Q891.87,669,879.29,647.48a5.3,5.3,0,0,1,0-6.27q13-21.87,25.58-44c1.43-2.5,3.1-3.37,6-3.32,16.65.27,33.3.26,49.95.61a6.84,6.84,0,0,1,4.91,2.88q13,22.11,25.56,44.54a6.29,6.29,0,0,1,0,5.25q-12.68,22.34-25.86,44.38a7,7,0,0,1-5,2.76c-8.49.28-17,.12-25.48.12Z" transform="translate(17.79 189.86)"/><path class="cls-4" d="M934.4,278.38c-8.32,0-16.66.18-25-.13a7.5,7.5,0,0,1-5.43-2.92q-13.07-22.11-25.5-44.58a6.21,6.21,0,0,1,.14-5.18q12.69-22.33,25.87-44.37a7.44,7.44,0,0,1,5.4-3c16.65-.11,33.3.18,50,.14,3,0,4.43,1.14,5.79,3.57q12.11,21.51,24.51,42.85c1.52,2.61,1.66,4.55.07,7.22q-12.75,21.42-25.09,43.08c-1.53,2.68-3.2,3.67-6.27,3.59-8.15-.22-16.31-.08-24.47-.08Z" transform="translate(17.79 189.86)"/><path class="cls-4" d="M1024.63,642.55c-8.33,0-16.66.18-25-.13a7.55,7.55,0,0,1-5.42-2.89Q981.3,617.65,969,595.41a7.44,7.44,0,0,1,.18-6.17q12.39-21.91,25.37-43.5a7.36,7.36,0,0,1,5.23-3.16q25.21-.29,50.44.15a7.38,7.38,0,0,1,5.3,3.11q12.81,21.66,25,43.69a7.35,7.35,0,0,1,0,6.12c-8.23,14.63-16.83,29.05-25.14,43.63-1.55,2.72-3.33,3.52-6.33,3.44-8.15-.22-16.31-.08-24.47-.08Z" transform="translate(17.79 189.86)"/><path class="cls-4" d="M223.12,490.62c8.33,0,16.66.1,25-.06,2.79-.05,4.46.71,5.9,3.29q12.18,21.75,24.77,43.28c1.39,2.38,1.62,4.17.12,6.7Q266,565.47,253.53,587.36c-1.41,2.45-3,3.43-5.86,3.4q-25-.27-50-.1c-2.72,0-4.12-.88-5.42-3.2-8.34-14.77-16.9-29.41-25.16-44.22a6.89,6.89,0,0,1,0-5.74q12.66-22.35,25.86-44.39a6.47,6.47,0,0,1,4.69-2.46c8.48-.24,17-.11,25.47-.11Z" transform="translate(17.79 189.86)"/><path class="cls-4" d="M222.65,486.54c-8.49,0-17,.15-25.47-.13a6.94,6.94,0,0,1-5-2.84q-12.91-21.9-25.27-44.13a6.9,6.9,0,0,1,.06-5.76q12.66-22.35,25.87-44.37a6.88,6.88,0,0,1,5-2.73q25.22-.22,50.44.16a6.89,6.89,0,0,1,5,2.83q13,22.13,25.5,44.57a6.22,6.22,0,0,1,.12,5.2q-12.69,22.32-25.87,44.36a6.91,6.91,0,0,1-4.95,2.8c-8.48.28-17,.13-25.47.13Z" transform="translate(17.79 189.86)"/><path class="cls-4" d="M1113.73,178.73c8.33,0,16.66.13,25-.07,2.73-.07,4.15.91,5.44,3.21,8.25,14.63,16.71,29.13,24.87,43.8a6.81,6.81,0,0,1,.15,5.65q-12.64,22.35-25.86,44.38a7.41,7.41,0,0,1-5.39,3q-25,.26-49.94-.18a7.32,7.32,0,0,1-5.29-3c-8.62-14.6-16.9-29.4-25.47-44-1.41-2.4-1.18-4,.15-6.26,8.47-14.3,16.87-28.65,25.08-43.11,1.55-2.72,3.3-3.58,6.31-3.51,8.32.19,16.65.07,25,.07Z" transform="translate(17.79 189.86)"/><path class="cls-4" d="M133.68,334.64c8.32,0,16.64.09,25-.05,2.75,0,4.5.59,6,3.22q12.15,21.75,24.74,43.26c1.44,2.47,1.52,4.31,0,6.81-8.65,14.57-17,29.29-25.77,43.83a6.86,6.86,0,0,1-5,2.81q-25.22.28-50.42-.06a7.39,7.39,0,0,1-5.26-3.15c-8.53-14.45-16.73-29.09-25.18-43.59-1.43-2.44-1.51-4.28,0-6.75q12.72-21.44,25.09-43.07c1.42-2.48,3-3.45,5.88-3.38,8.31.2,16.64.07,25,.07Z" transform="translate(17.79 189.86)"/><path class="cls-4" d="M845.88,122.71c-8.33,0-16.67-.14-25,.08-2.92.08-4.42-1-5.8-3.43-8.16-14.5-16.55-28.87-24.63-43.4a6.81,6.81,0,0,1-.06-5.67c8.45-14.91,17.2-29.64,25.72-44.51,1.35-2.35,2.87-3.11,5.54-3.07,16.66.22,33.33.16,50,.5A7.47,7.47,0,0,1,877,26.38q13,21.9,25.33,44.16a6.83,6.83,0,0,1-.17,5.71q-12.42,21.93-25.38,43.55a7.53,7.53,0,0,1-5.36,3c-8.49.32-17,.14-25.49.14Z" transform="translate(17.79 189.86)"/><path class="cls-4" d="M312.21,642.55c-8.33,0-16.65-.1-25,.06-2.77,0-4.49-.65-5.93-3.23q-12.32-22-25-43.71c-1.44-2.44-1.1-4,.2-6.26q12.79-21.69,25.32-43.54c1.41-2.47,3-3.45,5.87-3.42q25,.24,49.95.07c2.72,0,4.09.9,5.4,3.23q12.33,21.94,25,43.7c1.43,2.44,1.58,4.21.08,6.73Q355.36,617.62,343,639.27c-1.4,2.45-2.9,3.52-5.83,3.45-8.32-.22-16.65-.08-25-.08Z" transform="translate(17.79 189.86)"/><path class="cls-4" d="M222.28,70.7c-8.5,0-17-.11-25.49.07-2.7,0-4.09-.87-5.4-3.21q-12.21-21.75-24.78-43.29c-1.29-2.23-1.53-3.85-.1-6.25q13-21.85,25.61-44c1.38-2.42,2.86-3.49,5.8-3.46q24.74.27,49.46.06c2.91,0,4.43,1,5.81,3.44q12.36,22,25,43.73c1.42,2.45,1.59,4.26.09,6.79Q265.54,46,253.17,67.7c-1.45,2.56-3.11,3.35-5.91,3.29-8.33-.17-16.66-.06-25-.06Z" transform="translate(17.79 189.86)"/><path class="cls-4" d="M1202.05,330.66c-8.33,0-16.67.18-25-.14a7.44,7.44,0,0,1-5.3-3c-8.54-14.46-16.75-29.11-25.2-43.62a5.33,5.33,0,0,1,0-6.27q12.86-21.66,25.36-43.53c1.36-2.37,2.78-3.54,5.77-3.5,16.65.18,33.31.16,50,.06,2.64,0,4.15.7,5.5,3.09,8.31,14.78,16.91,29.4,25.14,44.23a7.38,7.38,0,0,1-.12,6.15q-12.39,21.93-25.37,43.52a7.46,7.46,0,0,1-5.29,3.07c-8.48.32-17,.14-25.47.14Z" transform="translate(17.79 189.86)"/><path class="cls-4" d="M132.7,18.77c-8.32,0-16.65-.12-25,.07-2.72.06-4.1-.9-5.41-3.23C94,.83,85.44-13.82,77.16-28.62a6.31,6.31,0,0,1,0-5.24Q89.85-56.18,103-78.24a6.87,6.87,0,0,1,4.9-2.93q25.48-.27,51,.1a6.4,6.4,0,0,1,4.66,2.58q13.14,22.36,25.78,45a6.35,6.35,0,0,1-.22,5.25c-8.39,14.74-16.88,29.42-25.64,43.94a8.13,8.13,0,0,1-5.8,3.2c-8.31.36-16.65.15-25,.15Z" transform="translate(17.79 189.86)"/><path class="cls-4" d="M400.76,278.91c-8.16,0-16.33-.11-24.49,0a5.7,5.7,0,0,1-5.87-3.36c-8.28-14.8-16.85-29.43-25.12-44.23a6.25,6.25,0,0,1,0-5.2q12.69-22.33,25.86-44.39a6.88,6.88,0,0,1,4.93-2.9q25-.18,50,.27a7,7,0,0,1,5,2.89q13.15,22.35,25.78,45a6.31,6.31,0,0,1,0,5.26q-12.56,22.13-25.62,44a7.54,7.54,0,0,1-5.39,2.94c-8.32.31-16.65.14-25,.14Z" transform="translate(17.79 189.86)"/><path class="cls-4" d="M934.92,282.56c8.33,0,16.66-.18,25,.15a7.48,7.48,0,0,1,5.3,3.09c8.54,14.45,16.73,29.1,25.21,43.59,1.51,2.58,1.17,4.43-.24,6.81q-12.69,21.46-25.09,43.1c-1.41,2.46-2.94,3.44-5.83,3.41-16.48-.17-33-.17-49.45-.09-2.6,0-4.17-.61-5.54-3-8.39-14.92-17-29.69-25.39-44.64a6.84,6.84,0,0,1,0-5.7q12.54-22.14,25.61-43.95a7,7,0,0,1,5-2.79c8.48-.28,17-.12,25.47-.12Z" transform="translate(17.79 189.86)"/><path class="cls-4" d="M1113.45,282.63c8.32,0,16.65-.17,25,.13a6.94,6.94,0,0,1,5,2.84q13,22.13,25.49,44.57a6.76,6.76,0,0,1-.12,5.63q-12.52,22.13-25.6,43.95a6.83,6.83,0,0,1-5,2.76q-25.23.27-50.45-.08a6.86,6.86,0,0,1-5-2.88q-13-22.12-25.53-44.56a6.88,6.88,0,0,1,.12-5.7c8.28-14.6,16.88-29,25.19-43.61,1.47-2.58,3.15-3.32,5.93-3.27,8.32.16,16.65.06,25,.06Z" transform="translate(17.79 189.86)"/><path class="cls-4" d="M490.53,435.08c-8.32,0-16.65.19-25-.14a7.52,7.52,0,0,1-5.38-3.06q-13.06-22.1-25.52-44.54a6.29,6.29,0,0,1,0-5.25q12.68-22.32,25.85-44.35a6.83,6.83,0,0,1,5-2.76c16.47-.1,33,.17,49.43.14,2.92,0,4.44,1.09,5.82,3.54,8.41,14.91,17,29.7,25.37,44.64a6.21,6.21,0,0,1,0,5.18c-8.29,14.59-16.88,29-25.2,43.59-1.46,2.56-3.12,3.34-5.94,3.28-8.15-.17-16.31-.06-24.46-.06Z" transform="translate(17.79 189.86)"/><path class="cls-4" d="M1023.54,434.49c-8.16,0-16.32-.11-24.48.06-2.82.06-4.5-.77-5.93-3.31C984.82,416.47,976.27,401.83,968,387a6.38,6.38,0,0,1,0-5.29q12.79-22.56,26.1-44.82a6.39,6.39,0,0,1,4.67-2.56q25.47-.14,51,.27a5.9,5.9,0,0,1,4.2,2.48q13.21,22.61,26,45.45a5.83,5.83,0,0,1,0,4.87Q1067,410,1053.77,432.24c-.77,1.28-3.12,2.24-4.76,2.28-8.49.23-17,.11-25.47.11Z" transform="translate(17.79 189.86)"/><path class="cls-4" d="M936,490.62c8.15,0,16.31.12,24.46-.06,3-.07,4.77.78,6.3,3.52q12,21.54,24.5,42.83c1.44,2.47,1.55,4.28.06,6.79Q978.47,565.33,966,587.19c-1.54,2.71-3.28,3.55-6.29,3.52-16.31-.17-32.62-.17-48.93-.09-2.76,0-4.49-.61-6-3.22-8.1-14.5-16.52-28.83-24.55-43.37a8,8,0,0,1-.2-6.6c8.3-14.77,16.87-29.4,25.59-43.93a6.92,6.92,0,0,1,4.91-2.83c8.48-.29,17-.13,25.46-.13Z" transform="translate(17.79 189.86)"/><path class="cls-4" d="M846.68,542.49c8.15,0,16.32.1,24.47,0,2.79-.06,4.43.7,5.88,3.29,8.19,14.66,16.68,29.14,24.84,43.82a6.76,6.76,0,0,1-.08,5.6c-8.36,14.75-17,29.34-25.44,44.05-1.39,2.42-2.94,3.45-5.86,3.41-16.48-.22-33-.08-49.45-.4a8,8,0,0,1-5.74-3.29q-12.85-21.64-25-43.69a6.78,6.78,0,0,1,.08-5.66q12.52-22.12,25.62-43.94a8.16,8.16,0,0,1,5.76-3.27c8.31-.36,16.64-.15,25-.15Z" transform="translate(17.79 189.86)"/><path class="cls-4" d="M1023.7,230.63c8.49,0,17-.18,25.46.15a7.47,7.47,0,0,1,5.3,3.11c8.45,14.3,16.54,28.82,24.94,43.15,1.59,2.72,1.34,4.67-.19,7.25q-12.7,21.43-25.08,43.07a5.77,5.77,0,0,1-5.85,3.34c-16.48-.13-33,0-49.43-.22a7.38,7.38,0,0,1-5.28-3.1q-13.05-22.1-25.52-44.54a6.87,6.87,0,0,1,0-5.73c8.27-14.59,16.87-29,25.21-43.57,1.34-2.33,2.78-3.2,5.47-3.14,8.32.18,16.64.07,25,.07Z" transform="translate(17.79 189.86)"/><path class="cls-4" d="M133.51,330.79c-8.33,0-16.67.18-25-.15a7.51,7.51,0,0,1-5.33-3.08c-8.46-14.33-16.57-28.86-25-43.22-1.39-2.38-1.25-4,.11-6.28q12.84-21.68,25.34-43.57c1.63-2.86,3.44-3.8,6.7-3.74,16.16.32,32.33.43,48.49.43,3,0,4.76.79,6.3,3.55q12,21.59,24.55,42.88c1.43,2.45,1.47,4.24,0,6.71Q176.87,306,164.37,327.89c-1.54,2.71-3.34,3.57-6.36,3.49-8.16-.2-16.33-.07-24.5-.07Z" transform="translate(17.79 189.86)"/><path class="cls-4" d="M223.13,74.92c8.17,0,16.33.1,24.49,0,2.81-.06,4.53.75,6,3.3,8.22,14.64,16.71,29.14,24.84,43.83a7.44,7.44,0,0,1-.08,6.16q-12.52,22.16-25.65,44a7.38,7.38,0,0,1-5.37,3c-16.32.11-32.64-.18-49-.17-2.9,0-4.42-1-5.81-3.51q-12.47-22.18-25.3-44.15c-1.49-2.55-1.29-4.32.14-6.74q12.47-21,24.57-42.27c1.49-2.61,3.07-3.76,6.2-3.66,8.32.25,16.66.08,25,.08Z" transform="translate(17.79 189.86)"/><path class="cls-4" d="M310.81,19.15c-8,0-16,.19-24-.14a7.52,7.52,0,0,1-5.43-3q-13-21.88-25.3-44.13a6.82,6.82,0,0,1,.1-5.69q12.66-22.35,25.85-44.4A6.9,6.9,0,0,1,287-81q25.47-.12,51,.37a6.37,6.37,0,0,1,4.52,2.75q12.64,21.51,24.8,43.28a6.34,6.34,0,0,1,0,5.27q-13.08,23-26.67,45.66a7.56,7.56,0,0,1-5.36,3c-8.14.32-16.31.14-24.47.14Z" transform="translate(17.79 189.86)"/><path class="cls-4" d="M667.21-81.29c8.49,0,17-.16,25.48.13a6.91,6.91,0,0,1,5,2.83q13,22.14,25.52,44.59a6.81,6.81,0,0,1,.08,5.67q-12.54,22.14-25.64,44a6.86,6.86,0,0,1-5,2.73c-16.65.18-33.31,0-50,.1-2.62,0-4.17-.65-5.53-3.06C628.81.87,620.22-13.75,612-28.59a8,8,0,0,1,.19-6.64c8.06-14.35,16.51-28.48,24.66-42.78,1.54-2.71,3.35-3.51,6.36-3.43,8,.22,16,.08,24,.08Z" transform="translate(17.79 189.86)"/><path class="cls-4" d="M312.42,438.79c8.17,0,16.34.1,24.5-.06,2.82-.06,4.48.75,5.93,3.32q12.45,22.2,25.3,44.17c1.37,2.36,1.29,4-.08,6.27Q355.32,514,343,535.62a5.8,5.8,0,0,1-5.88,3.39q-24.74-.32-49.49-.21a5.82,5.82,0,0,1-5.87-3.42q-12.33-22-25-43.75c-1.32-2.26-1.48-3.92-.08-6.28q12.87-21.66,25.36-43.57c1.47-2.6,3.22-3.23,6-3.18,8.16.15,16.33,0,24.49,0Z" transform="translate(17.79 189.86)"/><path class="cls-4" d="M934.59,485.94c-8.17,0-16.34.19-24.49-.14a7.55,7.55,0,0,1-5.32-3.1q-13.06-22.12-25.55-44.6a6.84,6.84,0,0,1-.06-5.7q12.52-22.15,25.61-44a6.31,6.31,0,0,1,4.62-2.55q25.25-.14,50.48.31a7,7,0,0,1,5,2.95q13,22.14,25.56,44.59a6.9,6.9,0,0,1-.13,5.76c-8.28,14.61-16.89,29-25.23,43.63-1.46,2.56-3.14,3.34-6,3.28-8.16-.18-16.33-.06-24.49-.06Z" transform="translate(17.79 189.86)"/><path class="cls-4" d="M489.71-81.26c8.16,0,16.34-.19,24.49.14A7.53,7.53,0,0,1,519.51-78q13.07,22.13,25.54,44.59a6.82,6.82,0,0,1-.1,5.66Q532.54-5.85,519.6,15.78a6.85,6.85,0,0,1-4.94,2.89q-25.48.25-51-.1a6.35,6.35,0,0,1-4.56-2.71Q446-6.52,433.34-29.17a5.79,5.79,0,0,1,0-4.82q12.86-22.56,26.14-44.84a6.45,6.45,0,0,1,4.71-2.4c8.49-.23,17-.11,25.49-.11Z" transform="translate(17.79 189.86)"/><path class="cls-4" d="M577.69-33.31c-8.17,0-16.34.16-24.49-.13a7,7,0,0,1-5-2.87Q535.11-58.67,522.5-81.37a6.76,6.76,0,0,1,.14-5.63q12.29-21.72,25.11-43.12a7.44,7.44,0,0,1,5.3-3.11q25.25-.3,50.49.1a7.38,7.38,0,0,1,5.23,3.23q13,21.9,25.34,44.14a6.22,6.22,0,0,1-.07,5.2q-12.69,22.35-25.86,44.43a7,7,0,0,1-5,2.84c-8.49.29-17,.13-25.49.13Z" transform="translate(17.79 189.86)"/><path class="cls-4" d="M668.16,642.51c-8.17,0-16.33-.1-24.5,0-2.78.05-4.5-.65-6-3.26q-12.29-22-25-43.76c-1.33-2.28-1.42-3.95,0-6.28Q625.52,567.58,638,545.7c1.56-2.74,3.38-3.49,6.37-3.45q24.24.32,48.49.25c2.8,0,4.47.72,5.92,3.31Q711.22,568,724.08,590c1.5,2.56,1.27,4.33-.15,6.73Q711.35,618,699.08,639.43c-1.47,2.58-3.15,3.27-5.93,3.22-8.33-.16-16.66-.06-25-.06Z" transform="translate(17.79 189.86)"/><path class="cls-4" d="M578.37,174.7c-8.33,0-16.66.16-25-.13a6.87,6.87,0,0,1-4.89-2.86q-12.94-21.9-25.32-44.12a7.45,7.45,0,0,1,0-6.18q12.49-22.17,25.58-44a6.37,6.37,0,0,1,4.56-2.66q25.23-.21,50.46.14a6.93,6.93,0,0,1,5,2.87q13.17,22.35,25.8,45a6.36,6.36,0,0,1-.08,5.31Q621.94,150.21,608.88,172a7,7,0,0,1-5,2.76c-8.49.29-17,.13-25.48.13Z" transform="translate(17.79 189.86)"/><path class="cls-4" d="M401.12,382.64c-8.17,0-16.33-.09-24.5.05-2.74,0-4.48-.58-6-3.23-8.37-14.95-17-29.73-25.39-44.69a6.22,6.22,0,0,1,.06-5.2q12.57-22.12,25.63-44a6.91,6.91,0,0,1,5-2.82q25.23-.31,50.48,0a6.87,6.87,0,0,1,4.91,2.94q13,22.16,25.52,44.62a6.8,6.8,0,0,1-.07,5.62q-12.41,21.94-25.35,43.57a7.56,7.56,0,0,1-5.33,3.09c-8.32.33-16.66.14-25,.14Z" transform="translate(17.79 189.86)"/><path class="cls-4" d="M134.36,227.5c-8.32,0-16.66.19-25-.14a7.49,7.49,0,0,1-5.35-3q-13-22.12-25.49-44.6a6.75,6.75,0,0,1,.13-5.61Q91.07,152.19,104,130.57a7.46,7.46,0,0,1,5.38-3q25-.27,50,.16a6.89,6.89,0,0,1,5,2.85q13.17,22.35,25.79,45a6.24,6.24,0,0,1-.14,5.19c-8.3,14.6-16.89,29-25.19,43.63-1.47,2.6-3.16,3.31-5.94,3.26-8.16-.16-16.32-.06-24.49-.06Z" transform="translate(17.79 189.86)"/><path class="cls-4" d="M668,434.36c-8,0-16-.11-24,.06-3,.06-4.8-.73-6.34-3.5-8.35-14.94-17-29.71-25.32-44.67a6.77,6.77,0,0,1,.09-5.62c8.19-14.45,16.68-28.74,24.94-43.16,1.39-2.44,2.83-3.56,5.8-3.5,16.64.3,33.29.28,49.93.68a7.43,7.43,0,0,1,5.28,3.17c8.45,14.3,16.56,28.81,24.93,43.17,1.51,2.59,1.69,4.56.1,7.24q-12.75,21.42-25.11,43.08a5.73,5.73,0,0,1-5.86,3.34c-8.16-.21-16.32-.07-24.47-.07Z" transform="translate(17.79 189.86)"/><path class="cls-4" d="M845.12,329.83c-8.16,0-16.32.19-24.46-.14a7.46,7.46,0,0,1-5.3-3.08q-13.07-22.1-25.53-44.54A7.31,7.31,0,0,1,790,276q12.25-21.71,25.11-43.06a7.4,7.4,0,0,1,5.37-3c16.48-.2,33,0,49.43-.1,2.85,0,4.48.83,5.9,3.37q12.42,22.19,25.23,44.14a5.31,5.31,0,0,1,0,6.26c-8.55,14.44-16.85,29-25.5,43.41a7.57,7.57,0,0,1-5.36,3.05c-8.31.32-16.64.14-25,.14Z" transform="translate(17.79 189.86)"/><path class="cls-4" d="M579.1,278.61c-8.32,0-16.66.18-25-.14a7.5,7.5,0,0,1-5.31-3.08q-13.07-22.09-25.52-44.55a7.38,7.38,0,0,1,.19-6.11Q535.76,203,548.6,181.66a7.33,7.33,0,0,1,5.32-3c16.64-.2,33.29,0,49.93-.1,2.68,0,4.16.77,5.49,3.13q12.35,21.93,25,43.69c1.41,2.42,1.6,4.26.09,6.8q-12.88,21.62-25.36,43.5c-1.4,2.46-3,3-5.52,3-8.16-.13-16.31-.05-24.47-.05Z" transform="translate(17.79 189.86)"/><path class="cls-4" d="M845.18,226.4c-8.33,0-16.67.19-25-.14a7.51,7.51,0,0,1-5.36-3.07q-12.71-21.47-24.79-43.29a7.42,7.42,0,0,1,0-6.2q12.52-22.14,25.66-43.95a7.38,7.38,0,0,1,5.31-3.08q25-.3,50,.11a7.39,7.39,0,0,1,5.29,3.11c8.46,14.32,16.57,28.84,25,43.21,1.37,2.36,1.26,4-.1,6.29q-13,21.9-25.6,44a5.77,5.77,0,0,1-5.92,3.31c-8.16-.18-16.32-.07-24.49-.07Z" transform="translate(17.79 189.86)"/><path class="cls-4" d="M312.07,126.84c8.32,0,16.65-.19,25,.14a7.53,7.53,0,0,1,5.33,3.1c8.62,14.59,16.9,29.39,25.42,44a5.41,5.41,0,0,1,0,6.3c-8.55,14.45-16.85,29-25.49,43.43a7.47,7.47,0,0,1-5.4,3.06q-25,.22-49.94-.26a6.86,6.86,0,0,1-4.93-2.93q-13-22.12-25.5-44.58a6.77,6.77,0,0,1,0-5.64q12.51-22.12,25.57-44a7,7,0,0,1,5-2.77c8.31-.29,16.64-.13,25-.13Z" transform="translate(17.79 189.86)"/><path class="cls-4" d="M311.72,123.44c-8.16,0-16.33.18-24.47-.14a7.49,7.49,0,0,1-5.38-3c-8.81-14.87-17.38-29.87-25.84-44.94a5.77,5.77,0,0,1,0-4.84Q268.84,48,282.11,25.72a6.35,6.35,0,0,1,4.7-2.47q25.21-.11,50.44.35a6.28,6.28,0,0,1,4.51,2.71q13.14,22.35,25.78,45a6.88,6.88,0,0,1-.08,5.72Q355,98.92,342.08,120.51a7.52,7.52,0,0,1-5.39,2.92c-8.32.31-16.65.13-25,.13Z" transform="translate(17.79 189.86)"/><path class="cls-4" d="M667.71,22.73c8.15,0,16.31.15,24.46-.07,3-.08,4.81.81,6.32,3.5,8.22,14.63,16.69,29.12,24.84,43.78a6.87,6.87,0,0,1,.06,5.73Q710.75,98,697.54,120a6.89,6.89,0,0,1-5,2.78q-25,.2-49.93-.24a6.8,6.8,0,0,1-4.9-2.85q-13-22.11-25.53-44.55a6.81,6.81,0,0,1,0-5.69q12.52-22.12,25.6-43.94a7,7,0,0,1,5-2.77c8.31-.29,16.64-.13,25-.13Z" transform="translate(17.79 189.86)"/><path class="cls-4" d="M489.21,122.54c-8,0-16-.13-24,.06a5.75,5.75,0,0,1-5.91-3.36Q446.82,97.07,434,75.08a5.78,5.78,0,0,1,0-6.79q12.62-21.24,24.86-42.7c1.46-2.55,3.18-3.3,6-3.26,16.5.18,33,.11,49.49.41a7.38,7.38,0,0,1,5.36,3c8.62,14.61,16.9,29.42,25.45,44.08,1.38,2.35,1.32,4,0,6.27Q532.37,97.51,520,119.2c-1.54,2.72-3.29,3.58-6.3,3.51-8.17-.2-16.33-.07-24.5-.07Z" transform="translate(17.79 189.86)"/><path class="cls-4" d="M312.17,434.67c-8.49,0-17,.15-25.46-.14a6.91,6.91,0,0,1-4.92-2.87q-12.89-21.9-25.24-44.13a6.76,6.76,0,0,1,0-5.62q12.65-22.34,25.84-44.36a6.87,6.87,0,0,1,5-2.79c16.48-.19,33,0,49.44-.14,2.61,0,4.2.63,5.55,3,8.39,14.92,17,29.7,25.33,44.66a7.35,7.35,0,0,1-.13,6.1c-8.17,14.47-16.68,28.75-24.91,43.18-1.47,2.56-3.18,3.31-6,3.25-8.16-.17-16.32-.06-24.47-.06Z" transform="translate(17.79 189.86)"/><path class="cls-4" d="M578.3,70.65c-8.33,0-16.67.19-25-.14A7.48,7.48,0,0,1,548,67.42q-12.82-21.69-25.06-43.73a6.88,6.88,0,0,1,0-5.75q12.66-22.38,25.86-44.43a6.32,6.32,0,0,1,4.5-2.77q25.25-.25,50.5.07a6.34,6.34,0,0,1,4.58,2.65q13.27,22.6,26.06,45.47a5.79,5.79,0,0,1,0,4.85q-12.72,22.34-25.88,44.41a6.49,6.49,0,0,1-4.68,2.51c-8.49.24-17,.11-25.49.11Z" transform="translate(17.79 189.86)"/><path class="cls-4" d="M757.36,490.56c8.33,0,16.67-.18,25,.14a7.44,7.44,0,0,1,5.32,3c8.48,14.31,16.59,28.84,25,43.18,1.58,2.69,1.38,4.61-.14,7.16q-12.74,21.47-25.15,43.11c-1.36,2.37-2.75,3.58-5.76,3.54-16.33-.22-32.66-.07-49-.33a7.43,7.43,0,0,1-5.41-3q-13.08-22.12-25.53-44.61a7.35,7.35,0,0,1,.16-6.1c8.1-14.34,16.55-28.48,24.71-42.79,1.53-2.69,3.25-3.65,6.29-3.58,8.16.2,16.33.07,24.5.07Z" transform="translate(17.79 189.86)"/><path class="cls-4" d="M401.24,386.75c8.33,0,16.67-.18,25,.13a7.6,7.6,0,0,1,5.43,2.92q13.09,22.11,25.57,44.58a6.27,6.27,0,0,1-.22,5.23c-8.38,14.75-17,29.35-25.44,44.09-1.47,2.58-3.21,3.27-6,3.25q-24.49-.24-49-.16c-2.66,0-4.18-.75-5.52-3.12-8.31-14.79-16.88-29.44-25.11-44.28a7.48,7.48,0,0,1,0-6.21q12.38-21.94,25.4-43.53a7.53,7.53,0,0,1,5.4-2.88c8.15-.31,16.32-.13,24.49-.13Z" transform="translate(17.79 189.86)"/><path class="cls-4" d="M757,486.63c-8.33,0-16.67.16-25-.13a7,7,0,0,1-5-2.83q-13.17-22.35-25.81-45a5.71,5.71,0,0,1,.09-4.78q12.72-22.33,25.85-44.43a6.42,6.42,0,0,1,4.59-2.68q25.25-.27,50.49.05a6.35,6.35,0,0,1,4.54,2.68Q800,412.08,812.8,435a6.22,6.22,0,0,1,0,5.22q-12.42,21.93-25.36,43.56a7.58,7.58,0,0,1-5.45,2.89c-8.32.31-16.66.13-25,.13Z" transform="translate(17.79 189.86)"/><path class="cls-4" d="M578.92,590.55c-8.32,0-16.65.16-25-.14a6.94,6.94,0,0,1-5-2.86q-12.9-21.91-25.25-44.15a6.87,6.87,0,0,1,0-5.73q12.66-22.35,25.86-44.38a6.29,6.29,0,0,1,4.56-2.61q25.23-.27,50.46,0a6.33,6.33,0,0,1,4.6,2.65q13.13,22.36,25.76,45a6.26,6.26,0,0,1-.09,5.2q-12.54,22.13-25.59,44a7.51,7.51,0,0,1-5.41,2.92c-8.32.31-16.65.14-25,.14Z" transform="translate(17.79 189.86)"/><path class="cls-4" d="M667.71,330.64c-8.33,0-16.66-.13-25,.07-2.75.07-4.11-.93-5.41-3.23-8.33-14.78-16.89-29.43-25.15-44.25a6.87,6.87,0,0,1,0-5.7q12.52-22.14,25.61-44a6.89,6.89,0,0,1,4.93-2.84q24.74-.28,49.48.05a7.39,7.39,0,0,1,5.36,3q13.22,22.32,25.82,45a6.81,6.81,0,0,1-.14,5.7c-8.1,14.34-16.52,28.49-24.68,42.79-1.52,2.67-3.26,3.57-6.31,3.48-8.15-.23-16.32-.08-24.49-.08Z" transform="translate(17.79 189.86)"/><path class="cls-4" d="M490.76,438.73c8.33,0,16.66-.16,25,.13a6.92,6.92,0,0,1,5,2.82q13,22.13,25.57,44.55a5.75,5.75,0,0,1,0,4.8q-12.84,22.53-26.13,44.81a6.9,6.9,0,0,1-5,2.75q-25,.25-50-.12a6.85,6.85,0,0,1-4.85-3q-12.9-21.91-25.29-44.14a7.39,7.39,0,0,1,0-6.17c8.25-14.62,16.88-29,25.19-43.62,1.4-2.44,3-3,5.55-3,8.32.14,16.65.05,25,.05Z" transform="translate(17.79 189.86)"/><path class="cls-4" d="M222.63,382.65c-8.32,0-16.66.16-25-.13a6.92,6.92,0,0,1-4.92-2.83q-12.9-21.92-25.27-44.16a6.73,6.73,0,0,1,.17-5.6q12.52-22.12,25.59-44a7.35,7.35,0,0,1,5.21-3.18q24.73-.24,49.47.23a7.44,7.44,0,0,1,5.35,3.08q13.06,22.13,25.52,44.59a6.27,6.27,0,0,1,0,5.24q-12.56,22.13-25.62,44a7,7,0,0,1-5,2.82c-8.48.29-17,.13-25.48.13Z" transform="translate(17.79 189.86)"/><path class="cls-4" d="M489.62,642.17c-8.16,0-16.33-.11-24.49.05-3,.06-4.82-.77-6.35-3.53-7.95-14.22-16.19-28.29-24.1-42.54a6.77,6.77,0,0,1-.06-5.62q12.9-22.8,26.35-45.28a7.48,7.48,0,0,1,5.48-2.91q24.48-.21,49,.28a7.39,7.39,0,0,1,5.26,3.14c8.47,14.31,16.6,28.82,25,43.17,1.49,2.55,1.18,4.43-.24,6.83q-12.83,21.68-25.37,43.53c-1.46,2.55-3.15,3.31-6,3.25-8.16-.18-16.33-.06-24.49-.06Z" transform="translate(17.79 189.86)"/><path class="cls-4" d="M846.06,538.6c-8.33,0-16.66.16-25-.13a6.93,6.93,0,0,1-5-2.83q-12.92-21.92-25.28-44.16a6.84,6.84,0,0,1,0-5.72q12.66-22.36,25.87-44.41a6.25,6.25,0,0,1,4.54-2.63q25-.27,50,0a6.29,6.29,0,0,1,4.55,2.64q13.26,22.59,26.05,45.46a6.28,6.28,0,0,1,0,5.23Q889.44,514,876.49,535.63a7.63,7.63,0,0,1-5.44,2.94c-8.32.31-16.65.13-25,.13Z" transform="translate(17.79 189.86)"/><path class="cls-4" d="M845.49,434.1c-8,0-16-.08-24,0-2.74,0-4.5-.62-6-3.26q-12.28-22-25-43.72c-1.39-2.38-1.18-4,.13-6.24,8.63-14.6,17-29.33,25.76-43.87a7.42,7.42,0,0,1,5.32-3.08q24.46-.18,48.95.33a6.88,6.88,0,0,1,5,2.77q13.06,22.1,25.58,44.53a6.32,6.32,0,0,1-.1,5.26c-8.46,14.89-17.21,29.61-25.7,44.48-1.48,2.58-3.25,3.22-6,3.16-8-.15-16-.05-24-.05Z" transform="translate(17.79 189.86)"/><path class="cls-4" d="M756.8,74.67c8.33,0,16.66.11,25-.06,2.66,0,4.17.71,5.51,3.09,8.23,14.64,16.72,29.13,24.88,43.8a6.82,6.82,0,0,1-.09,5.69q-12.65,22.35-25.84,44.41a6.87,6.87,0,0,1-4.92,2.91q-24.74.33-49.46,0a7.35,7.35,0,0,1-5.26-3.11q-12.93-21.9-25.26-44.16a7.35,7.35,0,0,1,.15-6.1c8.18-14.48,16.7-28.76,24.94-43.2a5.76,5.76,0,0,1,5.89-3.35c8.16.18,16.32.06,24.48.06Z" transform="translate(17.79 189.86)"/><path class="cls-4" d="M401.39,75.35c8,0,16,.1,24-.06a5.74,5.74,0,0,1,5.9,3.35c8.22,14.63,16.71,29.12,24.9,43.77a6.31,6.31,0,0,1,0,5.24Q443.37,150.18,430,172.43a7.38,7.38,0,0,1-5.37,3c-16.15.16-32.31-.08-48.46,0-3,0-4.39-1.12-5.77-3.57q-12.21-21.74-24.77-43.27c-1.43-2.45-1.49-4.21,0-6.69Q358.52,100.23,371,78.35c1.4-2.43,3-3.52,5.9-3.44,8.15.21,16.32.07,24.48.07Z" transform="translate(17.79 189.86)"/><path class="cls-4" d="M311.74,330.66c-8.16,0-16.32.18-24.47-.13a7.5,7.5,0,0,1-5.38-2.95Q269,305.9,256.82,283.89a6.35,6.35,0,0,1,0-5.31q12.93-22.77,26.34-45.26a6.37,6.37,0,0,1,4.66-2.56q25-.27,49.95,0a5.84,5.84,0,0,1,4.2,2.44q13.08,22.38,25.73,45a6.42,6.42,0,0,1-.11,5.32q-12.7,22.32-25.89,44.37a6.94,6.94,0,0,1-5,2.76c-8.32.29-16.65.13-25,.13Z" transform="translate(17.79 189.86)"/><path class="cls-4" d="M401.62,490.73c8.16,0,16.32.13,24.48-.07,2.9-.07,4.44.94,5.85,3.44,8.15,14.49,16.55,28.83,24.64,43.36a6.86,6.86,0,0,1,0,5.71q-12.78,22.58-26.1,44.83a6.38,6.38,0,0,1-4.56,2.72q-25,.22-50-.15a6.88,6.88,0,0,1-4.87-3q-12.77-21.7-25-43.72a7.45,7.45,0,0,1,0-6.18q12.51-22.15,25.64-43.94a7.49,7.49,0,0,1,5.38-2.94c8.15-.32,16.32-.14,24.48-.14Z" transform="translate(17.79 189.86)"/><path class="cls-4" d="M667.79,538.55c-8,0-16-.1-24,.05-2.78.06-4.5-.66-5.95-3.25-8.12-14.51-16.53-28.85-24.59-43.4a7.42,7.42,0,0,1,0-6.15c8.34-14.77,17-29.35,25.45-44.06,1.41-2.48,3-3.48,5.88-3.45,16.32.21,32.65.13,49,.41a6.89,6.89,0,0,1,5,2.84q12.9,21.91,25.25,44.16a6.86,6.86,0,0,1-.14,5.69c-8.36,14.75-17,29.33-25.44,44.06-1.46,2.58-3.17,3.28-5.94,3.22-8.16-.15-16.32,0-24.48,0Z" transform="translate(17.79 189.86)"/><path class="cls-4" d="M490.63,230.89c8,0,16-.18,24,.14a7.56,7.56,0,0,1,5.43,3q13,21.88,25.32,44.13a6.31,6.31,0,0,1-.12,5.27q-12.84,22.55-26.14,44.82a6.91,6.91,0,0,1-5,2.86q-24.75.15-49.48-.35a6.87,6.87,0,0,1-4.87-3c-8.52-14.47-16.74-29.12-25.19-43.63a5.31,5.31,0,0,1,0-6.25q12.86-21.68,25.31-43.57c1.65-2.92,3.55-3.74,6.73-3.66,8,.23,16,.08,24,.08Z" transform="translate(17.79 189.86)"/><path class="cls-4" d="M223.58,179.52c8,0,16,.12,24-.06,3-.06,4.77.73,6.31,3.5,8,14.39,16.4,28.58,24.38,43a7.42,7.42,0,0,1,0,6.17q-12.63,22.38-25.86,44.43a6.91,6.91,0,0,1-5,2.83q-24.74.28-49.49-.06a6.31,6.31,0,0,1-4.57-2.64q-13-22.17-25.53-44.61a7,7,0,0,1,.18-5.78q12.56-22.12,25.67-43.95a7.58,7.58,0,0,1,5.42-2.91c8.16-.32,16.33-.14,24.49-.14Z" transform="translate(17.79 189.86)"/><path class="cls-4" d="M489.66,226.64c-8.16,0-16.33.18-24.48-.14a7.51,7.51,0,0,1-5.38-2.95Q447,201.88,434.75,179.84a6.77,6.77,0,0,1,0-5.64q12.78-22.57,26.08-44.84a6.36,6.36,0,0,1,4.54-2.71q25-.23,50,.11a6.29,6.29,0,0,1,4.54,2.63q13,22.14,25.56,44.55a6.35,6.35,0,0,1,0,5.29q-12.79,22.56-26.1,44.83a6.45,6.45,0,0,1-4.69,2.51c-8.32.26-16.65.12-25,.12Z" transform="translate(17.79 189.86)"/><path class="cls-4" d="M400.91-29.4c8.16,0,16.32-.19,24.47.14a7.51,7.51,0,0,1,5.29,3.1Q443.6-4.28,456,17.94a6.26,6.26,0,0,1,0,5.22q-12.83,22.53-26.12,44.78a6.33,6.33,0,0,1-4.58,2.59q-25,.24-49.93-.06a6.35,6.35,0,0,1-4.6-2.62q-13.14-22.35-25.8-45a5.24,5.24,0,0,1,0-4.38c8.67-15.15,17.42-30.24,26.4-45.2a7,7,0,0,1,5.07-2.7c8.14-.29,16.31-.13,24.46-.13Z" transform="translate(17.79 189.86)"/><path class="cls-4" d="M578.75,486.84c-8,0-16-.11-24,.06a5.8,5.8,0,0,1-5.94-3.35Q536.75,462,524.32,440.68c-1.51-2.59-1.7-4.49-.08-7.2q12.66-21.19,24.87-42.66c1.66-2.91,3.42-4.21,7-4.14,15.82.29,31.65.31,47.47.23a6.23,6.23,0,0,1,6.27,3.63q12.07,21.54,24.55,42.85c1.42,2.44,1.57,4.29.07,6.81-8.67,14.58-17.06,29.33-25.81,43.86a7.57,7.57,0,0,1-5.4,2.93c-8.15.31-16.32.13-24.48.13Z" transform="translate(17.79 189.86)"/><path class="cls-4" d="M579.38,282.5c8.16,0,16.33-.19,24.48.14a7.52,7.52,0,0,1,5.34,3.06q12.82,21.68,25.07,43.71a6.89,6.89,0,0,1,.08,5.74q-12.66,22.37-25.89,44.39a7.42,7.42,0,0,1-5.4,3c-16.16.17-32.32-.05-48.48,0a5.84,5.84,0,0,1-5.89-3.42q-12.08-21.54-24.54-42.87c-1.69-2.88-1.47-4.93.17-7.68q12.48-21,24.56-42.28c1.82-3.21,3.91-4.26,7.51-4.12,7.65.29,15.32.09,23,.09Z" transform="translate(17.79 189.86)"/><path class="cls-4" d="M756.13,382.64c-8.16,0-16.32.16-24.47-.13a6.88,6.88,0,0,1-4.92-2.83q-13-22.11-25.53-44.55a6.23,6.23,0,0,1,0-5.19c8.46-14.89,17-29.7,25.86-44.37a7.51,7.51,0,0,1,5.44-2.92q24.47-.27,48.94.13a7.39,7.39,0,0,1,5.21,3.2q12.81,21.67,25,43.69a7.36,7.36,0,0,1-.12,6.09c-8.25,14.62-16.83,29.05-25.17,43.61-1.41,2.45-3,3.47-5.85,3.39-8.15-.21-16.31-.07-24.47-.07Z" transform="translate(17.79 189.86)"/><path class="cls-4" d="M668.16,126.71c8.16,0,16.34-.18,24.49.15a7.46,7.46,0,0,1,5.31,3.07q12.7,21.48,24.8,43.31a6.75,6.75,0,0,1-.09,5.63q-12.79,22.59-26.13,44.85a7.44,7.44,0,0,1-5.38,3q-24.25.26-48.5-.19a6.85,6.85,0,0,1-5-2.72q-13.06-22.12-25.6-44.57a5.74,5.74,0,0,1,0-4.83q13-22.77,26.41-45.27a6.47,6.47,0,0,1,4.71-2.43c8.33-.24,16.66-.11,25-.11Z" transform="translate(17.79 189.86)"/><path class="cls-4" d="M755.89,277.94c-8,0-16-.11-24,.06a5.8,5.8,0,0,1-5.92-3.37c-8.13-14.49-16.51-28.84-24.58-43.38a6.75,6.75,0,0,1,.14-5.61c8.44-14.89,17.17-29.62,25.66-44.49,1.45-2.53,3.15-3.31,6-3.26q24,.39,47.94.41c2.91,0,4.42,1,5.81,3.49q12.1,21.51,24.55,42.82c1.42,2.44,1.59,4.31.1,6.82q-12.86,21.65-25.36,43.5c-1.56,2.73-3.38,3.53-6.38,3.46-8-.2-16-.07-24-.07Z" transform="translate(17.79 189.86)"/></g><g id="Pointe"><polygon class="cls-5" points="704.32 249.64 702 255.07 688.39 286.86 667.72 266.94 698.98 252.16 704.32 249.64"/><polygon class="cls-6" points="704.28 249.61 700.89 257.65 696.45 253.37 704.28 249.61"/></g><g id="Corps"><g id="Bois"><rect class="cls-7" x="500.44" y="140.64" width="180.58" height="9.57" transform="translate(93.95 659.83) rotate(-46.07)"/><rect class="cls-8" x="507.33" y="147.28" width="180.58" height="9.57" transform="translate(91.28 666.82) rotate(-46.07)"/><rect class="cls-9" x="514.22" y="153.92" width="180.58" height="9.57" transform="translate(88.61 673.82) rotate(-46.07)"/></g><rect id="Gomme" class="cls-10" x="513.12" y="214.38" width="21.29" height="28.71" rx="5.59" ry="5.59" transform="translate(13.45 637.12) rotate(-46.07)"/><rect class="cls-11" x="524.95" y="206.99" width="11.83" height="28.71" transform="translate(20.94 639.97) rotate(-46.07)"/></g><path class="cls-12" d="M563.58,112l-28.3-22-2.64-8.31L527,63.75,551.64,74l19.12,27.8Q567.17,106.93,563.58,112Z" transform="translate(17.79 189.86)"/><path class="cls-13" d="M538.19,83.38l-5.55-1.67L527,63.77l37.72,41.46Z" transform="translate(17.79 189.86)"/><path class="cls-14" d="M527.31,64.16c5.48,6.24,11.69,12.53,17.16,18.77" transform="translate(17.79 189.86)"/><path class="cls-14" d="M527.35,64.13c2.9,3.09,5.88,6.1,8.83,9.14,1.49,1.51,3,3,4.4,4.6a54,54,0,0,1,3.93,5l-.08.07c-1.61-1.4-3.08-2.92-4.58-4.42s-2.85-3.12-4.25-4.7c-2.83-3.16-5.64-6.34-8.33-9.62Z" transform="translate(17.79 189.86)"/><ellipse class="cls-15" cx="545.57" cy="83.82" rx="1.52" ry="1.37" transform="translate(384.35 795.82) rotate(-79.81)"/><path class="cls-16" d="M569.53,90.77l118.13,124a31.87,31.87,0,0,1,7.49,13.9c1,4.1,2.39,9.63-.31,13.13-3.65,4.74-12.05,2.17-13.47,1.74-6.51-2-10.13-7.17-11.43-9.24L552.06,108.43Z" transform="translate(17.79 189.86)"/><polygon class="cls-17" points="581.51 294.13 574.13 302.53 690.06 425.48 697.44 417.08 581.51 294.13"/><path class="cls-18" d="M593.2,115.62l-17.12,18.47-20.37-21.75L573,94.45Z" transform="translate(17.79 189.86)"/><line class="cls-19" x1="701.78" y1="409.6" x2="587.53" y2="287.71"/><path class="cls-20" d="M552,108.32l18-17.64a1.38,1.38,0,0,1,1.94,0l.12.14.38.47a1.75,1.75,0,0,1-.16,2.28l-18,17.63a1.38,1.38,0,0,1-1.94,0l-.12-.14-.38-.47A1.74,1.74,0,0,1,552,108.32Z" transform="translate(17.79 189.86)"/><path class="cls-20" d="M574.43,132.3l18-17.64a1.38,1.38,0,0,1,2,0l.12.13.38.47a1.75,1.75,0,0,1-.16,2.28l-18,17.63a1.38,1.38,0,0,1-1.94,0l-.12-.14-.38-.47A1.74,1.74,0,0,1,574.43,132.3Z" transform="translate(17.79 189.86)"/><path class="cls-20" d="M668.54,232.58l18-17.63a1.36,1.36,0,0,1,1.94,0l.12.13.38.48a1.74,1.74,0,0,1-.16,2.27l-18,17.63a1.36,1.36,0,0,1-1.94,0l-.12-.13-.38-.48A1.74,1.74,0,0,1,668.54,232.58Z" transform="translate(17.79 189.86)"/><path class="cls-20" d="M554.53,111.53l18-17.64a1.38,1.38,0,0,1,1.94,0l.12.14L576,95.84a1.74,1.74,0,0,1-.16,2.27l-18,17.63a1.36,1.36,0,0,1-1.94,0l-.12-.13-1.49-1.85A1.74,1.74,0,0,1,554.53,111.53Z" transform="translate(17.79 189.86)"/><rect class="cls-21" x="608.7" y="271.92" width="19.86" height="45.94"/><path class="cls-2" d="M610.77,125.5H590.91l2.5,2.5V82.06l-2.5,2.5h19.86l-2.5-2.5V128c0,3.22,5,3.22,5,0V82.06a2.54,2.54,0,0,0-2.5-2.5H590.91a2.54,2.54,0,0,0-2.5,2.5V128a2.54,2.54,0,0,0,2.5,2.5h19.86C614,130.5,614,125.5,610.77,125.5Z" transform="translate(17.79 189.86)"/><path class="cls-21" d="M635.19,222.91c-.4,3.7-1.75,10.87-7.37,16.17-7,6.59-16.42,6.39-26.7,6.18A76.84,76.84,0,0,1,578,241.13c-1.62-.55-2.67-1.93-3.9-3.11-5.42-5.21-5.21-7.36-5.7-11.66-.12-1,.46-1.92.69-2.88l7.44-30.92,46.63-5.79q5.57,16.74,11.12,33.48C634.6,221.14,634.9,222,635.19,222.91Z" transform="translate(17.79 189.86)"/><path class="cls-2" d="M632.69,222.91C631.57,232.28,626,240,616.45,242c-8.23,1.74-17.88,1.12-26.14-.33-7.77-1.36-19-4.53-19.27-14.32-.16-5.23,2.52-11.67,3.75-16.77q2.09-8.7,4.18-17.39L576.56,195l46.63-5.79-2.41-1.84,12,36.14c1,3,5.84,1.74,4.82-1.33l-12-36.14a2.53,2.53,0,0,0-2.41-1.83L576.56,190a2.58,2.58,0,0,0-2.41,1.84L568.57,215c-1.26,5.23-3.35,10.34-2.06,15.72,2.64,11.07,14.19,14.44,24,16,10,1.58,22.43,2.57,32-1.37,9.36-3.85,14-12.88,15.2-22.5C638.07,219.72,633.07,219.75,632.69,222.91Z" transform="translate(17.79 189.86)"/><path class="cls-2" d="M572.84,207.66a80.33,80.33,0,0,0,56.81.83c3-1.09,1.71-5.92-1.33-4.82a76.1,76.1,0,0,1-54.15-.83c-3-1.19-4.29,3.65-1.33,4.82Z" transform="translate(17.79 189.86)"/><path class="cls-2" d="M569.13,220.35a76.29,76.29,0,0,0,65.4-1.08c2.88-1.42.35-5.74-2.52-4.32A70.85,70.85,0,0,1,571.65,216c-2.91-1.32-5.45,3-2.52,4.31Z" transform="translate(17.79 189.86)"/><path class="cls-22" d="M635.19,222.91c-.4,3.7-1.75,10.87-7.37,16.17-7,6.59-16.42,6.33-26.7,6.18-5.17-.08-20,.33-26.41-5.3-3.4-3-6.13-14.23-5.86-15.36h0a.47.47,0,0,1,.55-.35.45.45,0,0,1,.29.21,24,24,0,0,0,8.38,8c2.63,1.48,9.25,5.19,15.45,2.21a13.1,13.1,0,0,0,5.62-5.48.8.8,0,0,1,1.33-.09,15.69,15.69,0,0,0,5.88,4.87c8.67,4.05,17.89-2.2,19.31-3.17a24.16,24.16,0,0,0,7.42-8.09,1.15,1.15,0,0,1,2.09.2Z" transform="translate(17.79 189.86)"/><path class="cls-2" d="M588.43,198.08l-5.22,24.61" transform="translate(17.79 189.86)"/><path class="cls-2" d="M586,197.41,580.79,222c-.66,3.14,4.16,4.48,4.83,1.33l5.22-24.62c.66-3.14-4.16-4.48-4.82-1.33Z" transform="translate(17.79 189.86)"/><path class="cls-2" d="M601,198.51v26.34" transform="translate(17.79 189.86)"/><path class="cls-2" d="M598.48,198.51v26.34c0,3.21,5,3.22,5,0V198.51C603.48,195.29,598.48,195.28,598.48,198.51Z" transform="translate(17.79 189.86)"/><path class="cls-2" d="M613.81,197.94,620.69,222" transform="translate(17.79 189.86)"/><path class="cls-2" d="M611.4,198.61l6.88,24.07c.88,3.09,5.71,1.78,4.82-1.33l-6.88-24.07C615.34,194.19,610.51,195.5,611.4,198.61Z" transform="translate(17.79 189.86)"/><path class="cls-21" d="M558.41,136.28c-4.95.25-5.9.63-6.66,1.14s-2.24,1.75-2.89,5a19.2,19.2,0,0,1-11.59-3.32c-.59-.41-7.53-5.36-7.86-12.82-.22-4.87,2.55-6.61,2.07-12.42a19.14,19.14,0,0,0-2.07-7c-.8,2-2,5-3.31,8.7-1.45,3.89-4.13,11.29-5,14.07-2.69,8.88-3.31,25.93,5.38,33.1,8.31,6.87,24.92,4.52,25.24,4.56a10.56,10.56,0,0,0,3.73,4.55,11.17,11.17,0,0,0,9.1,1.24c.61-3.85,5.42-35-.41-36.83C563.68,136,561.92,136.11,558.41,136.28Z" transform="translate(17.79 189.86)"/><path class="cls-2" d="M558.41,133.78c-6.22.37-10.17,1.34-12,7.94l2.41-1.83c-7,.16-14.25-4.06-16.44-11-1.33-4.23,1-7.57,1.46-11.66a20.81,20.81,0,0,0-2.32-11.69c-1-2.14-3.86-1.2-4.56.6-6,15.24-13.91,32.21-8.32,48.79,4.94,14.65,19.84,15.5,33.07,14.8l-2.16-1.24a13.19,13.19,0,0,0,15.66,6.94,2.46,2.46,0,0,0,1.74-1.75,175.08,175.08,0,0,0,2.53-25.54c0-3.65.17-8.17-1.59-11.5-2-3.83-5.75-3-9.52-2.85-3.21.16-3.23,5.16,0,5,4.38-.21,5.26-1.1,5.87,3.39a59.23,59.23,0,0,1,0,11.14c-.38,6.38-1.15,12.73-2.15,19l1.75-1.75a8.3,8.3,0,0,1-10-4.65,2.42,2.42,0,0,0-2.16-1.23c-4.54.24-9,.58-13.51-.11-8.7-1.31-14-6-15.71-14.68-3-14.67,4.09-29.16,9.29-42.47l-4.57.6a15,15,0,0,1,1.23,10.58,48.14,48.14,0,0,0-1.4,5,16.58,16.58,0,0,0,3.51,12.3,21.93,21.93,0,0,0,18.27,9A2.57,2.57,0,0,0,551.2,143c1.15-4.25,3.14-4,7.14-4.27C561.6,138.6,561.63,133.59,558.41,133.78Z" transform="translate(17.79 189.86)"/><path class="cls-21" d="M551.75,167.22a11.66,11.66,0,0,1-1.1-4.14,9.64,9.64,0,0,1,0-1.52" transform="translate(17.79 189.86)"/><path class="cls-2" d="M549.05,168.51a13.2,13.2,0,0,1,.31-3.76,12.31,12.31,0,0,1,.54-1.69q.38-.8.75-1.5.38.75.75,1.41a7.58,7.58,0,0,0,.91,1.2,8.87,8.87,0,0,0,2.15,1.75Z" transform="translate(17.79 189.86)"/><path class="cls-21" d="M549.09,141.45a33,33,0,0,0,0,5.07,28.56,28.56,0,0,0,.42,3" transform="translate(17.79 189.86)"/><path class="cls-2" d="M552.08,141.66a27.25,27.25,0,0,0-1.52,3.77,16.83,16.83,0,0,0-.54,2l-.47,2.11-1-1.93a21.94,21.94,0,0,1-1-2,32,32,0,0,1-1.46-4.37Z" transform="translate(17.79 189.86)"/><path class="cls-21" d="M545.68,148.87a9.63,9.63,0,0,0,.56,7.72" transform="translate(17.79 189.86)"/><path class="cls-13" d="M545.68,148.87a19.32,19.32,0,0,1,.31,2l.16,1.8c0,.6.08,1.19.11,1.82a17.7,17.7,0,0,1,0,2.06,4.1,4.1,0,0,1-1.49-1.63,5.33,5.33,0,0,1-.59-2.1,5.16,5.16,0,0,1,.28-2.17A4.07,4.07,0,0,1,545.68,148.87Z" transform="translate(17.79 189.86)"/><path class="cls-21" d="M542.64,148.87a15.25,15.25,0,0,0-.28,2.69,15.78,15.78,0,0,0,.56,4.48" transform="translate(17.79 189.86)"/><path class="cls-13" d="M542.64,148.87a8.39,8.39,0,0,1,.55,1.85,16.45,16.45,0,0,1,.18,3.44A8.63,8.63,0,0,1,543,156a4.17,4.17,0,0,1-1.16-1.65,6.06,6.06,0,0,1-.39-1.88,5.85,5.85,0,0,1,.25-1.9A4.22,4.22,0,0,1,542.64,148.87Z" transform="translate(17.79 189.86)"/><path class="cls-21" d="M540.75,148.17a9,9,0,0,0,.41,6.53" transform="translate(17.79 189.86)"/><path class="cls-13" d="M540.75,148.17a10.15,10.15,0,0,1,.42,1.73c.09.52.14,1,.18,1.51s0,1,0,1.52a10.56,10.56,0,0,1-.21,1.77,3.37,3.37,0,0,1-1.31-1.39,4.41,4.41,0,0,1-.23-3.6A3.26,3.26,0,0,1,540.75,148.17Z" transform="translate(17.79 189.86)"/><path class="cls-21" d="M538.16,147a8.66,8.66,0,0,0,.41,6.39" transform="translate(17.79 189.86)"/><path class="cls-13" d="M538.16,147a9.94,9.94,0,0,1,.42,1.69,12.2,12.2,0,0,1,.18,3,10.09,10.09,0,0,1-.21,1.73,3.25,3.25,0,0,1-1.31-1.34,4.27,4.27,0,0,1-.23-3.54A3.16,3.16,0,0,1,538.16,147Z" transform="translate(17.79 189.86)"/><path class="cls-21" d="M535.31,147a10.41,10.41,0,0,0,.27,5.76" transform="translate(17.79 189.86)"/><path class="cls-13" d="M535.31,147a7.31,7.31,0,0,1,.73,2.85,7.63,7.63,0,0,1-.06,1.35,6.51,6.51,0,0,1-.4,1.56,3,3,0,0,1-1.14-1.26A3.79,3.79,0,0,1,534,150a4.06,4.06,0,0,1,.25-1.58A3.08,3.08,0,0,1,535.31,147Z" transform="translate(17.79 189.86)"/><path class="cls-21" d="M643.85,136.28c4.95.25,5.9.63,6.65,1.14s2.25,1.75,2.9,5a19.15,19.15,0,0,0,11.6-3.35c.59-.41,7.52-5.36,7.86-12.82.22-4.87-2.55-6.61-2.07-12.42a18.89,18.89,0,0,1,2.07-7c.8,2,2,5,3.31,8.7,1.44,3.89,4.13,11.29,5,14.07,2.69,8.88,3.3,25.93-5.38,33.1-8.31,6.87-24.92,4.52-25.25,4.56a10.46,10.46,0,0,1-3.72,4.55,11.19,11.19,0,0,1-9.11,1.24c-.6-3.85-5.41-35,.42-36.83C638.58,136,640.34,136.11,643.85,136.28Z" transform="translate(17.79 189.86)"/><path class="cls-2" d="M643.85,138.78c4,.24,6,0,7.14,4.27a2.56,2.56,0,0,0,2.41,1.84,21.94,21.94,0,0,0,18.27-8.95,16.82,16.82,0,0,0,3.58-11.68,34.2,34.2,0,0,0-1.48-5.62A15,15,0,0,1,675,108.06l-4.57-.6c5.2,13.31,12.25,27.8,9.29,42.47-1.67,8.23-6.49,13.06-14.81,14.55-4.82.86-9.57.49-14.42.24a2.42,2.42,0,0,0-2.15,1.23,8.3,8.3,0,0,1-10,4.65l1.75,1.75c-1-6.31-1.77-12.66-2.16-19a57.59,57.59,0,0,1,.05-11.14c.61-4.5,1.4-3.61,5.87-3.39,3.22.16,3.21-4.84,0-5-3.6-.17-7.35-1-9.41,2.6-1.91,3.33-1.73,8.07-1.7,11.75a175.07,175.07,0,0,0,2.52,25.54,2.46,2.46,0,0,0,1.75,1.75,13.17,13.17,0,0,0,15.65-6.94l-2.16,1.24c13.26.7,28.11-.15,33.07-14.8,5.62-16.56-2.37-33.58-8.31-48.79-.7-1.79-3.54-2.73-4.57-.6a21.28,21.28,0,0,0-2.36,11.35c.45,4.24,2.88,7.62,1.51,12-2.19,7-9.42,11.17-16.44,11l2.41,1.83c-1.79-6.6-5.74-7.57-12-7.94C640.64,133.6,640.65,138.6,643.85,138.78Z" transform="translate(17.79 189.86)"/><path class="cls-21" d="M650.5,167.22a11.27,11.27,0,0,0,1.11-4.14,9.64,9.64,0,0,0,0-1.52" transform="translate(17.79 189.86)"/><path class="cls-2" d="M647.8,165.92a8.87,8.87,0,0,0,2.15-1.75,7.58,7.58,0,0,0,.91-1.2q.38-.66.75-1.41.38.7.75,1.5a11,11,0,0,1,.53,1.69,13.21,13.21,0,0,1,.32,3.76Z" transform="translate(17.79 189.86)"/><path class="cls-21" d="M653.17,141.45a33,33,0,0,1,0,5.07c-.1,1.09-.25,2.11-.42,3" transform="translate(17.79 189.86)"/><path class="cls-2" d="M656.16,141.23a33.48,33.48,0,0,1-1.47,4.37,18.65,18.65,0,0,1-1,2l-1,1.93-.47-2.11a17.37,17.37,0,0,0-.54-2,28.61,28.61,0,0,0-1.53-3.77Z" transform="translate(17.79 189.86)"/><path class="cls-21" d="M656.57,148.87a9.27,9.27,0,0,1,.56,2.9,9.87,9.87,0,0,1-1.11,4.82" transform="translate(17.79 189.86)"/><path class="cls-13" d="M656.57,148.87a4,4,0,0,1,1.25,1.82,5.53,5.53,0,0,1,.28,2.17,5.33,5.33,0,0,1-.59,2.1,4.1,4.1,0,0,1-1.49,1.63,17.7,17.7,0,0,1,0-2.06c0-.63.06-1.22.11-1.82l.16-1.8A17.55,17.55,0,0,1,656.57,148.87Z" transform="translate(17.79 189.86)"/><path class="cls-21" d="M659.62,148.87a17.39,17.39,0,0,1,.27,2.69,15.42,15.42,0,0,1-.55,4.48" transform="translate(17.79 189.86)"/><path class="cls-13" d="M659.62,148.87a4.12,4.12,0,0,1,1,1.74,5.32,5.32,0,0,1,.25,1.9,5.54,5.54,0,0,1-.39,1.88,4,4,0,0,1-1.15,1.65,8.63,8.63,0,0,1-.4-1.88,12.45,12.45,0,0,1-.06-1.73,14.2,14.2,0,0,1,.19-1.71A7.91,7.91,0,0,1,659.62,148.87Z" transform="translate(17.79 189.86)"/><path class="cls-21" d="M661.51,148.17a9.15,9.15,0,0,1-.42,6.53" transform="translate(17.79 189.86)"/><path class="cls-13" d="M661.51,148.17a3.34,3.34,0,0,1,1.13,1.54,4.38,4.38,0,0,1,.26,1.83,4.23,4.23,0,0,1-.49,1.77,3.28,3.28,0,0,1-1.32,1.39,9.6,9.6,0,0,1-.2-1.77v-1.52a9.56,9.56,0,0,1,.17-1.51A10.23,10.23,0,0,1,661.51,148.17Z" transform="translate(17.79 189.86)"/><path class="cls-21" d="M664.1,147a8.75,8.75,0,0,1-.42,6.38" transform="translate(17.79 189.86)"/><path class="cls-13" d="M664.1,147a3.3,3.3,0,0,1,1.13,1.5,4.24,4.24,0,0,1,.26,1.8A4.18,4.18,0,0,1,665,152a3.22,3.22,0,0,1-1.32,1.34,9.18,9.18,0,0,1-.2-1.73,12.35,12.35,0,0,1,0-1.49,9.07,9.07,0,0,1,.17-1.47A11.84,11.84,0,0,1,664.1,147Z" transform="translate(17.79 189.86)"/><path class="cls-21" d="M667,147a10.48,10.48,0,0,1,.28,2.16,10.75,10.75,0,0,1-.55,3.6" transform="translate(17.79 189.86)"/><path class="cls-13" d="M667,147a3.11,3.11,0,0,1,1,1.37,4.06,4.06,0,0,1,.25,1.58,4,4,0,0,1-.4,1.55,3,3,0,0,1-1.14,1.26,6.51,6.51,0,0,1-.4-1.56,7.63,7.63,0,0,1-.06-1.35,6.76,6.76,0,0,1,.19-1.34A6.39,6.39,0,0,1,667,147Z" transform="translate(17.79 189.86)"/><circle class="cls-21" cx="618.35" cy="343.21" r="45.47"/><path class="cls-2" d="M643.53,153.35c-.27,17.92-11.33,34.35-28.39,40.44a43,43,0,1,1-5.75-82.5c19.88,4.22,33.84,21.9,34.14,42.06.05,3.22,5.05,3.23,5,0A48,48,0,1,0,609.4,200.5c22.66-4.12,38.79-24.42,39.13-47.15C648.58,150.13,643.58,150.13,643.53,153.35Z" transform="translate(17.79 189.86)"/><circle class="cls-23" cx="599.65" cy="344.56" r="11.07"/><circle class="cls-23" cx="639.38" cy="344.56" r="11.07"/><path class="cls-23" d="M598.93,172.22l-2.2,3.09a2.56,2.56,0,0,0,2,4l4.51.13a2.57,2.57,0,0,0,2.65-2.47,2.65,2.65,0,0,0-.49-1.59l-2.32-3.22a2.56,2.56,0,0,0-3.58-.52A2.61,2.61,0,0,0,598.93,172.22Z" transform="translate(17.79 189.86)"/></g></g></svg>