<svg id="Calque_1" data-name="Calque 1" xmlns="http://www.w3.org/2000/svg" viewBox="0 0 1282 816.01"><defs><style>.cls-1,.cls-21,.cls-22,.cls-23{fill:#231f20;}.cls-1,.cls-18,.cls-23{stroke:#231f20;}.cls-1,.cls-11,.cls-18,.cls-22,.cls-23,.cls-3{stroke-miterlimit:10;}.cls-2{opacity:0.17;}.cls-18,.cls-3{fill:none;}.cls-3{stroke:#f4eddf;}.cls-4{fill:#fbcaaa;}.cls-5{fill:#333;}.cls-6{fill:#ef8b46;}.cls-7{fill:#f3ac71;}.cls-8{fill:#f6c785;}.cls-9{fill:#ef9d9c;}.cls-10{fill:#8c959d;}.cls-11{fill:#d1d3d4;stroke:#939598;}.cls-12{fill:#939598;}.cls-13{fill:#808285;}.cls-14,.cls-16{fill:#414042;}.cls-15{fill:#bb5a3f;}.cls-16{opacity:0.33;}.cls-17{fill:#445d7b;}.cls-18{opacity:0.28;}.cls-19{fill:#fbcc34;}.cls-20{fill:#fff;}.cls-22{stroke:#f1f2f2;}.cls-22,.cls-23{stroke-width:0.5px;}</style></defs><title>ban2</title><rect class="cls-1" x="0.5" y="162.53" width="1281" height="652.99"/><g class="cls-2"><path class="cls-3" d="M433.39,505.94H-5.16V-182.55h994.3v364c-.73-1-1.55-2-2.17-3.11-6.37-11.09-12.81-22.13-19-33.33-1.61-2.94-3.32-4.15-6.84-4.09-12.8.24-25.61,0-38.41.08a4.82,4.82,0,0,1-4.87-2.79c-6.58-11.7-13.32-23.28-19.93-35a4.17,4.17,0,0,0-4.18-2.56q-21.15.13-42.3-.06a4.49,4.49,0,0,0-4.51,2.7c-6.67,11.64-13.52,23.21-20.18,34.86a4.8,4.8,0,0,1-4.87,2.81c-12.55-.21-25.1-.33-37.65-.25-2.75,0-4.13-1-5.43-3.26-6.39-11.37-13-22.62-19.34-34-1.39-2.52-3-3.31-5.77-3.29-12.94.08-25.88-.12-38.81-.06-2.49,0-3.94-.64-5.19-2.89q-9.26-16.59-18.83-33a4.37,4.37,0,0,1,0-5.21q9.75-16.49,19.28-33.15A4.79,4.79,0,0,1,715,23.14c13.71.16,27.42.07,41.13.25a5.06,5.06,0,0,0,5.14-3q10.26-18,20.81-35.84a4.08,4.08,0,0,0,.09-4.86q-10.5-18.06-20.73-36.31a4.83,4.83,0,0,0-4.86-2.81c-13.72,0-27.43,0-41.14-.31-2.76-.06-4.1,1-5.4,3.22-6.38,11.21-13,22.3-19.4,33.53a4.8,4.8,0,0,1-4.84,2.81q-20-.22-40-.08c-2.33,0-3.42-.83-4.49-2.74-6.46-11.48-12.94-22.93-19.63-34.3-1.25-2.11-1.07-3.54.13-5.55,6.73-11.32,13.25-22.77,20-34.09a4.8,4.8,0,0,0,.11-5.6q-10.54-18-20.79-36.26a4.51,4.51,0,0,0-4.59-2.58c-13.06.09-26.13-.07-39.19.08-2.81,0-4.36-.78-5.75-3.27-6.39-11.52-13-22.89-19.51-34.36-1.06-1.89-2.19-2.77-4.51-2.76q-21,.13-41.91-.09a4.56,4.56,0,0,0-4.58,2.59C494.47-167.54,487.6-156,481-144.31c-1.26,2.2-2.58,3-5.14,3-13.06-.18-26.13-.07-39.2-.25a5.14,5.14,0,0,0-5.16,3c-6.64,11.64-13.52,23.21-20.18,34.88a4.77,4.77,0,0,1-4.84,2.78c-12.94-.15-25.87,0-38.81-.2a4.85,4.85,0,0,0-4.89,2.77C356.29-87,349.61-75.87,343.17-64.5c-1.49,2.63-3.07,3.82-6.3,3.75-12-.32-24.06-.37-36.08-.28-2.88,0-4.33-1-5.69-3.45-6.21-11.16-12.75-22.16-19-33.38-1.33-2.41-2.83-3.1-5.43-3.1-12.81.08-25.62-.15-38.41,0-3.2,0-4.78-1.11-6.25-3.76-6.28-11.28-12.83-22.41-19.15-33.68a4.78,4.78,0,0,0-4.81-2.88q-20.74.09-41.52-.15a4.81,4.81,0,0,0-4.81,2.85c-6.53,11.42-13.23,22.78-19.77,34.24-1.37,2.4-2.81,3.42-5.71,3.37-12.93-.19-25.87,0-38.81-.15-2.45,0-3.93.54-5.24,2.83-6.81,12-13.8,23.91-20.85,35.82a4.44,4.44,0,0,0,0,5.2Q75.88-39.36,86-21.28c1.35,2.43,2.93,3.05,5.51,3.05,13.07-.06,26.13.11,39.2.07a4.82,4.82,0,0,1,4.87,2.79q9.65,17.24,19.65,34.28c1.16,2,1,3.36-.13,5.24Q145.07,41,135.38,58c-1.28,2.25-2.71,2.94-5.21,2.91-12.55-.21-25.1-.12-37.64-.35-2.72,0-4.11.88-5.44,3.19C80.72,75,74.08,86,67.69,97.26c-1.51,2.64-3.15,3.76-6.33,3.7-12.8-.23-25.62-.07-38.42-.23-2.51,0-3.88.67-5.18,2.92q-10.23,18-20.85,35.83a4.46,4.46,0,0,0-.06,5.25Q7.38,162.79,17.63,181a4.78,4.78,0,0,0,4.88,2.74c13.19-.09,26.39.07,39.58,0A4.83,4.83,0,0,1,67,186.53q9.26,16.56,18.83,32.95c1.34,2.29,1.43,4,0,6.31C79.12,237,72.7,248.34,66,259.53c-1.36,2.29-1.48,3.89-.09,6.29q10.41,17.7,20.4,35.65a4.8,4.8,0,0,0,4.88,2.76c13.2-.08,26.39.07,39.59,0a4.88,4.88,0,0,1,4.89,2.78q9.67,17.24,19.65,34.29c1.22,2.09,1.07,3.62-.12,5.63-6.72,11.33-13.25,22.77-20,34.09-1.21,2-1.33,3.47-.11,5.56q10.45,17.85,20.59,36a4.75,4.75,0,0,0,4.82,2.79c13.2-.07,26.39.12,39.59,0a5.14,5.14,0,0,1,5.14,3c6.37,11.38,13,22.63,19.35,34,1.26,2.23,2.56,3.29,5.33,3.27,13.71-.13,27.42-.06,41.14.12a5,5,0,0,0,5.14-3c6.58-11.57,13.38-23,20-34.54a4.83,4.83,0,0,1,4.89-2.84q18.81.33,37.64.29c2.46,0,3.64,1,4.76,3,6.39,11.37,13,22.64,19.35,34a4.77,4.77,0,0,0,4.85,2.83c10.73-.1,21.52.67,32.19-.18,8.26-.66,12.73,2.06,16.3,9.48C421.24,485.52,427.58,495.6,433.39,505.94Z" transform="translate(166 183.05)"/><path class="cls-3" d="M989.14,183.82V505.94H757.84c7.36-12.6,14.74-25.17,22-37.82a4.49,4.49,0,0,1,4.55-2.58c13.2.14,26.39.07,39.59.23,2.33,0,3.73-.54,4.93-2.65q10.27-18,20.85-35.82a4.8,4.8,0,0,0,.05-5.62C843,409.86,836.11,398,829.46,386c-1.35-2.42-2.9-3.11-5.5-3.11-12.93,0-25.87-.17-38.81-.13-2.61,0-4.19-.65-5.52-3q-9.69-17.43-19.78-34.66a4.44,4.44,0,0,1,0-5.2q9.71-16.29,19.09-32.82c1.34-2.37,2.9-3.05,5.5-3,12.94.15,25.87,0,38.81.17,2.71,0,4.09-.87,5.44-3.2,6.56-11.56,13.37-23,20-34.54a4.77,4.77,0,0,1,4.87-2.76c13.07.14,26.14,0,39.2.18a4.84,4.84,0,0,0,4.87-2.81c6.39-11.21,13-22.29,19.4-33.54,1.64-2.91,3.34-4.17,6.89-4.07,12.66.36,25.35.22,38,.46,2.57,0,3.88-.78,5.14-3,6-10.56,12.15-21,18.3-31.48C986.47,187.52,987.86,185.7,989.14,183.82Z" transform="translate(166 183.05)"/><path class="cls-3" d="M989.14,183.82c-1.28,1.88-2.67,3.7-3.83,5.66-6.15,10.46-12.31,21-18.3,31.48-1.25,2.2-2.57,3-5.14,3-12.66-.24-25.35-.09-38-.45-3.55-.1-5.25,1.16-6.88,4.06-6.35,11.26-13,22.33-19.41,33.55a4.81,4.81,0,0,1-4.87,2.8c-13.06-.14-26.13,0-39.19-.18a4.86,4.86,0,0,0-4.88,2.77c-6.6,11.55-13.41,23-20,34.54-1.32,2.33-2.7,3.23-5.43,3.2-12.93-.17-25.87,0-38.81-.17-2.61,0-4.17.65-5.51,3q-9.32,16.53-19.08,32.83a4.37,4.37,0,0,0,0,5.2q10.05,17.24,19.77,34.66c1.33,2.39,2.92,3.05,5.52,3,12.93-.05,25.87.16,38.81.13,2.6,0,4.16.68,5.51,3.11,6.65,12,13.49,23.82,20.39,35.64a4.8,4.8,0,0,1,0,5.62q-10.57,17.85-20.86,35.82c-1.2,2.11-2.6,2.68-4.93,2.65-13.19-.17-26.39-.1-39.58-.24a4.51,4.51,0,0,0-4.56,2.59c-7.28,12.64-14.68,25.22-22.05,37.82H709.66a3.44,3.44,0,0,0-.18-1.11C702.37,492.42,695.3,480,688,467.62a5.3,5.3,0,0,0-4-1.95q-20-.24-39.93-.07a4.76,4.76,0,0,1-4.83-2.8c-6.57-11.69-13.32-23.28-19.9-35a4.51,4.51,0,0,0-4.55-2.62q-18.63.17-37.21,0a4.86,4.86,0,0,0-4.86,2.78c-6.72,11.76-13.65,23.4-20.38,35.16a4.49,4.49,0,0,1-4.54,2.6c-13.3-.12-26.62-.17-39.93,0a5.69,5.69,0,0,0-4.23,2.17c-7.54,12.63-14.85,25.38-22.24,38.1H433.34c-5.81-10.34-12.15-20.41-17.23-31.09-3.53-7.43-8-10.15-16.3-9.49-10.67.85-21.46.08-32.19.19a4.79,4.79,0,0,1-4.84-2.84c-6.4-11.36-13-22.63-19.35-34-1.13-2-2.33-3-4.77-3q-18.81,0-37.64-.28a4.81,4.81,0,0,0-4.89,2.83c-6.61,11.54-13.4,23-20,34.54a5,5,0,0,1-5.14,3c-13.71-.18-27.42-.25-41.14-.12-2.77,0-4.07-1-5.32-3.26-6.39-11.38-13-22.63-19.36-34a5.08,5.08,0,0,0-5.14-3c-13.2.08-26.39-.11-39.59,0a4.76,4.76,0,0,1-4.82-2.8q-10.14-18.08-20.59-36c-1.22-2.09-1.09-3.53.11-5.56,6.74-11.32,13.26-22.76,20-34.09a4.85,4.85,0,0,0,.11-5.63q-10-17.07-19.65-34.28a4.82,4.82,0,0,0-4.89-2.79c-13.2.08-26.39-.07-39.59,0a4.8,4.8,0,0,1-4.88-2.76q-9.92-18-20.3-35.73c-1.39-2.37-1.27-4,.1-6.29,6.69-11.19,13.1-22.55,19.8-33.75,1.4-2.33,1.31-4,0-6.3q-9.6-16.38-18.84-33a4.76,4.76,0,0,0-4.88-2.74c-13.2.09-26.39-.07-39.59,0-2.33,0-3.7-.64-4.88-2.74Q7.41,162.76-3.13,144.7a4.44,4.44,0,0,1,.06-5.24q10.59-17.85,20.85-35.83c1.27-2.25,2.67-2.95,5.19-2.92,12.8.16,25.61,0,38.41.23,3.18.06,4.83-1.06,6.33-3.71,6.38-11.23,13-22.31,19.41-33.54,1.31-2.33,2.7-3.23,5.43-3.18,12.54.23,25.1.14,37.64.34,2.51,0,3.93-.65,5.22-2.9q9.65-17,19.67-33.82c1.11-1.89,1.3-3.25.13-5.25q-10-17.07-19.65-34.27a4.8,4.8,0,0,0-4.87-2.8c-13.07.05-26.13-.12-39.19-.07-2.59,0-4.16-.62-5.51-3q-10.15-18.06-20.63-36a4.44,4.44,0,0,1,0-5.2Q76-80.32,86.25-98.29c1.3-2.33,2.79-2.86,5.24-2.83,12.93.11,25.87,0,38.81.15,2.89,0,4.34-1,5.7-3.37,6.54-11.46,13.24-22.82,19.73-34.23,1.16-2,2.39-2.88,4.81-2.85q20.76.28,41.52.15a4.82,4.82,0,0,1,4.81,2.89C213.19-127.12,219.74-116,226-104.7c1.47,2.64,3,3.8,6.25,3.75,12.8-.17,25.61.06,38.41,0,2.62,0,4.12.7,5.43,3.11,6.21,11.18,12.72,22.18,18.95,33.38C296.42-62,297.87-61,300.75-61q18-.12,36.09.28c3.22.08,4.8-1.12,6.29-3.74,6.44-11.35,13.12-22.56,19.58-33.89a4.79,4.79,0,0,1,4.88-2.76c12.94.15,25.87,0,38.81.19a4.8,4.8,0,0,0,4.84-2.78c6.66-11.64,13.54-23.2,20.18-34.88a5.06,5.06,0,0,1,5.16-3c13.07.18,26.14.07,39.2.26a5.07,5.07,0,0,0,5.14-3c6.64-11.64,13.51-23.22,20.18-34.87a4.54,4.54,0,0,1,4.58-2.59q21,.19,41.92.09c2.32,0,3.44.86,4.51,2.76,6.46,11.47,13.11,22.84,19.5,34.36,1.39,2.5,2.94,3.3,5.75,3.27,13.07-.15,26.13,0,39.19-.08a4.52,4.52,0,0,1,4.59,2.58q10.25,18.24,20.79,36.31a4.77,4.77,0,0,1-.11,5.59c-6.72,11.33-13.24,22.78-20,34.09-1.2,2-1.38,3.44-.13,5.55q10,17.06,19.63,34.29c1.07,1.91,2.19,2.76,4.49,2.74q20-.15,40,.08a4.84,4.84,0,0,0,4.84-2.81c6.4-11.22,13-22.31,19.41-33.53,1.29-2.27,2.63-3.27,5.39-3.22,13.71.26,27.42.33,41.14.32a4.82,4.82,0,0,1,4.86,2.8q10.23,18.24,20.76,36.32a4.06,4.06,0,0,1-.09,4.86Q771.57,2.46,761.27,20.44c-1.25,2.19-2.57,3-5.13,3-13.72-.18-27.43-.09-41.14-.24A4.83,4.83,0,0,0,710.11,26Q700.62,42.57,690.85,59a4.48,4.48,0,0,0,0,5.21q9.54,16.41,18.83,33c1.25,2.25,2.71,2.91,5.19,2.89,12.93-.06,25.87.14,38.81.06,2.79,0,4.38.77,5.78,3.29,6.32,11.4,12.94,22.65,19.33,34,1.28,2.26,2.66,3.27,5.44,3.26,12.55-.08,25.09,0,37.64.25a4.84,4.84,0,0,0,4.88-2.81c6.67-11.64,13.52-23.2,20.18-34.86a4.47,4.47,0,0,1,4.51-2.7q21.15.19,42.3.06a4.16,4.16,0,0,1,4.18,2.56c6.6,11.7,13.35,23.29,19.93,35a4.78,4.78,0,0,0,4.87,2.79c12.8-.09,25.61.16,38.41-.08,3.52-.06,5.22,1.15,6.84,4.09,6.21,11.2,12.62,22.24,19,33.33.63,1.09,1.45,2.08,2.18,3.11ZM735.65,20.75v.07c6.6,0,13.2.12,19.79-.1a5.46,5.46,0,0,0,3.88-2.22q10.15-16.93,19.91-34.15a5.34,5.34,0,0,0,.1-4.44c-6.44-11.49-13.09-22.86-19.55-34.33a4.19,4.19,0,0,0-4.23-2.49q-19.59.1-39.18-.11a4.46,4.46,0,0,0-4.56,2.61q-9.59,16.81-19.48,33.47c-1.11,1.88-1.29,3.27-.12,5.26q9.9,16.88,19.45,33.94a4.43,4.43,0,0,0,4.59,2.53C722.72,20.67,729.19,20.75,735.65,20.75ZM43.1,181.09v.24c6.46,0,12.93.13,19.41-.1a5.44,5.44,0,0,0,3.88-2.17q10.29-17.26,20.26-34.78a4.83,4.83,0,0,0,0-4Q77,123,67,106a5.36,5.36,0,0,0-3.8-2.33q-19.77-.39-39.54-.28a5.37,5.37,0,0,0-3.89,2.22Q9.57,122.68-.28,140a5,5,0,0,0,0,4.12q9.68,17.43,19.78,34.6A5.42,5.42,0,0,0,23.33,181C29.91,181.22,36.51,181.09,43.1,181.09Zm553.26-239v-.3c-6.59,0-13.19-.14-19.77.1a5.87,5.87,0,0,0-4.19,2.33q-10.2,16.88-19.92,34.06a5.32,5.32,0,0,0,0,4.45Q562.1,0,572.14,17a5.77,5.77,0,0,0,4.1,2.46c12.92.3,25.84.29,38.81.52a4.25,4.25,0,0,0,4.24-2.49C625.9,6,632.67-5.47,639.23-17a5.27,5.27,0,0,0,.11-4.38q-9.51-17.07-19.45-33.91a5.84,5.84,0,0,0-4.1-2.44C609.3-58,602.82-57.88,596.36-57.88ZM181.6-138.52v-.28c-6.59,0-13.19-.14-19.76.11a5.85,5.85,0,0,0-4.19,2.33c-6.72,11.16-13.19,22.51-19.83,33.69a4.5,4.5,0,0,0,.07,5.28q9.75,16.73,19.23,33.58A4.89,4.89,0,0,0,162-60.93q19,0,38,.28a4.84,4.84,0,0,0,4.82-2.87q9.69-17,19.69-33.78a4.46,4.46,0,0,0,0-5.21q-9.66-16.55-19-33.26a4.71,4.71,0,0,0-4.86-2.76C194.27-138.43,187.94-138.52,181.6-138.52ZM457.35,503.11v.3c6.46,0,12.92-.12,19.4.06a4.8,4.8,0,0,0,4.86-2.8q9.5-16.65,19.31-33.1c1.34-2.23,1.14-3.79-.08-5.9q-9.66-16.53-19-33.24a4.82,4.82,0,0,0-4.87-2.78q-19,0-38-.37c-2.16,0-3.51.52-4.66,2.5q-9.78,17.14-19.85,34.16a4.47,4.47,0,0,0,0,5.24q9.68,16.54,19,33.26a4.78,4.78,0,0,0,4.92,2.75C444.68,503,451,503.11,457.35,503.11ZM595.41-61.27V-61c6.46,0,12.92-.09,19.4.06a4.6,4.6,0,0,0,4.66-2.56c6.53-11.44,13.24-22.76,19.72-34.22a5.24,5.24,0,0,0-.05-4.35q-9.6-17.26-19.61-34.27a5.74,5.74,0,0,0-4.13-2.42c-12.92-.24-25.85-.14-38.77-.31-2.33,0-3.41.91-4.48,2.77-6.5,11.3-13.2,22.51-19.59,33.83a5.73,5.73,0,0,0-.07,4.79Q562-80.6,571.89-63.75a5.9,5.9,0,0,0,4.17,2.38C582.48-61.13,588.94-61.27,595.41-61.27ZM526.86-179.12v-.19c-6.59,0-13.19-.15-19.79.11a5.8,5.8,0,0,0-4.14,2.33q-10.1,16.74-19.7,33.8a5.73,5.73,0,0,0-.09,4.79Q492.73-121,502.77-104a5.44,5.44,0,0,0,3.88,2.22c12.93.27,25.87.25,38.81.47a4.52,4.52,0,0,0,4.54-2.67c6.48-11.32,13.2-22.51,19.58-33.88a6.21,6.21,0,0,0,.07-5.13q-9.36-17-19.24-33.62a5.84,5.84,0,0,0-4.14-2.43C539.8-179.26,533.33-179.12,526.86-179.12Zm207,682.4v.2c6.59,0,13.19.12,19.77-.1a5.4,5.4,0,0,0,3.88-2.14q10.25-17.07,20.08-34.45a4.9,4.9,0,0,0,0-4.07q-9.74-17.4-19.84-34.57a5.32,5.32,0,0,0-3.81-2.24c-12.93-.27-25.85-.26-38.78-.47a4.66,4.66,0,0,0-4.65,2.58q-9.81,17.13-19.86,34.15a4.13,4.13,0,0,0,0,4.87q9.76,16.71,19.22,33.6a4.78,4.78,0,0,0,4.94,2.72C721.24,503.2,727.58,503.28,733.91,503.28Zm-.38-322.77v.16c6.34,0,12.67-.11,19,.06a4.73,4.73,0,0,0,4.86-2.79q9.57-16.81,19.48-33.44a4.79,4.79,0,0,0-.06-5.6q-9.64-16.56-19-33.26c-1.06-1.89-2.19-2.78-4.5-2.77-12.92,0-25.84-.2-38.8-.11a5.79,5.79,0,0,0-4.2,2.33Q700,122.16,690.21,139.53a4.83,4.83,0,0,0-.11,4q9.75,17.4,19.84,34.59a5.81,5.81,0,0,0,4.21,2.27c6.45.24,12.93.1,19.38.1Zm70,282.67v.07c6.33,0,12.67-.11,19,.06a4.74,4.74,0,0,0,4.92-2.67c6.45-11.32,13.12-22.51,19.51-33.87a5.71,5.71,0,0,0,0-4.75q-9.5-17.07-19.41-33.91a5.72,5.72,0,0,0-4.11-2.41q-19.58-.33-39.15-.12a5.71,5.71,0,0,0-4.06,2.45q-10.1,16.75-19.69,33.77a5.77,5.77,0,0,0-.14,4.79q9.57,17.27,19.62,34.24a5.87,5.87,0,0,0,4.21,2.25C790.66,463.32,797.1,463.18,803.57,463.18ZM181.44,345.25v-.06c-6.59,0-13.19-.1-19.77.08a5.06,5.06,0,0,0-3.64,1.91Q147.8,364.27,138,381.64a5.32,5.32,0,0,0,0,4.45c6.41,11.5,13,22.86,19.53,34.33a4.13,4.13,0,0,0,4.21,2.48q19.4-.13,38.8.08a4.61,4.61,0,0,0,4.55-2.64q9.67-17,19.68-33.79a4.44,4.44,0,0,0-.09-5.2q-9.73-16.73-19.23-33.59a4.42,4.42,0,0,0-4.58-2.56C194.37,345.33,187.91,345.25,181.44,345.25Zm-.36-3.17v.07c6.59,0,13.19.12,19.77-.1a5.37,5.37,0,0,0,3.84-2.17q10.25-17.08,20.08-34.43a4.87,4.87,0,0,0-.09-4Q215,284,204.88,266.82a5.32,5.32,0,0,0-3.88-2.2q-19.58-.3-39.15-.13a5.38,5.38,0,0,0-3.88,2.12q-10.26,17.08-20.08,34.44a5.37,5.37,0,0,0,0,4.47q9.6,17.26,19.62,34.26a5.38,5.38,0,0,0,3.88,2.2C167.89,342.2,174.49,342.08,181.08,342.08ZM872.73,103.16v-.07c-6.46,0-12.93.1-19.41,0a4.73,4.73,0,0,0-4.89,2.72c-6.38,11.23-12.9,22.37-19.47,33.46-1,1.75-1.21,3-.12,4.86,6.65,11.36,13.08,22.85,19.77,34.16a5.69,5.69,0,0,0,4.11,2.32q19.39.34,38.76.14a5.75,5.75,0,0,0,4.18-2.32q10.27-17.08,20.08-34.45a5.3,5.3,0,0,0-.12-4.39c-6.33-11.38-12.9-22.64-19.3-34a4.14,4.14,0,0,0-4.23-2.5c-6.43.21-12.9.11-19.36.11Zm-760.67,121v0c-6.46,0-12.93.1-19.41,0a4.45,4.45,0,0,0-4.56,2.62q-9.61,16.78-19.48,33.45a4.54,4.54,0,0,0,0,5.24c6.55,11.26,12.92,22.62,19.54,33.84a5.7,5.7,0,0,0,4.08,2.44q19.56.3,39.14.05a5.33,5.33,0,0,0,3.88-2.18c6.77-11.29,13.29-22.71,20-34a4.58,4.58,0,0,0,0-5.29q-9.75-16.69-19.2-33.58c-1.14-2-2.5-2.54-4.66-2.5-6.46.09-12.91,0-19.37,0Zm552.8-164.5v.23c6.6,0,13.2.14,19.79-.11a5.86,5.86,0,0,0,4.16-2.33q10.1-16.77,19.7-33.8a5.3,5.3,0,0,0,.13-4.44Q699,1.92,689-15.09a5.8,5.8,0,0,0-4.12-2.46c-12.93-.26-25.87-.22-38.81-.39a4.25,4.25,0,0,0-4.3,2.38c-6.62,11.55-13.41,23-20,34.55a5.32,5.32,0,0,0,.05,4.4C628.1,34.67,634.61,45.83,641,57.08a4.41,4.41,0,0,0,4.5,2.66c6.44-.17,12.91-.06,19.37-.06ZM250.59,463.18v.07c6.46,0,12.93-.11,19.41.06a4.46,4.46,0,0,0,4.52-2.68q9.62-16.78,19.49-33.44A4.43,4.43,0,0,0,294,422q-9.85-16.87-19.4-33.92a4.15,4.15,0,0,0-4.2-2.51q-19.4.14-38.77,0a4.56,4.56,0,0,0-4.55,2.65q-9.72,17-19.66,33.8c-1,1.72-1.27,3-.15,4.86q9.89,16.86,19.4,33.93c1.12,2,2.46,2.54,4.61,2.5C237.67,463.1,244.13,463.18,250.59,463.18ZM180.79,19.31v.18c6.46,0,12.92-.09,19.4.05A4.45,4.45,0,0,0,204.78,17Q214.36.14,224.27-16.46a4.5,4.5,0,0,0-.07-5.27q-9.84-16.89-19.4-33.94a4.48,4.48,0,0,0-4.51-2.67q-19.18.15-38.39,0a4.49,4.49,0,0,0-4.51,2.69q-9.82,17.13-19.89,34.11c-1.11,1.86-.92,3.1.08,4.85Q147.3,0,156.81,16.86A4.11,4.11,0,0,0,161,19.35C167.59,19.23,174.19,19.31,180.79,19.31ZM941.28,221.12v.13c6.59,0,13.2.14,19.77-.11a5.79,5.79,0,0,0,4.11-2.39Q975.24,202,984.85,185a5.72,5.72,0,0,0,.09-4.77c-6.39-11.51-13.06-22.86-19.51-34.33a4.17,4.17,0,0,0-4.27-2.4c-12.92.08-25.86.09-38.81-.05-2.33,0-3.42.88-4.48,2.72q-9.74,17-19.68,33.79a4.13,4.13,0,0,0,0,4.87c6.56,11.26,12.93,22.63,19.56,33.85a5.74,5.74,0,0,0,4.11,2.33c6.48.25,13,.11,19.42.11ZM111.26-21v.23c6.46,0,12.94.16,19.4-.12a6.29,6.29,0,0,0,4.5-2.48C142-34.64,148.55-46,155.07-57.48a4.94,4.94,0,0,0,.17-4.07q-9.81-17.58-20-34.93a5,5,0,0,0-3.62-2q-19.79-.27-39.59-.08a5.35,5.35,0,0,0-3.8,2.27Q78-79.21,68.12-61.84a5,5,0,0,0,0,4.07c6.45,11.48,13.1,22.85,19.55,34.32a4.12,4.12,0,0,0,4.2,2.51C98.33-21.09,104.8-21,111.26-21ZM319.32,180.92v.34c6.47,0,12.94.14,19.41-.11a5.83,5.83,0,0,0,4.18-2.28Q353.1,162,362.8,144.72a4.92,4.92,0,0,0,0-4.08q-9.81-17.53-20-34.94a5.43,5.43,0,0,0-3.88-2.24q-19.41-.36-38.81-.21a5.34,5.34,0,0,0-3.83,2.25Q286,122.57,276.21,140a4.83,4.83,0,0,0,0,4c6.42,11.49,13.07,22.84,19.5,34.33a4.42,4.42,0,0,0,4.55,2.61C306.65,180.84,313,180.92,319.32,180.92Zm414.62,2.84v-.14c-6.59,0-13.2-.13-19.77.09a5.39,5.39,0,0,0-3.88,2.16Q700.14,202.81,690.41,220a5.25,5.25,0,0,0,0,4.42c6.47,11.61,13.19,23.07,19.71,34.65,1.06,1.89,2.28,2.37,4.3,2.33,12.79-.06,25.61-.06,38.38.07a4.52,4.52,0,0,0,4.52-2.65q9.61-16.8,19.48-33.45c1.09-1.85,1.36-3.28.18-5.29-6.58-11.24-12.93-22.62-19.56-33.83a5.82,5.82,0,0,0-4.12-2.4C746.87,183.62,740.4,183.76,733.94,183.76Zm138.57.05v-.12c-6.47,0-12.93.07-19.4-.05a4.46,4.46,0,0,0-4.61,2.54C842.05,197.5,835.38,208.69,829,220a5.33,5.33,0,0,0-.09,4.42q9.69,17.42,19.81,34.59a5.32,5.32,0,0,0,3.88,2.23q19.58.28,39.16.07a5.29,5.29,0,0,0,3.88-2.15q10.15-16.92,19.88-34.11a5.29,5.29,0,0,0,.09-4.37q-9.67-17.42-19.79-34.6a5.38,5.38,0,0,0-3.88-2.2C885.43,183.68,879,183.81,872.51,183.81ZM389,302.14v.16c6.33,0,12.66-.08,19,.05a4.46,4.46,0,0,0,4.61-2.55c6.46-11.31,13.13-22.51,19.56-33.83a4.79,4.79,0,0,0,0-4c-6.48-11.6-13.2-23.08-19.69-34.65a4.57,4.57,0,0,0-4.52-2.75c-12.79,0-25.61-.18-38.37-.11a5.33,5.33,0,0,0-3.88,2.15Q355.46,243.66,345.64,261a4.83,4.83,0,0,0,0,4.07q9.71,17.4,19.81,34.58a5.8,5.8,0,0,0,4.17,2.37C376.08,302.29,382.55,302.14,389,302.14Zm413.72-.46v.11c6.59,0,13.19.09,19.76-.08a4.93,4.93,0,0,0,3.7-1.77q10.34-17.28,20.27-34.79a4.54,4.54,0,0,0,0-3.78q-9.93-17.73-20.19-35.27a4.53,4.53,0,0,0-3.26-1.93q-19.75-.3-39.58-.21a5,5,0,0,0-3.63,2q-10.32,17.28-20.25,34.79a4.89,4.89,0,0,0,0,4.1c6.41,11.49,13.05,22.86,19.5,34.32a4.48,4.48,0,0,0,4.6,2.57c6.42-.13,12.75-.05,19.08-.05Zm-68,43.57v-.06c-6.58,0-13.19-.13-19.76.1a5.35,5.35,0,0,0-3.81,2.2c-6.77,11.27-13.42,22.63-19.86,34.09a6.25,6.25,0,0,0,.15,5.13c6.21,11.28,12.77,22.41,19.06,33.66,1.13,2,2.48,2.51,4.66,2.5,12.66-.06,25.32-.06,38,.07a4.83,4.83,0,0,0,4.88-2.73q9.67-17,19.68-33.76a4.5,4.5,0,0,0,0-5.27q-9.66-16.53-19-33.24a4.71,4.71,0,0,0-4.89-2.74C747.45,345.34,741.12,345.25,734.77,345.25Zm-69.34,40.26v-.22c-6.47,0-12.93-.16-19.41.12a6.36,6.36,0,0,0-4.47,2.54q-10.2,16.91-19.88,34.1a5.24,5.24,0,0,0-.06,4.4q9.5,17.07,19.4,33.91a6.23,6.23,0,0,0,4.46,2.55c12.79.25,25.61.14,38.38.31a4.58,4.58,0,0,0,4.55-2.64c6.55-11.42,13.25-22.75,19.74-34.19a5.28,5.28,0,0,0,.07-4.35c-6.34-11.4-12.93-22.63-19.28-34a4.41,4.41,0,0,0-4.57-2.56c-6.25.12-12.59,0-18.91,0ZM802.82,143.45v-.13c-6.46,0-12.92.09-19.41,0a4.14,4.14,0,0,0-4.24,2.44C772.69,157,766,168.22,759.6,179.52a5.32,5.32,0,0,0,0,4.45q9.69,17.42,19.81,34.57A5.7,5.7,0,0,0,783.5,221c12.79.19,25.58.07,38.37.17a4.47,4.47,0,0,0,4.54-2.59q9.6-16.8,19.47-33.43c1.19-2,1.38-3.52.15-5.63-6.52-11.12-12.8-22.39-19.36-33.49a5.8,5.8,0,0,0-4.12-2.42c-6.52-.25-13.11-.11-19.7-.11ZM111.89,221.19v.4c6.34,0,12.68-.1,19,.06a4.8,4.8,0,0,0,4.94-2.71q9.69-17,19.68-33.82a4.44,4.44,0,0,0,0-5.21q-9.69-16.54-19.06-33.28c-1.19-2.14-2.57-2.75-4.89-2.76-12.54,0-25.09-.08-37.64-.33a5,5,0,0,0-5.2,2.9q-9.66,17-19.67,33.82a4.13,4.13,0,0,0-.08,4.88c6.51,11.14,12.81,22.42,19.4,33.54a5.78,5.78,0,0,0,4.14,2.39C99,221.35,105.42,221.19,111.89,221.19Zm69.56-198.6v-.17c-6.46,0-12.93.13-19.41-.07-2.43-.07-3.65.78-4.81,2.84Q147.84,41.69,138.16,58a4.47,4.47,0,0,0-.11,5.24q10,17.07,19.64,34.26a4.53,4.53,0,0,0,4.51,2.73c12.67,0,25.34.22,38,.13A5.69,5.69,0,0,0,204.4,98q10.2-16.92,19.91-34.15a5.78,5.78,0,0,0,.06-4.78c-6.31-11.4-12.9-22.66-19.28-34a4.51,4.51,0,0,0-4.66-2.56C194.12,22.65,187.79,22.59,181.45,22.59ZM249.51-20.7v.25c6.33,0,12.67.14,19-.1a5.91,5.91,0,0,0,4.16-2.33q10.59-17.59,20.7-35.44a5,5,0,0,0,0-4.09Q283.92-79.34,274.11-96a4.92,4.92,0,0,0-3.5-2.14q-19.78-.36-39.59-.28a5.33,5.33,0,0,0-3.88,2.21q-10.23,17.07-20.06,34.46a5.29,5.29,0,0,0-.08,4.42q9.6,17.24,19.64,34.25a5.81,5.81,0,0,0,4.21,2.33C237.09-20.55,243.3-20.7,249.51-20.7Zm276.63-78v-.06c-6.21,0-12.42.11-18.63-.06-2.33-.06-3.74.56-4.93,2.66C496.25-85,489.69-74,483.44-62.91a6.18,6.18,0,0,0-.15,5.15c6.36,11.52,13,22.87,19.48,34.35A4.18,4.18,0,0,0,507.06-21c12.93-.07,25.87.07,38.81-.07a5.33,5.33,0,0,0,3.88-2.12q10.17-16.94,19.91-34.16a5.28,5.28,0,0,0-.07-4.4Q559.9-79.21,549.78-96.4a5.34,5.34,0,0,0-3.88-2.19C539.33-98.79,532.73-98.66,526.14-98.66ZM250.76,305v-.11c-6.34,0-12.68.08-19,0-2.14,0-3.5.45-4.66,2.47q-9.65,17-19.66,33.78a4.14,4.14,0,0,0,.06,4.87q9.84,16.91,19.41,34a4.52,4.52,0,0,0,4.55,2.66q19.22-.07,38.42.16a4.5,4.5,0,0,0,4.56-2.63q9.6-16.83,19.5-33.48a4.13,4.13,0,0,0,.06-4.87q-10-17.07-19.64-34.28a4.47,4.47,0,0,0-4.6-2.58C263.44,305.1,257.1,305,250.76,305Zm482.92,36.6v.29c6.33,0,12.68-.09,19,0a4.55,4.55,0,0,0,4.66-2.55c6.47-11.31,13.19-22.51,19.58-33.86a5.37,5.37,0,0,0,.1-4.47q-9.71-17.43-19.84-34.61a5.42,5.42,0,0,0-3.88-2.29q-19.59-.37-39.18-.24a4.86,4.86,0,0,0-3.59,2q-10.14,16.95-19.88,34.15a5.29,5.29,0,0,0,.05,4.42q9.69,17.43,19.83,34.62a5.89,5.89,0,0,0,4.13,2.41c6.33.25,12.67.1,19,.1ZM388.37-98.64v-.06c-6.6,0-13.2-.1-19.79.08a5,5,0,0,0-3.65,1.87Q354.58-79.45,344.64-62a4.44,4.44,0,0,0,0,3.74q9.84,17.58,20,34.93a4.9,4.9,0,0,0,3.54,2.11q19.79.25,39.58.07a5.31,5.31,0,0,0,3.84-2.24q10-16.76,19.67-33.78a5.3,5.3,0,0,0,.08-4.39q-9.74-17.41-19.86-34.59a5.85,5.85,0,0,0-4.12-2.4C401.05-98.79,394.7-98.64,388.37-98.64Zm68.3,37.26v.11c6.59,0,13.2.13,19.79-.1a5.4,5.4,0,0,0,3.88-2.2q10.23-17.17,20-34.53a4.81,4.81,0,0,0,.06-4q-9.62-17.27-19.64-34.26a5.7,5.7,0,0,0-4.06-2.51q-19.59-.32-39.19-.08a5.8,5.8,0,0,0-4.11,2.42q-10,16.59-19.49,33.46a5.25,5.25,0,0,0-.11,4.37q9.78,17.61,20,35a5.4,5.4,0,0,0,3.88,2.23c6.28.22,12.63.1,19,.1Zm70.22,524.57v.06c6.47,0,12.94-.08,19.41,0,2.16,0,3.46-.49,4.6-2.5q9.48-16.67,19.29-33.15c1.1-1.86,1.28-3.23.12-5.22q-10-17.07-19.63-34.29a4.48,4.48,0,0,0-4.59-2.57q-18.81,0-37.64-.2c-2.33,0-3.73.56-4.94,2.68q-9.67,17-19.69,33.81a4.19,4.19,0,0,0,0,4.88q9.82,16.9,19.4,34c1.13,2,2.47,2.57,4.66,2.53,6.32-.15,12.67-.07,19-.07ZM457.18,100v.18c6.59,0,13.2.13,19.78-.1A5.44,5.44,0,0,0,480.84,98Q491.05,81,500.76,63.86a4.94,4.94,0,0,0,.06-4.12q-9.81-17.58-20-34.93a5.37,5.37,0,0,0-3.88-2.22q-19.57-.3-39.17-.11a4.91,4.91,0,0,0-3.54,2.06q-10.09,17-19.86,34.15a5.82,5.82,0,0,0,0,4.8Q424,80.74,434,97.74A5.32,5.32,0,0,0,437.8,100C444.25,100.16,450.69,100,457.18,100ZM319.6,261.44v.08c6.47,0,12.94.15,19.41-.11a5.83,5.83,0,0,0,4.14-2.4q10.08-16.77,19.67-33.81a5.29,5.29,0,0,0,.06-4.37q-9.7-17.43-19.81-34.63a5.33,5.33,0,0,0-3.81-2.28q-19.59-.25-39.19,0a5.38,5.38,0,0,0-3.88,2.19q-10.14,16.95-19.89,34.15a4.87,4.87,0,0,0-.05,4c6.49,11.64,13.2,23.08,19.71,34.68,1.15,2.06,2.5,2.54,4.66,2.51C306.93,261.37,313.3,261.44,319.6,261.44ZM112.55,141v.06c6.34,0,12.67-.08,19,0a4.47,4.47,0,0,0,4.61-2.53c6.44-11.33,13.11-22.51,19.55-33.87a4.85,4.85,0,0,0,.11-4q-9.83-17.58-20-34.93a5.39,5.39,0,0,0-3.88-2.21q-19.41-.31-38.81-.12a5.78,5.78,0,0,0-4.18,2.33Q78.86,82.53,69.28,99.57a5.24,5.24,0,0,0-.1,4.35q9.7,17.46,19.8,34.64a5.84,5.84,0,0,0,4.15,2.33C99.61,141.17,106.06,141,112.55,141Zm414.2,160.56v.17c6.33,0,12.66-.11,19,.06a4.46,4.46,0,0,0,4.55-2.6q9.62-16.8,19.49-33.43a4.84,4.84,0,0,0-.08-5.62c-6.5-11.15-12.79-22.41-19.35-33.51a5.76,5.76,0,0,0-4.1-2.46c-12.92-.31-25.84-.3-38.75-.53-2.33,0-3.43.82-4.51,2.72-6.41,11.19-13,22.28-19.36,33.5a5.27,5.27,0,0,0-.06,4.36c6.45,11.64,13.19,23.07,19.65,34.67,1.19,2.15,2.61,2.76,4.92,2.72C514.34,301.5,520.55,301.58,526.75,301.58Zm137.48-81.13v.28c6.46,0,12.93.13,19.41-.11a5.92,5.92,0,0,0,4.16-2.37c6.71-11.16,13.16-22.51,19.79-33.7a4.1,4.1,0,0,0,0-4.85q-9.95-17.08-19.58-34.27a4.46,4.46,0,0,0-4.58-2.61c-12.78.08-25.61-.08-38.37.08a5.75,5.75,0,0,0-4.17,2.32q-10,16.58-19.44,33.44a5.69,5.69,0,0,0-.09,4.74Q631,200.82,641.17,218a5.81,5.81,0,0,0,4.12,2.39C651.57,220.58,657.93,220.45,664.23,220.45ZM457.77,180.69h0c6.33,0,12.66-.06,19,0,2,0,3.2-.42,4.28-2.33q9.66-17,19.69-33.77a4.52,4.52,0,0,0-.07-5.27q-9.82-16.89-19.41-33.92A4.17,4.17,0,0,0,477,103c-12.91.07-25.84-.08-38.75.07a5.69,5.69,0,0,0-4.13,2.33q-10,16.58-19.52,33.45a5.69,5.69,0,0,0-.15,4.74q9.66,17.43,19.81,34.58a5.81,5.81,0,0,0,4.12,2.39c6.45.25,12.92.11,19.38.11Zm206.51-40.53v.18c6.34,0,12.68-.08,19,.06a4.47,4.47,0,0,0,4.59-2.57q9.79-17.16,19.88-34.15a4.16,4.16,0,0,0,.07-4.89c-6.51-11.15-12.8-22.42-19.4-33.54a5.74,5.74,0,0,0-4.11-2.41q-19.4-.31-38.81-.09a5.76,5.76,0,0,0-4.12,2.39q-10.18,16.94-19.92,34.12a5.77,5.77,0,0,0,0,4.81q9.38,16.94,19.25,33.6a5.84,5.84,0,0,0,4.16,2.39C651.34,140.31,657.82,140.16,664.28,140.16ZM250.48,62.89v-.16c-6.46,0-12.93-.12-19.4.1A5.45,5.45,0,0,0,227.2,65q-10.14,17-19.85,34.15a5.24,5.24,0,0,0,0,4.38q9.71,17.38,19.79,34.57a5.34,5.34,0,0,0,3.83,2.28q19.41.36,38.76.2a5.77,5.77,0,0,0,4.19-2.38c6.71-11.16,13.15-22.5,19.79-33.71a4.19,4.19,0,0,0,0-4.89c-6.61-11.37-13-22.85-19.73-34.15A5.86,5.86,0,0,0,269.83,63C263.41,62.74,256.94,62.89,250.48,62.89Zm-.27-2.64v.09c6.46,0,12.93.14,19.41-.1A5.83,5.83,0,0,0,273.8,58q10.09-16.74,19.7-33.75a5.34,5.34,0,0,0,.06-4.44q-9.8-17.58-20-34.93a4.89,4.89,0,0,0-3.5-2.11q-19.58-.36-39.15-.27a5,5,0,0,0-3.65,1.92Q216.9,1.68,207,19.18a4.49,4.49,0,0,0,0,3.76c6.57,11.69,13.2,23.34,20.06,34.88a5.83,5.83,0,0,0,4.18,2.33C237.54,60.39,243.88,60.25,250.21,60.25ZM526.54-17.92V-18c-6.47,0-12.93-.12-19.41.11a5.42,5.42,0,0,0-3.88,2.15q-10.14,16.92-19.87,34.1a5.33,5.33,0,0,0,0,4.42q9.71,17.4,19.82,34.58a5.28,5.28,0,0,0,3.8,2.21q19.41.35,38.76.19a5.37,5.37,0,0,0,3.88-2.16q10.25-17.08,20.06-34.44a5.36,5.36,0,0,0,0-4.45c-6.33-11.38-12.91-22.63-19.29-34a4.73,4.73,0,0,0-4.9-2.72c-6.3.17-12.61.06-18.94.06ZM388,59.55v.08c6.34,0,12.67-.1,19,0A4.73,4.73,0,0,0,411.89,57q9.57-16.85,19.49-33.49a4,4,0,0,0,0-4.87c-6.63-11.37-13.06-22.87-19.75-34.21a5.75,5.75,0,0,0-4.16-2.33c-12.8-.23-25.62-.18-38.41-.32-2.19,0-3.52.55-4.66,2.53Q354.93.95,345.13,17.44a4.46,4.46,0,0,0,0,5.27q10,17.07,19.65,34.28a4.47,4.47,0,0,0,4.59,2.61c6.19-.15,12.4-.05,18.61-.05ZM250.6,301.82v.1c6.33,0,12.66-.09,19,0a4.53,4.53,0,0,0,4.66-2.52c6.39-11.2,13-22.29,19.34-33.52a5.74,5.74,0,0,0,.1-4.73c-6.45-11.64-13.15-23.09-19.66-34.67a4.14,4.14,0,0,0-4.31-2.33c-12.79.08-25.62,0-38.38.11a5.39,5.39,0,0,0-3.88,2.17q-10.23,17.07-20.05,34.43a5.19,5.19,0,0,0,0,4.36Q217,282.51,227,299.52a5.33,5.33,0,0,0,3.82,2.22c6.55.2,13.15.08,19.74.08ZM457.17,19.29v.12c6.6,0,13.19.1,19.78-.08a5.07,5.07,0,0,0,3.64-1.95Q490.82.25,500.67-17.09a4.44,4.44,0,0,0,0-3.77q-9.93-17.76-20.22-35.31a4.91,4.91,0,0,0-3.56-2q-19.59-.26-39.2-.06a4.92,4.92,0,0,0-3.49,2.15Q424-39,414.13-21.64a5.34,5.34,0,0,0,0,4.46q9.5,17.09,19.45,33.94a5.79,5.79,0,0,0,4.12,2.4c6.49.26,13,.11,19.43.11Zm139,325.91v-.14c-6.35,0-12.69.1-19-.05a4.78,4.78,0,0,0-4.88,2.78C565.88,358.9,559.32,369.87,553,381a5.73,5.73,0,0,0-.13,4.74q9.66,17.44,19.82,34.62a5.77,5.77,0,0,0,4.2,2.33c12.67.2,25.35.09,38,.26,2.33,0,3.42-.91,4.47-2.75q9.66-16.83,19.52-33.52c1.18-2,1.33-3.47.1-5.55-6.53-11.13-12.83-22.41-19.4-33.52a5.78,5.78,0,0,0-4.13-2.33C609,345.06,602.58,345.2,596.12,345.2ZM319.7,264.63v-.09c-6.34,0-12.69-.14-19,.1a5.82,5.82,0,0,0-4.19,2.24q-10.1,16.75-19.72,33.79a5.79,5.79,0,0,0,0,4.82c6.39,11.51,13,22.89,19.49,34.37a4.22,4.22,0,0,0,4.29,2.42q19-.07,38,.12c2.16,0,3.51-.52,4.66-2.52,6.53-11.41,13.23-22.77,19.73-34.22a4.88,4.88,0,0,0,.17-4.06q-9.7-17.42-19.85-34.61a5.89,5.89,0,0,0-4.21-2.26C332.64,264.49,326.16,264.63,319.7,264.63Zm276.14,77.52v.1c6.46,0,12.94.14,19.4-.1a5.87,5.87,0,0,0,4.23-2.24q10.1-16.77,19.69-33.81a4.85,4.85,0,0,0,0-4.05q-9.92-17.76-20.19-35.3a4.91,4.91,0,0,0-3.52-2.08q-19.61-.24-39.19,0a5,5,0,0,0-3.56,2.08q-10.25,17.15-20.1,34.49a4.45,4.45,0,0,0-.07,3.71q9.84,17.58,20,34.93a5.47,5.47,0,0,0,3.88,2.2C582.9,342.28,589.37,342.15,595.84,342.15ZM457.61,422.82v0c6.47,0,12.93.14,19.41-.1a5.88,5.88,0,0,0,4.2-2.27q10.15-16.92,19.86-34.15a4.87,4.87,0,0,0,.07-4q-9.82-17.58-20-34.93a4.92,4.92,0,0,0-3.57-2.06q-19.57-.23-39.16,0a4.88,4.88,0,0,0-3.54,2q-10.23,17.12-20.08,34.45a5.4,5.4,0,0,0,0,4.45q9.57,17.24,19.59,34.26a5.42,5.42,0,0,0,3.88,2.22C444.69,422.94,451.15,422.82,457.61,422.82Zm68.92-201.75h0c6.34,0,12.68-.11,19,.07a4.75,4.75,0,0,0,4.9-2.7c6.33-11.1,12.87-22.09,19.15-33.22a5.29,5.29,0,0,0,.11-4.42q-9.8-17.6-20-34.93a5.75,5.75,0,0,0-4.16-2.33q-19.2-.28-38.41,0a5.33,5.33,0,0,0-3.82,2.21q-10.15,16.93-19.88,34.15a5.33,5.33,0,0,0,0,4.42c6.41,11.51,13.05,22.88,19.52,34.35,1,1.78,2.06,2.56,4.2,2.51,6.49-.17,12.95-.07,19.42-.07ZM389.14,305v-.07c-6.46,0-12.93.07-19.4,0-2,0-3.22.42-4.31,2.33C359,318.51,352.28,329.7,345.88,341a5.73,5.73,0,0,0,0,4.79q9.58,17.26,19.63,34.26a5.29,5.29,0,0,0,3.76,2.33q19.41.3,38.81.1a5.35,5.35,0,0,0,3.88-2.14q10.4-17.29,20.32-34.83a4.42,4.42,0,0,0,0-3.73q-9.75-17.38-19.84-34.58a5.36,5.36,0,0,0-3.88-2.19c-6.45-.2-12.91-.08-19.38-.08ZM181.06,261.44v.14c6.6,0,13.2.13,19.78-.1a5.39,5.39,0,0,0,3.88-2.19q10.16-16.92,19.89-34.15a4.9,4.9,0,0,0,0-4.07q-9.72-17.41-19.81-34.61a5.77,5.77,0,0,0-4.12-2.36q-19.22-.37-38.4-.18a5.74,5.74,0,0,0-4.05,2.47q-10.15,16.94-19.86,34.15a5.24,5.24,0,0,0-.13,4.35q9.58,17.27,19.61,34.27a5.35,5.35,0,0,0,3.82,2.2C168.15,261.57,174.6,261.44,181.06,261.44ZM388.3,462.88v.24c6.34,0,12.68-.09,19,.05a4.54,4.54,0,0,0,4.66-2.52q9.7-17,19.69-33.79c1.11-1.86,1.35-3.32.19-5.3-6.52-11.14-12.83-22.4-19.41-33.51a5.73,5.73,0,0,0-4.08-2.44q-19-.39-38-.22a5.87,5.87,0,0,0-4.26,2.26Q355.6,405.1,345.62,422.8a5.23,5.23,0,0,0,.05,4.36c6.14,11.06,12.53,22,18.7,33a4.77,4.77,0,0,0,4.93,2.74c6.32-.12,12.66,0,19,0ZM665,382.49v.08c6.48,0,12.94.14,19.41-.1a5.91,5.91,0,0,0,4.22-2.28q10.1-16.76,19.7-33.8a4.88,4.88,0,0,0,0-4.06q-9.94-17.74-20.25-35.28a4.85,4.85,0,0,0-3.53-2.05q-19.41-.24-38.81,0a4.84,4.84,0,0,0-3.53,2q-10.23,17.11-20.08,34.47a5.37,5.37,0,0,0,0,4.44q9.6,17.25,19.63,34.28a5.37,5.37,0,0,0,3.88,2.19C652,382.62,658.5,382.49,665,382.49Zm-.44-81.11v.27c6.21,0,12.42-.08,18.63,0,2.13.05,3.51-.45,4.66-2.45,6.59-11.54,13.38-23,20-34.53a4.92,4.92,0,0,0,.07-4.08q-9.74-17.4-19.85-34.56a5.33,5.33,0,0,0-3.88-2.15q-19-.37-38-.26a5.76,5.76,0,0,0-4.13,2.39c-6.77,11.29-13.29,22.72-20,34.05a4.13,4.13,0,0,0-.1,4.85q9.87,16.86,19.4,33.93c1.14,2.05,2.51,2.56,4.66,2.53,6.17-.11,12.38,0,18.58,0Zm-68.84-279h0c-6.33,0-12.67.1-19,0a4.46,4.46,0,0,0-4.57,2.6c-6.4,11.2-13,22.29-19.36,33.53a5.7,5.7,0,0,0-.12,4.73q9.57,17.28,19.61,34.28a5.7,5.7,0,0,0,4.08,2.41q19.18.28,38.39,0a5.3,5.3,0,0,0,3.82-2.26q10.23-17.07,20.06-34.47a5.31,5.31,0,0,0,.07-4.41c-6.33-11.39-12.92-22.64-19.31-34a4.14,4.14,0,0,0-4.28-2.4C608.61,22.48,602.15,22.39,595.68,22.39Zm-275.87.53v-.27c-6.33,0-12.67.11-19-.06a4.53,4.53,0,0,0-4.58,2.67q-9.74,17-19.68,33.78a4.44,4.44,0,0,0,0,5.2q9.75,16.7,19.22,33.58c1.08,1.9,2.19,2.78,4.48,2.77,12.54-.07,25.08.12,37.62,0A5.75,5.75,0,0,0,342,98.27Q352.41,81,362.33,63.51a4.9,4.9,0,0,0,0-4.07C356,48.07,349.39,36.82,343,25.47a4.44,4.44,0,0,0-4.58-2.6c-6.21.13-12.41.05-18.62.05ZM250.23,221.09v.12c6.46,0,12.93.13,19.4-.1a5.35,5.35,0,0,0,3.88-2.14q10.26-17.07,20.1-34.44a5,5,0,0,0,.08-4.13q-9.78-17.58-20-34.93a4.55,4.55,0,0,0-3.26-1.89q-19.4-.21-38.77,0a4.9,4.9,0,0,0-3.61,2Q217.67,163,207.63,180.7a4.94,4.94,0,0,0,0,4.12q9.52,17.07,19.46,33.91a5.82,5.82,0,0,0,4.18,2.29C237.56,221.23,243.89,221.09,250.23,221.09ZM320,345.34v-.08c-6.33,0-12.67-.14-19,.11a5.85,5.85,0,0,0-4.18,2.28q-10.17,16.91-19.9,34.1a5.82,5.82,0,0,0,0,4.8q9.46,17.08,19.41,33.94a5.39,5.39,0,0,0,3.78,2.33q19.39.3,38.81.11a4.92,4.92,0,0,0,3.54-2.11q10.31-17.29,20.26-34.8a5.35,5.35,0,0,0,0-4.43c-6.33-11.26-12.85-22.39-19.14-33.64a4.45,4.45,0,0,0-4.54-2.67C332.66,345.44,326.33,345.34,320,345.34Zm206.6,37.11v.06c6.34,0,12.67-.08,19,0,2.15,0,3.48-.5,4.61-2.5,6.52-11.44,13.26-22.75,19.75-34.2a5.37,5.37,0,0,0,.11-4.42q-9.59-17.25-19.6-34.27a5.36,5.36,0,0,0-3.88-2.21c-12.66-.22-25.34-.15-38-.32a4.62,4.62,0,0,0-4.57,2.68c-6.54,11.42-13.28,22.74-19.75,34.2a5.75,5.75,0,0,0,0,4.77c6.25,11.3,12.78,22.43,19.08,33.69a4.44,4.44,0,0,0,4.62,2.52c6.25-.07,12.45,0,18.66,0ZM389.08,143.65v-.15c-6.21,0-12.42.12-18.63-.06-2.47-.06-3.94.57-5.22,2.84q-9.63,17-19.65,33.82a4.13,4.13,0,0,0,0,4.85c6.56,11.26,12.94,22.63,19.56,33.87a5.34,5.34,0,0,0,3.78,2.32q19.2.39,38.4.28a5.35,5.35,0,0,0,3.88-2.22q10.35-17.28,20.29-34.79a4.91,4.91,0,0,0,.1-4.09q-9.63-17.25-19.71-34.26a5.89,5.89,0,0,0-4.22-2.33C401.5,143.51,395.28,143.65,389.08,143.65ZM181.84,103.78v-.19c-6.34,0-12.68-.14-19,.11a5.85,5.85,0,0,0-4.21,2.26q-10.23,16.92-20,34.11a5.45,5.45,0,0,0-.14,4.49q9.69,17.41,19.81,34.62a4.91,4.91,0,0,0,3.55,2q19.22.24,38.42.05a5.4,5.4,0,0,0,3.88-2.2Q214.43,162,224.25,144.6a5.8,5.8,0,0,0,0-4.79c-6.21-11.18-12.69-22.19-18.93-33.38-1.19-2.15-2.58-2.76-4.89-2.72-6.2.16-12.42.07-18.63.07Zm206.53,36.57v0c6.46,0,12.92.11,19.4-.09a5,5,0,0,0,3.64-2q10.32-17.28,20.26-34.8a4.92,4.92,0,0,0,0-4.11q-9.74-17.39-19.84-34.57a4.88,4.88,0,0,0-3.52-2.05q-19.41-.27-38.81-.08a5,5,0,0,0-3.53,2.1q-10.31,17.3-20.24,34.81a5.21,5.21,0,0,0,0,4.37q9.51,17.08,19.44,33.93a5.86,5.86,0,0,0,4.18,2.29c6.3.25,12.64.11,19,.11ZM319.48-58.36v-.1c-6.33,0-12.67-.12-19,.1a5.45,5.45,0,0,0-3.93,2.1c-7,11.64-13.76,23.32-20.49,35.08a4,4,0,0,0,0,3.4q9.85,17.55,20,34.93a4.94,4.94,0,0,0,3.57,2q19.41.24,38.76,0a4.86,4.86,0,0,0,3.55-2Q352.23-.09,362.2-17.59a4.85,4.85,0,0,0,0-4.05q-9.61-17.22-19.63-34.23a5.83,5.83,0,0,0-4.1-2.41c-6.36-.25-12.7-.11-19-.11Zm138,400.68v.21c6.33,0,12.67.14,19-.1a5.87,5.87,0,0,0,4.19-2.27c6.79-11.28,13.31-22.73,20-34.05a4.54,4.54,0,0,0-.06-5.28q-9.64-16.56-19-33.26a4.85,4.85,0,0,0-4.87-2.82c-12.28.06-24.57.05-36.85-.18-2.75-.05-4.12,1-5.43,3.22q-9.49,16.65-19.3,33.11c-1.26,2.1-1.11,3.58.06,5.59q9.65,16.54,19,33.27a4.49,4.49,0,0,0,4.61,2.6C445.07,342.23,451.28,342.32,457.48,342.32ZM458,183.71v-.2c-6,0-11.91.16-17.85-.07-2.8-.1-4.42.71-5.83,3.2q-9.32,16.53-19.07,32.82c-1.27,2.13-1.44,3.73-.13,6Q424.8,242,434.14,258.7a4.54,4.54,0,0,0,4.57,2.65c12.54-.06,25.09.11,37.63,0a5.75,5.75,0,0,0,4.19-2.33q10.28-17.07,20.1-34.45a5.38,5.38,0,0,0-.06-4.46Q491,203,481.11,186.19a5.81,5.81,0,0,0-4.14-2.37C470.64,183.56,464.3,183.71,458,183.71Zm137.19,77.73v0c6.33,0,12.67-.11,19,0a4.47,4.47,0,0,0,4.55-2.63c6.47-11.3,13.13-22.51,19.53-33.85a5.7,5.7,0,0,0,.09-4.73q-9.47-17.07-19.4-33.91a5.73,5.73,0,0,0-4-2.48q-19-.33-38-.11a5.85,5.85,0,0,0-4.22,2.27c-6.85,11.39-13.51,22.88-20.08,34.44a4.88,4.88,0,0,0,0,4q9.72,17.4,19.82,34.58a5.35,5.35,0,0,0,3.82,2.2C582.49,261.56,588.85,261.44,595.16,261.44ZM526.86,62.79v-.06c-6.48,0-12.94-.1-19.41.09a5,5,0,0,0-3.66,1.88q-10.41,17.44-20.5,35.14a4.47,4.47,0,0,0,0,3.75Q493,121,503.16,138.18A5.3,5.3,0,0,0,507,140.3q18.81.31,37.64.14a5.73,5.73,0,0,0,4.18-2.33q10.38-17.27,20.28-34.81a5.21,5.21,0,0,0,.07-4.37Q559.81,82,550,65.32a5.81,5.81,0,0,0-4.12-2.39c-6.28-.28-12.63-.14-19-.14ZM595,180.17v.29c6.21,0,12.42-.1,18.63.06,2.33,0,3.74-.57,4.95-2.69q9.69-17,19.69-33.76a4.58,4.58,0,0,0-.08-5.3q-9.64-16.53-19-33.23a4.52,4.52,0,0,0-4.51-2.71q-18.63,0-37.21-.32c-2.2,0-3.51.57-4.66,2.53-6.59,11.54-13.36,23-19.91,34.53a5.23,5.23,0,0,0-.11,4.36c6.26,11.28,12.77,22.42,19.08,33.67a4.51,4.51,0,0,0,4.59,2.62c6.17-.14,12.38-.05,18.58-.05Z" transform="translate(166 183.05)"/><path class="cls-3" d="M481.51,505.94c7.38-12.72,14.7-25.48,22.24-38.1a5.7,5.7,0,0,1,4.23-2.17c13.31-.14,26.62-.09,39.93,0a4.49,4.49,0,0,0,4.54-2.6c6.73-11.76,13.66-23.4,20.38-35.16a4.78,4.78,0,0,1,4.86-2.78q18.63.18,37.21,0a4.51,4.51,0,0,1,4.55,2.62c6.57,11.7,13.33,23.29,19.89,35a4.75,4.75,0,0,0,4.84,2.8q20-.17,39.92.07a5.29,5.29,0,0,1,4,1.95c7.27,12.34,14.35,24.79,21.46,37.21a3.53,3.53,0,0,1,.18,1.11Z" transform="translate(166 183.05)"/><path class="cls-3" d="M735.65,20.75c-6.46,0-12.93-.08-19.4,0-2.17,0-3.48-.53-4.6-2.53Q702.08,1.19,692.2-15.68c-1.16-2-1-3.38.12-5.26q9.85-16.66,19.49-33.47A4.46,4.46,0,0,1,716.37-57q19.59.21,39.18.11a4.2,4.2,0,0,1,4.23,2.49c6.46,11.47,13.11,22.84,19.51,34.38a5.3,5.3,0,0,1-.1,4.44q-9.75,17.17-19.91,34.15a5.41,5.41,0,0,1-3.88,2.21c-6.59.23-13.2.1-19.79.1Z" transform="translate(166 183.05)"/><path class="cls-3" d="M43.1,181.09c-6.59,0-13.2.13-19.78-.11a5.42,5.42,0,0,1-3.88-2.23Q9.31,161.59-.37,144.15a4.94,4.94,0,0,1,0-4.12q9.87-17.33,20.1-34.44a5.34,5.34,0,0,1,3.88-2.22q19.77-.09,39.58.28A5.34,5.34,0,0,1,67,106q10,17,19.61,34.26a4.83,4.83,0,0,1,0,4q-9.93,17.5-20.27,34.78a5.42,5.42,0,0,1-3.88,2.17c-6.45.23-12.92.1-19.41.1Z" transform="translate(166 183.05)"/><path class="cls-3" d="M596.36-57.88c6.46,0,12.94-.15,19.41.11a5.84,5.84,0,0,1,4.1,2.44Q629.8-38.5,639.3-21.42a5.27,5.27,0,0,1-.11,4.38c-6.55,11.57-13.33,23-19.94,34.53A4.19,4.19,0,0,1,615,20c-12.93-.23-25.85-.22-38.81-.52A5.79,5.79,0,0,1,572.1,17Q562,0,552.44-17.24a5.32,5.32,0,0,1,0-4.45q9.78-17.17,20-34.06a5.87,5.87,0,0,1,4.19-2.33c6.58-.24,13.19-.1,19.77-.1Z" transform="translate(166 183.05)"/><path class="cls-3" d="M181.6-138.52c6.34,0,12.67.09,19,0a4.7,4.7,0,0,1,4.85,2.77q9.31,16.73,19,33.26a4.44,4.44,0,0,1,0,5.2q-10,16.82-19.71,33.78c-1.16,2-2.39,2.91-4.82,2.87Q181-61,162-61a4.89,4.89,0,0,1-4.86-2.88q-9.47-16.87-19.24-33.58a4.52,4.52,0,0,1-.07-5.28c6.65-11.21,13.11-22.51,19.83-33.69a5.85,5.85,0,0,1,4.19-2.33c6.59-.25,13.2-.11,19.77-.11Z" transform="translate(166 183.05)"/><path class="cls-3" d="M457.35,503.11c-6.34,0-12.67-.08-19,.05a4.79,4.79,0,0,1-4.92-2.75q-9.31-16.71-19-33.26a4.46,4.46,0,0,1,0-5.25q10.09-17,19.85-34.15c1.13-2,2.48-2.53,4.65-2.5q19,.31,38,.37a4.8,4.8,0,0,1,4.86,2.78q9.32,16.71,19.05,33.24c1.23,2.1,1.42,3.67.09,5.9q-9.86,16.45-19.32,33.13a4.76,4.76,0,0,1-4.86,2.8c-6.46-.18-12.92-.06-19.41-.06Z" transform="translate(166 183.05)"/><path class="cls-3" d="M595.41-61.27c-6.47,0-12.93.14-19.41-.1a5.88,5.88,0,0,1-4.16-2.38q-9.95-16.83-19.4-33.91a5.73,5.73,0,0,1,.08-4.79c6.41-11.34,13.08-22.51,19.58-33.84,1.07-1.85,2.16-2.79,4.49-2.76,12.91.17,25.84.07,38.77.3a5.77,5.77,0,0,1,4.13,2.43q10,17,19.6,34.26a5.23,5.23,0,0,1,0,4.36c-6.47,11.46-13.2,22.78-19.72,34.21a4.55,4.55,0,0,1-4.65,2.57c-6.46-.15-12.93-.06-19.41-.06Z" transform="translate(166 183.05)"/><path class="cls-3" d="M526.86-179.12c6.47,0,12.94-.14,19.41.12a5.84,5.84,0,0,1,4.14,2.43q9.87,16.66,19.25,33.62a6.24,6.24,0,0,1-.08,5.13c-6.41,11.36-13.1,22.56-19.58,33.88a4.48,4.48,0,0,1-4.54,2.67c-12.93-.22-25.87-.2-38.81-.47a5.44,5.44,0,0,1-3.88-2.22q-10-17-19.63-34.29a5.73,5.73,0,0,1,.09-4.79q9.61-17,19.7-33.79a5.8,5.8,0,0,1,4.14-2.33c6.59-.26,13.2-.11,19.79-.11Z" transform="translate(166 183.05)"/><path class="cls-3" d="M733.91,503.28c-6.33,0-12.67-.08-19,.05a4.78,4.78,0,0,1-4.93-2.72Q700.51,483.7,690.76,467a4.08,4.08,0,0,1,0-4.86q10.08-17,19.85-34.16a4.56,4.56,0,0,1,4.66-2.57c12.92.21,25.85.2,38.77.47a5.3,5.3,0,0,1,3.81,2.24q10.1,17.16,19.84,34.57a4.9,4.9,0,0,1,0,4.07q-9.84,17.34-20.07,34.45a5.44,5.44,0,0,1-3.88,2.14c-6.59.22-13.2.1-19.78.1Z" transform="translate(166 183.05)"/><path class="cls-3" d="M733.53,180.51c-6.45,0-12.93.14-19.4-.1a5.83,5.83,0,0,1-4.22-2.27q-10.14-17.16-19.79-34.6a4.83,4.83,0,0,1,.11-4q9.85-17.34,20.08-34.44a5.75,5.75,0,0,1,4.19-2.33c12.92-.08,25.85.14,38.81.11,2.33,0,3.44.88,4.49,2.77q9.41,16.7,19,33.26a4.79,4.79,0,0,1,0,5.61q-9.89,16.62-19.47,33.43a4.75,4.75,0,0,1-4.87,2.79c-6.32-.17-12.66-.06-19-.06Z" transform="translate(166 183.05)"/><path class="cls-3" d="M803.57,463.18c-6.47,0-12.93.14-19.41-.1a5.87,5.87,0,0,1-4.2-2.25q-10-17-19.57-34.24a5.77,5.77,0,0,1,.14-4.79q9.62-17,19.69-33.77a5.73,5.73,0,0,1,4.06-2.45q19.58-.22,39.15.12a5.76,5.76,0,0,1,4.12,2.41Q837.48,404.92,847,422a5.71,5.71,0,0,1,0,4.75c-6.39,11.36-13.06,22.55-19.51,33.87a4.74,4.74,0,0,1-4.92,2.67c-6.32-.17-12.66-.06-19-.06Z" transform="translate(166 183.05)"/><path class="cls-3" d="M181.44,345.25c6.47,0,12.93.08,19.41-.05a4.43,4.43,0,0,1,4.58,2.56q9.45,16.88,19.22,33.59c1.08,1.85,1.26,3.24.1,5.2q-10,16.8-19.7,33.79A4.57,4.57,0,0,1,200.5,423q-19.41-.21-38.81-.08a4.17,4.17,0,0,1-4.21-2.48C151,409,144.36,397.59,138,386.09a5.32,5.32,0,0,1,0-4.45q9.83-17.36,20.07-34.46a5.06,5.06,0,0,1,3.64-1.91c6.59-.18,13.2-.08,19.77-.08Z" transform="translate(166 183.05)"/><path class="cls-3" d="M181.08,342.08c-6.59,0-13.2.12-19.77-.1a5.38,5.38,0,0,1-3.88-2.2q-10-17-19.62-34.26a5.33,5.33,0,0,1,.05-4.47q9.82-17.34,20.08-34.44a5.36,5.36,0,0,1,3.88-2.12q19.58-.17,39.15.13a5.32,5.32,0,0,1,3.88,2.2q10.1,17.18,19.79,34.59a4.83,4.83,0,0,1,.1,4q-9.86,17.32-20.08,34.43a5.37,5.37,0,0,1-3.84,2.17c-6.59.22-13.2.1-19.77.1Z" transform="translate(166 183.05)"/><path class="cls-3" d="M872.73,103.16c6.46,0,12.93.1,19.4,0a4.13,4.13,0,0,1,4.23,2.49c6.4,11.36,13,22.61,19.3,34a5.31,5.31,0,0,1,.12,4.38Q906,161.34,895.7,178.43a5.73,5.73,0,0,1-4.18,2.33q-19.41.19-38.76-.14a5.65,5.65,0,0,1-4.11-2.33C842,167,835.53,155.47,828.88,144.14c-1.09-1.86-.92-3.11.12-4.86,6.57-11.1,13.09-22.24,19.46-33.46a4.77,4.77,0,0,1,4.9-2.73c6.46.15,12.93.06,19.41.06Z" transform="translate(166 183.05)"/><path class="cls-3" d="M112,224.18c6.46,0,12.91.07,19.4,0,2.14,0,3.5.46,4.66,2.5q9.43,16.88,19.2,33.58a4.47,4.47,0,0,1,0,5.28c-6.71,11.31-13.19,22.74-20,34a5.34,5.34,0,0,1-3.88,2.19q-19.58.21-39.14,0a5.74,5.74,0,0,1-4.08-2.45c-6.62-11.21-13-22.58-19.54-33.83a4.43,4.43,0,0,1,0-5.24q9.87-16.63,19.47-33.43a4.46,4.46,0,0,1,4.57-2.62c6.45.15,12.91,0,19.4,0Z" transform="translate(166 183.05)"/><path class="cls-3" d="M664.82,59.68c-6.46,0-12.93-.11-19.4.06a4.41,4.41,0,0,1-4.5-2.66c-6.34-11.25-12.85-22.41-19.12-33.69a5.32,5.32,0,0,1,0-4.4c6.56-11.57,13.35-23,20-34.55a4.19,4.19,0,0,1,4.3-2.38c12.93.17,25.87.13,38.81.39A5.79,5.79,0,0,1,689-15.09q10.1,17,19.66,34.28a5.28,5.28,0,0,1-.13,4.43q-9.64,17-19.7,33.8a5.86,5.86,0,0,1-4.16,2.33c-6.59.25-13.2.11-19.79.11Z" transform="translate(166 183.05)"/><path class="cls-3" d="M250.59,463.18c-6.46,0-12.92-.08-19.4,0-2.15,0-3.49-.5-4.61-2.5q-9.56-17.09-19.4-33.93c-1.12-1.89-.85-3.11.16-4.86q9.91-16.83,19.65-33.8a4.55,4.55,0,0,1,4.55-2.65q19.41.18,38.78,0a4.16,4.16,0,0,1,4.19,2.51q9.57,17,19.4,33.92a4.43,4.43,0,0,1,.06,5.23q-9.89,16.63-19.48,33.44c-1.09,1.9-2.25,2.73-4.52,2.68-6.46-.17-12.93-.06-19.41-.06Z" transform="translate(166 183.05)"/><path class="cls-3" d="M180.79,19.31c-6.6,0-13.2-.08-19.79.05a4.15,4.15,0,0,1-4.19-2.49Q147.33,0,137.58-16.73c-1-1.73-1.19-3-.08-4.85q10.09-17,19.88-34.15a4.49,4.49,0,0,1,4.5-2.69q19.2.21,38.39.05a4.52,4.52,0,0,1,4.51,2.67q9.6,17.07,19.41,33.94a4.52,4.52,0,0,1,.07,5.27Q214.36.14,204.77,17a4.47,4.47,0,0,1-4.59,2.56c-6.47-.14-12.93-.05-19.41-.05Z" transform="translate(166 183.05)"/><path class="cls-3" d="M941.28,221.09c-6.46,0-12.94.14-19.4-.11a5.78,5.78,0,0,1-4.12-2.33c-6.63-11.22-13-22.59-19.56-33.85a4.16,4.16,0,0,1,0-4.87q10-16.81,19.69-33.79c1.05-1.84,2.15-2.75,4.48-2.72,12.92.14,25.85.13,38.81.05a4.17,4.17,0,0,1,4.26,2.4c6.45,11.47,13.13,22.82,19.52,34.33a5.72,5.72,0,0,1-.1,4.77q-9.61,17-19.69,33.78a5.77,5.77,0,0,1-4.1,2.39c-6.59.25-13.2.11-19.77.11Z" transform="translate(166 183.05)"/><path class="cls-3" d="M111.26-21c-6.46,0-12.93-.09-19.41.06a4.12,4.12,0,0,1-4.2-2.51c-6.43-11.47-13.08-22.84-19.5-34.33a4.9,4.9,0,0,1,0-4.07Q78-79.18,88.2-96.3A5.35,5.35,0,0,1,92-98.57q19.77-.21,39.58.08a5,5,0,0,1,3.62,2q10.2,17.35,20,34.93a4.9,4.9,0,0,1-.17,4.07C148.54-46,142-34.65,135.15-23.38a6.31,6.31,0,0,1-4.5,2.48c-6.45.28-12.93.12-19.41.12Z" transform="translate(166 183.05)"/><path class="cls-3" d="M319.32,180.92c-6.33,0-12.67-.08-19,0a4.41,4.41,0,0,1-4.56-2.61c-6.43-11.48-13.08-22.84-19.5-34.33a4.88,4.88,0,0,1,0-4q9.86-17.34,20.07-34.46a5.35,5.35,0,0,1,3.83-2.25q19.41-.13,38.81.21a5.41,5.41,0,0,1,3.88,2.24q10.22,17.36,20,34.93a4.85,4.85,0,0,1,0,4.08q-9.75,17.19-19.88,34.16a5.85,5.85,0,0,1-4.19,2.28c-6.46.24-12.92.11-19.4.11Z" transform="translate(166 183.05)"/><path class="cls-3" d="M733.94,183.76c6.46,0,12.93-.14,19.4.11a5.85,5.85,0,0,1,4.12,2.4c6.62,11.22,13,22.59,19.56,33.83,1.18,2,.91,3.44-.18,5.29Q767,242,757.36,258.84a4.49,4.49,0,0,1-4.52,2.65c-12.79-.13-25.62-.13-38.39-.07-2,0-3.23-.47-4.3-2.33-6.51-11.58-13.19-23-19.7-34.65a5.25,5.25,0,0,1,0-4.42q9.74-17.19,19.87-34.11a5.44,5.44,0,0,1,3.89-2.17c6.58-.22,13.19-.09,19.77-.09Z" transform="translate(166 183.05)"/><path class="cls-3" d="M872.51,183.81c6.46,0,12.92-.13,19.41.1a5.4,5.4,0,0,1,3.88,2.2q10.08,17.19,19.78,34.6a5.25,5.25,0,0,1-.09,4.37q-9.72,17.17-19.87,34.11a5.33,5.33,0,0,1-3.88,2.15q-19.59.21-39.16-.07A5.28,5.28,0,0,1,848.7,259q-10.1-17.18-19.82-34.59A5.33,5.33,0,0,1,829,220c6.43-11.34,13.11-22.51,19.56-33.85a4.45,4.45,0,0,1,4.6-2.54c6.46.12,12.92.05,19.4.05Z" transform="translate(166 183.05)"/><path class="cls-3" d="M389,302.14c-6.45,0-12.92.15-19.4-.11a5.84,5.84,0,0,1-4.18-2.37q-10.14-17.16-19.81-34.58a4.9,4.9,0,0,1,0-4.07q9.86-17.32,20.07-34.42a5.33,5.33,0,0,1,3.88-2.15c12.78-.07,25.61.14,38.37.11a4.57,4.57,0,0,1,4.51,2.75c6.53,11.57,13.2,23,19.7,34.65a4.86,4.86,0,0,1,0,4c-6.44,11.32-13.11,22.51-19.56,33.83a4.47,4.47,0,0,1-4.61,2.55c-6.33-.13-12.66-.05-19-.05Z" transform="translate(166 183.05)"/><path class="cls-3" d="M802.72,301.68c-6.33,0-12.66-.08-19,.05a4.47,4.47,0,0,1-4.6-2.57c-6.45-11.46-13.09-22.83-19.51-34.34a5,5,0,0,1,0-4.11q9.93-17.5,20.26-34.78a5,5,0,0,1,3.63-2q19.77-.1,39.58.21a4.57,4.57,0,0,1,3.26,1.92q10.26,17.55,20.18,35.28a4.46,4.46,0,0,1,0,3.78q-10.07,17.55-20.33,34.81a5.08,5.08,0,0,1-3.7,1.77c-6.59.17-13.19.08-19.77.08Z" transform="translate(166 183.05)"/><path class="cls-3" d="M734.77,345.25c6.33,0,12.66.09,19-.05a4.72,4.72,0,0,1,4.89,2.74q9.32,16.71,19,33.24a4.49,4.49,0,0,1,0,5.27q-10,16.79-19.65,33.76a4.78,4.78,0,0,1-4.88,2.73c-12.66-.13-25.32-.13-38-.07-2.14,0-3.49-.47-4.66-2.5-6.28-11.25-12.82-22.38-19-33.66a6.21,6.21,0,0,1-.16-5.13c6.44-11.46,13.1-22.82,19.86-34.09a5.35,5.35,0,0,1,3.82-2.2c6.58-.23,13.19-.1,19.76-.1Z" transform="translate(166 183.05)"/><path class="cls-3" d="M665.45,385.51c6.32,0,12.66.08,19,0a4.37,4.37,0,0,1,4.56,2.56c6.36,11.37,13,22.61,19.28,34a5.22,5.22,0,0,1-.06,4.34c-6.49,11.45-13.19,22.78-19.75,34.2a4.52,4.52,0,0,1-4.54,2.64c-12.8-.17-25.62-.06-38.39-.31a6.23,6.23,0,0,1-4.45-2.55q-10-16.8-19.41-33.91a5.28,5.28,0,0,1,.07-4.4q9.71-17.16,19.88-34.1a6.36,6.36,0,0,1,4.47-2.54c6.45-.28,12.92-.12,19.41-.12Z" transform="translate(166 183.05)"/><path class="cls-3" d="M802.85,143.45c6.59,0,13.19-.14,19.76.11a5.8,5.8,0,0,1,4.11,2.42c6.56,11.1,12.84,22.37,19.36,33.49,1.24,2.11,1,3.63-.15,5.63q-9.85,16.64-19.46,33.43a4.48,4.48,0,0,1-4.54,2.59c-12.8-.1-25.62,0-38.37-.17a5.72,5.72,0,0,1-4.1-2.41Q769.34,201.4,759.65,184a5.32,5.32,0,0,1,0-4.45c6.42-11.32,13.1-22.5,19.57-33.81a4.15,4.15,0,0,1,4.25-2.44c6.45.14,12.91,0,19.4,0Z" transform="translate(166 183.05)"/><path class="cls-3" d="M111.89,221.19c-6.47,0-12.94.14-19.41-.12a5.78,5.78,0,0,1-4.14-2.39c-6.56-11.12-12.86-22.4-19.4-33.54a4.11,4.11,0,0,1,.09-4.88q10-16.83,19.66-33.82a5,5,0,0,1,5.2-2.9c12.55.25,25.1.33,37.64.33,2.33,0,3.7.62,4.89,2.76q9.32,16.76,19.06,33.28a4.44,4.44,0,0,1,0,5.21q-9.94,16.83-19.64,33.82a4.78,4.78,0,0,1-4.94,2.71c-6.33-.16-12.67-.06-19-.06Z" transform="translate(166 183.05)"/><path class="cls-3" d="M181.45,22.59c6.34,0,12.67.07,19,0a4.57,4.57,0,0,1,4.66,2.56c6.38,11.36,13,22.62,19.28,34a5.78,5.78,0,0,1-.07,4.78q-9.71,17.2-19.91,34.15a5.69,5.69,0,0,1-4.16,2.33c-12.67.09-25.34-.14-38-.13a4.5,4.5,0,0,1-4.51-2.73Q148,80.36,138.08,63.31a4.46,4.46,0,0,1,.1-5.24q9.69-16.29,19.08-32.81c1.15-2,2.38-2.91,4.81-2.84,6.46.2,12.93.07,19.4.07Z" transform="translate(166 183.05)"/><path class="cls-3" d="M249.51-20.7c-6.21,0-12.42.15-18.63-.11a5.83,5.83,0,0,1-4.22-2.33q-10.08-17-19.64-34.25a5.33,5.33,0,0,1,.08-4.42q9.83-17.34,20.07-34.46A5.33,5.33,0,0,1,231-98.44q19.77-.09,39.59.29A5,5,0,0,1,274.12-96q9.81,16.69,19.25,33.6a5,5,0,0,1,0,4.09q-10.15,17.85-20.7,35.44a5.91,5.91,0,0,1-4.16,2.33c-6.32.25-12.66.11-19,.11Z" transform="translate(166 183.05)"/><path class="cls-3" d="M526.14-98.66c6.59,0,13.2-.13,19.78.1a5.34,5.34,0,0,1,3.88,2.19q10.1,17.19,19.81,34.61a5.3,5.3,0,0,1,.06,4.41q-9.74,17.18-19.9,34.15a5.35,5.35,0,0,1-3.88,2.12c-12.93.14-25.86,0-38.81.08a4.19,4.19,0,0,1-4.29-2.38c-6.45-11.51-13.12-22.86-19.5-34.38a6.18,6.18,0,0,1,.15-5.15C489.69-74,496.25-85,502.58-96.12c1.19-2.1,2.6-2.72,4.93-2.66,6.21.17,12.42.06,18.63.06Z" transform="translate(166 183.05)"/><path class="cls-3" d="M250.76,305c6.34,0,12.68.08,19,0a4.49,4.49,0,0,1,4.61,2.58Q284,324.79,294,341.83a4.11,4.11,0,0,1-.06,4.87q-9.9,16.69-19.46,33.48a4.49,4.49,0,0,1-4.56,2.63q-19.2-.26-38.42-.16A4.52,4.52,0,0,1,227,380q-9.57-17.07-19.41-34a4.14,4.14,0,0,1-.06-4.87q10-16.82,19.68-33.82c1.15-2,2.5-2.51,4.66-2.47,6.34.12,12.68,0,19,0Z" transform="translate(166 183.05)"/><path class="cls-3" d="M733.68,341.62c-6.34,0-12.68.15-19-.11a5.85,5.85,0,0,1-4.13-2.41q-10.14-17.16-19.83-34.62a5.29,5.29,0,0,1-.05-4.42q9.72-17.19,19.88-34.15a4.9,4.9,0,0,1,3.59-2q19.59-.1,39.18.24a5.42,5.42,0,0,1,3.88,2.29q10.09,17.19,19.84,34.61a5.37,5.37,0,0,1-.1,4.47c-6.43,11.34-13.11,22.51-19.58,33.87a4.51,4.51,0,0,1-4.66,2.54c-6.33-.14-12.68-.05-19-.05Z" transform="translate(166 183.05)"/><path class="cls-3" d="M388.37-98.64c6.33,0,12.68-.15,19,.11a5.84,5.84,0,0,1,4.12,2.42q10.14,17.17,19.82,34.61a5.26,5.26,0,0,1-.08,4.39q-9.63,17-19.67,33.79a5.36,5.36,0,0,1-3.84,2.25q-19.77.18-39.58-.08a4.9,4.9,0,0,1-3.54-2.11q-10.17-17.37-20-34.95a4.52,4.52,0,0,1,0-3.74q10-17.51,20.29-34.8a5,5,0,0,1,3.66-1.87c6.59-.18,13.19-.08,19.78-.08Z" transform="translate(166 183.05)"/><path class="cls-3" d="M456.66-61.42c-6.34,0-12.69.12-19-.1a5.4,5.4,0,0,1-3.88-2.23q-10.17-17.35-19.95-35a5.25,5.25,0,0,1,.11-4.37q9.54-16.84,19.49-33.46a5.8,5.8,0,0,1,4.11-2.42q19.61-.22,39.19.08a5.7,5.7,0,0,1,4.06,2.51q10.1,17,19.67,34.26a4.85,4.85,0,0,1-.05,4q-9.86,17.35-20.08,34.49a5.4,5.4,0,0,1-3.88,2.2c-6.59.23-13.19.1-19.78.1Z" transform="translate(166 183.05)"/><path class="cls-3" d="M526.88,463.15c-6.34,0-12.68-.08-19,0a4.51,4.51,0,0,1-4.65-2.53q-9.54-17.08-19.41-34a4.11,4.11,0,0,1,0-4.87q10-16.8,19.67-33.78c1.21-2.12,2.62-2.71,4.94-2.67q18.82.24,37.64.19a4.52,4.52,0,0,1,4.6,2.57q9.65,17.22,19.63,34.3c1.17,2,1,3.36-.11,5.22q-9.76,16.51-19.29,33.15c-1.14,2-2.45,2.53-4.6,2.49-6.47-.12-12.94,0-19.41,0Z" transform="translate(166 183.05)"/><path class="cls-3" d="M457.18,100c-6.46,0-12.93.13-19.4-.1a5.31,5.31,0,0,1-3.8-2.22q-10-17-19.65-34.24a5.82,5.82,0,0,1,0-4.8q9.69-17.2,19.86-34.15a4.94,4.94,0,0,1,3.54-2.07q19.57-.15,39.16.11a5.4,5.4,0,0,1,3.88,2.23q10.23,17.35,20,34.93a4.94,4.94,0,0,1-.06,4.12Q491,81,480.87,97.94a5.46,5.46,0,0,1-3.88,2.14c-6.59.23-13.2.1-19.78.1Z" transform="translate(166 183.05)"/><path class="cls-3" d="M319.6,261.44c-6.34,0-12.67-.07-19,0-2.13,0-3.48-.45-4.66-2.51-6.5-11.61-13.2-23.08-19.71-34.69a4.83,4.83,0,0,1,0-4q9.75-17.16,19.89-34.15A5.36,5.36,0,0,1,300,183.9q19.59-.24,39.19,0a5.36,5.36,0,0,1,3.81,2.28q10.08,17.2,19.81,34.64a5.27,5.27,0,0,1-.06,4.36q-9.63,17-19.68,33.82a5.87,5.87,0,0,1-4.13,2.4c-6.46.25-12.93.11-19.41.11Z" transform="translate(166 183.05)"/><path class="cls-3" d="M112.55,141c-6.46,0-12.94.15-19.41-.11A5.84,5.84,0,0,1,89,138.58Q78.9,121.4,69.2,104a5.24,5.24,0,0,1,.1-4.35Q78.95,82.56,89,65.78a5.79,5.79,0,0,1,4.18-2.33q19.4-.21,38.81.13a5.33,5.33,0,0,1,3.88,2.21q10.22,17.34,20,34.93a4.85,4.85,0,0,1-.11,4c-6.45,11.33-13.11,22.51-19.56,33.86a4.44,4.44,0,0,1-4.61,2.53c-6.33-.12-12.66,0-19,0Z" transform="translate(166 183.05)"/><path class="cls-3" d="M526.75,301.58c-6.2,0-12.41-.08-18.62.05-2.33,0-3.73-.57-4.92-2.72-6.49-11.6-13.2-23.06-19.66-34.67a5.27,5.27,0,0,1,.07-4.36c6.36-11.22,12.95-22.31,19.36-33.5,1.08-1.9,2.2-2.77,4.5-2.72,12.92.23,25.84.22,38.76.53a5.78,5.78,0,0,1,4.1,2.46c6.55,11.1,12.85,22.36,19.35,33.51a4.82,4.82,0,0,1,.07,5.62q-9.88,16.62-19.49,33.43a4.45,4.45,0,0,1-4.54,2.6c-6.34-.17-12.67-.06-19-.06Z" transform="translate(166 183.05)"/><path class="cls-3" d="M664.23,220.45c-6.33,0-12.66.14-19-.11a5.81,5.81,0,0,1-4.12-2.39Q631,200.79,621.32,183.37a5.7,5.7,0,0,1,.13-4.71q9.51-16.84,19.49-33.42a5.79,5.79,0,0,1,4.17-2.33c12.79-.15,25.61,0,38.37-.08a4.54,4.54,0,0,1,4.58,2.62q9.63,17.22,19.58,34.26a4.11,4.11,0,0,1,0,4.86c-6.64,11.21-13.08,22.51-19.79,33.69a5.85,5.85,0,0,1-4.16,2.37c-6.45.25-12.92.11-19.41.11Z" transform="translate(166 183.05)"/><path class="cls-3" d="M457.75,180.69c-6.46,0-12.93.14-19.4-.11a5.81,5.81,0,0,1-4.13-2.39q-10.14-17.15-19.8-34.58a5.72,5.72,0,0,1,.14-4.74q9.56-16.87,19.52-33.43a5.69,5.69,0,0,1,4.13-2.33c12.91-.16,25.84,0,38.75-.08a4.2,4.2,0,0,1,4.26,2.43q9.58,17,19.41,33.91a4.53,4.53,0,0,1,.07,5.28q-10,16.78-19.69,33.76c-1.08,1.91-2.32,2.33-4.28,2.33-6.33-.1-12.66,0-19,0Z" transform="translate(166 183.05)"/><path class="cls-3" d="M664.28,140.16c-6.46,0-12.94.15-19.4-.1a5.84,5.84,0,0,1-4.16-2.39q-9.87-16.66-19.25-33.6a5.77,5.77,0,0,1,0-4.81q9.72-17.19,19.92-34.12a5.76,5.76,0,0,1,4.12-2.39q19.41-.22,38.81.09a5.74,5.74,0,0,1,4.11,2.41c6.56,11.12,12.86,22.39,19.4,33.54a4.16,4.16,0,0,1-.07,4.89q-10.1,17-19.87,34.15a4.49,4.49,0,0,1-4.6,2.57c-6.33-.14-12.67-.06-19-.06Z" transform="translate(166 183.05)"/><path class="cls-3" d="M250.48,62.89c6.46,0,12.93-.15,19.41.1A5.91,5.91,0,0,1,274,65.4c6.69,11.33,13.11,22.81,19.73,34.15a4.22,4.22,0,0,1,0,4.89C287.12,115.66,280.68,127,274,138.15a5.77,5.77,0,0,1-4.19,2.38q-19.41.16-38.76-.2a5.35,5.35,0,0,1-3.83-2.28q-10.09-17.16-19.79-34.6a5.24,5.24,0,0,1,0-4.38q9.71-17.16,19.84-34.15a5.42,5.42,0,0,1,3.89-2.15c6.45-.23,12.91-.1,19.4-.1Z" transform="translate(166 183.05)"/><path class="cls-3" d="M250.21,60.25c-6.33,0-12.67.14-19-.11A5.83,5.83,0,0,1,227,57.81c-6.84-11.54-13.49-23.19-20-34.88a4.49,4.49,0,0,1,0-3.76Q216.92,1.7,227.23-15.6a5,5,0,0,1,3.65-1.92q19.56-.09,39.15.27a4.89,4.89,0,0,1,3.5,2.11q10.2,17.34,20,34.92a5.37,5.37,0,0,1-.06,4.44q-9.68,17-19.7,33.75a5.84,5.84,0,0,1-4.19,2.27c-6.45.24-12.92.1-19.4.1Z" transform="translate(166 183.05)"/><path class="cls-3" d="M526.53-17.92c6.33,0,12.66.11,19-.06a4.75,4.75,0,0,1,4.9,2.72c6.38,11.35,13,22.6,19.28,34a5.36,5.36,0,0,1,0,4.45q-9.81,17.32-20.07,34.41a5.35,5.35,0,0,1-3.88,2.15q-19.39.17-38.75-.18a5.32,5.32,0,0,1-3.81-2.21q-10.08-17.16-19.81-34.58a5.25,5.25,0,0,1,0-4.42q9.72-17.17,19.87-34.11a5.49,5.49,0,0,1,3.88-2.15c6.45-.22,12.91-.1,19.4-.1Z" transform="translate(166 183.05)"/><path class="cls-3" d="M388,59.55c-6.21,0-12.42-.1-18.63.05A4.49,4.49,0,0,1,364.76,57q-9.67-17.22-19.63-34.28a4.46,4.46,0,0,1,0-5.27Q354.93,1,364.42-15.7a4.54,4.54,0,0,1,4.66-2.53c12.81.14,25.61.08,38.41.31a5.75,5.75,0,0,1,4.16,2.33c6.69,11.34,13.12,22.84,19.76,34.22a4.16,4.16,0,0,1,0,4.86Q421.48,40.13,411.88,57A4.74,4.74,0,0,1,407,59.68c-6.34-.15-12.68,0-19,0Z" transform="translate(166 183.05)"/><path class="cls-3" d="M250.56,301.82c-6.59,0-13.19.12-19.76-.11a5.38,5.38,0,0,1-3.82-2.22q-10-17-19.59-34.26a5.27,5.27,0,0,1,0-4.36q9.83-17.34,20.06-34.43a5.35,5.35,0,0,1,3.88-2.17c12.79-.15,25.61,0,38.37-.11,2,0,3.26.49,4.31,2.33,6.51,11.58,13.2,23.06,19.66,34.67a5.66,5.66,0,0,1-.1,4.73c-6.34,11.23-12.95,22.32-19.33,33.52a4.52,4.52,0,0,1-4.66,2.52c-6.34-.13-12.67-.05-19-.05Z" transform="translate(166 183.05)"/><path class="cls-3" d="M457.13,19.27c-6.47,0-12.94.15-19.4-.11a5.77,5.77,0,0,1-4.12-2.4Q423.67-.07,414.16-17.18a5.34,5.34,0,0,1,0-4.46Q424-39,434.23-56.13a4.92,4.92,0,0,1,3.5-2.15q19.59-.19,39.19.06a4.91,4.91,0,0,1,3.56,2q10.29,17.55,20.23,35.3a4.49,4.49,0,0,1,0,3.76Q490.83.23,480.62,17.36A5,5,0,0,1,477,19.31c-6.59.19-13.2.09-19.79.09Z" transform="translate(166 183.05)"/><path class="cls-3" d="M596.12,345.2c6.46,0,12.93-.14,19.4.11a5.78,5.78,0,0,1,4.13,2.33c6.58,11.11,12.88,22.39,19.4,33.52a4.71,4.71,0,0,1-.1,5.55q-9.9,16.67-19.53,33.47c-1,1.84-2.13,2.77-4.47,2.74-12.67-.17-25.35-.05-38-.25a5.79,5.79,0,0,1-4.2-2.33q-10.15-17.18-19.82-34.63A5.7,5.7,0,0,1,553,381c6.29-11.13,12.84-22.11,19.18-33.22a4.76,4.76,0,0,1,4.88-2.77c6.33.15,12.68.05,19,.05Z" transform="translate(166 183.05)"/><path class="cls-3" d="M319.7,264.63c6.46,0,12.94-.14,19.4.1a5.91,5.91,0,0,1,4.22,2.26q10.15,17.17,19.84,34.61a4.85,4.85,0,0,1-.17,4.06c-6.5,11.45-13.19,22.78-19.74,34.22-1.14,2-2.49,2.54-4.66,2.52q-19-.18-38-.12a4.23,4.23,0,0,1-4.29-2.42c-6.45-11.48-13.1-22.86-19.49-34.37a5.79,5.79,0,0,1,0-4.82q9.62-17,19.72-33.79a5.82,5.82,0,0,1,4.19-2.24c6.32-.24,12.67-.1,19-.1Z" transform="translate(166 183.05)"/><path class="cls-3" d="M595.84,342.15c-6.47,0-12.94.13-19.41-.1a5.42,5.42,0,0,1-3.88-2.19q-10.21-17.36-20-34.93a4.41,4.41,0,0,1,.07-3.71q9.87-17.34,20.06-34.49a5,5,0,0,1,3.56-2.08q19.6-.21,39.19,0a5,5,0,0,1,3.53,2.08q10.27,17.52,20.22,35.31a4.85,4.85,0,0,1,0,4.05q-9.64,17-19.69,33.81a5.85,5.85,0,0,1-4.23,2.24c-6.45.24-12.93.11-19.4.11Z" transform="translate(166 183.05)"/><path class="cls-3" d="M457.61,422.82c-6.46,0-12.92.12-19.4-.11a5.42,5.42,0,0,1-3.88-2.22q-10-17-19.6-34.27a5.32,5.32,0,0,1,0-4.45q9.82-17.36,20.07-34.45a4.86,4.86,0,0,1,3.54-2q19.57-.21,39.17,0a5,5,0,0,1,3.57,2.05q10.19,17.36,20,34.93a4.87,4.87,0,0,1-.07,4q-9.74,17.18-19.86,34.15a5.82,5.82,0,0,1-4.2,2.27c-6.46.24-12.93.11-19.41.11Z" transform="translate(166 183.05)"/><path class="cls-3" d="M526.53,221.07c-6.47,0-12.93-.1-19.41.06a4.09,4.09,0,0,1-4.19-2.51c-6.47-11.47-13.11-22.84-19.53-34.34a5.35,5.35,0,0,1,0-4.43q9.72-17.19,19.88-34.15a5.38,5.38,0,0,1,3.83-2.21q19.2-.21,38.41,0a5.79,5.79,0,0,1,4.16,2.33q10.26,17.32,20,34.93a5.29,5.29,0,0,1-.11,4.42c-6.29,11.13-12.82,22.12-19.16,33.22a4.72,4.72,0,0,1-4.9,2.7c-6.32-.18-12.66-.06-19-.06Z" transform="translate(166 183.05)"/><path class="cls-3" d="M389.18,305c6.47,0,12.93-.12,19.41.1a5.42,5.42,0,0,1,3.88,2.19q10.08,17.17,19.85,34.58a4.5,4.5,0,0,1,0,3.73q-10,17.49-20.29,34.78a5.31,5.31,0,0,1-3.88,2.13q-19.39.19-38.81-.09a5.29,5.29,0,0,1-3.76-2.33q-10-17-19.63-34.26a5.73,5.73,0,0,1,0-4.79c6.4-11.35,13.1-22.51,19.55-33.86,1.09-1.89,2.33-2.32,4.31-2.32,6.46.1,12.92,0,19.4,0Z" transform="translate(166 183.05)"/><path class="cls-3" d="M181.06,261.44c-6.46,0-12.93.13-19.4-.1a5.37,5.37,0,0,1-3.82-2.19q-10-17-19.62-34.28a5.24,5.24,0,0,1,.13-4.35q9.72-17.16,19.87-34.15a5.7,5.7,0,0,1,4-2.47q19.2-.18,38.4.18a5.76,5.76,0,0,1,4.15,2.39q10.14,17.17,19.81,34.61a4.9,4.9,0,0,1,0,4.07q-9.75,17.17-19.88,34.15a5.46,5.46,0,0,1-3.89,2.19c-6.58.23-13.19.1-19.77.1Z" transform="translate(166 183.05)"/><path class="cls-3" d="M388.3,462.88c-6.34,0-12.68-.08-19,0a4.76,4.76,0,0,1-4.93-2.74c-6.17-11-12.57-22-18.71-33a5.27,5.27,0,0,1,0-4.36q10-17.7,20.45-35.15a5.83,5.83,0,0,1,4.25-2.26q19-.15,38,.22a5.75,5.75,0,0,1,4.08,2.44c6.57,11.11,12.88,22.37,19.4,33.51,1.16,2,.92,3.44-.18,5.3q-10,16.83-19.69,33.79a4.51,4.51,0,0,1-4.66,2.52c-6.34-.14-12.68-.05-19-.05Z" transform="translate(166 183.05)"/><path class="cls-3" d="M665,382.49c-6.46,0-12.93.13-19.4-.1a5.38,5.38,0,0,1-3.88-2.2q-10-17-19.62-34.27a5.3,5.3,0,0,1,0-4.44q9.83-17.36,20.08-34.47a4.8,4.8,0,0,1,3.52-2q19.41-.21,38.81,0a4.87,4.87,0,0,1,3.53,2q10.29,17.53,20.22,35.29a4.88,4.88,0,0,1,0,4.06q-9.59,17-19.64,33.83a5.91,5.91,0,0,1-4.22,2.28c-6.46.24-12.92.1-19.4.1Z" transform="translate(166 183.05)"/><path class="cls-3" d="M664.52,301.38c-6.21,0-12.42-.06-18.63,0-2.12,0-3.49-.48-4.65-2.53q-9.54-17.07-19.41-33.94a4.11,4.11,0,0,1,.1-4.84c6.7-11.33,13.2-22.77,20-34a5.72,5.72,0,0,1,4.13-2.39q19-.13,38,.25a5.36,5.36,0,0,1,3.88,2.15q10.14,17.16,19.86,34.57a4.89,4.89,0,0,1-.08,4.08c-6.57,11.56-13.36,23-20,34.53-1.15,2-2.52,2.5-4.66,2.45-6.21-.12-12.42,0-18.62,0Z" transform="translate(166 183.05)"/><path class="cls-3" d="M595.68,22.39c6.47,0,12.93.09,19.41,0a4.19,4.19,0,0,1,4.27,2.39c6.39,11.37,13,22.61,19.31,34a5.25,5.25,0,0,1-.07,4.42q-9.81,17.34-20.05,34.47a5.38,5.38,0,0,1-3.82,2.26q-19.2.26-38.39,0a5.71,5.71,0,0,1-4.08-2.42q-10.05-17-19.61-34.27a5.69,5.69,0,0,1,.12-4.74c6.34-11.24,13-22.32,19.35-33.53a4.47,4.47,0,0,1,4.58-2.6c6.33.14,12.66.05,19,.05Z" transform="translate(166 183.05)"/><path class="cls-3" d="M319.81,22.92c6.21,0,12.42.08,18.63-.05a4.46,4.46,0,0,1,4.58,2.6c6.38,11.36,13,22.61,19.33,34a4.88,4.88,0,0,1,0,4.06Q352.41,81,342,98.27a5.71,5.71,0,0,1-4.17,2.33c-12.53.13-25.08-.06-37.61,0-2.33,0-3.41-.87-4.48-2.77Q286.28,81,276.53,64.24a4.4,4.4,0,0,1,0-5.19q10-16.81,19.7-33.8a4.53,4.53,0,0,1,4.57-2.67c6.33.16,12.67.05,19,.05Z" transform="translate(166 183.05)"/><path class="cls-3" d="M250.23,221.09c-6.34,0-12.67.14-19-.1a5.82,5.82,0,0,1-4.17-2.29q-10-16.83-19.46-33.91a4.94,4.94,0,0,1,0-4.12q10-17.68,20.44-35.13a4.93,4.93,0,0,1,3.62-2q19.41-.21,38.77,0a4.55,4.55,0,0,1,3.26,1.89q10.15,17.37,20,34.93a5,5,0,0,1-.08,4.13q-9.85,17.33-20.1,34.44a5.35,5.35,0,0,1-3.88,2.14c-6.46.23-12.92.1-19.4.1Z" transform="translate(166 183.05)"/><path class="cls-3" d="M320,345.34c6.34,0,12.67.1,19-.06a4.45,4.45,0,0,1,4.54,2.67c6.33,11.25,12.85,22.38,19.13,33.66a5.35,5.35,0,0,1,0,4.43q-9.92,17.52-20.26,34.8a5,5,0,0,1-3.54,2.11q-19.41.17-38.81-.12a5.32,5.32,0,0,1-3.78-2.33q-9.91-16.85-19.4-33.93a5.75,5.75,0,0,1,0-4.8q9.7-17.19,19.9-34.11a5.81,5.81,0,0,1,4.17-2.28c6.33-.25,12.67-.11,19-.11Z" transform="translate(166 183.05)"/><path class="cls-3" d="M526.59,382.45c-6.21,0-12.42-.07-18.63,0a4.45,4.45,0,0,1-4.62-2.52c-6.3-11.26-12.83-22.39-19.08-33.69a5.75,5.75,0,0,1,0-4.77c6.47-11.47,13.19-22.78,19.75-34.2a4.57,4.57,0,0,1,4.57-2.68c12.66.16,25.34.1,38,.32a5.35,5.35,0,0,1,3.88,2.2q10,17,19.6,34.28a5.33,5.33,0,0,1-.11,4.42c-6.49,11.45-13.19,22.76-19.75,34.2-1.13,2-2.46,2.54-4.61,2.5-6.33-.12-12.66,0-19,0Z" transform="translate(166 183.05)"/><path class="cls-3" d="M389.08,143.65c6.21,0,12.42-.14,18.63.11a5.84,5.84,0,0,1,4.21,2.33q10.09,17,19.66,34.25a4.87,4.87,0,0,1-.1,4.09q-10,17.5-20.29,34.79a5.34,5.34,0,0,1-3.88,2.22q-19.2.12-38.4-.27a5.32,5.32,0,0,1-3.78-2.33c-6.62-11.23-13-22.6-19.55-33.87a4.1,4.1,0,0,1,0-4.85q10-16.83,19.64-33.82c1.28-2.26,2.76-2.9,5.22-2.84,6.21.18,12.42.06,18.63.06Z" transform="translate(166 183.05)"/><path class="cls-3" d="M181.8,103.78c6.21,0,12.42.09,18.63,0,2.33,0,3.7.57,4.89,2.72,6.21,11.17,12.73,22.18,18.93,33.37a5.8,5.8,0,0,1,0,4.79Q214.44,162,204.18,179.1a5.36,5.36,0,0,1-3.88,2.19q-19.22.22-38.42,0a4.91,4.91,0,0,1-3.55-2.05q-10.08-17.2-19.81-34.63a5.43,5.43,0,0,1,.14-4.48q9.75-17.18,19.92-34.12a5.92,5.92,0,0,1,4.21-2.26c6.33-.24,12.67-.1,19-.1Z" transform="translate(166 183.05)"/><path class="cls-3" d="M388.33,140.35c-6.34,0-12.68.14-19-.11a5.82,5.82,0,0,1-4.18-2.29q-9.93-16.81-19.44-33.93a5.21,5.21,0,0,1,0-4.37Q355.63,82.13,366,64.84a4.93,4.93,0,0,1,3.52-2.1q19.41-.18,38.81.08a4.88,4.88,0,0,1,3.53,2.05Q421.91,82,431.65,99.44a5,5,0,0,1,0,4.11q-9.93,17.51-20.26,34.8a5,5,0,0,1-3.64,2c-6.46.2-12.92.09-19.41.09Z" transform="translate(166 183.05)"/><path class="cls-3" d="M319.44-58.39c6.33,0,12.67-.14,19,.11a5.83,5.83,0,0,1,4.11,2.41q10,17,19.66,34.23a4.85,4.85,0,0,1,0,4.05q-10,17.49-20.27,34.76a4.93,4.93,0,0,1-3.56,2q-19.39.18-38.75-.05a4.91,4.91,0,0,1-3.57-2Q285.85-.25,276-17.83a4,4,0,0,1,0-3.4C282.75-33,289.54-44.7,296.51-56.31a5.43,5.43,0,0,1,3.94-2.1c6.32-.22,12.66-.1,19-.1Z" transform="translate(166 183.05)"/><path class="cls-3" d="M457.48,342.32c-6.21,0-12.42-.09-18.63,0a4.48,4.48,0,0,1-4.61-2.6q-9.36-16.72-19-33.27c-1.17-2-1.32-3.49-.06-5.59q9.82-16.45,19.3-33.11c1.29-2.26,2.66-3.27,5.44-3.22,12.28.23,24.56.24,36.84.18a4.84,4.84,0,0,1,4.87,2.82q9.36,16.71,19.05,33.26a4.52,4.52,0,0,1,.06,5.28c-6.73,11.32-13.24,22.77-20,34.05a5.91,5.91,0,0,1-4.2,2.27c-6.32.24-12.66.1-19,.1Z" transform="translate(166 183.05)"/><path class="cls-3" d="M458,183.71c6.33,0,12.67-.15,19,.11a5.81,5.81,0,0,1,4.14,2.37q10,16.83,19.46,33.93a5.38,5.38,0,0,1,.07,4.46q-9.84,17.35-20.1,34.45a5.75,5.75,0,0,1-4.19,2.33c-12.54.13-25.09,0-37.63,0a4.51,4.51,0,0,1-4.57-2.66q-9.37-16.71-19-33.27c-1.31-2.24-1.14-3.83.13-6q9.69-16.31,19.06-32.82a5.57,5.57,0,0,1,5.83-3.2c5.94.23,11.9.07,17.86.07Z" transform="translate(166 183.05)"/><path class="cls-3" d="M595.16,261.44c-6.33,0-12.67.12-19-.1a5.35,5.35,0,0,1-3.82-2.2q-10.1-17.16-19.82-34.58a4.88,4.88,0,0,1,0-4c6.57-11.56,13.2-23.05,20.07-34.44a5.88,5.88,0,0,1,4.23-2.27q19-.19,38,.11a5.73,5.73,0,0,1,4.05,2.48q9.95,16.82,19.4,33.91a5.7,5.7,0,0,1-.09,4.73c-6.4,11.35-13.06,22.55-19.54,33.85a4.49,4.49,0,0,1-4.54,2.63c-6.32-.16-12.66,0-19,0Z" transform="translate(166 183.05)"/><path class="cls-3" d="M526.88,62.79c6.33,0,12.68-.14,19,.11A5.83,5.83,0,0,1,550,65.28Q559.87,82,569.26,98.9a5.25,5.25,0,0,1-.07,4.37q-9.93,17.53-20.28,34.81a5.75,5.75,0,0,1-4.18,2.33q-18.83.21-37.64-.15a5.29,5.29,0,0,1-3.89-2.11Q493.08,121,483.33,103.56a4.47,4.47,0,0,1,0-3.75q10.1-17.67,20.5-35.14a5,5,0,0,1,3.66-1.88c6.47-.19,12.93-.09,19.4-.09Z" transform="translate(166 183.05)"/><path class="cls-3" d="M595,180.17c-6.21,0-12.41-.09-18.62.05a4.53,4.53,0,0,1-4.6-2.62c-6.31-11.25-12.81-22.39-19.08-33.67a5.23,5.23,0,0,1,.11-4.36c6.55-11.55,13.33-23,19.92-34.53a4.53,4.53,0,0,1,4.65-2.53q18.63.3,37.22.32a4.51,4.51,0,0,1,4.51,2.71q9.39,16.69,19,33.23a4.57,4.57,0,0,1,.08,5.3q-10,16.8-19.69,33.76c-1.21,2.12-2.62,2.74-4.95,2.69-6.21-.16-12.42-.06-18.63-.06Z" transform="translate(166 183.05)"/></g><g id="Pointe"><polygon class="cls-4" points="694.69 232.68 693.41 235.68 685.89 253.24 674.47 242.24 691.74 234.08 694.69 232.68"/><polygon class="cls-5" points="694.67 232.67 692.8 237.11 690.35 234.75 694.67 232.67"/></g><g id="Corps"><g id="Bois"><rect class="cls-6" x="425.9" y="94.3" width="99.75" height="5.29" transform="translate(241.87 555.38) rotate(-46.07)"/><rect class="cls-7" x="429.71" y="97.97" width="99.75" height="5.29" transform="translate(240.4 559.24) rotate(-46.07)"/><rect class="cls-8" x="433.51" y="101.64" width="99.75" height="5.29" transform="translate(238.92 563.11) rotate(-46.07)"/></g><rect id="Gomme" class="cls-9" x="432.9" y="135.03" width="11.76" height="15.86" rx="5.59" ry="5.59" transform="translate(197.41 542.83) rotate(-46.07)"/><rect class="cls-10" x="439.45" y="130.95" width="6.53" height="15.86" transform="translate(201.55 544.41) rotate(-46.07)"/></g><path class="cls-11" d="M453.43,76.69,437.8,64.55c-.49-1.53-1-3.06-1.46-4.59q-1.57-5-3.14-9.91l13.64,5.66L457.4,71.07Z" transform="translate(166 183.05)"/><path class="cls-12" d="M439.41,60.88,436.34,60q-1.57-5-3.14-9.91Q443.63,61.5,454,73Z" transform="translate(166 183.05)"/><path class="cls-13" d="M433.4,50.26c3,3.45,6.45,6.93,9.47,10.37" transform="translate(166 183.05)"/><path class="cls-13" d="M433.43,50.23l5,4.94a34.25,34.25,0,0,1,2.46,2.51,17,17,0,0,1,2,2.92l-.07.06a22.85,22.85,0,0,1-2.68-2.3c-.85-.81-1.55-1.75-2.32-2.64-1.53-1.77-3-3.57-4.48-5.42Z" transform="translate(166 183.05)"/><ellipse class="cls-14" cx="443.5" cy="61.13" rx="0.84" ry="0.76" transform="translate(470.85 669.86) rotate(-79.81)"/><path class="cls-15" d="M456.72,65,522,133.47a17.39,17.39,0,0,1,4.14,7.67c.57,2.27,1.32,5.32-.17,7.25-2,2.62-6.65,1.2-7.44,1a11.71,11.71,0,0,1-6.31-5.1L447.06,74.72Z" transform="translate(166 183.05)"/><polygon class="cls-16" points="619.5 255.46 615.43 260.1 679.47 328.02 683.54 323.38 619.5 255.46"/><path class="cls-17" d="M469.79,78.69l-9.46,10.2-11.25-12L458.65,67Z" transform="translate(166 183.05)"/><line class="cls-18" x1="685.94" y1="319.25" x2="622.83" y2="251.92"/><path class="cls-19" d="M447,74.65l9.92-9.74a.76.76,0,0,1,1.14.06l.21.26a1,1,0,0,1-.08,1.25l-9.92,9.74a.76.76,0,0,1-1.14,0l-.21-.26A1,1,0,0,1,447,74.65Z" transform="translate(166 183.05)"/><path class="cls-19" d="M459.42,87.9l9.93-9.74a.75.75,0,0,1,1.13,0l.21.26a1,1,0,0,1-.08,1.26l-9.92,9.74a.76.76,0,0,1-1.14,0l-.21-.27A1,1,0,0,1,459.42,87.9Z" transform="translate(166 183.05)"/><path class="cls-19" d="M511.4,143.29l9.92-9.74a.76.76,0,0,1,1.14.06l.21.26a1,1,0,0,1-.08,1.25l-9.92,9.74a.76.76,0,0,1-1.14-.05l-.21-.26A1,1,0,0,1,511.4,143.29Z" transform="translate(166 183.05)"/><path class="cls-19" d="M448.43,76.43l9.92-9.74a.76.76,0,0,1,1.14,0l.82,1a1,1,0,0,1-.09,1.26l-9.92,9.73a.76.76,0,0,1-1.14,0l-.82-1A1,1,0,0,1,448.43,76.43Z" transform="translate(166 183.05)"/><rect class="cls-20" x="640.36" y="237.95" width="10.97" height="25.37"/><path class="cls-21" d="M485.33,79h-11l1.25,1.25V54.91l-1.25,1.25h11l-1.25-1.25V80.28a1.25,1.25,0,0,0,2.5,0V54.91a1.26,1.26,0,0,0-1.25-1.25h-11a1.26,1.26,0,0,0-1.25,1.25V80.28a1.26,1.26,0,0,0,1.25,1.25h11A1.25,1.25,0,0,0,485.33,79Z" transform="translate(166 183.05)"/><path class="cls-20" d="M498.82,132.71a14.33,14.33,0,0,1-4.08,8.93c-3.85,3.64-9.07,3.53-14.75,3.41a42.06,42.06,0,0,1-12.75-2.28,6.23,6.23,0,0,1-2.15-1.72c-3-2.87-2.88-4.06-3.15-6.44a4.56,4.56,0,0,1,.38-1.59l4.11-17.08,25.76-3.2q3.06,9.26,6.14,18.5C498.49,131.73,498.65,132.22,498.82,132.71Z" transform="translate(166 183.05)"/><path class="cls-21" d="M497.57,132.71c-1.34,10.24-10,11.5-18.62,11-4.17-.21-9.69-.68-13-3.59-4-3.51-2.37-7.14-1.3-11.56.86-3.6,1-10.48,4.73-11.79,4.05-1.43,9.59-1.19,13.87-1.72,1.57-.2,5.53-1.45,6.93-.86,2.17.91,2.24,3.22,2.93,5.31q2.24,6.74,4.48,13.49c.5,1.52,2.92.87,2.41-.67l-6.63-20a1.26,1.26,0,0,0-1.2-.92l-25.76,3.2a1.31,1.31,0,0,0-1.21.92c-1.21,5.06-2.35,10.14-3.65,15.18-.53,2.08-1.11,3.83-.62,6,1.43,6.23,7.64,8.12,13.19,9,11.4,1.81,24.15.6,25.93-13C500.27,131.11,497.77,131.13,497.57,132.71Z" transform="translate(166 183.05)"/><path class="cls-21" d="M464.41,124.16a44.65,44.65,0,0,0,31.31.46c1.5-.54.85-3-.67-2.42a42.44,42.44,0,0,1-30-.46c-1.5-.58-2.15,1.84-.67,2.42Z" transform="translate(166 183.05)"/><path class="cls-21" d="M462.39,131.18a42.19,42.19,0,0,0,36-.6c1.45-.7.18-2.86-1.26-2.15a39.51,39.51,0,0,1-33.47.59c-1.45-.65-2.73,1.51-1.26,2.16Z" transform="translate(166 183.05)"/><path class="cls-22" d="M498.82,132.71a14.33,14.33,0,0,1-4.08,8.93c-3.85,3.64-9.07,3.5-14.75,3.41-2.85,0-11.07.18-14.58-2.92-1.88-1.67-3.39-7.86-3.24-8.49v0a.25.25,0,0,1,.46-.08,13.18,13.18,0,0,0,4.63,4.42c1.45.82,5.11,2.87,8.53,1.22a7.24,7.24,0,0,0,3.11-3,.44.44,0,0,1,.73,0,8.71,8.71,0,0,0,3.25,2.69c4.79,2.24,9.88-1.22,10.67-1.75a13.39,13.39,0,0,0,4.09-4.47.64.64,0,0,1,1.16.11Z" transform="translate(166 183.05)"/><path class="cls-21" d="M473,119l-2.88,13.6" transform="translate(166 183.05)"/><path class="cls-21" d="M471.78,118.66l-2.89,13.59c-.33,1.57,2.08,2.24,2.42.67l2.88-13.6c.33-1.57-2.08-2.24-2.41-.66Z" transform="translate(166 183.05)"/><path class="cls-21" d="M479.92,119.23v14.55" transform="translate(166 183.05)"/><path class="cls-21" d="M478.67,119.23v14.55a1.25,1.25,0,0,0,2.5,0V119.23a1.25,1.25,0,0,0-2.5,0Z" transform="translate(166 183.05)"/><path class="cls-21" d="M487,118.91l3.8,13.3" transform="translate(166 183.05)"/><path class="cls-21" d="M485.8,119.25l3.8,13.3a1.25,1.25,0,0,0,2.41-.67l-3.8-13.3a1.25,1.25,0,0,0-2.41.67Z" transform="translate(166 183.05)"/><path class="cls-20" d="M456.4,84.86c-2.73.13-3.26.34-3.67.62a4.08,4.08,0,0,0-1.6,2.75,10.55,10.55,0,0,1-6.4-1.83c-.33-.23-4.16-3-4.35-7.09-.12-2.69,1.41-3.65,1.15-6.86a10.34,10.34,0,0,0-1.15-3.88c-.44,1.13-1.08,2.78-1.83,4.8s-2.28,6.24-2.74,7.77c-1.48,4.91-1.82,14.32,3,18.29,4.59,3.79,13.77,2.49,14,2.51a5.75,5.75,0,0,0,2,2.52,6.17,6.17,0,0,0,5,.68c.34-2.12,3-19.32-.23-20.34A18,18,0,0,0,456.4,84.86Z" transform="translate(166 183.05)"/><path class="cls-21" d="M456.4,83.61c-1.54.1-3.26,0-4.56,1-.6.44-.92,1.53-1.43,1.85-1.29.83-3.63-.09-5.26-1.29-3.56-2.63-3.49-5.84-2.62-9.77a11.47,11.47,0,0,0-1.07-7.45c-.49-1.09-1.94-.59-2.28.3-3.44,8.81-10.24,23.47-1.7,31.67,3.95,3.79,8.92,2.85,13.8,3.4.86.1,1.38.33.73,0,.69.38,1.42,1.78,2.14,2.26a7.56,7.56,0,0,0,6,.81,1.25,1.25,0,0,0,.87-.87,87.26,87.26,0,0,0,1.39-15c-.09-5-.8-7.17-6-6.92-1.6.07-1.61,2.57,0,2.5,3.24-.16,3.3.38,3.48,3.49a47.26,47.26,0,0,1-.21,6.52c-.17,2.06-.41,4.11-.69,6.16a7,7,0,0,1-.26,1.82c-.16.58-.06.56.31,0q-4,.17-5.22-2.74a1.24,1.24,0,0,0-1.08-.62c-8.28.65-15.86-1-16.58-10.7-.55-7.34,2.83-14.41,5.44-21.09l-2.29.3c2.49,5.48-2.06,10.14,1.88,15.45a12.08,12.08,0,0,0,9.95,4.83,1.28,1.28,0,0,0,1.2-.92c.88-2.59,1.94-2.31,4.07-2.45C458,86,458,83.5,456.4,83.61Z" transform="translate(166 183.05)"/><path class="cls-20" d="M452.73,101.94a6,6,0,0,1-.61-2.28,5.88,5.88,0,0,1,0-.84" transform="translate(166 183.05)"/><path class="cls-21" d="M452.5,102.05a6.44,6.44,0,0,1-.4-1.61,6.27,6.27,0,0,1,0-1.62,6.92,6.92,0,0,0,.22,1.58,6.3,6.3,0,0,0,.61,1.44Z" transform="translate(166 183.05)"/><path class="cls-20" d="M451.26,87.71a17.57,17.57,0,0,0,0,2.8,15.87,15.87,0,0,0,.23,1.68" transform="translate(166 183.05)"/><path class="cls-21" d="M451.51,87.73a16.34,16.34,0,0,0-.15,2.22c0,.75.1,1.49.15,2.24-.13-.74-.32-1.47-.4-2.23a17.17,17.17,0,0,1-.1-2.27Z" transform="translate(166 183.05)"/><path class="cls-20" d="M449.37,91.81a5.23,5.23,0,0,0-.3,1.6,5.5,5.5,0,0,0,.61,2.67" transform="translate(166 183.05)"/><path class="cls-12" d="M449.37,91.81a13,13,0,0,0,0,2.15,13.77,13.77,0,0,0,.35,2.12,3.57,3.57,0,0,1-.85-2.09A3.47,3.47,0,0,1,449.37,91.81Z" transform="translate(166 183.05)"/><path class="cls-20" d="M447.69,91.81a8.69,8.69,0,0,0-.15,1.48,8.52,8.52,0,0,0,.31,2.48" transform="translate(166 183.05)"/><path class="cls-12" d="M447.69,91.81a5.05,5.05,0,0,1,.09,1c0,.32,0,.65,0,1,0,.65.06,1.29.05,2a3.31,3.31,0,0,1-.4-1,3.86,3.86,0,0,1-.15-1,3.19,3.19,0,0,1,.1-1A5.28,5.28,0,0,1,447.69,91.81Z" transform="translate(166 183.05)"/><path class="cls-20" d="M446.65,91.42a5,5,0,0,0,.23,3.61" transform="translate(166 183.05)"/><path class="cls-12" d="M446.65,91.42c0,.65,0,1.22,0,1.81s.12,1.16.2,1.8a2.94,2.94,0,0,1-.7-1.77A2.91,2.91,0,0,1,446.65,91.42Z" transform="translate(166 183.05)"/><path class="cls-20" d="M445.22,90.76a4.77,4.77,0,0,0-.23,1.32,4.9,4.9,0,0,0,.46,2.21" transform="translate(166 183.05)"/><path class="cls-12" d="M445.22,90.76c0,.63,0,1.2,0,1.77s.12,1.13.2,1.76a2.83,2.83,0,0,1-.7-1.73A2.8,2.8,0,0,1,445.22,90.76Z" transform="translate(166 183.05)"/><path class="cls-20" d="M443.64,90.76a5.7,5.7,0,0,0-.15,1.19,5.89,5.89,0,0,0,.3,2" transform="translate(166 183.05)"/><path class="cls-12" d="M443.64,90.76a4,4,0,0,1,.09.82c0,.26,0,.51,0,.77,0,.52.07,1,.05,1.59a2.68,2.68,0,0,1-.54-1.56,2.16,2.16,0,0,1,.1-.84A3.47,3.47,0,0,1,443.64,90.76Z" transform="translate(166 183.05)"/><path class="cls-20" d="M503.6,84.86c2.73.13,3.26.34,3.67.62a4.08,4.08,0,0,1,1.6,2.75,10.55,10.55,0,0,0,6.4-1.83c.33-.23,4.16-3,4.35-7.09.12-2.69-1.41-3.65-1.15-6.86a10.34,10.34,0,0,1,1.15-3.88c.44,1.13,1.08,2.78,1.83,4.8s2.28,6.24,2.74,7.77c1.48,4.91,1.82,14.32-3,18.29-4.59,3.79-13.77,2.49-14,2.51a5.75,5.75,0,0,1-2,2.52,6.17,6.17,0,0,1-5,.68c-.34-2.12-3-19.32.23-20.34A18,18,0,0,1,503.6,84.86Z" transform="translate(166 183.05)"/><path class="cls-21" d="M503.6,86.11c2.13.14,3.19-.14,4.07,2.45a1.28,1.28,0,0,0,1.2.92,12.1,12.1,0,0,0,10-4.83c3.89-5.25-.58-10,1.88-15.45l-2.29-.3c2.61,6.69,6,13.74,5.44,21.09-.71,9.68-8.34,11.35-16.58,10.7a1.24,1.24,0,0,0-1.08.62q-1.19,2.91-5.22,2.74c.32.56.44.65.34.26a5.6,5.6,0,0,1-.24-1.68c-.12-2.17-.56-4.34-.74-6.51a51.25,51.25,0,0,1-.23-6.07c.13-3.13.1-4.1,3.5-3.94,1.61.07,1.6-2.43,0-2.5-5.2-.25-5.92,1.91-6,6.92a87.26,87.26,0,0,0,1.39,15,1.25,1.25,0,0,0,.87.87,7.56,7.56,0,0,0,6-.81c.72-.48,1.46-1.89,2.14-2.26-.63.34-.29.15.36,0,5-1.08,9.91.71,14.17-3.38,8.54-8.2,1.73-22.87-1.7-31.67-.34-.88-1.79-1.39-2.28-.3a11.47,11.47,0,0,0-1.07,7.45c.87,3.93.94,7.14-2.62,9.77-1.63,1.2-4,2.12-5.26,1.29-.51-.32-.83-1.41-1.43-1.85-1.3-.94-3-.89-4.56-1S502,86,503.6,86.11Z" transform="translate(166 183.05)"/><path class="cls-20" d="M507.27,101.94a6,6,0,0,0,.61-2.28,5.88,5.88,0,0,0,0-.84" transform="translate(166 183.05)"/><path class="cls-21" d="M507.05,101.84a6.3,6.3,0,0,0,.61-1.44,6.92,6.92,0,0,0,.22-1.58,6.27,6.27,0,0,1,0,1.62,6.44,6.44,0,0,1-.4,1.61Z" transform="translate(166 183.05)"/><path class="cls-20" d="M508.74,87.71a17.57,17.57,0,0,1,0,2.8,15.87,15.87,0,0,1-.23,1.68" transform="translate(166 183.05)"/><path class="cls-21" d="M509,87.69a17.17,17.17,0,0,1-.1,2.27c-.08.76-.27,1.49-.4,2.23.05-.75.16-1.49.15-2.24a16.34,16.34,0,0,0-.15-2.22Z" transform="translate(166 183.05)"/><path class="cls-20" d="M510.63,91.81a5.23,5.23,0,0,1,.3,1.6,5.5,5.5,0,0,1-.61,2.67" transform="translate(166 183.05)"/><path class="cls-12" d="M510.63,91.81a3.47,3.47,0,0,1,.54,2.18,3.57,3.57,0,0,1-.85,2.09,13.77,13.77,0,0,0,.35-2.12A13,13,0,0,0,510.63,91.81Z" transform="translate(166 183.05)"/><path class="cls-20" d="M512.31,91.81a8.69,8.69,0,0,1,.15,1.48,8.52,8.52,0,0,1-.31,2.48" transform="translate(166 183.05)"/><path class="cls-12" d="M512.31,91.81a5.28,5.28,0,0,1,.29,1,3.19,3.19,0,0,1,.1,1,3.86,3.86,0,0,1-.15,1,3.31,3.31,0,0,1-.4,1c0-.69,0-1.33.05-2,0-.32,0-.65,0-1A5.05,5.05,0,0,1,512.31,91.81Z" transform="translate(166 183.05)"/><path class="cls-20" d="M513.35,91.42a5,5,0,0,1-.23,3.61" transform="translate(166 183.05)"/><path class="cls-12" d="M513.35,91.42a2.91,2.91,0,0,1,.47,1.84,2.94,2.94,0,0,1-.7,1.77c.08-.64.17-1.21.2-1.8S513.35,92.07,513.35,91.42Z" transform="translate(166 183.05)"/><path class="cls-20" d="M514.78,90.76a4.77,4.77,0,0,1,.23,1.32,4.9,4.9,0,0,1-.46,2.21" transform="translate(166 183.05)"/><path class="cls-12" d="M514.78,90.76a2.8,2.8,0,0,1,.47,1.8,2.83,2.83,0,0,1-.7,1.73c.08-.63.17-1.19.2-1.76S514.78,91.39,514.78,90.76Z" transform="translate(166 183.05)"/><path class="cls-20" d="M516.36,90.76a5.7,5.7,0,0,1,.15,1.19,5.89,5.89,0,0,1-.3,2" transform="translate(166 183.05)"/><path class="cls-12" d="M516.36,90.76a3.47,3.47,0,0,1,.29.78,2.16,2.16,0,0,1,.1.84,2.68,2.68,0,0,1-.54,1.56c0-.57,0-1.07,0-1.59,0-.26,0-.51,0-.77A4,4,0,0,1,516.36,90.76Z" transform="translate(166 183.05)"/><circle class="cls-20" cx="645.69" cy="277.33" r="25.12"/><path class="cls-21" d="M503.55,94.29c-.35,13-10.6,23.86-23.86,23.86a23.87,23.87,0,1,1,0-47.73c13.26,0,23.51,10.86,23.86,23.87a1.25,1.25,0,0,0,2.5,0c-.29-10.83-6.62-20.63-16.86-24.6a26.59,26.59,0,0,0-29.87,7.86c-15.15,18.5,1.24,46.63,24.77,42.73,12.77-2.12,21.62-13.31,22-26A1.25,1.25,0,0,0,503.55,94.29Z" transform="translate(166 183.05)"/><circle class="cls-23" cx="635.36" cy="278.07" r="6.11"/><circle class="cls-23" cx="657.3" cy="278.07" r="6.11"/><path class="cls-23" d="M478.78,104.7l-1.21,1.71a1.42,1.42,0,0,0,1.12,2.24l2.49.07a1.41,1.41,0,0,0,1.19-2.24l-1.28-1.78A1.42,1.42,0,0,0,478.78,104.7Z" transform="translate(166 183.05)"/></svg>